%TF.GenerationSoftware,KiCad,Pcbnew,(6.0.0)*%
%TF.CreationDate,2022-05-28T20:15:04-06:00*%
%TF.ProjectId,PantryLights,50616e74-7279-44c6-9967-6874732e6b69,rev?*%
%TF.SameCoordinates,Original*%
%TF.FileFunction,Soldermask,Bot*%
%TF.FilePolarity,Negative*%
%FSLAX46Y46*%
G04 Gerber Fmt 4.6, Leading zero omitted, Abs format (unit mm)*
G04 Created by KiCad (PCBNEW (6.0.0)) date 2022-05-28 20:15:04*
%MOMM*%
%LPD*%
G01*
G04 APERTURE LIST*
%ADD10R,1.905000X2.000000*%
%ADD11O,1.905000X2.000000*%
%ADD12R,1.700000X1.700000*%
%ADD13O,1.700000X1.700000*%
%ADD14C,3.250000*%
%ADD15R,1.500000X1.500000*%
%ADD16C,1.500000*%
%ADD17C,2.300000*%
%ADD18R,2.600000X2.600000*%
%ADD19C,2.600000*%
%ADD20C,2.000000*%
%ADD21R,2.000000X1.905000*%
%ADD22O,2.000000X1.905000*%
%ADD23R,2.000000X4.600000*%
%ADD24O,2.000000X4.200000*%
%ADD25O,4.200000X2.000000*%
G04 APERTURE END LIST*
D10*
%TO.C,Q2*%
X128106000Y-104174000D03*
D11*
X130646000Y-104174000D03*
X133186000Y-104174000D03*
%TD*%
D12*
%TO.C,J5*%
X166206000Y-115487000D03*
D13*
X166206000Y-112947000D03*
X168746000Y-115487000D03*
X168746000Y-112947000D03*
X171286000Y-115487000D03*
X171286000Y-112947000D03*
%TD*%
D10*
%TO.C,Q1*%
X115406000Y-104174000D03*
D11*
X117946000Y-104174000D03*
X120486000Y-104174000D03*
%TD*%
D14*
%TO.C,J2*%
X176366000Y-94014000D03*
X176366000Y-106714000D03*
D15*
X173826000Y-96804000D03*
D16*
X172046000Y-97820000D03*
X173826000Y-98836000D03*
X172046000Y-99852000D03*
X173826000Y-100868000D03*
X172046000Y-101884000D03*
X173826000Y-102900000D03*
X172046000Y-103916000D03*
X167226000Y-93504000D03*
X167226000Y-95794000D03*
X167226000Y-104934000D03*
X167226000Y-107224000D03*
D17*
X172936000Y-92234000D03*
X172936000Y-108494000D03*
%TD*%
D18*
%TO.C,J3*%
X116676000Y-113064000D03*
D19*
X121756000Y-113064000D03*
X126836000Y-113064000D03*
X131916000Y-113064000D03*
%TD*%
D20*
%TO.C,SW4*%
X149406000Y-80604000D03*
X144906000Y-80604000D03*
X149406000Y-87104000D03*
X144906000Y-87104000D03*
%TD*%
%TO.C,SW2*%
X163956000Y-87104000D03*
X168456000Y-87104000D03*
X163956000Y-80604000D03*
X168456000Y-80604000D03*
%TD*%
%TO.C,SW3*%
X172846000Y-87104000D03*
X177346000Y-87104000D03*
X172846000Y-80604000D03*
X177346000Y-80604000D03*
%TD*%
D21*
%TO.C,U2*%
X129376000Y-86394000D03*
D22*
X129376000Y-88934000D03*
X129376000Y-91474000D03*
%TD*%
D18*
%TO.C,J4*%
X144616000Y-113064000D03*
D19*
X149696000Y-113064000D03*
X154776000Y-113064000D03*
X159856000Y-113064000D03*
%TD*%
D23*
%TO.C,J1*%
X123026000Y-88934000D03*
D24*
X116726000Y-88934000D03*
D25*
X120126000Y-93734000D03*
%TD*%
D20*
%TO.C,SW1*%
X155066000Y-87104000D03*
X159566000Y-87104000D03*
X155066000Y-80604000D03*
X159566000Y-80604000D03*
%TD*%
M02*
