%TF.GenerationSoftware,KiCad,Pcbnew,(6.0.0)*%
%TF.CreationDate,2022-05-28T20:15:04-06:00*%
%TF.ProjectId,PantryLights,50616e74-7279-44c6-9967-6874732e6b69,rev?*%
%TF.SameCoordinates,Original*%
%TF.FileFunction,Legend,Top*%
%TF.FilePolarity,Positive*%
%FSLAX46Y46*%
G04 Gerber Fmt 4.6, Leading zero omitted, Abs format (unit mm)*
G04 Created by KiCad (PCBNEW (6.0.0)) date 2022-05-28 20:15:04*
%MOMM*%
%LPD*%
G01*
G04 APERTURE LIST*
G04 Aperture macros list*
%AMRoundRect*
0 Rectangle with rounded corners*
0 $1 Rounding radius*
0 $2 $3 $4 $5 $6 $7 $8 $9 X,Y pos of 4 corners*
0 Add a 4 corners polygon primitive as box body*
4,1,4,$2,$3,$4,$5,$6,$7,$8,$9,$2,$3,0*
0 Add four circle primitives for the rounded corners*
1,1,$1+$1,$2,$3*
1,1,$1+$1,$4,$5*
1,1,$1+$1,$6,$7*
1,1,$1+$1,$8,$9*
0 Add four rect primitives between the rounded corners*
20,1,$1+$1,$2,$3,$4,$5,0*
20,1,$1+$1,$4,$5,$6,$7,0*
20,1,$1+$1,$6,$7,$8,$9,0*
20,1,$1+$1,$8,$9,$2,$3,0*%
G04 Aperture macros list end*
%ADD10C,0.152400*%
%ADD11C,0.127000*%
%ADD12C,0.571500*%
%ADD13C,0.100000*%
%ADD14C,0.150000*%
%ADD15C,0.170000*%
%ADD16C,0.250000*%
%ADD17C,0.120000*%
%ADD18RoundRect,0.237500X-0.287500X-0.237500X0.287500X-0.237500X0.287500X0.237500X-0.287500X0.237500X0*%
%ADD19RoundRect,0.237500X-0.237500X0.250000X-0.237500X-0.250000X0.237500X-0.250000X0.237500X0.250000X0*%
%ADD20C,1.500000*%
%ADD21RoundRect,0.250000X-0.650000X0.412500X-0.650000X-0.412500X0.650000X-0.412500X0.650000X0.412500X0*%
%ADD22R,1.905000X2.000000*%
%ADD23O,1.905000X2.000000*%
%ADD24RoundRect,0.237500X0.250000X0.237500X-0.250000X0.237500X-0.250000X-0.237500X0.250000X-0.237500X0*%
%ADD25R,1.700000X1.700000*%
%ADD26O,1.700000X1.700000*%
%ADD27RoundRect,0.237500X-0.300000X-0.237500X0.300000X-0.237500X0.300000X0.237500X-0.300000X0.237500X0*%
%ADD28RoundRect,0.237500X0.300000X0.237500X-0.300000X0.237500X-0.300000X-0.237500X0.300000X-0.237500X0*%
%ADD29C,3.250000*%
%ADD30R,1.500000X1.500000*%
%ADD31C,2.300000*%
%ADD32R,2.600000X2.600000*%
%ADD33C,2.600000*%
%ADD34RoundRect,0.237500X-0.250000X-0.237500X0.250000X-0.237500X0.250000X0.237500X-0.250000X0.237500X0*%
%ADD35C,2.000000*%
%ADD36R,2.000000X1.905000*%
%ADD37O,2.000000X1.905000*%
%ADD38R,1.800000X2.100000*%
%ADD39RoundRect,0.237500X-0.237500X0.300000X-0.237500X-0.300000X0.237500X-0.300000X0.237500X0.300000X0*%
%ADD40RoundRect,0.237500X0.237500X-0.300000X0.237500X0.300000X-0.237500X0.300000X-0.237500X-0.300000X0*%
%ADD41RoundRect,0.250000X-0.550000X1.500000X-0.550000X-1.500000X0.550000X-1.500000X0.550000X1.500000X0*%
%ADD42R,2.000000X4.600000*%
%ADD43O,2.000000X4.200000*%
%ADD44O,4.200000X2.000000*%
%ADD45RoundRect,0.237500X0.237500X-0.250000X0.237500X0.250000X-0.237500X0.250000X-0.237500X-0.250000X0*%
%ADD46R,1.600000X0.550000*%
%ADD47R,0.550000X1.600000*%
G04 APERTURE END LIST*
D10*
X179695104Y-95807047D02*
X179114533Y-95807047D01*
X178998419Y-95758666D01*
X178921009Y-95661904D01*
X178882304Y-95516761D01*
X178882304Y-95420000D01*
X178882304Y-96774666D02*
X178882304Y-96290857D01*
X179695104Y-96290857D01*
X178959714Y-97693904D02*
X178921009Y-97645523D01*
X178882304Y-97500380D01*
X178882304Y-97403619D01*
X178921009Y-97258476D01*
X178998419Y-97161714D01*
X179075828Y-97113333D01*
X179230647Y-97064952D01*
X179346761Y-97064952D01*
X179501580Y-97113333D01*
X179578990Y-97161714D01*
X179656400Y-97258476D01*
X179695104Y-97403619D01*
X179695104Y-97500380D01*
X179656400Y-97645523D01*
X179617695Y-97693904D01*
X179695104Y-98419619D02*
X179114533Y-98419619D01*
X178998419Y-98371238D01*
X178921009Y-98274476D01*
X178882304Y-98129333D01*
X178882304Y-98032571D01*
X178882304Y-99387238D02*
X178882304Y-98903428D01*
X179695104Y-98903428D01*
X178959714Y-100306476D02*
X178921009Y-100258095D01*
X178882304Y-100112952D01*
X178882304Y-100016190D01*
X178921009Y-99871047D01*
X178998419Y-99774285D01*
X179075828Y-99725904D01*
X179230647Y-99677523D01*
X179346761Y-99677523D01*
X179501580Y-99725904D01*
X179578990Y-99774285D01*
X179656400Y-99871047D01*
X179695104Y-100016190D01*
X179695104Y-100112952D01*
X179656400Y-100258095D01*
X179617695Y-100306476D01*
X179695104Y-101032190D02*
X179114533Y-101032190D01*
X178998419Y-100983809D01*
X178921009Y-100887047D01*
X178882304Y-100741904D01*
X178882304Y-100645142D01*
X178882304Y-101999809D02*
X178882304Y-101516000D01*
X179695104Y-101516000D01*
X178959714Y-102919047D02*
X178921009Y-102870666D01*
X178882304Y-102725523D01*
X178882304Y-102628761D01*
X178921009Y-102483619D01*
X178998419Y-102386857D01*
X179075828Y-102338476D01*
X179230647Y-102290095D01*
X179346761Y-102290095D01*
X179501580Y-102338476D01*
X179578990Y-102386857D01*
X179656400Y-102483619D01*
X179695104Y-102628761D01*
X179695104Y-102725523D01*
X179656400Y-102870666D01*
X179617695Y-102919047D01*
X179695104Y-103644761D02*
X179114533Y-103644761D01*
X178998419Y-103596380D01*
X178921009Y-103499619D01*
X178882304Y-103354476D01*
X178882304Y-103257714D01*
X178882304Y-104612380D02*
X178882304Y-104128571D01*
X179695104Y-104128571D01*
X178959714Y-105531619D02*
X178921009Y-105483238D01*
X178882304Y-105338095D01*
X178882304Y-105241333D01*
X178921009Y-105096190D01*
X178998419Y-104999428D01*
X179075828Y-104951047D01*
X179230647Y-104902666D01*
X179346761Y-104902666D01*
X179501580Y-104951047D01*
X179578990Y-104999428D01*
X179656400Y-105096190D01*
X179695104Y-105241333D01*
X179695104Y-105338095D01*
X179656400Y-105483238D01*
X179617695Y-105531619D01*
D11*
X172516000Y-110344000D02*
X175016000Y-110344000D01*
X175016000Y-110344000D02*
X176516000Y-111594000D01*
X176516000Y-111594000D02*
X178766000Y-111594000D01*
X178766000Y-111594000D02*
X178766000Y-115094000D01*
X178766000Y-115094000D02*
X176266000Y-117594000D01*
X176266000Y-117594000D02*
X163516000Y-117594000D01*
X163516000Y-117594000D02*
X162766000Y-116594000D01*
X162766000Y-116594000D02*
X162766000Y-111344000D01*
X162766000Y-111344000D02*
X163516000Y-110594000D01*
X163516000Y-110594000D02*
X164766000Y-109594000D01*
X164766000Y-109594000D02*
X171516000Y-109594000D01*
X171516000Y-109594000D02*
X172516000Y-110344000D01*
D12*
X146425750Y-92998000D02*
G75*
G03*
X146425750Y-92998000I-285750J0D01*
G01*
D13*
X142367020Y-92454285D02*
X142435473Y-92478095D01*
X142456306Y-92501904D01*
X142474163Y-92549523D01*
X142465235Y-92620952D01*
X142435473Y-92668571D01*
X142408687Y-92692380D01*
X142358092Y-92716190D01*
X142167616Y-92716190D01*
X142230116Y-92216190D01*
X142396782Y-92216190D01*
X142441425Y-92240000D01*
X142462258Y-92263809D01*
X142480116Y-92311428D01*
X142474163Y-92359047D01*
X142444401Y-92406666D01*
X142417616Y-92430476D01*
X142367020Y-92454285D01*
X142200354Y-92454285D01*
X142700354Y-92263809D02*
X142727139Y-92240000D01*
X142777735Y-92216190D01*
X142896782Y-92216190D01*
X142941425Y-92240000D01*
X142962258Y-92263809D01*
X142980116Y-92311428D01*
X142974163Y-92359047D01*
X142941425Y-92430476D01*
X142619997Y-92716190D01*
X142929520Y-92716190D01*
X147850854Y-89160190D02*
X147713949Y-88922095D01*
X147565139Y-89160190D02*
X147627639Y-88660190D01*
X147818116Y-88660190D01*
X147862758Y-88684000D01*
X147883592Y-88707809D01*
X147901449Y-88755428D01*
X147892520Y-88826857D01*
X147862758Y-88874476D01*
X147835973Y-88898285D01*
X147785377Y-88922095D01*
X147594901Y-88922095D01*
X148044306Y-89136380D02*
X148112758Y-89160190D01*
X148231806Y-89160190D01*
X148282401Y-89136380D01*
X148309187Y-89112571D01*
X148338949Y-89064952D01*
X148344901Y-89017333D01*
X148327044Y-88969714D01*
X148306211Y-88945904D01*
X148261568Y-88922095D01*
X148169306Y-88898285D01*
X148124663Y-88874476D01*
X148103830Y-88850666D01*
X148085973Y-88803047D01*
X148091925Y-88755428D01*
X148121687Y-88707809D01*
X148148473Y-88684000D01*
X148199068Y-88660190D01*
X148318116Y-88660190D01*
X148386568Y-88684000D01*
X148532401Y-88660190D02*
X148818116Y-88660190D01*
X148612758Y-89160190D02*
X148675258Y-88660190D01*
D14*
X142735422Y-109706380D02*
X142860422Y-108706380D01*
X143241375Y-108706380D01*
X143330660Y-108754000D01*
X143372327Y-108801619D01*
X143408041Y-108896857D01*
X143390184Y-109039714D01*
X143330660Y-109134952D01*
X143277089Y-109182571D01*
X143175898Y-109230190D01*
X142794946Y-109230190D01*
D13*
X153883425Y-92716190D02*
X153945925Y-92216190D01*
X154136401Y-92216190D01*
X154181044Y-92240000D01*
X154201877Y-92263809D01*
X154219735Y-92311428D01*
X154210806Y-92382857D01*
X154181044Y-92430476D01*
X154154258Y-92454285D01*
X154103663Y-92478095D01*
X153913187Y-92478095D01*
X154383425Y-92716190D02*
X154445925Y-92216190D01*
X154416163Y-92454285D02*
X154701877Y-92454285D01*
X154669139Y-92716190D02*
X154731639Y-92216190D01*
X155064973Y-92216190D02*
X155160211Y-92216190D01*
X155204854Y-92240000D01*
X155246520Y-92287619D01*
X155258425Y-92382857D01*
X155237592Y-92549523D01*
X155201877Y-92644761D01*
X155148306Y-92692380D01*
X155097711Y-92716190D01*
X155002473Y-92716190D01*
X154957830Y-92692380D01*
X154916163Y-92644761D01*
X154904258Y-92549523D01*
X154925092Y-92382857D01*
X154960806Y-92287619D01*
X155014377Y-92240000D01*
X155064973Y-92216190D01*
X155422116Y-92216190D02*
X155707830Y-92216190D01*
X155502473Y-92716190D02*
X155564973Y-92216190D01*
D14*
X112070898Y-109468380D02*
X112261375Y-109468380D01*
X112350660Y-109516000D01*
X112433994Y-109611238D01*
X112457803Y-109801714D01*
X112416136Y-110135047D01*
X112344708Y-110325523D01*
X112237565Y-110420761D01*
X112136375Y-110468380D01*
X111945898Y-110468380D01*
X111856613Y-110420761D01*
X111773279Y-110325523D01*
X111749470Y-110135047D01*
X111791136Y-109801714D01*
X111862565Y-109611238D01*
X111969708Y-109516000D01*
X112070898Y-109468380D01*
X113326851Y-110468380D02*
X112755422Y-110468380D01*
X113041136Y-110468380D02*
X113166136Y-109468380D01*
X113053041Y-109611238D01*
X112945898Y-109706476D01*
X112844708Y-109754095D01*
X130233994Y-81512380D02*
X130358994Y-80512380D01*
X130739946Y-80512380D01*
X130829232Y-80560000D01*
X130870898Y-80607619D01*
X130906613Y-80702857D01*
X130888755Y-80845714D01*
X130829232Y-80940952D01*
X130775660Y-80988571D01*
X130674470Y-81036190D01*
X130293517Y-81036190D01*
X131263755Y-80512380D02*
X131376851Y-81512380D01*
X131656613Y-80798095D01*
X131757803Y-81512380D01*
X132120898Y-80512380D01*
X132948279Y-81512380D02*
X132674470Y-81036190D01*
X132376851Y-81512380D02*
X132501851Y-80512380D01*
X132882803Y-80512380D01*
X132972089Y-80560000D01*
X133013755Y-80607619D01*
X133049470Y-80702857D01*
X133031613Y-80845714D01*
X132972089Y-80940952D01*
X132918517Y-80988571D01*
X132817327Y-81036190D01*
X132436375Y-81036190D01*
X137308462Y-92058256D02*
X137498938Y-92058256D01*
X137588224Y-92105876D01*
X137671557Y-92201114D01*
X137695367Y-92391590D01*
X137653700Y-92724923D01*
X137582271Y-92915399D01*
X137475129Y-93010637D01*
X137373938Y-93058256D01*
X137183462Y-93058256D01*
X137094176Y-93010637D01*
X137010843Y-92915399D01*
X136987033Y-92724923D01*
X137028700Y-92391590D01*
X137100129Y-92201114D01*
X137207271Y-92105876D01*
X137308462Y-92058256D01*
X138165605Y-92058256D02*
X138064414Y-92867780D01*
X138100129Y-92963018D01*
X138141795Y-93010637D01*
X138231081Y-93058256D01*
X138421557Y-93058256D01*
X138522748Y-93010637D01*
X138576319Y-92963018D01*
X138635843Y-92867780D01*
X138737033Y-92058256D01*
X139070367Y-92058256D02*
X139641795Y-92058256D01*
X139231081Y-93058256D02*
X139356081Y-92058256D01*
D13*
X139575997Y-91001714D02*
X139956949Y-91001714D01*
X152310782Y-99042380D02*
X152379235Y-99066190D01*
X152498282Y-99066190D01*
X152548877Y-99042380D01*
X152575663Y-99018571D01*
X152605425Y-98970952D01*
X152611377Y-98923333D01*
X152593520Y-98875714D01*
X152572687Y-98851904D01*
X152528044Y-98828095D01*
X152435782Y-98804285D01*
X152391139Y-98780476D01*
X152370306Y-98756666D01*
X152352449Y-98709047D01*
X152358401Y-98661428D01*
X152388163Y-98613809D01*
X152414949Y-98590000D01*
X152465544Y-98566190D01*
X152584592Y-98566190D01*
X152653044Y-98590000D01*
X153099473Y-99018571D02*
X153072687Y-99042380D01*
X152998282Y-99066190D01*
X152950663Y-99066190D01*
X152882211Y-99042380D01*
X152840544Y-98994761D01*
X152822687Y-98947142D01*
X152810782Y-98851904D01*
X152819711Y-98780476D01*
X152855425Y-98685238D01*
X152885187Y-98637619D01*
X152938758Y-98590000D01*
X153013163Y-98566190D01*
X153060782Y-98566190D01*
X153129235Y-98590000D01*
X153150068Y-98613809D01*
X153307806Y-99066190D02*
X153370306Y-98566190D01*
X153593520Y-99066190D02*
X153414949Y-98780476D01*
X153656020Y-98566190D02*
X153334592Y-98851904D01*
X153831806Y-93478190D02*
X153894306Y-92978190D01*
X154013354Y-92978190D01*
X154081806Y-93002000D01*
X154123473Y-93049619D01*
X154141330Y-93097238D01*
X154153235Y-93192476D01*
X154144306Y-93263904D01*
X154108592Y-93359142D01*
X154078830Y-93406761D01*
X154025258Y-93454380D01*
X153950854Y-93478190D01*
X153831806Y-93478190D01*
X154489544Y-92978190D02*
X154584782Y-92978190D01*
X154629425Y-93002000D01*
X154671092Y-93049619D01*
X154682997Y-93144857D01*
X154662163Y-93311523D01*
X154626449Y-93406761D01*
X154572877Y-93454380D01*
X154522282Y-93478190D01*
X154427044Y-93478190D01*
X154382401Y-93454380D01*
X154340735Y-93406761D01*
X154328830Y-93311523D01*
X154349663Y-93144857D01*
X154385377Y-93049619D01*
X154438949Y-93002000D01*
X154489544Y-92978190D01*
X155141330Y-93478190D02*
X155004425Y-93240095D01*
X154855616Y-93478190D02*
X154918116Y-92978190D01*
X155108592Y-92978190D01*
X155153235Y-93002000D01*
X155174068Y-93025809D01*
X155191925Y-93073428D01*
X155182997Y-93144857D01*
X155153235Y-93192476D01*
X155126449Y-93216285D01*
X155075854Y-93240095D01*
X154885377Y-93240095D01*
X147279330Y-101098190D02*
X147041235Y-101098190D01*
X147103735Y-100598190D01*
X147460877Y-100598190D02*
X147770401Y-100598190D01*
X147579925Y-100788666D01*
X147651354Y-100788666D01*
X147695997Y-100812476D01*
X147716830Y-100836285D01*
X147734687Y-100883904D01*
X147719806Y-101002952D01*
X147690044Y-101050571D01*
X147663258Y-101074380D01*
X147612663Y-101098190D01*
X147469806Y-101098190D01*
X147425163Y-101074380D01*
X147404330Y-101050571D01*
X149728092Y-101352190D02*
X149790592Y-100852190D01*
X149912616Y-101209333D01*
X150123925Y-100852190D01*
X150061425Y-101352190D01*
X150457258Y-100852190D02*
X150552497Y-100852190D01*
X150597139Y-100876000D01*
X150638806Y-100923619D01*
X150650711Y-101018857D01*
X150629877Y-101185523D01*
X150594163Y-101280761D01*
X150540592Y-101328380D01*
X150489997Y-101352190D01*
X150394758Y-101352190D01*
X150350116Y-101328380D01*
X150308449Y-101280761D01*
X150296544Y-101185523D01*
X150317377Y-101018857D01*
X150353092Y-100923619D01*
X150406663Y-100876000D01*
X150457258Y-100852190D01*
D14*
X173141565Y-116748761D02*
X173278470Y-116796380D01*
X173516565Y-116796380D01*
X173617755Y-116748761D01*
X173671327Y-116701142D01*
X173730851Y-116605904D01*
X173742755Y-116510666D01*
X173707041Y-116415428D01*
X173665375Y-116367809D01*
X173576089Y-116320190D01*
X173391565Y-116272571D01*
X173302279Y-116224952D01*
X173260613Y-116177333D01*
X173224898Y-116082095D01*
X173236803Y-115986857D01*
X173296327Y-115891619D01*
X173349898Y-115844000D01*
X173451089Y-115796380D01*
X173689184Y-115796380D01*
X173826089Y-115844000D01*
X174718946Y-116701142D02*
X174665375Y-116748761D01*
X174516565Y-116796380D01*
X174421327Y-116796380D01*
X174284422Y-116748761D01*
X174201089Y-116653523D01*
X174165375Y-116558285D01*
X174141565Y-116367809D01*
X174159422Y-116224952D01*
X174230851Y-116034476D01*
X174290375Y-115939238D01*
X174397517Y-115844000D01*
X174546327Y-115796380D01*
X174641565Y-115796380D01*
X174778470Y-115844000D01*
X174820136Y-115891619D01*
D13*
X151140949Y-101352190D02*
X151203449Y-100852190D01*
X151325473Y-101209333D01*
X151536782Y-100852190D01*
X151474282Y-101352190D01*
X151712377Y-101352190D02*
X151774877Y-100852190D01*
D14*
X175623708Y-115546380D02*
X175349898Y-115070190D01*
X175052279Y-115546380D02*
X175177279Y-114546380D01*
X175558232Y-114546380D01*
X175647517Y-114594000D01*
X175689184Y-114641619D01*
X175724898Y-114736857D01*
X175707041Y-114879714D01*
X175647517Y-114974952D01*
X175593946Y-115022571D01*
X175492755Y-115070190D01*
X175111803Y-115070190D01*
X176010613Y-115498761D02*
X176147517Y-115546380D01*
X176385613Y-115546380D01*
X176486803Y-115498761D01*
X176540375Y-115451142D01*
X176599898Y-115355904D01*
X176611803Y-115260666D01*
X176576089Y-115165428D01*
X176534422Y-115117809D01*
X176445136Y-115070190D01*
X176260613Y-115022571D01*
X176171327Y-114974952D01*
X176129660Y-114927333D01*
X176093946Y-114832095D01*
X176105851Y-114736857D01*
X176165375Y-114641619D01*
X176218946Y-114594000D01*
X176320136Y-114546380D01*
X176558232Y-114546380D01*
X176695136Y-114594000D01*
X176986803Y-114546380D02*
X177558232Y-114546380D01*
X177147517Y-115546380D02*
X177272517Y-114546380D01*
X132644898Y-108452380D02*
X132835375Y-108452380D01*
X132924660Y-108500000D01*
X133007994Y-108595238D01*
X133031803Y-108785714D01*
X132990136Y-109119047D01*
X132918708Y-109309523D01*
X132811565Y-109404761D01*
X132710375Y-109452380D01*
X132519898Y-109452380D01*
X132430613Y-109404761D01*
X132347279Y-109309523D01*
X132323470Y-109119047D01*
X132365136Y-108785714D01*
X132436565Y-108595238D01*
X132543708Y-108500000D01*
X132644898Y-108452380D01*
X133442517Y-108547619D02*
X133496089Y-108500000D01*
X133597279Y-108452380D01*
X133835375Y-108452380D01*
X133924660Y-108500000D01*
X133966327Y-108547619D01*
X134002041Y-108642857D01*
X133990136Y-108738095D01*
X133924660Y-108880952D01*
X133281803Y-109452380D01*
X133900851Y-109452380D01*
D15*
X114587433Y-96885476D02*
X115301718Y-96885476D01*
X114788325Y-98135476D02*
X114944575Y-96885476D01*
X115562135Y-98135476D02*
X115718385Y-96885476D01*
X115643980Y-97480714D02*
X116358266Y-97480714D01*
X116276421Y-98135476D02*
X116432671Y-96885476D01*
X116953504Y-97480714D02*
X117370171Y-97480714D01*
X117466897Y-98135476D02*
X116871659Y-98135476D01*
X117027909Y-96885476D01*
X117623147Y-96885476D01*
X117690111Y-98254523D02*
X118642492Y-98254523D01*
X119036837Y-97480714D02*
X119453504Y-97480714D01*
X119550230Y-98135476D02*
X118954992Y-98135476D01*
X119111242Y-96885476D01*
X119706480Y-96885476D01*
X120800230Y-98135476D02*
X120457968Y-97540238D01*
X120085944Y-98135476D02*
X120242194Y-96885476D01*
X120718385Y-96885476D01*
X120829992Y-96945000D01*
X120882075Y-97004523D01*
X120926718Y-97123571D01*
X120904397Y-97302142D01*
X120829992Y-97421190D01*
X120763028Y-97480714D01*
X120636540Y-97540238D01*
X120160349Y-97540238D01*
X122065111Y-98016428D02*
X121998147Y-98075952D01*
X121812135Y-98135476D01*
X121693087Y-98135476D01*
X121521956Y-98075952D01*
X121417790Y-97956904D01*
X121373147Y-97837857D01*
X121343385Y-97599761D01*
X121365706Y-97421190D01*
X121454992Y-97183095D01*
X121529397Y-97064047D01*
X121663325Y-96945000D01*
X121849337Y-96885476D01*
X121968385Y-96885476D01*
X122139516Y-96945000D01*
X122191599Y-97004523D01*
X122742194Y-96885476D02*
X122615706Y-97897380D01*
X122660349Y-98016428D01*
X122712433Y-98075952D01*
X122824040Y-98135476D01*
X123062135Y-98135476D01*
X123188623Y-98075952D01*
X123255587Y-98016428D01*
X123329992Y-97897380D01*
X123456480Y-96885476D01*
X124490706Y-98135476D02*
X123895468Y-98135476D01*
X124051718Y-96885476D01*
X124989218Y-97480714D02*
X125405885Y-97480714D01*
X125502611Y-98135476D02*
X124907373Y-98135476D01*
X125063623Y-96885476D01*
X125658861Y-96885476D01*
X125986242Y-98075952D02*
X126157373Y-98135476D01*
X126454992Y-98135476D01*
X126581480Y-98075952D01*
X126648444Y-98016428D01*
X126722849Y-97897380D01*
X126737730Y-97778333D01*
X126693087Y-97659285D01*
X126641004Y-97599761D01*
X126529397Y-97540238D01*
X126298742Y-97480714D01*
X126187135Y-97421190D01*
X126135052Y-97361666D01*
X126090409Y-97242619D01*
X126105290Y-97123571D01*
X126179694Y-97004523D01*
X126246659Y-96945000D01*
X126373147Y-96885476D01*
X126670766Y-96885476D01*
X126841897Y-96945000D01*
D13*
X146517330Y-101098190D02*
X146279235Y-101098190D01*
X146341735Y-100598190D01*
X146716735Y-100645809D02*
X146743520Y-100622000D01*
X146794116Y-100598190D01*
X146913163Y-100598190D01*
X146957806Y-100622000D01*
X146978639Y-100645809D01*
X146996497Y-100693428D01*
X146990544Y-100741047D01*
X146957806Y-100812476D01*
X146636377Y-101098190D01*
X146945901Y-101098190D01*
X147044211Y-89168190D02*
X147329925Y-89168190D01*
X147124568Y-89668190D02*
X147187068Y-89168190D01*
X147448973Y-89168190D02*
X147719806Y-89668190D01*
X147782306Y-89168190D02*
X147386473Y-89668190D01*
X145755330Y-101098190D02*
X145517235Y-101098190D01*
X145579735Y-100598190D01*
X146183901Y-101098190D02*
X145898187Y-101098190D01*
X146041044Y-101098190D02*
X146103544Y-100598190D01*
X146046997Y-100669619D01*
X145993425Y-100717238D01*
X145942830Y-100741047D01*
X146263330Y-89668190D02*
X146126425Y-89430095D01*
X145977616Y-89668190D02*
X146040116Y-89168190D01*
X146230592Y-89168190D01*
X146275235Y-89192000D01*
X146296068Y-89215809D01*
X146313925Y-89263428D01*
X146304997Y-89334857D01*
X146275235Y-89382476D01*
X146248449Y-89406285D01*
X146197854Y-89430095D01*
X146007377Y-89430095D01*
X146492497Y-89168190D02*
X146763330Y-89668190D01*
X146825830Y-89168190D02*
X146429997Y-89668190D01*
D16*
X173920761Y-113659476D02*
X173920761Y-112409476D01*
X175230285Y-113540428D02*
X175170761Y-113599952D01*
X174992190Y-113659476D01*
X174873142Y-113659476D01*
X174694571Y-113599952D01*
X174575523Y-113480904D01*
X174516000Y-113361857D01*
X174456476Y-113123761D01*
X174456476Y-112945190D01*
X174516000Y-112707095D01*
X174575523Y-112588047D01*
X174694571Y-112469000D01*
X174873142Y-112409476D01*
X174992190Y-112409476D01*
X175170761Y-112469000D01*
X175230285Y-112528523D01*
X175706476Y-113599952D02*
X175885047Y-113659476D01*
X176182666Y-113659476D01*
X176301714Y-113599952D01*
X176361238Y-113540428D01*
X176420761Y-113421380D01*
X176420761Y-113302333D01*
X176361238Y-113183285D01*
X176301714Y-113123761D01*
X176182666Y-113064238D01*
X175944571Y-113004714D01*
X175825523Y-112945190D01*
X175766000Y-112885666D01*
X175706476Y-112766619D01*
X175706476Y-112647571D01*
X175766000Y-112528523D01*
X175825523Y-112469000D01*
X175944571Y-112409476D01*
X176242190Y-112409476D01*
X176420761Y-112469000D01*
X176956476Y-113659476D02*
X176956476Y-112409476D01*
X177432666Y-112409476D01*
X177551714Y-112469000D01*
X177611238Y-112528523D01*
X177670761Y-112647571D01*
X177670761Y-112826142D01*
X177611238Y-112945190D01*
X177551714Y-113004714D01*
X177432666Y-113064238D01*
X176956476Y-113064238D01*
D14*
X176504660Y-91296380D02*
X176230851Y-90820190D01*
X175933232Y-91296380D02*
X176058232Y-90296380D01*
X176439184Y-90296380D01*
X176528470Y-90344000D01*
X176570136Y-90391619D01*
X176605851Y-90486857D01*
X176587994Y-90629714D01*
X176528470Y-90724952D01*
X176474898Y-90772571D01*
X176373708Y-90820190D01*
X175992755Y-90820190D01*
X176962994Y-90296380D02*
X177504660Y-91296380D01*
X177629660Y-90296380D02*
X176837994Y-91296380D01*
X171572279Y-110024000D02*
X171482994Y-109976380D01*
X171340136Y-109976380D01*
X171191327Y-110024000D01*
X171084184Y-110119238D01*
X171024660Y-110214476D01*
X170953232Y-110404952D01*
X170935375Y-110547809D01*
X170959184Y-110738285D01*
X170994898Y-110833523D01*
X171078232Y-110928761D01*
X171215136Y-110976380D01*
X171310375Y-110976380D01*
X171459184Y-110928761D01*
X171512755Y-110881142D01*
X171554422Y-110547809D01*
X171363946Y-110547809D01*
X162999898Y-116056380D02*
X163124898Y-115056380D01*
X163368946Y-115770666D01*
X163791565Y-115056380D01*
X163666565Y-116056380D01*
X164142755Y-116056380D02*
X164267755Y-115056380D01*
X164365232Y-110595428D02*
X165127136Y-110595428D01*
X164698565Y-110976380D02*
X164793803Y-110214476D01*
X166156898Y-109976380D02*
X165680708Y-109976380D01*
X165573565Y-110452571D01*
X165627136Y-110404952D01*
X165728327Y-110357333D01*
X165966422Y-110357333D01*
X166055708Y-110404952D01*
X166097375Y-110452571D01*
X166133089Y-110547809D01*
X166103327Y-110785904D01*
X166043803Y-110881142D01*
X165990232Y-110928761D01*
X165889041Y-110976380D01*
X165650946Y-110976380D01*
X165561660Y-110928761D01*
X165519994Y-110881142D01*
X166490232Y-109976380D02*
X166698565Y-110976380D01*
X167156898Y-109976380D01*
X124011041Y-91545428D02*
X124772946Y-91545428D01*
X124344375Y-91926380D02*
X124439613Y-91164476D01*
X125725327Y-91926380D02*
X125153898Y-91926380D01*
X125439613Y-91926380D02*
X125564613Y-90926380D01*
X125451517Y-91069238D01*
X125344375Y-91164476D01*
X125243184Y-91212095D01*
X126219375Y-91021619D02*
X126272946Y-90974000D01*
X126374136Y-90926380D01*
X126612232Y-90926380D01*
X126701517Y-90974000D01*
X126743184Y-91021619D01*
X126778898Y-91116857D01*
X126766994Y-91212095D01*
X126701517Y-91354952D01*
X126058660Y-91926380D01*
X126677708Y-91926380D01*
X127088422Y-90926380D02*
X127296755Y-91926380D01*
X127755089Y-90926380D01*
D13*
X145161020Y-89406285D02*
X145229473Y-89430095D01*
X145250306Y-89453904D01*
X145268163Y-89501523D01*
X145259235Y-89572952D01*
X145229473Y-89620571D01*
X145202687Y-89644380D01*
X145152092Y-89668190D01*
X144961616Y-89668190D01*
X145024116Y-89168190D01*
X145190782Y-89168190D01*
X145235425Y-89192000D01*
X145256258Y-89215809D01*
X145274116Y-89263428D01*
X145268163Y-89311047D01*
X145238401Y-89358666D01*
X145211616Y-89382476D01*
X145161020Y-89406285D01*
X144994354Y-89406285D01*
X145723520Y-89668190D02*
X145437806Y-89668190D01*
X145580663Y-89668190D02*
X145643163Y-89168190D01*
X145586616Y-89239619D01*
X145533044Y-89287238D01*
X145482449Y-89311047D01*
D14*
X158483422Y-109960380D02*
X158608422Y-108960380D01*
X158846517Y-108960380D01*
X158983422Y-109008000D01*
X159066755Y-109103238D01*
X159102470Y-109198476D01*
X159126279Y-109388952D01*
X159108422Y-109531809D01*
X159036994Y-109722285D01*
X158977470Y-109817523D01*
X158870327Y-109912761D01*
X158721517Y-109960380D01*
X158483422Y-109960380D01*
X176034422Y-109296380D02*
X176605851Y-109296380D01*
X176195136Y-110296380D02*
X176320136Y-109296380D01*
X176843946Y-109296380D02*
X177385613Y-110296380D01*
X177510613Y-109296380D02*
X176718946Y-110296380D01*
D13*
X142367020Y-93216285D02*
X142435473Y-93240095D01*
X142456306Y-93263904D01*
X142474163Y-93311523D01*
X142465235Y-93382952D01*
X142435473Y-93430571D01*
X142408687Y-93454380D01*
X142358092Y-93478190D01*
X142167616Y-93478190D01*
X142230116Y-92978190D01*
X142396782Y-92978190D01*
X142441425Y-93002000D01*
X142462258Y-93025809D01*
X142480116Y-93073428D01*
X142474163Y-93121047D01*
X142444401Y-93168666D01*
X142417616Y-93192476D01*
X142367020Y-93216285D01*
X142200354Y-93216285D01*
X142682497Y-92978190D02*
X142992020Y-92978190D01*
X142801544Y-93168666D01*
X142872973Y-93168666D01*
X142917616Y-93192476D01*
X142938449Y-93216285D01*
X142956306Y-93263904D01*
X142941425Y-93382952D01*
X142911663Y-93430571D01*
X142884877Y-93454380D01*
X142834282Y-93478190D01*
X142691425Y-93478190D01*
X142646782Y-93454380D01*
X142625949Y-93430571D01*
D14*
X167794184Y-110976380D02*
X167919184Y-109976380D01*
X168163232Y-110690666D01*
X168585851Y-109976380D01*
X168460851Y-110976380D01*
X169252517Y-109976380D02*
X169442994Y-109976380D01*
X169532279Y-110024000D01*
X169615613Y-110119238D01*
X169639422Y-110309714D01*
X169597755Y-110643047D01*
X169526327Y-110833523D01*
X169419184Y-110928761D01*
X169317994Y-110976380D01*
X169127517Y-110976380D01*
X169038232Y-110928761D01*
X168954898Y-110833523D01*
X168931089Y-110643047D01*
X168972755Y-110309714D01*
X169044184Y-110119238D01*
X169151327Y-110024000D01*
X169252517Y-109976380D01*
%TO.C,D4*%
X147687904Y-105642380D02*
X147687904Y-104642380D01*
X147926000Y-104642380D01*
X148068857Y-104690000D01*
X148164095Y-104785238D01*
X148211714Y-104880476D01*
X148259333Y-105070952D01*
X148259333Y-105213809D01*
X148211714Y-105404285D01*
X148164095Y-105499523D01*
X148068857Y-105594761D01*
X147926000Y-105642380D01*
X147687904Y-105642380D01*
X149116476Y-104975714D02*
X149116476Y-105642380D01*
X148878380Y-104594761D02*
X148640285Y-105309047D01*
X149259333Y-105309047D01*
%TO.C,R7*%
X133019333Y-97514380D02*
X132686000Y-97038190D01*
X132447904Y-97514380D02*
X132447904Y-96514380D01*
X132828857Y-96514380D01*
X132924095Y-96562000D01*
X132971714Y-96609619D01*
X133019333Y-96704857D01*
X133019333Y-96847714D01*
X132971714Y-96942952D01*
X132924095Y-96990571D01*
X132828857Y-97038190D01*
X132447904Y-97038190D01*
X133352666Y-96514380D02*
X134019333Y-96514380D01*
X133590761Y-97514380D01*
%TO.C,TP3*%
X132940095Y-93466380D02*
X133511523Y-93466380D01*
X133225809Y-94466380D02*
X133225809Y-93466380D01*
X133844857Y-94466380D02*
X133844857Y-93466380D01*
X134225809Y-93466380D01*
X134321047Y-93514000D01*
X134368666Y-93561619D01*
X134416285Y-93656857D01*
X134416285Y-93799714D01*
X134368666Y-93894952D01*
X134321047Y-93942571D01*
X134225809Y-93990190D01*
X133844857Y-93990190D01*
X134749619Y-93466380D02*
X135368666Y-93466380D01*
X135035333Y-93847333D01*
X135178190Y-93847333D01*
X135273428Y-93894952D01*
X135321047Y-93942571D01*
X135368666Y-94037809D01*
X135368666Y-94275904D01*
X135321047Y-94371142D01*
X135273428Y-94418761D01*
X135178190Y-94466380D01*
X134892476Y-94466380D01*
X134797238Y-94418761D01*
X134749619Y-94371142D01*
%TO.C,R1*%
X164192973Y-97680984D02*
X163859640Y-97204794D01*
X163621544Y-97680984D02*
X163621544Y-96680984D01*
X164002497Y-96680984D01*
X164097735Y-96728604D01*
X164145354Y-96776223D01*
X164192973Y-96871461D01*
X164192973Y-97014318D01*
X164145354Y-97109556D01*
X164097735Y-97157175D01*
X164002497Y-97204794D01*
X163621544Y-97204794D01*
X165145354Y-97680984D02*
X164573925Y-97680984D01*
X164859640Y-97680984D02*
X164859640Y-96680984D01*
X164764401Y-96823842D01*
X164669163Y-96919080D01*
X164573925Y-96966699D01*
%TO.C,C11*%
X125685142Y-100213142D02*
X125637523Y-100260761D01*
X125494666Y-100308380D01*
X125399428Y-100308380D01*
X125256571Y-100260761D01*
X125161333Y-100165523D01*
X125113714Y-100070285D01*
X125066095Y-99879809D01*
X125066095Y-99736952D01*
X125113714Y-99546476D01*
X125161333Y-99451238D01*
X125256571Y-99356000D01*
X125399428Y-99308380D01*
X125494666Y-99308380D01*
X125637523Y-99356000D01*
X125685142Y-99403619D01*
X126637523Y-100308380D02*
X126066095Y-100308380D01*
X126351809Y-100308380D02*
X126351809Y-99308380D01*
X126256571Y-99451238D01*
X126161333Y-99546476D01*
X126066095Y-99594095D01*
X127589904Y-100308380D02*
X127018476Y-100308380D01*
X127304190Y-100308380D02*
X127304190Y-99308380D01*
X127208952Y-99451238D01*
X127113714Y-99546476D01*
X127018476Y-99594095D01*
%TO.C,TP7*%
X134972095Y-109978380D02*
X135543523Y-109978380D01*
X135257809Y-110978380D02*
X135257809Y-109978380D01*
X135876857Y-110978380D02*
X135876857Y-109978380D01*
X136257809Y-109978380D01*
X136353047Y-110026000D01*
X136400666Y-110073619D01*
X136448285Y-110168857D01*
X136448285Y-110311714D01*
X136400666Y-110406952D01*
X136353047Y-110454571D01*
X136257809Y-110502190D01*
X135876857Y-110502190D01*
X136781619Y-109978380D02*
X137448285Y-109978380D01*
X137019714Y-110978380D01*
%TO.C,Q2*%
X130550761Y-107261619D02*
X130455523Y-107214000D01*
X130360285Y-107118761D01*
X130217428Y-106975904D01*
X130122190Y-106928285D01*
X130026952Y-106928285D01*
X130074571Y-107166380D02*
X129979333Y-107118761D01*
X129884095Y-107023523D01*
X129836476Y-106833047D01*
X129836476Y-106499714D01*
X129884095Y-106309238D01*
X129979333Y-106214000D01*
X130074571Y-106166380D01*
X130265047Y-106166380D01*
X130360285Y-106214000D01*
X130455523Y-106309238D01*
X130503142Y-106499714D01*
X130503142Y-106833047D01*
X130455523Y-107023523D01*
X130360285Y-107118761D01*
X130265047Y-107166380D01*
X130074571Y-107166380D01*
X130884095Y-106261619D02*
X130931714Y-106214000D01*
X131026952Y-106166380D01*
X131265047Y-106166380D01*
X131360285Y-106214000D01*
X131407904Y-106261619D01*
X131455523Y-106356857D01*
X131455523Y-106452095D01*
X131407904Y-106594952D01*
X130836476Y-107166380D01*
X131455523Y-107166380D01*
%TO.C,R3*%
X125907333Y-81390503D02*
X125574000Y-80914313D01*
X125335904Y-81390503D02*
X125335904Y-80390503D01*
X125716857Y-80390503D01*
X125812095Y-80438123D01*
X125859714Y-80485742D01*
X125907333Y-80580980D01*
X125907333Y-80723837D01*
X125859714Y-80819075D01*
X125812095Y-80866694D01*
X125716857Y-80914313D01*
X125335904Y-80914313D01*
X126240666Y-80390503D02*
X126859714Y-80390503D01*
X126526380Y-80771456D01*
X126669238Y-80771456D01*
X126764476Y-80819075D01*
X126812095Y-80866694D01*
X126859714Y-80961932D01*
X126859714Y-81200027D01*
X126812095Y-81295265D01*
X126764476Y-81342884D01*
X126669238Y-81390503D01*
X126383523Y-81390503D01*
X126288285Y-81342884D01*
X126240666Y-81295265D01*
%TO.C,J5*%
X173682666Y-110546380D02*
X173682666Y-111260666D01*
X173635047Y-111403523D01*
X173539809Y-111498761D01*
X173396952Y-111546380D01*
X173301714Y-111546380D01*
X174635047Y-110546380D02*
X174158857Y-110546380D01*
X174111238Y-111022571D01*
X174158857Y-110974952D01*
X174254095Y-110927333D01*
X174492190Y-110927333D01*
X174587428Y-110974952D01*
X174635047Y-111022571D01*
X174682666Y-111117809D01*
X174682666Y-111355904D01*
X174635047Y-111451142D01*
X174587428Y-111498761D01*
X174492190Y-111546380D01*
X174254095Y-111546380D01*
X174158857Y-111498761D01*
X174111238Y-111451142D01*
%TO.C,C4*%
X136575333Y-97673142D02*
X136527714Y-97720761D01*
X136384857Y-97768380D01*
X136289619Y-97768380D01*
X136146761Y-97720761D01*
X136051523Y-97625523D01*
X136003904Y-97530285D01*
X135956285Y-97339809D01*
X135956285Y-97196952D01*
X136003904Y-97006476D01*
X136051523Y-96911238D01*
X136146761Y-96816000D01*
X136289619Y-96768380D01*
X136384857Y-96768380D01*
X136527714Y-96816000D01*
X136575333Y-96863619D01*
X137432476Y-97101714D02*
X137432476Y-97768380D01*
X137194380Y-96720761D02*
X136956285Y-97435047D01*
X137575333Y-97435047D01*
%TO.C,C8*%
X160959333Y-95719604D02*
X160911714Y-95767223D01*
X160768857Y-95814842D01*
X160673619Y-95814842D01*
X160530761Y-95767223D01*
X160435523Y-95671985D01*
X160387904Y-95576747D01*
X160340285Y-95386271D01*
X160340285Y-95243414D01*
X160387904Y-95052938D01*
X160435523Y-94957700D01*
X160530761Y-94862462D01*
X160673619Y-94814842D01*
X160768857Y-94814842D01*
X160911714Y-94862462D01*
X160959333Y-94910081D01*
X161530761Y-95243414D02*
X161435523Y-95195795D01*
X161387904Y-95148176D01*
X161340285Y-95052938D01*
X161340285Y-95005319D01*
X161387904Y-94910081D01*
X161435523Y-94862462D01*
X161530761Y-94814842D01*
X161721238Y-94814842D01*
X161816476Y-94862462D01*
X161864095Y-94910081D01*
X161911714Y-95005319D01*
X161911714Y-95052938D01*
X161864095Y-95148176D01*
X161816476Y-95195795D01*
X161721238Y-95243414D01*
X161530761Y-95243414D01*
X161435523Y-95291033D01*
X161387904Y-95338652D01*
X161340285Y-95433890D01*
X161340285Y-95624366D01*
X161387904Y-95719604D01*
X161435523Y-95767223D01*
X161530761Y-95814842D01*
X161721238Y-95814842D01*
X161816476Y-95767223D01*
X161864095Y-95719604D01*
X161911714Y-95624366D01*
X161911714Y-95433890D01*
X161864095Y-95338652D01*
X161816476Y-95291033D01*
X161721238Y-95243414D01*
%TO.C,Q1*%
X117850761Y-107261619D02*
X117755523Y-107214000D01*
X117660285Y-107118761D01*
X117517428Y-106975904D01*
X117422190Y-106928285D01*
X117326952Y-106928285D01*
X117374571Y-107166380D02*
X117279333Y-107118761D01*
X117184095Y-107023523D01*
X117136476Y-106833047D01*
X117136476Y-106499714D01*
X117184095Y-106309238D01*
X117279333Y-106214000D01*
X117374571Y-106166380D01*
X117565047Y-106166380D01*
X117660285Y-106214000D01*
X117755523Y-106309238D01*
X117803142Y-106499714D01*
X117803142Y-106833047D01*
X117755523Y-107023523D01*
X117660285Y-107118761D01*
X117565047Y-107166380D01*
X117374571Y-107166380D01*
X118755523Y-107166380D02*
X118184095Y-107166380D01*
X118469809Y-107166380D02*
X118469809Y-106166380D01*
X118374571Y-106309238D01*
X118279333Y-106404476D01*
X118184095Y-106452095D01*
%TO.C,TP5*%
X161134095Y-108706380D02*
X161705523Y-108706380D01*
X161419809Y-109706380D02*
X161419809Y-108706380D01*
X162038857Y-109706380D02*
X162038857Y-108706380D01*
X162419809Y-108706380D01*
X162515047Y-108754000D01*
X162562666Y-108801619D01*
X162610285Y-108896857D01*
X162610285Y-109039714D01*
X162562666Y-109134952D01*
X162515047Y-109182571D01*
X162419809Y-109230190D01*
X162038857Y-109230190D01*
X163515047Y-108706380D02*
X163038857Y-108706380D01*
X162991238Y-109182571D01*
X163038857Y-109134952D01*
X163134095Y-109087333D01*
X163372190Y-109087333D01*
X163467428Y-109134952D01*
X163515047Y-109182571D01*
X163562666Y-109277809D01*
X163562666Y-109515904D01*
X163515047Y-109611142D01*
X163467428Y-109658761D01*
X163372190Y-109706380D01*
X163134095Y-109706380D01*
X163038857Y-109658761D01*
X162991238Y-109611142D01*
%TO.C,D2*%
X160387904Y-105642380D02*
X160387904Y-104642380D01*
X160626000Y-104642380D01*
X160768857Y-104690000D01*
X160864095Y-104785238D01*
X160911714Y-104880476D01*
X160959333Y-105070952D01*
X160959333Y-105213809D01*
X160911714Y-105404285D01*
X160864095Y-105499523D01*
X160768857Y-105594761D01*
X160626000Y-105642380D01*
X160387904Y-105642380D01*
X161340285Y-104737619D02*
X161387904Y-104690000D01*
X161483142Y-104642380D01*
X161721238Y-104642380D01*
X161816476Y-104690000D01*
X161864095Y-104737619D01*
X161911714Y-104832857D01*
X161911714Y-104928095D01*
X161864095Y-105070952D01*
X161292666Y-105642380D01*
X161911714Y-105642380D01*
%TO.C,J2*%
X169432666Y-90296380D02*
X169432666Y-91010666D01*
X169385047Y-91153523D01*
X169289809Y-91248761D01*
X169146952Y-91296380D01*
X169051714Y-91296380D01*
X169861238Y-90391619D02*
X169908857Y-90344000D01*
X170004095Y-90296380D01*
X170242190Y-90296380D01*
X170337428Y-90344000D01*
X170385047Y-90391619D01*
X170432666Y-90486857D01*
X170432666Y-90582095D01*
X170385047Y-90724952D01*
X169813619Y-91296380D01*
X170432666Y-91296380D01*
%TO.C,J3*%
X123962666Y-108796380D02*
X123962666Y-109510666D01*
X123915047Y-109653523D01*
X123819809Y-109748761D01*
X123676952Y-109796380D01*
X123581714Y-109796380D01*
X124343619Y-108796380D02*
X124962666Y-108796380D01*
X124629333Y-109177333D01*
X124772190Y-109177333D01*
X124867428Y-109224952D01*
X124915047Y-109272571D01*
X124962666Y-109367809D01*
X124962666Y-109605904D01*
X124915047Y-109701142D01*
X124867428Y-109748761D01*
X124772190Y-109796380D01*
X124486476Y-109796380D01*
X124391238Y-109748761D01*
X124343619Y-109701142D01*
%TO.C,R6*%
X149529333Y-107166380D02*
X149196000Y-106690190D01*
X148957904Y-107166380D02*
X148957904Y-106166380D01*
X149338857Y-106166380D01*
X149434095Y-106214000D01*
X149481714Y-106261619D01*
X149529333Y-106356857D01*
X149529333Y-106499714D01*
X149481714Y-106594952D01*
X149434095Y-106642571D01*
X149338857Y-106690190D01*
X148957904Y-106690190D01*
X150386476Y-106166380D02*
X150196000Y-106166380D01*
X150100761Y-106214000D01*
X150053142Y-106261619D01*
X149957904Y-106404476D01*
X149910285Y-106594952D01*
X149910285Y-106975904D01*
X149957904Y-107071142D01*
X150005523Y-107118761D01*
X150100761Y-107166380D01*
X150291238Y-107166380D01*
X150386476Y-107118761D01*
X150434095Y-107071142D01*
X150481714Y-106975904D01*
X150481714Y-106737809D01*
X150434095Y-106642571D01*
X150386476Y-106594952D01*
X150291238Y-106547333D01*
X150100761Y-106547333D01*
X150005523Y-106594952D01*
X149957904Y-106642571D01*
X149910285Y-106737809D01*
%TO.C,R5*%
X155625333Y-107166380D02*
X155292000Y-106690190D01*
X155053904Y-107166380D02*
X155053904Y-106166380D01*
X155434857Y-106166380D01*
X155530095Y-106214000D01*
X155577714Y-106261619D01*
X155625333Y-106356857D01*
X155625333Y-106499714D01*
X155577714Y-106594952D01*
X155530095Y-106642571D01*
X155434857Y-106690190D01*
X155053904Y-106690190D01*
X156530095Y-106166380D02*
X156053904Y-106166380D01*
X156006285Y-106642571D01*
X156053904Y-106594952D01*
X156149142Y-106547333D01*
X156387238Y-106547333D01*
X156482476Y-106594952D01*
X156530095Y-106642571D01*
X156577714Y-106737809D01*
X156577714Y-106975904D01*
X156530095Y-107071142D01*
X156482476Y-107118761D01*
X156387238Y-107166380D01*
X156149142Y-107166380D01*
X156053904Y-107118761D01*
X156006285Y-107071142D01*
%TO.C,SW4*%
X143242761Y-85177333D02*
X143290380Y-85034476D01*
X143290380Y-84796380D01*
X143242761Y-84701142D01*
X143195142Y-84653523D01*
X143099904Y-84605904D01*
X143004666Y-84605904D01*
X142909428Y-84653523D01*
X142861809Y-84701142D01*
X142814190Y-84796380D01*
X142766571Y-84986857D01*
X142718952Y-85082095D01*
X142671333Y-85129714D01*
X142576095Y-85177333D01*
X142480857Y-85177333D01*
X142385619Y-85129714D01*
X142338000Y-85082095D01*
X142290380Y-84986857D01*
X142290380Y-84748761D01*
X142338000Y-84605904D01*
X142290380Y-84272571D02*
X143290380Y-84034476D01*
X142576095Y-83844000D01*
X143290380Y-83653523D01*
X142290380Y-83415428D01*
X142623714Y-82605904D02*
X143290380Y-82605904D01*
X142242761Y-82844000D02*
X142957047Y-83082095D01*
X142957047Y-82463047D01*
%TO.C,SW2*%
X162360761Y-85187333D02*
X162408380Y-85044476D01*
X162408380Y-84806380D01*
X162360761Y-84711142D01*
X162313142Y-84663523D01*
X162217904Y-84615904D01*
X162122666Y-84615904D01*
X162027428Y-84663523D01*
X161979809Y-84711142D01*
X161932190Y-84806380D01*
X161884571Y-84996857D01*
X161836952Y-85092095D01*
X161789333Y-85139714D01*
X161694095Y-85187333D01*
X161598857Y-85187333D01*
X161503619Y-85139714D01*
X161456000Y-85092095D01*
X161408380Y-84996857D01*
X161408380Y-84758761D01*
X161456000Y-84615904D01*
X161408380Y-84282571D02*
X162408380Y-84044476D01*
X161694095Y-83854000D01*
X162408380Y-83663523D01*
X161408380Y-83425428D01*
X161503619Y-83092095D02*
X161456000Y-83044476D01*
X161408380Y-82949238D01*
X161408380Y-82711142D01*
X161456000Y-82615904D01*
X161503619Y-82568285D01*
X161598857Y-82520666D01*
X161694095Y-82520666D01*
X161836952Y-82568285D01*
X162408380Y-83139714D01*
X162408380Y-82520666D01*
%TO.C,SW3*%
X171250761Y-85187333D02*
X171298380Y-85044476D01*
X171298380Y-84806380D01*
X171250761Y-84711142D01*
X171203142Y-84663523D01*
X171107904Y-84615904D01*
X171012666Y-84615904D01*
X170917428Y-84663523D01*
X170869809Y-84711142D01*
X170822190Y-84806380D01*
X170774571Y-84996857D01*
X170726952Y-85092095D01*
X170679333Y-85139714D01*
X170584095Y-85187333D01*
X170488857Y-85187333D01*
X170393619Y-85139714D01*
X170346000Y-85092095D01*
X170298380Y-84996857D01*
X170298380Y-84758761D01*
X170346000Y-84615904D01*
X170298380Y-84282571D02*
X171298380Y-84044476D01*
X170584095Y-83854000D01*
X171298380Y-83663523D01*
X170298380Y-83425428D01*
X170298380Y-83139714D02*
X170298380Y-82520666D01*
X170679333Y-82854000D01*
X170679333Y-82711142D01*
X170726952Y-82615904D01*
X170774571Y-82568285D01*
X170869809Y-82520666D01*
X171107904Y-82520666D01*
X171203142Y-82568285D01*
X171250761Y-82615904D01*
X171298380Y-82711142D01*
X171298380Y-82996857D01*
X171250761Y-83092095D01*
X171203142Y-83139714D01*
%TO.C,U2*%
X126074095Y-84576380D02*
X126074095Y-85385904D01*
X126121714Y-85481142D01*
X126169333Y-85528761D01*
X126264571Y-85576380D01*
X126455047Y-85576380D01*
X126550285Y-85528761D01*
X126597904Y-85481142D01*
X126645523Y-85385904D01*
X126645523Y-84576380D01*
X127074095Y-84671619D02*
X127121714Y-84624000D01*
X127216952Y-84576380D01*
X127455047Y-84576380D01*
X127550285Y-84624000D01*
X127597904Y-84671619D01*
X127645523Y-84766857D01*
X127645523Y-84862095D01*
X127597904Y-85004952D01*
X127026476Y-85576380D01*
X127645523Y-85576380D01*
%TO.C,C6*%
X140893333Y-92593142D02*
X140845714Y-92640761D01*
X140702857Y-92688380D01*
X140607619Y-92688380D01*
X140464761Y-92640761D01*
X140369523Y-92545523D01*
X140321904Y-92450285D01*
X140274285Y-92259809D01*
X140274285Y-92116952D01*
X140321904Y-91926476D01*
X140369523Y-91831238D01*
X140464761Y-91736000D01*
X140607619Y-91688380D01*
X140702857Y-91688380D01*
X140845714Y-91736000D01*
X140893333Y-91783619D01*
X141750476Y-91688380D02*
X141560000Y-91688380D01*
X141464761Y-91736000D01*
X141417142Y-91783619D01*
X141321904Y-91926476D01*
X141274285Y-92116952D01*
X141274285Y-92497904D01*
X141321904Y-92593142D01*
X141369523Y-92640761D01*
X141464761Y-92688380D01*
X141655238Y-92688380D01*
X141750476Y-92640761D01*
X141798095Y-92593142D01*
X141845714Y-92497904D01*
X141845714Y-92259809D01*
X141798095Y-92164571D01*
X141750476Y-92116952D01*
X141655238Y-92069333D01*
X141464761Y-92069333D01*
X141369523Y-92116952D01*
X141321904Y-92164571D01*
X141274285Y-92259809D01*
%TO.C,R11*%
X133051142Y-100562380D02*
X132717809Y-100086190D01*
X132479714Y-100562380D02*
X132479714Y-99562380D01*
X132860666Y-99562380D01*
X132955904Y-99610000D01*
X133003523Y-99657619D01*
X133051142Y-99752857D01*
X133051142Y-99895714D01*
X133003523Y-99990952D01*
X132955904Y-100038571D01*
X132860666Y-100086190D01*
X132479714Y-100086190D01*
X134003523Y-100562380D02*
X133432095Y-100562380D01*
X133717809Y-100562380D02*
X133717809Y-99562380D01*
X133622571Y-99705238D01*
X133527333Y-99800476D01*
X133432095Y-99848095D01*
X134955904Y-100562380D02*
X134384476Y-100562380D01*
X134670190Y-100562380D02*
X134670190Y-99562380D01*
X134574952Y-99705238D01*
X134479714Y-99800476D01*
X134384476Y-99848095D01*
%TO.C,Y1*%
X139821809Y-105420190D02*
X139821809Y-105896380D01*
X139488476Y-104896380D02*
X139821809Y-105420190D01*
X140155142Y-104896380D01*
X141012285Y-105896380D02*
X140440857Y-105896380D01*
X140726571Y-105896380D02*
X140726571Y-104896380D01*
X140631333Y-105039238D01*
X140536095Y-105134476D01*
X140440857Y-105182095D01*
%TO.C,R8*%
X148259333Y-104372380D02*
X147926000Y-103896190D01*
X147687904Y-104372380D02*
X147687904Y-103372380D01*
X148068857Y-103372380D01*
X148164095Y-103420000D01*
X148211714Y-103467619D01*
X148259333Y-103562857D01*
X148259333Y-103705714D01*
X148211714Y-103800952D01*
X148164095Y-103848571D01*
X148068857Y-103896190D01*
X147687904Y-103896190D01*
X148830761Y-103800952D02*
X148735523Y-103753333D01*
X148687904Y-103705714D01*
X148640285Y-103610476D01*
X148640285Y-103562857D01*
X148687904Y-103467619D01*
X148735523Y-103420000D01*
X148830761Y-103372380D01*
X149021238Y-103372380D01*
X149116476Y-103420000D01*
X149164095Y-103467619D01*
X149211714Y-103562857D01*
X149211714Y-103610476D01*
X149164095Y-103705714D01*
X149116476Y-103753333D01*
X149021238Y-103800952D01*
X148830761Y-103800952D01*
X148735523Y-103848571D01*
X148687904Y-103896190D01*
X148640285Y-103991428D01*
X148640285Y-104181904D01*
X148687904Y-104277142D01*
X148735523Y-104324761D01*
X148830761Y-104372380D01*
X149021238Y-104372380D01*
X149116476Y-104324761D01*
X149164095Y-104277142D01*
X149211714Y-104181904D01*
X149211714Y-103991428D01*
X149164095Y-103896190D01*
X149116476Y-103848571D01*
X149021238Y-103800952D01*
%TO.C,D3*%
X154037904Y-105388380D02*
X154037904Y-104388380D01*
X154276000Y-104388380D01*
X154418857Y-104436000D01*
X154514095Y-104531238D01*
X154561714Y-104626476D01*
X154609333Y-104816952D01*
X154609333Y-104959809D01*
X154561714Y-105150285D01*
X154514095Y-105245523D01*
X154418857Y-105340761D01*
X154276000Y-105388380D01*
X154037904Y-105388380D01*
X154942666Y-104388380D02*
X155561714Y-104388380D01*
X155228380Y-104769333D01*
X155371238Y-104769333D01*
X155466476Y-104816952D01*
X155514095Y-104864571D01*
X155561714Y-104959809D01*
X155561714Y-105197904D01*
X155514095Y-105293142D01*
X155466476Y-105340761D01*
X155371238Y-105388380D01*
X155085523Y-105388380D01*
X154990285Y-105340761D01*
X154942666Y-105293142D01*
%TO.C,R10*%
X160991142Y-103864380D02*
X160657809Y-103388190D01*
X160419714Y-103864380D02*
X160419714Y-102864380D01*
X160800666Y-102864380D01*
X160895904Y-102912000D01*
X160943523Y-102959619D01*
X160991142Y-103054857D01*
X160991142Y-103197714D01*
X160943523Y-103292952D01*
X160895904Y-103340571D01*
X160800666Y-103388190D01*
X160419714Y-103388190D01*
X161943523Y-103864380D02*
X161372095Y-103864380D01*
X161657809Y-103864380D02*
X161657809Y-102864380D01*
X161562571Y-103007238D01*
X161467333Y-103102476D01*
X161372095Y-103150095D01*
X162562571Y-102864380D02*
X162657809Y-102864380D01*
X162753047Y-102912000D01*
X162800666Y-102959619D01*
X162848285Y-103054857D01*
X162895904Y-103245333D01*
X162895904Y-103483428D01*
X162848285Y-103673904D01*
X162800666Y-103769142D01*
X162753047Y-103816761D01*
X162657809Y-103864380D01*
X162562571Y-103864380D01*
X162467333Y-103816761D01*
X162419714Y-103769142D01*
X162372095Y-103673904D01*
X162324476Y-103483428D01*
X162324476Y-103245333D01*
X162372095Y-103054857D01*
X162419714Y-102959619D01*
X162467333Y-102912000D01*
X162562571Y-102864380D01*
%TO.C,R13*%
X159876218Y-93744343D02*
X159542885Y-93268153D01*
X159304790Y-93744343D02*
X159304790Y-92744343D01*
X159685742Y-92744343D01*
X159780980Y-92791963D01*
X159828599Y-92839582D01*
X159876218Y-92934820D01*
X159876218Y-93077677D01*
X159828599Y-93172915D01*
X159780980Y-93220534D01*
X159685742Y-93268153D01*
X159304790Y-93268153D01*
X160828599Y-93744343D02*
X160257171Y-93744343D01*
X160542885Y-93744343D02*
X160542885Y-92744343D01*
X160447647Y-92887201D01*
X160352409Y-92982439D01*
X160257171Y-93030058D01*
X161161933Y-92744343D02*
X161780980Y-92744343D01*
X161447647Y-93125296D01*
X161590504Y-93125296D01*
X161685742Y-93172915D01*
X161733361Y-93220534D01*
X161780980Y-93315772D01*
X161780980Y-93553867D01*
X161733361Y-93649105D01*
X161685742Y-93696724D01*
X161590504Y-93744343D01*
X161304790Y-93744343D01*
X161209552Y-93696724D01*
X161161933Y-93649105D01*
%TO.C,TP4*%
X145640095Y-106486380D02*
X146211523Y-106486380D01*
X145925809Y-107486380D02*
X145925809Y-106486380D01*
X146544857Y-107486380D02*
X146544857Y-106486380D01*
X146925809Y-106486380D01*
X147021047Y-106534000D01*
X147068666Y-106581619D01*
X147116285Y-106676857D01*
X147116285Y-106819714D01*
X147068666Y-106914952D01*
X147021047Y-106962571D01*
X146925809Y-107010190D01*
X146544857Y-107010190D01*
X147973428Y-106819714D02*
X147973428Y-107486380D01*
X147735333Y-106438761D02*
X147497238Y-107153047D01*
X148116285Y-107153047D01*
%TO.C,TP6*%
X114446131Y-107438380D02*
X115017559Y-107438380D01*
X114731845Y-108438380D02*
X114731845Y-107438380D01*
X115350893Y-108438380D02*
X115350893Y-107438380D01*
X115731845Y-107438380D01*
X115827083Y-107486000D01*
X115874702Y-107533619D01*
X115922321Y-107628857D01*
X115922321Y-107771714D01*
X115874702Y-107866952D01*
X115827083Y-107914571D01*
X115731845Y-107962190D01*
X115350893Y-107962190D01*
X116779464Y-107438380D02*
X116588988Y-107438380D01*
X116493750Y-107486000D01*
X116446131Y-107533619D01*
X116350893Y-107676476D01*
X116303274Y-107866952D01*
X116303274Y-108247904D01*
X116350893Y-108343142D01*
X116398512Y-108390761D01*
X116493750Y-108438380D01*
X116684226Y-108438380D01*
X116779464Y-108390761D01*
X116827083Y-108343142D01*
X116874702Y-108247904D01*
X116874702Y-108009809D01*
X116827083Y-107914571D01*
X116779464Y-107866952D01*
X116684226Y-107819333D01*
X116493750Y-107819333D01*
X116398512Y-107866952D01*
X116350893Y-107914571D01*
X116303274Y-108009809D01*
%TO.C,C2*%
X133578133Y-84160342D02*
X133530514Y-84207961D01*
X133387657Y-84255580D01*
X133292419Y-84255580D01*
X133149561Y-84207961D01*
X133054323Y-84112723D01*
X133006704Y-84017485D01*
X132959085Y-83827009D01*
X132959085Y-83684152D01*
X133006704Y-83493676D01*
X133054323Y-83398438D01*
X133149561Y-83303200D01*
X133292419Y-83255580D01*
X133387657Y-83255580D01*
X133530514Y-83303200D01*
X133578133Y-83350819D01*
X133959085Y-83350819D02*
X134006704Y-83303200D01*
X134101942Y-83255580D01*
X134340038Y-83255580D01*
X134435276Y-83303200D01*
X134482895Y-83350819D01*
X134530514Y-83446057D01*
X134530514Y-83541295D01*
X134482895Y-83684152D01*
X133911466Y-84255580D01*
X134530514Y-84255580D01*
%TO.C,J4*%
X151902666Y-108796380D02*
X151902666Y-109510666D01*
X151855047Y-109653523D01*
X151759809Y-109748761D01*
X151616952Y-109796380D01*
X151521714Y-109796380D01*
X152807428Y-109129714D02*
X152807428Y-109796380D01*
X152569333Y-108748761D02*
X152331238Y-109463047D01*
X152950285Y-109463047D01*
%TO.C,C3*%
X135305333Y-92339142D02*
X135257714Y-92386761D01*
X135114857Y-92434380D01*
X135019619Y-92434380D01*
X134876761Y-92386761D01*
X134781523Y-92291523D01*
X134733904Y-92196285D01*
X134686285Y-92005809D01*
X134686285Y-91862952D01*
X134733904Y-91672476D01*
X134781523Y-91577238D01*
X134876761Y-91482000D01*
X135019619Y-91434380D01*
X135114857Y-91434380D01*
X135257714Y-91482000D01*
X135305333Y-91529619D01*
X135638666Y-91434380D02*
X136257714Y-91434380D01*
X135924380Y-91815333D01*
X136067238Y-91815333D01*
X136162476Y-91862952D01*
X136210095Y-91910571D01*
X136257714Y-92005809D01*
X136257714Y-92243904D01*
X136210095Y-92339142D01*
X136162476Y-92386761D01*
X136067238Y-92434380D01*
X135781523Y-92434380D01*
X135686285Y-92386761D01*
X135638666Y-92339142D01*
%TO.C,C5*%
X143874643Y-102468275D02*
X143827024Y-102515894D01*
X143684167Y-102563513D01*
X143588929Y-102563513D01*
X143446071Y-102515894D01*
X143350833Y-102420656D01*
X143303214Y-102325418D01*
X143255595Y-102134942D01*
X143255595Y-101992085D01*
X143303214Y-101801609D01*
X143350833Y-101706371D01*
X143446071Y-101611133D01*
X143588929Y-101563513D01*
X143684167Y-101563513D01*
X143827024Y-101611133D01*
X143874643Y-101658752D01*
X144779405Y-101563513D02*
X144303214Y-101563513D01*
X144255595Y-102039704D01*
X144303214Y-101992085D01*
X144398452Y-101944466D01*
X144636548Y-101944466D01*
X144731786Y-101992085D01*
X144779405Y-102039704D01*
X144827024Y-102134942D01*
X144827024Y-102373037D01*
X144779405Y-102468275D01*
X144731786Y-102515894D01*
X144636548Y-102563513D01*
X144398452Y-102563513D01*
X144303214Y-102515894D01*
X144255595Y-102468275D01*
%TO.C,C1*%
X138759733Y-81925142D02*
X138712114Y-81972761D01*
X138569257Y-82020380D01*
X138474019Y-82020380D01*
X138331161Y-81972761D01*
X138235923Y-81877523D01*
X138188304Y-81782285D01*
X138140685Y-81591809D01*
X138140685Y-81448952D01*
X138188304Y-81258476D01*
X138235923Y-81163238D01*
X138331161Y-81068000D01*
X138474019Y-81020380D01*
X138569257Y-81020380D01*
X138712114Y-81068000D01*
X138759733Y-81115619D01*
X139712114Y-82020380D02*
X139140685Y-82020380D01*
X139426400Y-82020380D02*
X139426400Y-81020380D01*
X139331161Y-81163238D01*
X139235923Y-81258476D01*
X139140685Y-81306095D01*
%TO.C,D1*%
X127621904Y-81433081D02*
X127621904Y-80433081D01*
X127860000Y-80433081D01*
X128002857Y-80480701D01*
X128098095Y-80575939D01*
X128145714Y-80671177D01*
X128193333Y-80861653D01*
X128193333Y-81004510D01*
X128145714Y-81194986D01*
X128098095Y-81290224D01*
X128002857Y-81385462D01*
X127860000Y-81433081D01*
X127621904Y-81433081D01*
X129145714Y-81433081D02*
X128574285Y-81433081D01*
X128860000Y-81433081D02*
X128860000Y-80433081D01*
X128764761Y-80575939D01*
X128669523Y-80671177D01*
X128574285Y-80718796D01*
%TO.C,C9*%
X160959333Y-97969324D02*
X160911714Y-98016943D01*
X160768857Y-98064562D01*
X160673619Y-98064562D01*
X160530761Y-98016943D01*
X160435523Y-97921705D01*
X160387904Y-97826467D01*
X160340285Y-97635991D01*
X160340285Y-97493134D01*
X160387904Y-97302658D01*
X160435523Y-97207420D01*
X160530761Y-97112182D01*
X160673619Y-97064562D01*
X160768857Y-97064562D01*
X160911714Y-97112182D01*
X160959333Y-97159801D01*
X161435523Y-98064562D02*
X161626000Y-98064562D01*
X161721238Y-98016943D01*
X161768857Y-97969324D01*
X161864095Y-97826467D01*
X161911714Y-97635991D01*
X161911714Y-97255039D01*
X161864095Y-97159801D01*
X161816476Y-97112182D01*
X161721238Y-97064562D01*
X161530761Y-97064562D01*
X161435523Y-97112182D01*
X161387904Y-97159801D01*
X161340285Y-97255039D01*
X161340285Y-97493134D01*
X161387904Y-97588372D01*
X161435523Y-97635991D01*
X161530761Y-97683610D01*
X161721238Y-97683610D01*
X161816476Y-97635991D01*
X161864095Y-97588372D01*
X161911714Y-97493134D01*
%TO.C,R9*%
X154609333Y-103864380D02*
X154276000Y-103388190D01*
X154037904Y-103864380D02*
X154037904Y-102864380D01*
X154418857Y-102864380D01*
X154514095Y-102912000D01*
X154561714Y-102959619D01*
X154609333Y-103054857D01*
X154609333Y-103197714D01*
X154561714Y-103292952D01*
X154514095Y-103340571D01*
X154418857Y-103388190D01*
X154037904Y-103388190D01*
X155085523Y-103864380D02*
X155276000Y-103864380D01*
X155371238Y-103816761D01*
X155418857Y-103769142D01*
X155514095Y-103626285D01*
X155561714Y-103435809D01*
X155561714Y-103054857D01*
X155514095Y-102959619D01*
X155466476Y-102912000D01*
X155371238Y-102864380D01*
X155180761Y-102864380D01*
X155085523Y-102912000D01*
X155037904Y-102959619D01*
X154990285Y-103054857D01*
X154990285Y-103292952D01*
X155037904Y-103388190D01*
X155085523Y-103435809D01*
X155180761Y-103483428D01*
X155371238Y-103483428D01*
X155466476Y-103435809D01*
X155514095Y-103388190D01*
X155561714Y-103292952D01*
%TO.C,J1*%
X123200666Y-93974380D02*
X123200666Y-94688666D01*
X123153047Y-94831523D01*
X123057809Y-94926761D01*
X122914952Y-94974380D01*
X122819714Y-94974380D01*
X124200666Y-94974380D02*
X123629238Y-94974380D01*
X123914952Y-94974380D02*
X123914952Y-93974380D01*
X123819714Y-94117238D01*
X123724476Y-94212476D01*
X123629238Y-94260095D01*
%TO.C,R4*%
X159860176Y-100272106D02*
X159526843Y-99795916D01*
X159288747Y-100272106D02*
X159288747Y-99272106D01*
X159669700Y-99272106D01*
X159764938Y-99319726D01*
X159812557Y-99367345D01*
X159860176Y-99462583D01*
X159860176Y-99605440D01*
X159812557Y-99700678D01*
X159764938Y-99748297D01*
X159669700Y-99795916D01*
X159288747Y-99795916D01*
X160717319Y-99605440D02*
X160717319Y-100272106D01*
X160479223Y-99224487D02*
X160241128Y-99938773D01*
X160860176Y-99938773D01*
%TO.C,C7*%
X136575333Y-96403142D02*
X136527714Y-96450761D01*
X136384857Y-96498380D01*
X136289619Y-96498380D01*
X136146761Y-96450761D01*
X136051523Y-96355523D01*
X136003904Y-96260285D01*
X135956285Y-96069809D01*
X135956285Y-95926952D01*
X136003904Y-95736476D01*
X136051523Y-95641238D01*
X136146761Y-95546000D01*
X136289619Y-95498380D01*
X136384857Y-95498380D01*
X136527714Y-95546000D01*
X136575333Y-95593619D01*
X136908666Y-95498380D02*
X137575333Y-95498380D01*
X137146761Y-96498380D01*
%TO.C,R2*%
X164365295Y-104626380D02*
X164031962Y-104150190D01*
X163793866Y-104626380D02*
X163793866Y-103626380D01*
X164174819Y-103626380D01*
X164270057Y-103674000D01*
X164317676Y-103721619D01*
X164365295Y-103816857D01*
X164365295Y-103959714D01*
X164317676Y-104054952D01*
X164270057Y-104102571D01*
X164174819Y-104150190D01*
X163793866Y-104150190D01*
X164746247Y-103721619D02*
X164793866Y-103674000D01*
X164889104Y-103626380D01*
X165127200Y-103626380D01*
X165222438Y-103674000D01*
X165270057Y-103721619D01*
X165317676Y-103816857D01*
X165317676Y-103912095D01*
X165270057Y-104054952D01*
X164698628Y-104626380D01*
X165317676Y-104626380D01*
%TO.C,SW1*%
X153470761Y-85187333D02*
X153518380Y-85044476D01*
X153518380Y-84806380D01*
X153470761Y-84711142D01*
X153423142Y-84663523D01*
X153327904Y-84615904D01*
X153232666Y-84615904D01*
X153137428Y-84663523D01*
X153089809Y-84711142D01*
X153042190Y-84806380D01*
X152994571Y-84996857D01*
X152946952Y-85092095D01*
X152899333Y-85139714D01*
X152804095Y-85187333D01*
X152708857Y-85187333D01*
X152613619Y-85139714D01*
X152566000Y-85092095D01*
X152518380Y-84996857D01*
X152518380Y-84758761D01*
X152566000Y-84615904D01*
X152518380Y-84282571D02*
X153518380Y-84044476D01*
X152804095Y-83854000D01*
X153518380Y-83663523D01*
X152518380Y-83425428D01*
X153518380Y-82520666D02*
X153518380Y-83092095D01*
X153518380Y-82806380D02*
X152518380Y-82806380D01*
X152661238Y-82901619D01*
X152756476Y-82996857D01*
X152804095Y-83092095D01*
%TO.C,D5*%
X129907904Y-95736380D02*
X129907904Y-94736380D01*
X130146000Y-94736380D01*
X130288857Y-94784000D01*
X130384095Y-94879238D01*
X130431714Y-94974476D01*
X130479333Y-95164952D01*
X130479333Y-95307809D01*
X130431714Y-95498285D01*
X130384095Y-95593523D01*
X130288857Y-95688761D01*
X130146000Y-95736380D01*
X129907904Y-95736380D01*
X131384095Y-94736380D02*
X130907904Y-94736380D01*
X130860285Y-95212571D01*
X130907904Y-95164952D01*
X131003142Y-95117333D01*
X131241238Y-95117333D01*
X131336476Y-95164952D01*
X131384095Y-95212571D01*
X131431714Y-95307809D01*
X131431714Y-95545904D01*
X131384095Y-95641142D01*
X131336476Y-95688761D01*
X131241238Y-95736380D01*
X131003142Y-95736380D01*
X130907904Y-95688761D01*
X130860285Y-95641142D01*
%TO.C,R14*%
X143335055Y-101255219D02*
X143001722Y-100779029D01*
X142763627Y-101255219D02*
X142763627Y-100255219D01*
X143144579Y-100255219D01*
X143239817Y-100302839D01*
X143287436Y-100350458D01*
X143335055Y-100445696D01*
X143335055Y-100588553D01*
X143287436Y-100683791D01*
X143239817Y-100731410D01*
X143144579Y-100779029D01*
X142763627Y-100779029D01*
X144287436Y-101255219D02*
X143716008Y-101255219D01*
X144001722Y-101255219D02*
X144001722Y-100255219D01*
X143906484Y-100398077D01*
X143811246Y-100493315D01*
X143716008Y-100540934D01*
X145144579Y-100588553D02*
X145144579Y-101255219D01*
X144906484Y-100207600D02*
X144668389Y-100921886D01*
X145287436Y-100921886D01*
%TO.C,R12*%
X159769775Y-91764497D02*
X159436442Y-91288307D01*
X159198347Y-91764497D02*
X159198347Y-90764497D01*
X159579299Y-90764497D01*
X159674537Y-90812117D01*
X159722156Y-90859736D01*
X159769775Y-90954974D01*
X159769775Y-91097831D01*
X159722156Y-91193069D01*
X159674537Y-91240688D01*
X159579299Y-91288307D01*
X159198347Y-91288307D01*
X160722156Y-91764497D02*
X160150728Y-91764497D01*
X160436442Y-91764497D02*
X160436442Y-90764497D01*
X160341204Y-90907355D01*
X160245966Y-91002593D01*
X160150728Y-91050212D01*
X161103109Y-90859736D02*
X161150728Y-90812117D01*
X161245966Y-90764497D01*
X161484061Y-90764497D01*
X161579299Y-90812117D01*
X161626918Y-90859736D01*
X161674537Y-90954974D01*
X161674537Y-91050212D01*
X161626918Y-91193069D01*
X161055490Y-91764497D01*
X161674537Y-91764497D01*
%TO.C,U1*%
X143346095Y-90164380D02*
X143346095Y-90973904D01*
X143393714Y-91069142D01*
X143441333Y-91116761D01*
X143536571Y-91164380D01*
X143727047Y-91164380D01*
X143822285Y-91116761D01*
X143869904Y-91069142D01*
X143917523Y-90973904D01*
X143917523Y-90164380D01*
X144917523Y-91164380D02*
X144346095Y-91164380D01*
X144631809Y-91164380D02*
X144631809Y-90164380D01*
X144536571Y-90307238D01*
X144441333Y-90402476D01*
X144346095Y-90450095D01*
%TO.C,C10*%
X161499142Y-101229142D02*
X161451523Y-101276761D01*
X161308666Y-101324380D01*
X161213428Y-101324380D01*
X161070571Y-101276761D01*
X160975333Y-101181523D01*
X160927714Y-101086285D01*
X160880095Y-100895809D01*
X160880095Y-100752952D01*
X160927714Y-100562476D01*
X160975333Y-100467238D01*
X161070571Y-100372000D01*
X161213428Y-100324380D01*
X161308666Y-100324380D01*
X161451523Y-100372000D01*
X161499142Y-100419619D01*
X162451523Y-101324380D02*
X161880095Y-101324380D01*
X162165809Y-101324380D02*
X162165809Y-100324380D01*
X162070571Y-100467238D01*
X161975333Y-100562476D01*
X161880095Y-100610095D01*
X163070571Y-100324380D02*
X163165809Y-100324380D01*
X163261047Y-100372000D01*
X163308666Y-100419619D01*
X163356285Y-100514857D01*
X163403904Y-100705333D01*
X163403904Y-100943428D01*
X163356285Y-101133904D01*
X163308666Y-101229142D01*
X163261047Y-101276761D01*
X163165809Y-101324380D01*
X163070571Y-101324380D01*
X162975333Y-101276761D01*
X162927714Y-101229142D01*
X162880095Y-101133904D01*
X162832476Y-100943428D01*
X162832476Y-100705333D01*
X162880095Y-100514857D01*
X162927714Y-100419619D01*
X162975333Y-100372000D01*
X163070571Y-100324380D01*
%TO.C,TP2*%
X134667295Y-82493580D02*
X135238723Y-82493580D01*
X134953009Y-83493580D02*
X134953009Y-82493580D01*
X135572057Y-83493580D02*
X135572057Y-82493580D01*
X135953009Y-82493580D01*
X136048247Y-82541200D01*
X136095866Y-82588819D01*
X136143485Y-82684057D01*
X136143485Y-82826914D01*
X136095866Y-82922152D01*
X136048247Y-82969771D01*
X135953009Y-83017390D01*
X135572057Y-83017390D01*
X136524438Y-82588819D02*
X136572057Y-82541200D01*
X136667295Y-82493580D01*
X136905390Y-82493580D01*
X137000628Y-82541200D01*
X137048247Y-82588819D01*
X137095866Y-82684057D01*
X137095866Y-82779295D01*
X137048247Y-82922152D01*
X136476819Y-83493580D01*
X137095866Y-83493580D01*
%TO.C,TP1*%
X137512095Y-79750380D02*
X138083523Y-79750380D01*
X137797809Y-80750380D02*
X137797809Y-79750380D01*
X138416857Y-80750380D02*
X138416857Y-79750380D01*
X138797809Y-79750380D01*
X138893047Y-79798000D01*
X138940666Y-79845619D01*
X138988285Y-79940857D01*
X138988285Y-80083714D01*
X138940666Y-80178952D01*
X138893047Y-80226571D01*
X138797809Y-80274190D01*
X138416857Y-80274190D01*
X139940666Y-80750380D02*
X139369238Y-80750380D01*
X139654952Y-80750380D02*
X139654952Y-79750380D01*
X139559714Y-79893238D01*
X139464476Y-79988476D01*
X139369238Y-80036095D01*
D17*
%TO.C,D4*%
X146686000Y-104455000D02*
X144226000Y-104455000D01*
X144226000Y-105925000D02*
X146686000Y-105925000D01*
X144226000Y-104455000D02*
X144226000Y-105925000D01*
%TO.C,R7*%
X131676500Y-97823276D02*
X131676500Y-98332724D01*
X130631500Y-97823276D02*
X130631500Y-98332724D01*
%TO.C,TP3*%
X137438000Y-94014000D02*
G75*
G03*
X137438000Y-94014000I-950000J0D01*
G01*
%TO.C,R1*%
X163880612Y-94521276D02*
X163880612Y-95030724D01*
X164925612Y-94521276D02*
X164925612Y-95030724D01*
%TO.C,C11*%
X127704000Y-96096748D02*
X127704000Y-97519252D01*
X129524000Y-96096748D02*
X129524000Y-97519252D01*
%TO.C,TP7*%
X136168000Y-107984000D02*
G75*
G03*
X136168000Y-107984000I-950000J0D01*
G01*
%TO.C,Q2*%
X125526000Y-100904000D02*
X125526000Y-105545000D01*
X135766000Y-100904000D02*
X135766000Y-105545000D01*
X125526000Y-100904000D02*
X135766000Y-100904000D01*
X125526000Y-102414000D02*
X135766000Y-102414000D01*
X132497000Y-100904000D02*
X132497000Y-102414000D01*
X125526000Y-105545000D02*
X135766000Y-105545000D01*
X128796000Y-100904000D02*
X128796000Y-102414000D01*
%TO.C,R3*%
X127090724Y-82061500D02*
X126581276Y-82061500D01*
X127090724Y-83106500D02*
X126581276Y-83106500D01*
%TO.C,J5*%
X164876000Y-114217000D02*
X164876000Y-111617000D01*
X167476000Y-114217000D02*
X164876000Y-114217000D01*
X172616000Y-116817000D02*
X172616000Y-111617000D01*
X167476000Y-116817000D02*
X167476000Y-114217000D01*
X164876000Y-116817000D02*
X164876000Y-115487000D01*
X164876000Y-111617000D02*
X172616000Y-111617000D01*
X166206000Y-116817000D02*
X164876000Y-116817000D01*
X167476000Y-116817000D02*
X172616000Y-116817000D01*
%TO.C,C4*%
X139389733Y-97314000D02*
X139682267Y-97314000D01*
X139389733Y-98334000D02*
X139682267Y-98334000D01*
%TO.C,C8*%
X157360071Y-95891210D02*
X157067537Y-95891210D01*
X157360071Y-94871210D02*
X157067537Y-94871210D01*
%TO.C,Q1*%
X112826000Y-105545000D02*
X123066000Y-105545000D01*
X123066000Y-100904000D02*
X123066000Y-105545000D01*
X112826000Y-100904000D02*
X112826000Y-105545000D01*
X116096000Y-100904000D02*
X116096000Y-102414000D01*
X119797000Y-100904000D02*
X119797000Y-102414000D01*
X112826000Y-102414000D02*
X123066000Y-102414000D01*
X112826000Y-100904000D02*
X123066000Y-100904000D01*
%TO.C,TP5*%
X160806000Y-107984000D02*
G75*
G03*
X160806000Y-107984000I-950000J0D01*
G01*
%TO.C,D2*%
X156926000Y-105925000D02*
X159386000Y-105925000D01*
X156926000Y-104455000D02*
X156926000Y-105925000D01*
X159386000Y-104455000D02*
X156926000Y-104455000D01*
%TO.C,J2*%
X181936000Y-91999000D02*
X181936000Y-108729000D01*
X174526000Y-91804000D02*
X174026000Y-91304000D01*
X165966000Y-91999000D02*
X165966000Y-108729000D01*
X165966000Y-91999000D02*
X171526000Y-91999000D01*
X174026000Y-91304000D02*
X175026000Y-91304000D01*
X165966000Y-108729000D02*
X171526000Y-108729000D01*
X175026000Y-91304000D02*
X174526000Y-91804000D01*
X181936000Y-108729000D02*
X174326000Y-108729000D01*
X181936000Y-91999000D02*
X174326000Y-91999000D01*
%TO.C,J3*%
X133191000Y-111995000D02*
X133144000Y-112041000D01*
X120722000Y-114303000D02*
X120687000Y-114338000D01*
X114076000Y-118204000D02*
X134516000Y-118204000D01*
X114076000Y-110343000D02*
X134516000Y-110343000D01*
X125802000Y-114303000D02*
X125767000Y-114338000D01*
X114076000Y-110343000D02*
X114076000Y-120264000D01*
X114076000Y-119704000D02*
X134516000Y-119704000D01*
X114076000Y-120264000D02*
X134516000Y-120264000D01*
X128111000Y-111995000D02*
X128064000Y-112041000D01*
X130689000Y-114087000D02*
X130642000Y-114133000D01*
X113836000Y-120504000D02*
X114336000Y-120504000D01*
X132986000Y-111789000D02*
X132951000Y-111825000D01*
X122826000Y-111789000D02*
X122791000Y-111825000D01*
X125609000Y-114087000D02*
X125562000Y-114133000D01*
X134516000Y-110343000D02*
X134516000Y-120264000D01*
X127906000Y-111789000D02*
X127871000Y-111825000D01*
X120529000Y-114087000D02*
X120482000Y-114133000D01*
X114076000Y-115604000D02*
X134516000Y-115604000D01*
X130882000Y-114303000D02*
X130847000Y-114338000D01*
X123031000Y-111995000D02*
X122984000Y-112041000D01*
X113836000Y-119764000D02*
X113836000Y-120504000D01*
X118211000Y-113748000D02*
G75*
G03*
X118211427Y-112380958I-1534993J684001D01*
G01*
X117360000Y-111529000D02*
G75*
G03*
X115992958Y-111528573I-684001J-1534993D01*
G01*
X115141000Y-112380000D02*
G75*
G03*
X115140573Y-113747042I1534993J-684001D01*
G01*
X115992000Y-114599000D02*
G75*
G03*
X116704805Y-114744253I683999J1535001D01*
G01*
X116676000Y-114744000D02*
G75*
G03*
X117359318Y-114598756I1J1679992D01*
G01*
X133596000Y-113064000D02*
G75*
G03*
X133596000Y-113064000I-1680000J0D01*
G01*
X128516000Y-113064000D02*
G75*
G03*
X128516000Y-113064000I-1680000J0D01*
G01*
X123436000Y-113064000D02*
G75*
G03*
X123436000Y-113064000I-1680000J0D01*
G01*
%TO.C,R6*%
X149503224Y-108648424D02*
X150012672Y-108648424D01*
X149503224Y-107603424D02*
X150012672Y-107603424D01*
%TO.C,R5*%
X155573758Y-108642446D02*
X156083206Y-108642446D01*
X155573758Y-107597446D02*
X156083206Y-107597446D01*
%TO.C,SW4*%
X147906000Y-80354000D02*
X146406000Y-80354000D01*
X146406000Y-87354000D02*
X147906000Y-87354000D01*
X150406000Y-86104000D02*
X150406000Y-81604000D01*
X143906000Y-81604000D02*
X143906000Y-86104000D01*
%TO.C,SW2*%
X169456000Y-86104000D02*
X169456000Y-81604000D01*
X162956000Y-81604000D02*
X162956000Y-86104000D01*
X165456000Y-87354000D02*
X166956000Y-87354000D01*
X166956000Y-80354000D02*
X165456000Y-80354000D01*
%TO.C,SW3*%
X175846000Y-80354000D02*
X174346000Y-80354000D01*
X171846000Y-81604000D02*
X171846000Y-86104000D01*
X178346000Y-86104000D02*
X178346000Y-81604000D01*
X174346000Y-87354000D02*
X175846000Y-87354000D01*
%TO.C,U2*%
X132646000Y-90785000D02*
X131136000Y-90785000D01*
X131136000Y-83814000D02*
X131136000Y-94054000D01*
X132646000Y-94054000D02*
X128005000Y-94054000D01*
X132646000Y-83814000D02*
X132646000Y-94054000D01*
X132646000Y-87084000D02*
X131136000Y-87084000D01*
X128005000Y-83814000D02*
X128005000Y-94054000D01*
X132646000Y-83814000D02*
X128005000Y-83814000D01*
%TO.C,C6*%
X140642930Y-94186542D02*
X140350396Y-94186542D01*
X140642930Y-93166542D02*
X140350396Y-93166542D01*
%TO.C,R11*%
X134456724Y-98063500D02*
X133947276Y-98063500D01*
X134456724Y-99108500D02*
X133947276Y-99108500D01*
%TO.C,Y1*%
X141334826Y-99175520D02*
X136834826Y-99175520D01*
X136834826Y-99175520D02*
X136834826Y-104575520D01*
%TO.C,R8*%
X145631276Y-103934500D02*
X146140724Y-103934500D01*
X145631276Y-102889500D02*
X146140724Y-102889500D01*
%TO.C,D3*%
X153036000Y-104455000D02*
X150576000Y-104455000D01*
X150576000Y-104455000D02*
X150576000Y-105925000D01*
X150576000Y-105925000D02*
X153036000Y-105925000D01*
%TO.C,R10*%
X158331276Y-103934500D02*
X158840724Y-103934500D01*
X158331276Y-102889500D02*
X158840724Y-102889500D01*
%TO.C,R13*%
X156978119Y-92751211D02*
X157487567Y-92751211D01*
X156978119Y-93796211D02*
X157487567Y-93796211D01*
%TO.C,TP4*%
X145566000Y-107984000D02*
G75*
G03*
X145566000Y-107984000I-950000J0D01*
G01*
%TO.C,TP6*%
X113816000Y-107984000D02*
G75*
G03*
X113816000Y-107984000I-950000J0D01*
G01*
%TO.C,C2*%
X133181397Y-86290757D02*
X133181397Y-86583291D01*
X134201397Y-86290757D02*
X134201397Y-86583291D01*
%TO.C,J4*%
X162456000Y-110343000D02*
X162456000Y-120264000D01*
X141776000Y-120504000D02*
X142276000Y-120504000D01*
X142016000Y-115604000D02*
X162456000Y-115604000D01*
X142016000Y-118204000D02*
X162456000Y-118204000D01*
X158822000Y-114303000D02*
X158787000Y-114338000D01*
X142016000Y-110343000D02*
X142016000Y-120264000D01*
X141776000Y-119764000D02*
X141776000Y-120504000D01*
X142016000Y-110343000D02*
X162456000Y-110343000D01*
X150971000Y-111995000D02*
X150924000Y-112041000D01*
X161131000Y-111995000D02*
X161084000Y-112041000D01*
X150766000Y-111789000D02*
X150731000Y-111825000D01*
X148469000Y-114087000D02*
X148422000Y-114133000D01*
X148662000Y-114303000D02*
X148627000Y-114338000D01*
X142016000Y-120264000D02*
X162456000Y-120264000D01*
X142016000Y-119704000D02*
X162456000Y-119704000D01*
X155846000Y-111789000D02*
X155811000Y-111825000D01*
X156051000Y-111995000D02*
X156004000Y-112041000D01*
X153549000Y-114087000D02*
X153502000Y-114133000D01*
X158629000Y-114087000D02*
X158582000Y-114133000D01*
X160926000Y-111789000D02*
X160891000Y-111825000D01*
X153742000Y-114303000D02*
X153707000Y-114338000D01*
X146151000Y-113748000D02*
G75*
G03*
X146151427Y-112380958I-1534993J684001D01*
G01*
X144616000Y-114744000D02*
G75*
G03*
X145299318Y-114598756I1J1679992D01*
G01*
X143932000Y-114599000D02*
G75*
G03*
X144644805Y-114744253I683999J1535001D01*
G01*
X145300000Y-111529000D02*
G75*
G03*
X143932958Y-111528573I-684001J-1534993D01*
G01*
X143081000Y-112380000D02*
G75*
G03*
X143080573Y-113747042I1534993J-684001D01*
G01*
X151376000Y-113064000D02*
G75*
G03*
X151376000Y-113064000I-1680000J0D01*
G01*
X161536000Y-113064000D02*
G75*
G03*
X161536000Y-113064000I-1680000J0D01*
G01*
X156456000Y-113064000D02*
G75*
G03*
X156456000Y-113064000I-1680000J0D01*
G01*
%TO.C,C3*%
X133166310Y-91620267D02*
X133166310Y-91327733D01*
X134186310Y-91620267D02*
X134186310Y-91327733D01*
%TO.C,C5*%
X141842528Y-103036522D02*
X141842528Y-102743988D01*
X142862528Y-103036522D02*
X142862528Y-102743988D01*
%TO.C,C1*%
X140611563Y-83746000D02*
X139326000Y-83746000D01*
X135920437Y-83746000D02*
X134856000Y-84810437D01*
X134856000Y-84810437D02*
X134856000Y-90566000D01*
X141676000Y-90566000D02*
X139326000Y-90566000D01*
X140611563Y-83746000D02*
X141676000Y-84810437D01*
X134856000Y-90566000D02*
X137206000Y-90566000D01*
X141676000Y-84810437D02*
X141676000Y-90566000D01*
X140113500Y-82718500D02*
X140113500Y-83506000D01*
X140507250Y-83112250D02*
X139719750Y-83112250D01*
X135920437Y-83746000D02*
X137206000Y-83746000D01*
%TO.C,D1*%
X128986000Y-83319000D02*
X131446000Y-83319000D01*
X128986000Y-81849000D02*
X128986000Y-83319000D01*
X131446000Y-81849000D02*
X128986000Y-81849000D01*
%TO.C,C9*%
X157361767Y-98080000D02*
X157069233Y-98080000D01*
X157361767Y-97060000D02*
X157069233Y-97060000D01*
%TO.C,R9*%
X151981276Y-103934500D02*
X152490724Y-103934500D01*
X151981276Y-102889500D02*
X152490724Y-102889500D01*
%TO.C,J1*%
X124026000Y-84034000D02*
X122726000Y-84034000D01*
X123726000Y-84334000D02*
X123726000Y-86334000D01*
X117826000Y-93534000D02*
X109226000Y-93534000D01*
X123726000Y-93534000D02*
X122426000Y-93534000D01*
X109226000Y-84334000D02*
X123726000Y-84334000D01*
X124026000Y-85734000D02*
X124026000Y-84034000D01*
X109226000Y-93534000D02*
X109226000Y-84334000D01*
X123726000Y-91534000D02*
X123726000Y-93534000D01*
%TO.C,R4*%
X156982537Y-99283033D02*
X157491985Y-99283033D01*
X156982537Y-100328033D02*
X157491985Y-100328033D01*
%TO.C,C7*%
X140633556Y-96234570D02*
X140341022Y-96234570D01*
X140633556Y-95214570D02*
X140341022Y-95214570D01*
%TO.C,R2*%
X163895923Y-106049484D02*
X163895923Y-106558932D01*
X164940923Y-106049484D02*
X164940923Y-106558932D01*
%TO.C,SW1*%
X158066000Y-80354000D02*
X156566000Y-80354000D01*
X154066000Y-81604000D02*
X154066000Y-86104000D01*
X160566000Y-86104000D02*
X160566000Y-81604000D01*
X156566000Y-87354000D02*
X158066000Y-87354000D01*
%TO.C,D5*%
X133986000Y-94549000D02*
X131526000Y-94549000D01*
X131526000Y-94549000D02*
X131526000Y-96019000D01*
X131526000Y-96019000D02*
X133986000Y-96019000D01*
%TO.C,R14*%
X141744339Y-98841901D02*
X141744339Y-98332453D01*
X142789339Y-98841901D02*
X142789339Y-98332453D01*
%TO.C,R12*%
X156985674Y-90704910D02*
X157495122Y-90704910D01*
X156985674Y-91749910D02*
X157495122Y-91749910D01*
D14*
%TO.C,U1*%
X144801000Y-98909000D02*
X145126000Y-98909000D01*
X144801000Y-91659000D02*
X145126000Y-91659000D01*
X144801000Y-91659000D02*
X144801000Y-91884000D01*
X152051000Y-98909000D02*
X151726000Y-98909000D01*
X144801000Y-91884000D02*
X143376000Y-91884000D01*
X152051000Y-91659000D02*
X151726000Y-91659000D01*
X152051000Y-98909000D02*
X152051000Y-98584000D01*
X152051000Y-91659000D02*
X152051000Y-91984000D01*
X144801000Y-98909000D02*
X144801000Y-98584000D01*
D17*
%TO.C,C10*%
X163934473Y-101790942D02*
X163934473Y-101498408D01*
X164954473Y-101790942D02*
X164954473Y-101498408D01*
%TO.C,TP2*%
X135370742Y-81314000D02*
G75*
G03*
X135370742Y-81314000I-950000J0D01*
G01*
%TO.C,TP1*%
X142264000Y-81314000D02*
G75*
G03*
X142264000Y-81314000I-950000J0D01*
G01*
%TD*%
%LPC*%
D18*
%TO.C,D4*%
X145011000Y-105190000D03*
X146761000Y-105190000D03*
%TD*%
D19*
%TO.C,R7*%
X131154000Y-97165500D03*
X131154000Y-98990500D03*
%TD*%
D20*
%TO.C,TP3*%
X136488000Y-94014000D03*
%TD*%
D19*
%TO.C,R1*%
X164403112Y-93863500D03*
X164403112Y-95688500D03*
%TD*%
D21*
%TO.C,C11*%
X128614000Y-95245500D03*
X128614000Y-98370500D03*
%TD*%
D20*
%TO.C,TP7*%
X135218000Y-107984000D03*
%TD*%
D22*
%TO.C,Q2*%
X128106000Y-104174000D03*
D23*
X130646000Y-104174000D03*
X133186000Y-104174000D03*
%TD*%
D24*
%TO.C,R3*%
X127748500Y-82584000D03*
X125923500Y-82584000D03*
%TD*%
D25*
%TO.C,J5*%
X166206000Y-115487000D03*
D26*
X166206000Y-112947000D03*
X168746000Y-115487000D03*
X168746000Y-112947000D03*
X171286000Y-115487000D03*
X171286000Y-112947000D03*
%TD*%
D27*
%TO.C,C4*%
X138673500Y-97824000D03*
X140398500Y-97824000D03*
%TD*%
D28*
%TO.C,C8*%
X158076304Y-95381210D03*
X156351304Y-95381210D03*
%TD*%
D22*
%TO.C,Q1*%
X115406000Y-104174000D03*
D23*
X117946000Y-104174000D03*
X120486000Y-104174000D03*
%TD*%
D20*
%TO.C,TP5*%
X159856000Y-107984000D03*
%TD*%
D18*
%TO.C,D2*%
X157711000Y-105190000D03*
X159461000Y-105190000D03*
%TD*%
D29*
%TO.C,J2*%
X176366000Y-94014000D03*
X176366000Y-106714000D03*
D30*
X173826000Y-96804000D03*
D20*
X172046000Y-97820000D03*
X173826000Y-98836000D03*
X172046000Y-99852000D03*
X173826000Y-100868000D03*
X172046000Y-101884000D03*
X173826000Y-102900000D03*
X172046000Y-103916000D03*
X167226000Y-93504000D03*
X167226000Y-95794000D03*
X167226000Y-104934000D03*
X167226000Y-107224000D03*
D31*
X172936000Y-92234000D03*
X172936000Y-108494000D03*
%TD*%
D32*
%TO.C,J3*%
X116676000Y-113064000D03*
D33*
X121756000Y-113064000D03*
X126836000Y-113064000D03*
X131916000Y-113064000D03*
%TD*%
D34*
%TO.C,R6*%
X148845448Y-108125924D03*
X150670448Y-108125924D03*
%TD*%
%TO.C,R5*%
X154915982Y-108119946D03*
X156740982Y-108119946D03*
%TD*%
D35*
%TO.C,SW4*%
X149406000Y-80604000D03*
X144906000Y-80604000D03*
X149406000Y-87104000D03*
X144906000Y-87104000D03*
%TD*%
%TO.C,SW2*%
X163956000Y-87104000D03*
X168456000Y-87104000D03*
X163956000Y-80604000D03*
X168456000Y-80604000D03*
%TD*%
%TO.C,SW3*%
X172846000Y-87104000D03*
X177346000Y-87104000D03*
X172846000Y-80604000D03*
X177346000Y-80604000D03*
%TD*%
D36*
%TO.C,U2*%
X129376000Y-86394000D03*
D37*
X129376000Y-88934000D03*
X129376000Y-91474000D03*
%TD*%
D28*
%TO.C,C6*%
X141359163Y-93676542D03*
X139634163Y-93676542D03*
%TD*%
D24*
%TO.C,R11*%
X135114500Y-98586000D03*
X133289500Y-98586000D03*
%TD*%
D38*
%TO.C,Y1*%
X137934826Y-100425520D03*
X137934826Y-103325520D03*
X140234826Y-103325520D03*
X140234826Y-100425520D03*
%TD*%
D34*
%TO.C,R8*%
X144973500Y-103412000D03*
X146798500Y-103412000D03*
%TD*%
D18*
%TO.C,D3*%
X151361000Y-105190000D03*
X153111000Y-105190000D03*
%TD*%
D34*
%TO.C,R10*%
X157673500Y-103412000D03*
X159498500Y-103412000D03*
%TD*%
%TO.C,R13*%
X156320343Y-93273711D03*
X158145343Y-93273711D03*
%TD*%
D20*
%TO.C,TP4*%
X144616000Y-107984000D03*
%TD*%
%TO.C,TP6*%
X112866000Y-107984000D03*
%TD*%
D39*
%TO.C,C2*%
X133691397Y-85574524D03*
X133691397Y-87299524D03*
%TD*%
D32*
%TO.C,J4*%
X144616000Y-113064000D03*
D33*
X149696000Y-113064000D03*
X154776000Y-113064000D03*
X159856000Y-113064000D03*
%TD*%
D40*
%TO.C,C3*%
X133676310Y-92336500D03*
X133676310Y-90611500D03*
%TD*%
%TO.C,C5*%
X142352528Y-103752755D03*
X142352528Y-102027755D03*
%TD*%
D41*
%TO.C,C1*%
X138266000Y-84356000D03*
X138266000Y-89956000D03*
%TD*%
D18*
%TO.C,D1*%
X129771000Y-82584000D03*
X131521000Y-82584000D03*
%TD*%
D28*
%TO.C,C9*%
X158078000Y-97570000D03*
X156353000Y-97570000D03*
%TD*%
D34*
%TO.C,R9*%
X151323500Y-103412000D03*
X153148500Y-103412000D03*
%TD*%
D42*
%TO.C,J1*%
X123026000Y-88934000D03*
D43*
X116726000Y-88934000D03*
D44*
X120126000Y-93734000D03*
%TD*%
D34*
%TO.C,R4*%
X156324761Y-99805533D03*
X158149761Y-99805533D03*
%TD*%
D28*
%TO.C,C7*%
X141349789Y-95724570D03*
X139624789Y-95724570D03*
%TD*%
D19*
%TO.C,R2*%
X164418423Y-105391708D03*
X164418423Y-107216708D03*
%TD*%
D35*
%TO.C,SW1*%
X155066000Y-87104000D03*
X159566000Y-87104000D03*
X155066000Y-80604000D03*
X159566000Y-80604000D03*
%TD*%
D18*
%TO.C,D5*%
X132311000Y-95284000D03*
X134061000Y-95284000D03*
%TD*%
D45*
%TO.C,R14*%
X142266839Y-99499677D03*
X142266839Y-97674677D03*
%TD*%
D34*
%TO.C,R12*%
X156327898Y-91227410D03*
X158152898Y-91227410D03*
%TD*%
D46*
%TO.C,U1*%
X144176000Y-92484000D03*
X144176000Y-93284000D03*
X144176000Y-94084000D03*
X144176000Y-94884000D03*
X144176000Y-95684000D03*
X144176000Y-96484000D03*
X144176000Y-97284000D03*
X144176000Y-98084000D03*
D47*
X145626000Y-99534000D03*
X146426000Y-99534000D03*
X147226000Y-99534000D03*
X148026000Y-99534000D03*
X148826000Y-99534000D03*
X149626000Y-99534000D03*
X150426000Y-99534000D03*
X151226000Y-99534000D03*
D46*
X152676000Y-98084000D03*
X152676000Y-97284000D03*
X152676000Y-96484000D03*
X152676000Y-95684000D03*
X152676000Y-94884000D03*
X152676000Y-94084000D03*
X152676000Y-93284000D03*
X152676000Y-92484000D03*
D47*
X151226000Y-91034000D03*
X150426000Y-91034000D03*
X149626000Y-91034000D03*
X148826000Y-91034000D03*
X148026000Y-91034000D03*
X147226000Y-91034000D03*
X146426000Y-91034000D03*
X145626000Y-91034000D03*
%TD*%
D40*
%TO.C,C10*%
X164444473Y-102507175D03*
X164444473Y-100782175D03*
%TD*%
D20*
%TO.C,TP2*%
X134420742Y-81314000D03*
%TD*%
%TO.C,TP1*%
X141314000Y-81314000D03*
%TD*%
M02*
