%TF.GenerationSoftware,KiCad,Pcbnew,(6.0.0)*%
%TF.CreationDate,2022-05-28T20:15:04-06:00*%
%TF.ProjectId,PantryLights,50616e74-7279-44c6-9967-6874732e6b69,rev?*%
%TF.SameCoordinates,Original*%
%TF.FileFunction,Paste,Top*%
%TF.FilePolarity,Positive*%
%FSLAX46Y46*%
G04 Gerber Fmt 4.6, Leading zero omitted, Abs format (unit mm)*
G04 Created by KiCad (PCBNEW (6.0.0)) date 2022-05-28 20:15:04*
%MOMM*%
%LPD*%
G01*
G04 APERTURE LIST*
G04 Aperture macros list*
%AMRoundRect*
0 Rectangle with rounded corners*
0 $1 Rounding radius*
0 $2 $3 $4 $5 $6 $7 $8 $9 X,Y pos of 4 corners*
0 Add a 4 corners polygon primitive as box body*
4,1,4,$2,$3,$4,$5,$6,$7,$8,$9,$2,$3,0*
0 Add four circle primitives for the rounded corners*
1,1,$1+$1,$2,$3*
1,1,$1+$1,$4,$5*
1,1,$1+$1,$6,$7*
1,1,$1+$1,$8,$9*
0 Add four rect primitives between the rounded corners*
20,1,$1+$1,$2,$3,$4,$5,0*
20,1,$1+$1,$4,$5,$6,$7,0*
20,1,$1+$1,$6,$7,$8,$9,0*
20,1,$1+$1,$8,$9,$2,$3,0*%
G04 Aperture macros list end*
%ADD10RoundRect,0.237500X-0.287500X-0.237500X0.287500X-0.237500X0.287500X0.237500X-0.287500X0.237500X0*%
%ADD11RoundRect,0.237500X-0.237500X0.250000X-0.237500X-0.250000X0.237500X-0.250000X0.237500X0.250000X0*%
%ADD12RoundRect,0.250000X-0.650000X0.412500X-0.650000X-0.412500X0.650000X-0.412500X0.650000X0.412500X0*%
%ADD13RoundRect,0.237500X0.250000X0.237500X-0.250000X0.237500X-0.250000X-0.237500X0.250000X-0.237500X0*%
%ADD14RoundRect,0.237500X-0.300000X-0.237500X0.300000X-0.237500X0.300000X0.237500X-0.300000X0.237500X0*%
%ADD15RoundRect,0.237500X0.300000X0.237500X-0.300000X0.237500X-0.300000X-0.237500X0.300000X-0.237500X0*%
%ADD16RoundRect,0.237500X-0.250000X-0.237500X0.250000X-0.237500X0.250000X0.237500X-0.250000X0.237500X0*%
%ADD17R,1.800000X2.100000*%
%ADD18RoundRect,0.237500X-0.237500X0.300000X-0.237500X-0.300000X0.237500X-0.300000X0.237500X0.300000X0*%
%ADD19RoundRect,0.237500X0.237500X-0.300000X0.237500X0.300000X-0.237500X0.300000X-0.237500X-0.300000X0*%
%ADD20RoundRect,0.250000X-0.550000X1.500000X-0.550000X-1.500000X0.550000X-1.500000X0.550000X1.500000X0*%
%ADD21RoundRect,0.237500X0.237500X-0.250000X0.237500X0.250000X-0.237500X0.250000X-0.237500X-0.250000X0*%
%ADD22R,1.600000X0.550000*%
%ADD23R,0.550000X1.600000*%
G04 APERTURE END LIST*
D10*
%TO.C,D4*%
X145011000Y-105190000D03*
X146761000Y-105190000D03*
%TD*%
D11*
%TO.C,R7*%
X131154000Y-97165500D03*
X131154000Y-98990500D03*
%TD*%
%TO.C,R1*%
X164403112Y-93863500D03*
X164403112Y-95688500D03*
%TD*%
D12*
%TO.C,C11*%
X128614000Y-95245500D03*
X128614000Y-98370500D03*
%TD*%
D13*
%TO.C,R3*%
X127748500Y-82584000D03*
X125923500Y-82584000D03*
%TD*%
D14*
%TO.C,C4*%
X138673500Y-97824000D03*
X140398500Y-97824000D03*
%TD*%
D15*
%TO.C,C8*%
X158076304Y-95381210D03*
X156351304Y-95381210D03*
%TD*%
D10*
%TO.C,D2*%
X157711000Y-105190000D03*
X159461000Y-105190000D03*
%TD*%
D16*
%TO.C,R6*%
X148845448Y-108125924D03*
X150670448Y-108125924D03*
%TD*%
%TO.C,R5*%
X154915982Y-108119946D03*
X156740982Y-108119946D03*
%TD*%
D15*
%TO.C,C6*%
X141359163Y-93676542D03*
X139634163Y-93676542D03*
%TD*%
D13*
%TO.C,R11*%
X135114500Y-98586000D03*
X133289500Y-98586000D03*
%TD*%
D17*
%TO.C,Y1*%
X137934826Y-100425520D03*
X137934826Y-103325520D03*
X140234826Y-103325520D03*
X140234826Y-100425520D03*
%TD*%
D16*
%TO.C,R8*%
X144973500Y-103412000D03*
X146798500Y-103412000D03*
%TD*%
D10*
%TO.C,D3*%
X151361000Y-105190000D03*
X153111000Y-105190000D03*
%TD*%
D16*
%TO.C,R10*%
X157673500Y-103412000D03*
X159498500Y-103412000D03*
%TD*%
%TO.C,R13*%
X156320343Y-93273711D03*
X158145343Y-93273711D03*
%TD*%
D18*
%TO.C,C2*%
X133691397Y-85574524D03*
X133691397Y-87299524D03*
%TD*%
D19*
%TO.C,C3*%
X133676310Y-92336500D03*
X133676310Y-90611500D03*
%TD*%
%TO.C,C5*%
X142352528Y-103752755D03*
X142352528Y-102027755D03*
%TD*%
D20*
%TO.C,C1*%
X138266000Y-84356000D03*
X138266000Y-89956000D03*
%TD*%
D10*
%TO.C,D1*%
X129771000Y-82584000D03*
X131521000Y-82584000D03*
%TD*%
D15*
%TO.C,C9*%
X158078000Y-97570000D03*
X156353000Y-97570000D03*
%TD*%
D16*
%TO.C,R9*%
X151323500Y-103412000D03*
X153148500Y-103412000D03*
%TD*%
%TO.C,R4*%
X156324761Y-99805533D03*
X158149761Y-99805533D03*
%TD*%
D15*
%TO.C,C7*%
X141349789Y-95724570D03*
X139624789Y-95724570D03*
%TD*%
D11*
%TO.C,R2*%
X164418423Y-105391708D03*
X164418423Y-107216708D03*
%TD*%
D10*
%TO.C,D5*%
X132311000Y-95284000D03*
X134061000Y-95284000D03*
%TD*%
D21*
%TO.C,R14*%
X142266839Y-99499677D03*
X142266839Y-97674677D03*
%TD*%
D16*
%TO.C,R12*%
X156327898Y-91227410D03*
X158152898Y-91227410D03*
%TD*%
D22*
%TO.C,U1*%
X144176000Y-92484000D03*
X144176000Y-93284000D03*
X144176000Y-94084000D03*
X144176000Y-94884000D03*
X144176000Y-95684000D03*
X144176000Y-96484000D03*
X144176000Y-97284000D03*
X144176000Y-98084000D03*
D23*
X145626000Y-99534000D03*
X146426000Y-99534000D03*
X147226000Y-99534000D03*
X148026000Y-99534000D03*
X148826000Y-99534000D03*
X149626000Y-99534000D03*
X150426000Y-99534000D03*
X151226000Y-99534000D03*
D22*
X152676000Y-98084000D03*
X152676000Y-97284000D03*
X152676000Y-96484000D03*
X152676000Y-95684000D03*
X152676000Y-94884000D03*
X152676000Y-94084000D03*
X152676000Y-93284000D03*
X152676000Y-92484000D03*
D23*
X151226000Y-91034000D03*
X150426000Y-91034000D03*
X149626000Y-91034000D03*
X148826000Y-91034000D03*
X148026000Y-91034000D03*
X147226000Y-91034000D03*
X146426000Y-91034000D03*
X145626000Y-91034000D03*
%TD*%
D19*
%TO.C,C10*%
X164444473Y-102507175D03*
X164444473Y-100782175D03*
%TD*%
M02*
