%TF.GenerationSoftware,KiCad,Pcbnew,(6.0.0)*%
%TF.CreationDate,2022-05-28T20:15:04-06:00*%
%TF.ProjectId,PantryLights,50616e74-7279-44c6-9967-6874732e6b69,rev?*%
%TF.SameCoordinates,Original*%
%TF.FileFunction,Legend,Bot*%
%TF.FilePolarity,Positive*%
%FSLAX46Y46*%
G04 Gerber Fmt 4.6, Leading zero omitted, Abs format (unit mm)*
G04 Created by KiCad (PCBNEW (6.0.0)) date 2022-05-28 20:15:04*
%MOMM*%
%LPD*%
G01*
G04 APERTURE LIST*
%ADD10C,0.127000*%
%ADD11C,0.254000*%
%ADD12C,0.150000*%
%ADD13R,1.905000X2.000000*%
%ADD14O,1.905000X2.000000*%
%ADD15R,1.700000X1.700000*%
%ADD16O,1.700000X1.700000*%
%ADD17C,3.250000*%
%ADD18R,1.500000X1.500000*%
%ADD19C,1.500000*%
%ADD20C,2.300000*%
%ADD21R,2.600000X2.600000*%
%ADD22C,2.600000*%
%ADD23C,2.000000*%
%ADD24R,2.000000X1.905000*%
%ADD25O,2.000000X1.905000*%
%ADD26R,2.000000X4.600000*%
%ADD27O,2.000000X4.200000*%
%ADD28O,4.200000X2.000000*%
G04 APERTURE END LIST*
D10*
X142076000Y-79790000D02*
X135980000Y-79790000D01*
X157570000Y-89442000D02*
G75*
G03*
X157570000Y-89442000I-508000J0D01*
G01*
X163158000Y-104174000D02*
X164174000Y-105190000D01*
X134964000Y-103158000D02*
X134964000Y-104682000D01*
X142838000Y-88172000D02*
X142838000Y-80552000D01*
X143301122Y-88630178D02*
X142838000Y-88172000D01*
X126582000Y-100618000D02*
X127852000Y-101888000D01*
X153716420Y-90966000D02*
G75*
G03*
X153716420Y-90966000I-718420J0D01*
G01*
X158078000Y-100618000D02*
X158078000Y-99856000D01*
X141314000Y-94268000D02*
X141822000Y-94776000D01*
X141060000Y-92490000D02*
X141060000Y-91728000D01*
X153506000Y-91474000D02*
X154268000Y-92236000D01*
X154522000Y-97316000D02*
X152744000Y-97316000D01*
X140552000Y-92490000D02*
X140552000Y-94776000D01*
X133694000Y-101888000D02*
X134964000Y-103158000D01*
X144535367Y-89148885D02*
G75*
G03*
X144535367Y-89148885I-718420J0D01*
G01*
X165444000Y-101126000D02*
X164936000Y-101634000D01*
X142076000Y-96300000D02*
X141314000Y-95538000D01*
X154268000Y-93506000D02*
X155284000Y-94522000D01*
X145886000Y-89188000D02*
X147410000Y-90712000D01*
X164936000Y-99856000D02*
X163666000Y-99856000D01*
X165444000Y-100364000D02*
X165444000Y-101126000D01*
X141060000Y-92490000D02*
X141314000Y-92744000D01*
X135980000Y-79790000D02*
X133186000Y-82584000D01*
D11*
X145124000Y-98586000D02*
X143346000Y-98586000D01*
X143346000Y-98586000D02*
X143346000Y-105952000D01*
X143346000Y-105952000D02*
X138266000Y-105952000D01*
X138266000Y-105952000D02*
X136488000Y-104174000D01*
X136488000Y-104174000D02*
X136488000Y-96808000D01*
X136488000Y-96808000D02*
X145124000Y-96808000D01*
X145124000Y-96808000D02*
X145124000Y-98586000D01*
D10*
X155284000Y-95538000D02*
X152744000Y-95538000D01*
X154522000Y-96554000D02*
X154522000Y-100364000D01*
X126566000Y-96244000D02*
X126566000Y-100587000D01*
X152236000Y-115604000D02*
X157316000Y-115604000D01*
X163158000Y-102142000D02*
X163158000Y-104174000D01*
X140552000Y-94776000D02*
X141314000Y-95538000D01*
X164936000Y-101634000D02*
X163666000Y-101634000D01*
X141314000Y-92744000D02*
X141314000Y-93760000D01*
X137266000Y-107094000D02*
X137266000Y-110344000D01*
X155538000Y-101380000D02*
X157316000Y-101380000D01*
X133186000Y-82584000D02*
X131662000Y-82584000D01*
X163920000Y-93760000D02*
X164174000Y-93760000D01*
X154522000Y-100364000D02*
X155538000Y-101380000D01*
X142076000Y-96300000D02*
X144362000Y-96300000D01*
X134964000Y-104682000D02*
X137266000Y-107094000D01*
X153506000Y-90458000D02*
X154522000Y-89442000D01*
X163666000Y-101634000D02*
X163158000Y-102142000D01*
X147156000Y-115604000D02*
X148680000Y-114080000D01*
D11*
X132466000Y-91444000D02*
X136266000Y-91444000D01*
X136266000Y-91444000D02*
X136266000Y-92844000D01*
X136266000Y-92844000D02*
X135766000Y-92844000D01*
X135766000Y-92844000D02*
X135266000Y-93344000D01*
X135266000Y-93344000D02*
X135266000Y-94444000D01*
X135266000Y-94444000D02*
X131566000Y-94444000D01*
X131566000Y-94444000D02*
X130466000Y-96144000D01*
X130466000Y-96144000D02*
X125966000Y-96144000D01*
X125966000Y-96144000D02*
X125966000Y-93044000D01*
X125966000Y-93044000D02*
X128166000Y-90244000D01*
X128166000Y-90244000D02*
X130466000Y-90244000D01*
X130466000Y-90244000D02*
X132466000Y-91444000D01*
D10*
X164936000Y-99856000D02*
X165444000Y-100364000D01*
X157316000Y-101380000D02*
X158078000Y-100618000D01*
X150712000Y-114080000D02*
X152236000Y-115604000D01*
X127852000Y-101888000D02*
X128868000Y-101888000D01*
X141060000Y-92490000D02*
X136366000Y-92490000D01*
X162904000Y-93760000D02*
X163920000Y-93760000D01*
X155284000Y-94522000D02*
X155284000Y-95792000D01*
X142584000Y-115604000D02*
X147156000Y-115604000D01*
X133440000Y-101888000D02*
X133694000Y-101888000D01*
X155284000Y-95284000D02*
X156046000Y-95284000D01*
X141314000Y-93760000D02*
X141314000Y-94268000D01*
X161380000Y-113064000D02*
X165190000Y-113064000D01*
X157570000Y-89442000D02*
X158586000Y-89442000D01*
X144616000Y-89188000D02*
X145886000Y-89188000D01*
D11*
X142076000Y-86394000D02*
X132678000Y-86394000D01*
X132678000Y-86394000D02*
X130646000Y-87664000D01*
X130646000Y-87664000D02*
X127852000Y-87664000D01*
X127852000Y-87664000D02*
X127852000Y-89844000D01*
X127852000Y-89844000D02*
X126718524Y-91332449D01*
X126718524Y-91332449D02*
X125793496Y-92417411D01*
X125793496Y-92417411D02*
X125312000Y-92998000D01*
X125312000Y-92998000D02*
X125312000Y-105444000D01*
X125312000Y-105444000D02*
X127344000Y-107476000D01*
X127344000Y-107476000D02*
X127344000Y-111540000D01*
X127344000Y-111540000D02*
X126328000Y-111540000D01*
X126328000Y-111540000D02*
X126328000Y-108238000D01*
X126328000Y-108238000D02*
X125058000Y-106968000D01*
X125058000Y-106968000D02*
X123026000Y-106968000D01*
X123026000Y-106968000D02*
X118454000Y-111540000D01*
X118454000Y-111540000D02*
X116930000Y-111540000D01*
X116930000Y-111540000D02*
X122772000Y-105444000D01*
X122772000Y-105444000D02*
X122772000Y-92490000D01*
X122772000Y-92490000D02*
X120486000Y-91728000D01*
X120486000Y-91728000D02*
X120486000Y-86140000D01*
X120486000Y-86140000D02*
X121248000Y-85124000D01*
X121248000Y-85124000D02*
X126328000Y-85124000D01*
X126328000Y-85124000D02*
X127090000Y-83600000D01*
X127090000Y-83600000D02*
X131408000Y-83600000D01*
X131408000Y-83600000D02*
X133948000Y-82838000D01*
X133948000Y-82838000D02*
X135726000Y-81314000D01*
X135726000Y-81314000D02*
X140044000Y-81314000D01*
X140044000Y-81314000D02*
X140552000Y-80552000D01*
X140552000Y-80552000D02*
X142076000Y-80552000D01*
X142076000Y-80552000D02*
X142076000Y-86394000D01*
D10*
X155284000Y-95792000D02*
X154522000Y-96554000D01*
X141060000Y-91728000D02*
X143231961Y-89569614D01*
X157316000Y-115604000D02*
X158840000Y-114080000D01*
X147410000Y-90712000D02*
X152236000Y-90712000D01*
X132424000Y-101888000D02*
X133440000Y-101888000D01*
X154268000Y-92236000D02*
X154268000Y-93506000D01*
X158586000Y-89442000D02*
X162904000Y-93760000D01*
X158078000Y-99856000D02*
X160110000Y-99856000D01*
X154522000Y-97570000D02*
X156046000Y-97570000D01*
X141822000Y-94776000D02*
X144362000Y-94776000D01*
X154522000Y-89442000D02*
X156554000Y-89442000D01*
X142838000Y-80552000D02*
X142076000Y-79790000D01*
X137266000Y-110344000D02*
X142584000Y-115604000D01*
D12*
X131931714Y-101959428D02*
X131169809Y-101959428D01*
X131550761Y-102340380D02*
X131550761Y-101578476D01*
X130217428Y-101340380D02*
X130693619Y-101340380D01*
X130741238Y-101816571D01*
X130693619Y-101768952D01*
X130598380Y-101721333D01*
X130360285Y-101721333D01*
X130265047Y-101768952D01*
X130217428Y-101816571D01*
X130169809Y-101911809D01*
X130169809Y-102149904D01*
X130217428Y-102245142D01*
X130265047Y-102292761D01*
X130360285Y-102340380D01*
X130598380Y-102340380D01*
X130693619Y-102292761D01*
X130741238Y-102245142D01*
X129884095Y-101340380D02*
X129550761Y-102340380D01*
X129217428Y-101340380D01*
X131741142Y-108198380D02*
X131550666Y-108198380D01*
X131455428Y-108246000D01*
X131360190Y-108341238D01*
X131312571Y-108531714D01*
X131312571Y-108865047D01*
X131360190Y-109055523D01*
X131455428Y-109150761D01*
X131550666Y-109198380D01*
X131741142Y-109198380D01*
X131836380Y-109150761D01*
X131931619Y-109055523D01*
X131979238Y-108865047D01*
X131979238Y-108531714D01*
X131931619Y-108341238D01*
X131836380Y-108246000D01*
X131741142Y-108198380D01*
X130884000Y-108198380D02*
X130884000Y-109007904D01*
X130836380Y-109103142D01*
X130788761Y-109150761D01*
X130693523Y-109198380D01*
X130503047Y-109198380D01*
X130407809Y-109150761D01*
X130360190Y-109103142D01*
X130312571Y-109007904D01*
X130312571Y-108198380D01*
X129979238Y-108198380D02*
X129407809Y-108198380D01*
X129693523Y-109198380D02*
X129693523Y-108198380D01*
X128360190Y-108293619D02*
X128312571Y-108246000D01*
X128217333Y-108198380D01*
X127979238Y-108198380D01*
X127884000Y-108246000D01*
X127836380Y-108293619D01*
X127788761Y-108388857D01*
X127788761Y-108484095D01*
X127836380Y-108626952D01*
X128407809Y-109198380D01*
X127788761Y-109198380D01*
X161395714Y-115675428D02*
X160633809Y-115675428D01*
X161014761Y-116056380D02*
X161014761Y-115294476D01*
X159681428Y-115056380D02*
X160157619Y-115056380D01*
X160205238Y-115532571D01*
X160157619Y-115484952D01*
X160062380Y-115437333D01*
X159824285Y-115437333D01*
X159729047Y-115484952D01*
X159681428Y-115532571D01*
X159633809Y-115627809D01*
X159633809Y-115865904D01*
X159681428Y-115961142D01*
X159729047Y-116008761D01*
X159824285Y-116056380D01*
X160062380Y-116056380D01*
X160157619Y-116008761D01*
X160205238Y-115961142D01*
X159348095Y-115056380D02*
X159014761Y-116056380D01*
X158681428Y-115056380D01*
X177762857Y-103356380D02*
X177762857Y-102356380D01*
X177524761Y-102356380D01*
X177381904Y-102404000D01*
X177286666Y-102499238D01*
X177239047Y-102594476D01*
X177191428Y-102784952D01*
X177191428Y-102927809D01*
X177239047Y-103118285D01*
X177286666Y-103213523D01*
X177381904Y-103308761D01*
X177524761Y-103356380D01*
X177762857Y-103356380D01*
X176905714Y-102356380D02*
X176334285Y-102356380D01*
X176620000Y-103356380D02*
X176620000Y-102356380D01*
X175429523Y-103356380D02*
X175762857Y-102880190D01*
X176000952Y-103356380D02*
X176000952Y-102356380D01*
X175620000Y-102356380D01*
X175524761Y-102404000D01*
X175477142Y-102451619D01*
X175429523Y-102546857D01*
X175429523Y-102689714D01*
X175477142Y-102784952D01*
X175524761Y-102832571D01*
X175620000Y-102880190D01*
X176000952Y-102880190D01*
X163173714Y-99927428D02*
X162411809Y-99927428D01*
X162792761Y-100308380D02*
X162792761Y-99546476D01*
X161459428Y-99308380D02*
X161935619Y-99308380D01*
X161983238Y-99784571D01*
X161935619Y-99736952D01*
X161840380Y-99689333D01*
X161602285Y-99689333D01*
X161507047Y-99736952D01*
X161459428Y-99784571D01*
X161411809Y-99879809D01*
X161411809Y-100117904D01*
X161459428Y-100213142D01*
X161507047Y-100260761D01*
X161602285Y-100308380D01*
X161840380Y-100308380D01*
X161935619Y-100260761D01*
X161983238Y-100213142D01*
X161126095Y-99308380D02*
X160792761Y-100308380D01*
X160459428Y-99308380D01*
X142353523Y-102456142D02*
X142401142Y-102503761D01*
X142544000Y-102551380D01*
X142639238Y-102551380D01*
X142782095Y-102503761D01*
X142877333Y-102408523D01*
X142924952Y-102313285D01*
X142972571Y-102122809D01*
X142972571Y-101979952D01*
X142924952Y-101789476D01*
X142877333Y-101694238D01*
X142782095Y-101599000D01*
X142639238Y-101551380D01*
X142544000Y-101551380D01*
X142401142Y-101599000D01*
X142353523Y-101646619D01*
X141353523Y-102551380D02*
X141686857Y-102075190D01*
X141924952Y-102551380D02*
X141924952Y-101551380D01*
X141544000Y-101551380D01*
X141448761Y-101599000D01*
X141401142Y-101646619D01*
X141353523Y-101741857D01*
X141353523Y-101884714D01*
X141401142Y-101979952D01*
X141448761Y-102027571D01*
X141544000Y-102075190D01*
X141924952Y-102075190D01*
X140734476Y-102075190D02*
X140734476Y-102551380D01*
X141067809Y-101551380D02*
X140734476Y-102075190D01*
X140401142Y-101551380D01*
X140115428Y-102503761D02*
X139972571Y-102551380D01*
X139734476Y-102551380D01*
X139639238Y-102503761D01*
X139591619Y-102456142D01*
X139544000Y-102360904D01*
X139544000Y-102265666D01*
X139591619Y-102170428D01*
X139639238Y-102122809D01*
X139734476Y-102075190D01*
X139924952Y-102027571D01*
X140020190Y-101979952D01*
X140067809Y-101932333D01*
X140115428Y-101837095D01*
X140115428Y-101741857D01*
X140067809Y-101646619D01*
X140020190Y-101599000D01*
X139924952Y-101551380D01*
X139686857Y-101551380D01*
X139544000Y-101599000D01*
X139258285Y-101551380D02*
X138686857Y-101551380D01*
X138972571Y-102551380D02*
X138972571Y-101551380D01*
X138401142Y-102265666D02*
X137924952Y-102265666D01*
X138496380Y-102551380D02*
X138163047Y-101551380D01*
X137829714Y-102551380D01*
X137020190Y-102551380D02*
X137496380Y-102551380D01*
X137496380Y-101551380D01*
X141115428Y-103161380D02*
X140924952Y-103161380D01*
X140829714Y-103209000D01*
X140734476Y-103304238D01*
X140686857Y-103494714D01*
X140686857Y-103828047D01*
X140734476Y-104018523D01*
X140829714Y-104113761D01*
X140924952Y-104161380D01*
X141115428Y-104161380D01*
X141210666Y-104113761D01*
X141305904Y-104018523D01*
X141353523Y-103828047D01*
X141353523Y-103494714D01*
X141305904Y-103304238D01*
X141210666Y-103209000D01*
X141115428Y-103161380D01*
X140305904Y-104113761D02*
X140163047Y-104161380D01*
X139924952Y-104161380D01*
X139829714Y-104113761D01*
X139782095Y-104066142D01*
X139734476Y-103970904D01*
X139734476Y-103875666D01*
X139782095Y-103780428D01*
X139829714Y-103732809D01*
X139924952Y-103685190D01*
X140115428Y-103637571D01*
X140210666Y-103589952D01*
X140258285Y-103542333D01*
X140305904Y-103447095D01*
X140305904Y-103351857D01*
X140258285Y-103256619D01*
X140210666Y-103209000D01*
X140115428Y-103161380D01*
X139877333Y-103161380D01*
X139734476Y-103209000D01*
X138734476Y-104066142D02*
X138782095Y-104113761D01*
X138924952Y-104161380D01*
X139020190Y-104161380D01*
X139163047Y-104113761D01*
X139258285Y-104018523D01*
X139305904Y-103923285D01*
X139353523Y-103732809D01*
X139353523Y-103589952D01*
X139305904Y-103399476D01*
X139258285Y-103304238D01*
X139163047Y-103209000D01*
X139020190Y-103161380D01*
X138924952Y-103161380D01*
X138782095Y-103209000D01*
X138734476Y-103256619D01*
X151235714Y-115675428D02*
X150473809Y-115675428D01*
X150854761Y-116056380D02*
X150854761Y-115294476D01*
X149521428Y-115056380D02*
X149997619Y-115056380D01*
X150045238Y-115532571D01*
X149997619Y-115484952D01*
X149902380Y-115437333D01*
X149664285Y-115437333D01*
X149569047Y-115484952D01*
X149521428Y-115532571D01*
X149473809Y-115627809D01*
X149473809Y-115865904D01*
X149521428Y-115961142D01*
X149569047Y-116008761D01*
X149664285Y-116056380D01*
X149902380Y-116056380D01*
X149997619Y-116008761D01*
X150045238Y-115961142D01*
X149188095Y-115056380D02*
X148854761Y-116056380D01*
X148521428Y-115056380D01*
X133951714Y-93015428D02*
X133189809Y-93015428D01*
X133570761Y-93396380D02*
X133570761Y-92634476D01*
X132237428Y-92396380D02*
X132713619Y-92396380D01*
X132761238Y-92872571D01*
X132713619Y-92824952D01*
X132618380Y-92777333D01*
X132380285Y-92777333D01*
X132285047Y-92824952D01*
X132237428Y-92872571D01*
X132189809Y-92967809D01*
X132189809Y-93205904D01*
X132237428Y-93301142D01*
X132285047Y-93348761D01*
X132380285Y-93396380D01*
X132618380Y-93396380D01*
X132713619Y-93348761D01*
X132761238Y-93301142D01*
X131904095Y-92396380D02*
X131570761Y-93396380D01*
X131237428Y-92396380D01*
X150719428Y-109960380D02*
X150719428Y-108960380D01*
X150338476Y-108960380D01*
X150243238Y-109008000D01*
X150195619Y-109055619D01*
X150148000Y-109150857D01*
X150148000Y-109293714D01*
X150195619Y-109388952D01*
X150243238Y-109436571D01*
X150338476Y-109484190D01*
X150719428Y-109484190D01*
X149719428Y-109960380D02*
X149719428Y-108960380D01*
X149719428Y-109436571D02*
X149148000Y-109436571D01*
X149148000Y-109960380D02*
X149148000Y-108960380D01*
X148481333Y-108960380D02*
X148290857Y-108960380D01*
X148195619Y-109008000D01*
X148100380Y-109103238D01*
X148052761Y-109293714D01*
X148052761Y-109627047D01*
X148100380Y-109817523D01*
X148195619Y-109912761D01*
X148290857Y-109960380D01*
X148481333Y-109960380D01*
X148576571Y-109912761D01*
X148671809Y-109817523D01*
X148719428Y-109627047D01*
X148719428Y-109293714D01*
X148671809Y-109103238D01*
X148576571Y-109008000D01*
X148481333Y-108960380D01*
X147767047Y-108960380D02*
X147195619Y-108960380D01*
X147481333Y-109960380D02*
X147481333Y-108960380D01*
X146671809Y-108960380D02*
X146481333Y-108960380D01*
X146386095Y-109008000D01*
X146290857Y-109103238D01*
X146243238Y-109293714D01*
X146243238Y-109627047D01*
X146290857Y-109817523D01*
X146386095Y-109912761D01*
X146481333Y-109960380D01*
X146671809Y-109960380D01*
X146767047Y-109912761D01*
X146862285Y-109817523D01*
X146909904Y-109627047D01*
X146909904Y-109293714D01*
X146862285Y-109103238D01*
X146767047Y-109008000D01*
X146671809Y-108960380D01*
X145243238Y-109960380D02*
X145576571Y-109484190D01*
X145814666Y-109960380D02*
X145814666Y-108960380D01*
X145433714Y-108960380D01*
X145338476Y-109008000D01*
X145290857Y-109055619D01*
X145243238Y-109150857D01*
X145243238Y-109293714D01*
X145290857Y-109388952D01*
X145338476Y-109436571D01*
X145433714Y-109484190D01*
X145814666Y-109484190D01*
X144862285Y-109912761D02*
X144719428Y-109960380D01*
X144481333Y-109960380D01*
X144386095Y-109912761D01*
X144338476Y-109865142D01*
X144290857Y-109769904D01*
X144290857Y-109674666D01*
X144338476Y-109579428D01*
X144386095Y-109531809D01*
X144481333Y-109484190D01*
X144671809Y-109436571D01*
X144767047Y-109388952D01*
X144814666Y-109341333D01*
X144862285Y-109246095D01*
X144862285Y-109150857D01*
X144814666Y-109055619D01*
X144767047Y-109008000D01*
X144671809Y-108960380D01*
X144433714Y-108960380D01*
X144290857Y-109008000D01*
X144005142Y-108960380D02*
X143433714Y-108960380D01*
X143719428Y-109960380D02*
X143719428Y-108960380D01*
X142528952Y-109960380D02*
X142862285Y-109484190D01*
X143100380Y-109960380D02*
X143100380Y-108960380D01*
X142719428Y-108960380D01*
X142624190Y-109008000D01*
X142576571Y-109055619D01*
X142528952Y-109150857D01*
X142528952Y-109293714D01*
X142576571Y-109388952D01*
X142624190Y-109436571D01*
X142719428Y-109484190D01*
X143100380Y-109484190D01*
X139265904Y-83925428D02*
X138504000Y-83925428D01*
X138884952Y-84306380D02*
X138884952Y-83544476D01*
X137504000Y-84306380D02*
X138075428Y-84306380D01*
X137789714Y-84306380D02*
X137789714Y-83306380D01*
X137884952Y-83449238D01*
X137980190Y-83544476D01*
X138075428Y-83592095D01*
X137123047Y-83401619D02*
X137075428Y-83354000D01*
X136980190Y-83306380D01*
X136742095Y-83306380D01*
X136646857Y-83354000D01*
X136599238Y-83401619D01*
X136551619Y-83496857D01*
X136551619Y-83592095D01*
X136599238Y-83734952D01*
X137170666Y-84306380D01*
X136551619Y-84306380D01*
X136265904Y-83306380D02*
X135932571Y-84306380D01*
X135599238Y-83306380D01*
X177027904Y-98296380D02*
X176456476Y-98296380D01*
X176742190Y-99296380D02*
X176742190Y-98296380D01*
X176218380Y-98296380D02*
X175551714Y-99296380D01*
X175551714Y-98296380D02*
X176218380Y-99296380D01*
X118279142Y-108452380D02*
X118088666Y-108452380D01*
X117993428Y-108500000D01*
X117898190Y-108595238D01*
X117850571Y-108785714D01*
X117850571Y-109119047D01*
X117898190Y-109309523D01*
X117993428Y-109404761D01*
X118088666Y-109452380D01*
X118279142Y-109452380D01*
X118374380Y-109404761D01*
X118469619Y-109309523D01*
X118517238Y-109119047D01*
X118517238Y-108785714D01*
X118469619Y-108595238D01*
X118374380Y-108500000D01*
X118279142Y-108452380D01*
X117422000Y-108452380D02*
X117422000Y-109261904D01*
X117374380Y-109357142D01*
X117326761Y-109404761D01*
X117231523Y-109452380D01*
X117041047Y-109452380D01*
X116945809Y-109404761D01*
X116898190Y-109357142D01*
X116850571Y-109261904D01*
X116850571Y-108452380D01*
X116517238Y-108452380D02*
X115945809Y-108452380D01*
X116231523Y-109452380D02*
X116231523Y-108452380D01*
X114326761Y-109452380D02*
X114898190Y-109452380D01*
X114612476Y-109452380D02*
X114612476Y-108452380D01*
X114707714Y-108595238D01*
X114802952Y-108690476D01*
X114898190Y-108738095D01*
X177381904Y-100372000D02*
X177477142Y-100324380D01*
X177620000Y-100324380D01*
X177762857Y-100372000D01*
X177858095Y-100467238D01*
X177905714Y-100562476D01*
X177953333Y-100752952D01*
X177953333Y-100895809D01*
X177905714Y-101086285D01*
X177858095Y-101181523D01*
X177762857Y-101276761D01*
X177620000Y-101324380D01*
X177524761Y-101324380D01*
X177381904Y-101276761D01*
X177334285Y-101229142D01*
X177334285Y-100895809D01*
X177524761Y-100895809D01*
X176905714Y-101324380D02*
X176905714Y-100324380D01*
X176334285Y-101324380D01*
X176334285Y-100324380D01*
X175858095Y-101324380D02*
X175858095Y-100324380D01*
X175620000Y-100324380D01*
X175477142Y-100372000D01*
X175381904Y-100467238D01*
X175334285Y-100562476D01*
X175286666Y-100752952D01*
X175286666Y-100895809D01*
X175334285Y-101086285D01*
X175381904Y-101181523D01*
X175477142Y-101276761D01*
X175620000Y-101324380D01*
X175858095Y-101324380D01*
X169674666Y-102340380D02*
X170008000Y-101864190D01*
X170246095Y-102340380D02*
X170246095Y-101340380D01*
X169865142Y-101340380D01*
X169769904Y-101388000D01*
X169722285Y-101435619D01*
X169674666Y-101530857D01*
X169674666Y-101673714D01*
X169722285Y-101768952D01*
X169769904Y-101816571D01*
X169865142Y-101864190D01*
X170246095Y-101864190D01*
X169341333Y-101340380D02*
X168674666Y-102340380D01*
X168674666Y-101340380D02*
X169341333Y-102340380D01*
X170269904Y-99356000D02*
X170365142Y-99308380D01*
X170508000Y-99308380D01*
X170650857Y-99356000D01*
X170746095Y-99451238D01*
X170793714Y-99546476D01*
X170841333Y-99736952D01*
X170841333Y-99879809D01*
X170793714Y-100070285D01*
X170746095Y-100165523D01*
X170650857Y-100260761D01*
X170508000Y-100308380D01*
X170412761Y-100308380D01*
X170269904Y-100260761D01*
X170222285Y-100213142D01*
X170222285Y-99879809D01*
X170412761Y-99879809D01*
X169793714Y-100308380D02*
X169793714Y-99308380D01*
X169222285Y-100308380D01*
X169222285Y-99308380D01*
X168746095Y-100308380D02*
X168746095Y-99308380D01*
X168508000Y-99308380D01*
X168365142Y-99356000D01*
X168269904Y-99451238D01*
X168222285Y-99546476D01*
X168174666Y-99736952D01*
X168174666Y-99879809D01*
X168222285Y-100070285D01*
X168269904Y-100165523D01*
X168365142Y-100260761D01*
X168508000Y-100308380D01*
X168746095Y-100308380D01*
X146489238Y-99292476D02*
X146298761Y-99292476D01*
X146108285Y-99387714D01*
X146013047Y-99578190D01*
X146013047Y-99768666D01*
X146108285Y-99959142D01*
X146298761Y-100054380D01*
X146489238Y-100054380D01*
X146679714Y-99959142D01*
X146774952Y-99768666D01*
X146774952Y-99578190D01*
X146679714Y-99387714D01*
X146489238Y-99292476D01*
X146679714Y-99673428D02*
X146108285Y-99673428D01*
X146394000Y-99387714D02*
X146394000Y-99959142D01*
X121525238Y-96396571D02*
X121858571Y-96396571D01*
X121858571Y-96920380D02*
X121858571Y-95920380D01*
X121382380Y-95920380D01*
X120620476Y-96872761D02*
X120715714Y-96920380D01*
X120906190Y-96920380D01*
X121001428Y-96872761D01*
X121049047Y-96777523D01*
X121049047Y-96396571D01*
X121001428Y-96301333D01*
X120906190Y-96253714D01*
X120715714Y-96253714D01*
X120620476Y-96301333D01*
X120572857Y-96396571D01*
X120572857Y-96491809D01*
X121049047Y-96587047D01*
X120144285Y-96920380D02*
X120144285Y-95920380D01*
X120144285Y-96301333D02*
X120049047Y-96253714D01*
X119858571Y-96253714D01*
X119763333Y-96301333D01*
X119715714Y-96348952D01*
X119668095Y-96444190D01*
X119668095Y-96729904D01*
X119715714Y-96825142D01*
X119763333Y-96872761D01*
X119858571Y-96920380D01*
X120049047Y-96920380D01*
X120144285Y-96872761D01*
X117953809Y-96920380D02*
X118525238Y-96920380D01*
X118239523Y-96920380D02*
X118239523Y-95920380D01*
X118334761Y-96063238D01*
X118430000Y-96158476D01*
X118525238Y-96206095D01*
X117620476Y-95920380D02*
X116953809Y-95920380D01*
X117382380Y-96920380D01*
X116525238Y-96872761D02*
X116525238Y-96920380D01*
X116572857Y-97015619D01*
X116620476Y-97063238D01*
X115382380Y-96015619D02*
X115334761Y-95968000D01*
X115239523Y-95920380D01*
X115001428Y-95920380D01*
X114906190Y-95968000D01*
X114858571Y-96015619D01*
X114810952Y-96110857D01*
X114810952Y-96206095D01*
X114858571Y-96348952D01*
X115430000Y-96920380D01*
X114810952Y-96920380D01*
X114191904Y-95920380D02*
X114096666Y-95920380D01*
X114001428Y-95968000D01*
X113953809Y-96015619D01*
X113906190Y-96110857D01*
X113858571Y-96301333D01*
X113858571Y-96539428D01*
X113906190Y-96729904D01*
X113953809Y-96825142D01*
X114001428Y-96872761D01*
X114096666Y-96920380D01*
X114191904Y-96920380D01*
X114287142Y-96872761D01*
X114334761Y-96825142D01*
X114382380Y-96729904D01*
X114430000Y-96539428D01*
X114430000Y-96301333D01*
X114382380Y-96110857D01*
X114334761Y-96015619D01*
X114287142Y-95968000D01*
X114191904Y-95920380D01*
X113477619Y-96015619D02*
X113430000Y-95968000D01*
X113334761Y-95920380D01*
X113096666Y-95920380D01*
X113001428Y-95968000D01*
X112953809Y-96015619D01*
X112906190Y-96110857D01*
X112906190Y-96206095D01*
X112953809Y-96348952D01*
X113525238Y-96920380D01*
X112906190Y-96920380D01*
X112525238Y-96015619D02*
X112477619Y-95968000D01*
X112382380Y-95920380D01*
X112144285Y-95920380D01*
X112049047Y-95968000D01*
X112001428Y-96015619D01*
X111953809Y-96110857D01*
X111953809Y-96206095D01*
X112001428Y-96348952D01*
X112572857Y-96920380D01*
X111953809Y-96920380D01*
X122430000Y-98530380D02*
X122430000Y-97530380D01*
X122049047Y-97530380D01*
X121953809Y-97578000D01*
X121906190Y-97625619D01*
X121858571Y-97720857D01*
X121858571Y-97863714D01*
X121906190Y-97958952D01*
X121953809Y-98006571D01*
X122049047Y-98054190D01*
X122430000Y-98054190D01*
X121001428Y-98530380D02*
X121001428Y-98006571D01*
X121049047Y-97911333D01*
X121144285Y-97863714D01*
X121334761Y-97863714D01*
X121430000Y-97911333D01*
X121001428Y-98482761D02*
X121096666Y-98530380D01*
X121334761Y-98530380D01*
X121430000Y-98482761D01*
X121477619Y-98387523D01*
X121477619Y-98292285D01*
X121430000Y-98197047D01*
X121334761Y-98149428D01*
X121096666Y-98149428D01*
X121001428Y-98101809D01*
X120525238Y-97863714D02*
X120525238Y-98530380D01*
X120525238Y-97958952D02*
X120477619Y-97911333D01*
X120382380Y-97863714D01*
X120239523Y-97863714D01*
X120144285Y-97911333D01*
X120096666Y-98006571D01*
X120096666Y-98530380D01*
X119763333Y-97863714D02*
X119382380Y-97863714D01*
X119620476Y-97530380D02*
X119620476Y-98387523D01*
X119572857Y-98482761D01*
X119477619Y-98530380D01*
X119382380Y-98530380D01*
X119049047Y-98530380D02*
X119049047Y-97863714D01*
X119049047Y-98054190D02*
X119001428Y-97958952D01*
X118953809Y-97911333D01*
X118858571Y-97863714D01*
X118763333Y-97863714D01*
X118525238Y-97863714D02*
X118287142Y-98530380D01*
X118049047Y-97863714D02*
X118287142Y-98530380D01*
X118382380Y-98768476D01*
X118430000Y-98816095D01*
X118525238Y-98863714D01*
X116430000Y-98530380D02*
X116906190Y-98530380D01*
X116906190Y-97530380D01*
X116096666Y-98530380D02*
X116096666Y-97863714D01*
X116096666Y-97530380D02*
X116144285Y-97578000D01*
X116096666Y-97625619D01*
X116049047Y-97578000D01*
X116096666Y-97530380D01*
X116096666Y-97625619D01*
X115191904Y-97863714D02*
X115191904Y-98673238D01*
X115239523Y-98768476D01*
X115287142Y-98816095D01*
X115382380Y-98863714D01*
X115525238Y-98863714D01*
X115620476Y-98816095D01*
X115191904Y-98482761D02*
X115287142Y-98530380D01*
X115477619Y-98530380D01*
X115572857Y-98482761D01*
X115620476Y-98435142D01*
X115668095Y-98339904D01*
X115668095Y-98054190D01*
X115620476Y-97958952D01*
X115572857Y-97911333D01*
X115477619Y-97863714D01*
X115287142Y-97863714D01*
X115191904Y-97911333D01*
X114715714Y-98530380D02*
X114715714Y-97530380D01*
X114287142Y-98530380D02*
X114287142Y-98006571D01*
X114334761Y-97911333D01*
X114430000Y-97863714D01*
X114572857Y-97863714D01*
X114668095Y-97911333D01*
X114715714Y-97958952D01*
X113953809Y-97863714D02*
X113572857Y-97863714D01*
X113810952Y-97530380D02*
X113810952Y-98387523D01*
X113763333Y-98482761D01*
X113668095Y-98530380D01*
X113572857Y-98530380D01*
X113239523Y-98530380D02*
X113239523Y-97863714D01*
X113239523Y-97530380D02*
X113287142Y-97578000D01*
X113239523Y-97625619D01*
X113191904Y-97578000D01*
X113239523Y-97530380D01*
X113239523Y-97625619D01*
X112763333Y-97863714D02*
X112763333Y-98530380D01*
X112763333Y-97958952D02*
X112715714Y-97911333D01*
X112620476Y-97863714D01*
X112477619Y-97863714D01*
X112382380Y-97911333D01*
X112334761Y-98006571D01*
X112334761Y-98530380D01*
X111430000Y-97863714D02*
X111430000Y-98673238D01*
X111477619Y-98768476D01*
X111525238Y-98816095D01*
X111620476Y-98863714D01*
X111763333Y-98863714D01*
X111858571Y-98816095D01*
X111430000Y-98482761D02*
X111525238Y-98530380D01*
X111715714Y-98530380D01*
X111810952Y-98482761D01*
X111858571Y-98435142D01*
X111906190Y-98339904D01*
X111906190Y-98054190D01*
X111858571Y-97958952D01*
X111810952Y-97911333D01*
X111715714Y-97863714D01*
X111525238Y-97863714D01*
X111430000Y-97911333D01*
X118358571Y-100140380D02*
X118691904Y-99664190D01*
X118930000Y-100140380D02*
X118930000Y-99140380D01*
X118549047Y-99140380D01*
X118453809Y-99188000D01*
X118406190Y-99235619D01*
X118358571Y-99330857D01*
X118358571Y-99473714D01*
X118406190Y-99568952D01*
X118453809Y-99616571D01*
X118549047Y-99664190D01*
X118930000Y-99664190D01*
X117930000Y-99616571D02*
X117596666Y-99616571D01*
X117453809Y-100140380D02*
X117930000Y-100140380D01*
X117930000Y-99140380D01*
X117453809Y-99140380D01*
X117168095Y-99140380D02*
X116834761Y-100140380D01*
X116501428Y-99140380D01*
X115453809Y-99235619D02*
X115406190Y-99188000D01*
X115310952Y-99140380D01*
X115072857Y-99140380D01*
X114977619Y-99188000D01*
X114930000Y-99235619D01*
X114882380Y-99330857D01*
X114882380Y-99426095D01*
X114930000Y-99568952D01*
X115501428Y-100140380D01*
X114882380Y-100140380D01*
X159379523Y-109960380D02*
X159379523Y-108960380D01*
X159141428Y-108960380D01*
X158998571Y-109008000D01*
X158903333Y-109103238D01*
X158855714Y-109198476D01*
X158808095Y-109388952D01*
X158808095Y-109531809D01*
X158855714Y-109722285D01*
X158903333Y-109817523D01*
X158998571Y-109912761D01*
X159141428Y-109960380D01*
X159379523Y-109960380D01*
X158189047Y-108960380D02*
X157998571Y-108960380D01*
X157903333Y-109008000D01*
X157808095Y-109103238D01*
X157760476Y-109293714D01*
X157760476Y-109627047D01*
X157808095Y-109817523D01*
X157903333Y-109912761D01*
X157998571Y-109960380D01*
X158189047Y-109960380D01*
X158284285Y-109912761D01*
X158379523Y-109817523D01*
X158427142Y-109627047D01*
X158427142Y-109293714D01*
X158379523Y-109103238D01*
X158284285Y-109008000D01*
X158189047Y-108960380D01*
X157141428Y-108960380D02*
X156950952Y-108960380D01*
X156855714Y-109008000D01*
X156760476Y-109103238D01*
X156712857Y-109293714D01*
X156712857Y-109627047D01*
X156760476Y-109817523D01*
X156855714Y-109912761D01*
X156950952Y-109960380D01*
X157141428Y-109960380D01*
X157236666Y-109912761D01*
X157331904Y-109817523D01*
X157379523Y-109627047D01*
X157379523Y-109293714D01*
X157331904Y-109103238D01*
X157236666Y-109008000D01*
X157141428Y-108960380D01*
X155712857Y-109960380D02*
X156046190Y-109484190D01*
X156284285Y-109960380D02*
X156284285Y-108960380D01*
X155903333Y-108960380D01*
X155808095Y-109008000D01*
X155760476Y-109055619D01*
X155712857Y-109150857D01*
X155712857Y-109293714D01*
X155760476Y-109388952D01*
X155808095Y-109436571D01*
X155903333Y-109484190D01*
X156284285Y-109484190D01*
%LPC*%
D13*
%TO.C,Q2*%
X128106000Y-104174000D03*
D14*
X130646000Y-104174000D03*
X133186000Y-104174000D03*
%TD*%
D15*
%TO.C,J5*%
X166206000Y-115487000D03*
D16*
X166206000Y-112947000D03*
X168746000Y-115487000D03*
X168746000Y-112947000D03*
X171286000Y-115487000D03*
X171286000Y-112947000D03*
%TD*%
D13*
%TO.C,Q1*%
X115406000Y-104174000D03*
D14*
X117946000Y-104174000D03*
X120486000Y-104174000D03*
%TD*%
D17*
%TO.C,J2*%
X176366000Y-94014000D03*
X176366000Y-106714000D03*
D18*
X173826000Y-96804000D03*
D19*
X172046000Y-97820000D03*
X173826000Y-98836000D03*
X172046000Y-99852000D03*
X173826000Y-100868000D03*
X172046000Y-101884000D03*
X173826000Y-102900000D03*
X172046000Y-103916000D03*
X167226000Y-93504000D03*
X167226000Y-95794000D03*
X167226000Y-104934000D03*
X167226000Y-107224000D03*
D20*
X172936000Y-92234000D03*
X172936000Y-108494000D03*
%TD*%
D21*
%TO.C,J3*%
X116676000Y-113064000D03*
D22*
X121756000Y-113064000D03*
X126836000Y-113064000D03*
X131916000Y-113064000D03*
%TD*%
D23*
%TO.C,SW4*%
X149406000Y-80604000D03*
X144906000Y-80604000D03*
X149406000Y-87104000D03*
X144906000Y-87104000D03*
%TD*%
%TO.C,SW2*%
X163956000Y-87104000D03*
X168456000Y-87104000D03*
X163956000Y-80604000D03*
X168456000Y-80604000D03*
%TD*%
%TO.C,SW3*%
X172846000Y-87104000D03*
X177346000Y-87104000D03*
X172846000Y-80604000D03*
X177346000Y-80604000D03*
%TD*%
D24*
%TO.C,U2*%
X129376000Y-86394000D03*
D25*
X129376000Y-88934000D03*
X129376000Y-91474000D03*
%TD*%
D21*
%TO.C,J4*%
X144616000Y-113064000D03*
D22*
X149696000Y-113064000D03*
X154776000Y-113064000D03*
X159856000Y-113064000D03*
%TD*%
D26*
%TO.C,J1*%
X123026000Y-88934000D03*
D27*
X116726000Y-88934000D03*
D28*
X120126000Y-93734000D03*
%TD*%
D23*
%TO.C,SW1*%
X155066000Y-87104000D03*
X159566000Y-87104000D03*
X155066000Y-80604000D03*
X159566000Y-80604000D03*
%TD*%
M02*
