M48
; DRILL file {KiCad (6.0.0)} date Sat May 28 20:15:37 2022
; FORMAT={-:-/ absolute / metric / decimal}
; #@! TF.CreationDate,2022-05-28T20:15:37-06:00
; #@! TF.GenerationSoftware,Kicad,Pcbnew,(6.0.0)
; #@! TF.FileFunction,Plated,1,2,PTH
FMAT,2
METRIC
; #@! TA.AperFunction,Plated,PTH,ViaDrill
T1C0.254
; #@! TA.AperFunction,Plated,PTH,ViaDrill
T2C0.381
; #@! TA.AperFunction,Plated,PTH,ViaDrill
T3C0.508
; #@! TA.AperFunction,Plated,PTH,ComponentDrill
T4C0.890
; #@! TA.AperFunction,Plated,PTH,ComponentDrill
T5C1.000
; #@! TA.AperFunction,Plated,PTH,ComponentDrill
T6C1.100
; #@! TA.AperFunction,Plated,PTH,ComponentDrill
T7C1.300
; #@! TA.AperFunction,Plated,PTH,ComponentDrill
T8C1.570
; #@! TA.AperFunction,Plated,PTH,ViaDrill
T9C3.175
%
G90
G05
T1
X121.894Y-101.588
X128.614Y-96.808
X130.122Y-98.389
X132.066Y-100.444
X136.366Y-101.744
X140.513Y-98.895
X148.034Y-89.656
X148.426Y-103.412
X148.817Y-100.971
X149.188Y-103.117
X149.442Y-95.844
X149.95Y-103.412
X149.975Y-96.344
X150.838Y-97.637
X151.283Y-106.207
X156.808Y-100.872
X157.062Y-89.442
X158.332Y-101.38
X158.901Y-96.474
X162.907Y-95.717
T2
X115.152Y-106.714
X119.766Y-106.844
X124.004Y-107.969
X124.296Y-82.584
X125.718Y-84.057
X128.36Y-100.11
X130.172Y-100.296
X132.266Y-106.844
X133.669Y-88.933
X134.266Y-110.344
X135.472Y-87.156
X136.266Y-90.344
X136.996Y-98.078
X138.012Y-95.792
X138.11Y-105.083
X138.266Y-87.156
X138.266Y-93.76
X139.282Y-96.808
X140.266Y-90.344
X141.687Y-105.133
X141.801Y-100.679
X142.623Y-94.066
X142.627Y-95.708
X143.477Y-105.094
X144.108Y-99.602
X145.889Y-94.104
X145.935Y-95.699
X147.266Y-110.844
X150.917Y-95.657
X152.266Y-107.984
X152.266Y-110.844
X154.245Y-94.891
X154.522Y-105.952
X155.03Y-109.508
X156.3Y-105.19
X157.824Y-106.714
X159.602Y-95.284
X159.602Y-97.824
X167.222Y-100.364
T3
X143.818Y-89.152
X152.998Y-90.966
T4
X167.226Y-93.504
X167.226Y-95.794
X167.226Y-104.934
X167.226Y-107.224
X172.046Y-97.82
X172.046Y-99.852
X172.046Y-101.884
X172.046Y-103.916
X173.826Y-96.804
X173.826Y-98.836
X173.826Y-100.868
X173.826Y-102.9
T5
X166.206Y-112.947
X166.206Y-115.487
X168.746Y-112.947
X168.746Y-115.487
X171.286Y-112.947
X171.286Y-115.487
T6
X115.406Y-104.174
X117.946Y-104.174
X120.486Y-104.174
X128.106Y-104.174
X129.376Y-86.394
X129.376Y-88.934
X129.376Y-91.474
X130.646Y-104.174
X133.186Y-104.174
X144.906Y-80.604
X144.906Y-87.104
X149.406Y-80.604
X149.406Y-87.104
X155.066Y-80.604
X155.066Y-87.104
X159.566Y-80.604
X159.566Y-87.104
X163.956Y-80.604
X163.956Y-87.104
X168.456Y-80.604
X168.456Y-87.104
X172.846Y-80.604
X172.846Y-87.104
X177.346Y-80.604
X177.346Y-87.104
T7
X116.676Y-113.064
X121.756Y-113.064
X126.836Y-113.064
X131.916Y-113.064
X144.616Y-113.064
X149.696Y-113.064
X154.776Y-113.064
X159.856Y-113.064
T8
X172.936Y-92.234
X172.936Y-108.494
T9
X120.016Y-81.094
X140.266Y-108.594
X163.766Y-90.844
T5
X116.726Y-87.834G85X116.726Y-90.034
G05
X121.226Y-93.734G85X119.026Y-93.734
G05
X123.026Y-87.634G85X123.026Y-90.234
G05
T0
M30
