%TF.GenerationSoftware,KiCad,Pcbnew,(6.0.0)*%
%TF.CreationDate,2022-01-26T18:23:26-07:00*%
%TF.ProjectId,PantryLights,50616e74-7279-44c6-9967-6874732e6b69,rev?*%
%TF.SameCoordinates,Original*%
%TF.FileFunction,Copper,L2,Bot*%
%TF.FilePolarity,Positive*%
%FSLAX46Y46*%
G04 Gerber Fmt 4.6, Leading zero omitted, Abs format (unit mm)*
G04 Created by KiCad (PCBNEW (6.0.0)) date 2022-01-26 18:23:26*
%MOMM*%
%LPD*%
G01*
G04 APERTURE LIST*
%TA.AperFunction,ComponentPad*%
%ADD10R,1.700000X1.700000*%
%TD*%
%TA.AperFunction,ComponentPad*%
%ADD11O,1.700000X1.700000*%
%TD*%
%TA.AperFunction,ComponentPad*%
%ADD12C,2.000000*%
%TD*%
%TA.AperFunction,ComponentPad*%
%ADD13R,2.600000X2.600000*%
%TD*%
%TA.AperFunction,ComponentPad*%
%ADD14C,2.600000*%
%TD*%
%TA.AperFunction,ComponentPad*%
%ADD15C,1.500000*%
%TD*%
%TA.AperFunction,ComponentPad*%
%ADD16C,2.300000*%
%TD*%
%TA.AperFunction,ComponentPad*%
%ADD17R,1.500000X1.500000*%
%TD*%
%TA.AperFunction,ComponentPad*%
%ADD18R,2.000000X4.600000*%
%TD*%
%TA.AperFunction,ComponentPad*%
%ADD19O,2.000000X4.200000*%
%TD*%
%TA.AperFunction,ComponentPad*%
%ADD20O,4.200000X2.000000*%
%TD*%
%TA.AperFunction,ComponentPad*%
%ADD21O,1.905000X2.000000*%
%TD*%
%TA.AperFunction,ComponentPad*%
%ADD22R,1.905000X2.000000*%
%TD*%
%TA.AperFunction,ViaPad*%
%ADD23C,0.685800*%
%TD*%
%TA.AperFunction,ViaPad*%
%ADD24C,4.445000*%
%TD*%
%TA.AperFunction,ViaPad*%
%ADD25C,0.889000*%
%TD*%
%TA.AperFunction,Conductor*%
%ADD26C,0.254000*%
%TD*%
%TA.AperFunction,Conductor*%
%ADD27C,0.381000*%
%TD*%
%TA.AperFunction,Conductor*%
%ADD28C,1.270000*%
%TD*%
%TA.AperFunction,Conductor*%
%ADD29C,0.508000*%
%TD*%
%TA.AperFunction,Conductor*%
%ADD30C,0.762000*%
%TD*%
G04 APERTURE END LIST*
D10*
%TO.P,J5,1,Pin_1*%
%TO.N,MISO*%
X130805000Y-91455000D03*
D11*
%TO.P,J5,2,Pin_2*%
%TO.N,+5V*%
X133345000Y-91455000D03*
%TO.P,J5,3,Pin_3*%
%TO.N,SCK*%
X130805000Y-93995000D03*
%TO.P,J5,4,Pin_4*%
%TO.N,MOSI*%
X133345000Y-93995000D03*
%TO.P,J5,5,Pin_5*%
%TO.N,RESET*%
X130805000Y-96535000D03*
%TO.P,J5,6,Pin_6*%
%TO.N,GND*%
X133345000Y-96535000D03*
%TD*%
D12*
%TO.P,SW3,1,1*%
%TO.N,Net-(U1-Pad2)*%
X146610000Y-75220000D03*
%TO.P,SW3,2,2*%
X146610000Y-79720000D03*
%TO.P,SW3,3,K*%
%TO.N,GND*%
X153110000Y-75220000D03*
%TO.P,SW3,4,A*%
X153110000Y-79720000D03*
%TD*%
%TO.P,SW2,4,A*%
%TO.N,GND*%
X153260000Y-89880000D03*
%TO.P,SW2,3,K*%
X153260000Y-85380000D03*
%TO.P,SW2,2,2*%
%TO.N,Net-(U1-Pad1)*%
X146760000Y-89880000D03*
%TO.P,SW2,1,1*%
X146760000Y-85380000D03*
%TD*%
%TO.P,SW1,4,A*%
%TO.N,GND*%
X153260000Y-100040000D03*
%TO.P,SW1,3,K*%
X153260000Y-95540000D03*
%TO.P,SW1,2,2*%
%TO.N,Net-(U1-Pad32)*%
X146760000Y-100040000D03*
%TO.P,SW1,1,1*%
X146760000Y-95540000D03*
%TD*%
D13*
%TO.P,J4,1,Pin_1*%
%TO.N,Net-(J4-Pad1)*%
X160730000Y-116920000D03*
D14*
%TO.P,J4,2,Pin_2*%
%TO.N,+5V*%
X165810000Y-116920000D03*
%TO.P,J4,3,Pin_3*%
%TO.N,Net-(J4-Pad3)*%
X170890000Y-116920000D03*
%TO.P,J4,4,Pin_4*%
%TO.N,+5V*%
X175970000Y-116920000D03*
%TD*%
D13*
%TO.P,J3,1,Pin_1*%
%TO.N,+12V*%
X112470006Y-116920010D03*
D14*
%TO.P,J3,2,Pin_2*%
%TO.N,Net-(J3-Pad2)*%
X117550006Y-116920010D03*
%TO.P,J3,3,Pin_3*%
%TO.N,+12V*%
X122630006Y-116920010D03*
%TO.P,J3,4,Pin_4*%
%TO.N,Net-(Q2-Pad2)*%
X127710006Y-116920010D03*
%TD*%
D15*
%TO.P,J2,12*%
%TO.N,Net-(J2-Pad12)*%
X169370000Y-88360000D03*
%TO.P,J2,11*%
%TO.N,TX*%
X169370000Y-86070000D03*
%TO.P,J2,10*%
%TO.N,Net-(J2-Pad10)*%
X169370000Y-76930000D03*
%TO.P,J2,9*%
%TO.N,RX*%
X169370000Y-74640000D03*
D16*
%TO.P,J2,SH*%
%TO.N,GND*%
X175080000Y-73370000D03*
X175080000Y-89630000D03*
D15*
%TO.P,J2,8*%
%TO.N,unconnected-(J2-Pad8)*%
X174190000Y-85052000D03*
%TO.P,J2,6*%
%TO.N,RX*%
X174190000Y-83020000D03*
%TO.P,J2,4*%
%TO.N,GND*%
X174190000Y-80988000D03*
%TO.P,J2,2*%
%TO.N,unconnected-(J2-Pad2)*%
X174190000Y-78956000D03*
%TO.P,J2,7*%
%TO.N,unconnected-(J2-Pad7)*%
X175970000Y-84036000D03*
%TO.P,J2,5*%
%TO.N,GND*%
X175970000Y-82004000D03*
%TO.P,J2,3*%
%TO.N,TX*%
X175970000Y-79972000D03*
D17*
%TO.P,J2,1*%
%TO.N,unconnected-(J2-Pad1)*%
X175970000Y-77940000D03*
%TD*%
D18*
%TO.P,J1,1*%
%TO.N,+12V*%
X117425000Y-84455000D03*
D19*
%TO.P,J1,2*%
%TO.N,GND*%
X111125000Y-84455000D03*
D20*
%TO.P,J1,3*%
X114525000Y-89255000D03*
%TD*%
D15*
%TO.P,Y1,2,2*%
%TO.N,Net-(Y1-Pad2)*%
X165810000Y-101310000D03*
%TO.P,Y1,1,1*%
%TO.N,Net-(Y1-Pad1)*%
X160930000Y-101310000D03*
%TD*%
D21*
%TO.P,U2,3,VO*%
%TO.N,+5V*%
X112470000Y-94615000D03*
%TO.P,U2,2,GND*%
%TO.N,GND*%
X115010000Y-94615000D03*
D22*
%TO.P,U2,1,VI*%
%TO.N,+12V*%
X117550000Y-94615000D03*
%TD*%
D12*
%TO.P,SW4,1,1*%
%TO.N,GND*%
X172160000Y-97500000D03*
%TO.P,SW4,2,2*%
X172160000Y-102000000D03*
%TO.P,SW4,3,K*%
%TO.N,RESET*%
X178660000Y-97500000D03*
%TO.P,SW4,4,A*%
X178660000Y-102000000D03*
%TD*%
D22*
%TO.P,Q2,1,G*%
%TO.N,Net-(Q1-Pad1)*%
X125170000Y-106390000D03*
D21*
%TO.P,Q2,2,D*%
%TO.N,Net-(Q2-Pad2)*%
X127710000Y-106390000D03*
%TO.P,Q2,3,S*%
%TO.N,GND*%
X130250000Y-106390000D03*
%TD*%
D22*
%TO.P,Q1,1,G*%
%TO.N,Net-(Q1-Pad1)*%
X112470000Y-106390000D03*
D21*
%TO.P,Q1,2,D*%
%TO.N,Net-(J3-Pad2)*%
X115010000Y-106390000D03*
%TO.P,Q1,3,S*%
%TO.N,GND*%
X117550000Y-106390000D03*
%TD*%
D23*
%TO.N,GND*%
X150566433Y-114591954D03*
D24*
X157480000Y-92710000D03*
X165735000Y-107315000D03*
X109855000Y-74930000D03*
D25*
X128270000Y-81280000D03*
X131445000Y-83185000D03*
X149860000Y-108585000D03*
X155575000Y-109855000D03*
X143510000Y-113030000D03*
D23*
X136525000Y-109855000D03*
D25*
X137077231Y-114025249D03*
D23*
%TO.N,+5V*%
X134083528Y-115467351D03*
D25*
%TO.N,GND*%
X143510000Y-101600000D03*
X146050000Y-104775000D03*
X147955000Y-106045000D03*
X147320000Y-92710000D03*
X147320000Y-82550000D03*
X140970000Y-83820000D03*
X137160000Y-99060000D03*
X130810000Y-102235000D03*
X134620000Y-117475000D03*
X180187392Y-105082153D03*
X161290000Y-97790000D03*
X167005000Y-73025000D03*
X167005000Y-92075000D03*
X165100000Y-93980000D03*
X120650000Y-90805000D03*
X120024579Y-84455000D03*
X128905000Y-74930000D03*
X135255000Y-74930000D03*
X128361180Y-85861441D03*
X131445000Y-85090000D03*
X123825000Y-85725000D03*
X123190000Y-99060000D03*
X117475000Y-100965000D03*
X113030000Y-100965000D03*
X121920000Y-109855000D03*
X109855000Y-109855000D03*
X124460000Y-102235000D03*
X156210000Y-102870000D03*
X159385000Y-106045000D03*
X154305000Y-108585000D03*
X180340000Y-116840000D03*
X175895000Y-113665000D03*
X156845000Y-117475000D03*
X151920337Y-112843192D03*
X142875000Y-114300000D03*
X143510000Y-111125000D03*
X131445000Y-113665000D03*
X131445000Y-111760000D03*
X139700000Y-101600000D03*
X140335000Y-92075000D03*
X139065000Y-99060000D03*
D23*
%TO.N,TX*%
X144775413Y-115231409D03*
%TO.N,RX*%
X146061508Y-115224224D03*
D25*
%TO.N,+5V*%
X177800000Y-93345000D03*
D23*
%TO.N,Net-(U1-Pad2)*%
X146050000Y-103505000D03*
X150940047Y-115605023D03*
%TO.N,Net-(U1-Pad1)*%
X144780000Y-103505000D03*
X149860000Y-116205000D03*
%TO.N,Net-(U1-Pad32)*%
X148913909Y-117322211D03*
%TO.N,MOSI*%
X139065000Y-106680000D03*
%TO.N,MISO*%
X137160000Y-107315000D03*
%TO.N,SCK*%
X137795000Y-109220000D03*
%TO.N,RESET*%
X150495000Y-117475000D03*
D25*
%TO.N,+5V*%
X153987500Y-116522500D03*
X156210000Y-113030000D03*
D23*
X134620000Y-109855000D03*
X129540000Y-84455000D03*
%TD*%
D26*
%TO.N,Net-(U1-Pad2)*%
X142240000Y-116205000D02*
X141411870Y-115376870D01*
X141411870Y-115376870D02*
X141411870Y-108143130D01*
X147955000Y-115570000D02*
X147320000Y-116205000D01*
X150905024Y-115570000D02*
X147955000Y-115570000D01*
X147320000Y-116205000D02*
X142240000Y-116205000D01*
X141411870Y-108143130D02*
X146050000Y-103505000D01*
X150940047Y-115605023D02*
X150905024Y-115570000D01*
%TO.N,TX*%
X169200000Y-86070000D02*
X169370000Y-86070000D01*
X144780000Y-111125000D02*
X166370000Y-89535000D01*
X144780000Y-115226822D02*
X144780000Y-111125000D01*
X144775413Y-115231409D02*
X144780000Y-115226822D01*
X166370000Y-89535000D02*
X166370000Y-88900000D01*
X166370000Y-88900000D02*
X169200000Y-86070000D01*
%TO.N,RX*%
X171450000Y-85760000D02*
X174190000Y-83020000D01*
X170180000Y-90170000D02*
X171450000Y-88900000D01*
X146050000Y-111125000D02*
X167005000Y-90170000D01*
X146050000Y-115212716D02*
X146050000Y-111125000D01*
X171450000Y-88900000D02*
X171450000Y-85760000D01*
X146061508Y-115224224D02*
X146050000Y-115212716D01*
X167005000Y-90170000D02*
X170180000Y-90170000D01*
%TO.N,Net-(U1-Pad32)*%
X146760000Y-100255000D02*
X146760000Y-100040000D01*
X139893129Y-107121871D02*
X146760000Y-100255000D01*
X140970000Y-117475000D02*
X139893129Y-116398129D01*
X148761120Y-117475000D02*
X140970000Y-117475000D01*
X148913909Y-117322211D02*
X148761120Y-117475000D01*
X139893129Y-116398129D02*
X139893129Y-107121871D01*
%TO.N,Net-(U1-Pad1)*%
X147955000Y-116840000D02*
X148590000Y-116205000D01*
X140635902Y-115870902D02*
X141605000Y-116840000D01*
X141605000Y-116840000D02*
X147955000Y-116840000D01*
X140635902Y-107649098D02*
X140635902Y-115870902D01*
X148590000Y-116205000D02*
X149860000Y-116205000D01*
X144780000Y-103505000D02*
X140635902Y-107649098D01*
D27*
%TO.N,+5V*%
X134087649Y-115467351D02*
X134620000Y-114935000D01*
X134083528Y-115467351D02*
X134087649Y-115467351D01*
D28*
%TO.N,+12V*%
X119380000Y-113030000D02*
X120015000Y-113665000D01*
X120015000Y-113665000D02*
X120015000Y-97080000D01*
X120015000Y-97080000D02*
X117550000Y-94615000D01*
%TO.N,+5V*%
X118745000Y-92075000D02*
X120650000Y-93980000D01*
X112470000Y-93270000D02*
X113665000Y-92075000D01*
X112470000Y-94615000D02*
X112470000Y-93270000D01*
X113665000Y-92075000D02*
X118745000Y-92075000D01*
X135255000Y-115570000D02*
X134620000Y-114935000D01*
X134620000Y-114935000D02*
X134620000Y-109855000D01*
X139065000Y-119380000D02*
X151130000Y-119380000D01*
X135255000Y-115570000D02*
X139065000Y-119380000D01*
X151130000Y-119380000D02*
X153987500Y-116522500D01*
D29*
%TO.N,GND*%
X174190000Y-80988000D02*
X175970000Y-82004000D01*
D26*
%TO.N,+5V*%
X129540000Y-84455000D02*
X129540000Y-87630000D01*
D27*
X181610000Y-111280000D02*
X175970000Y-116920000D01*
X179705000Y-93345000D02*
X181610000Y-95250000D01*
X181610000Y-95250000D02*
X181610000Y-111280000D01*
X177800000Y-93345000D02*
X179705000Y-93345000D01*
D26*
%TO.N,RESET*%
X178660000Y-102000000D02*
X178660000Y-97500000D01*
X175895000Y-111760000D02*
X178660000Y-108995000D01*
X156210000Y-111760000D02*
X175895000Y-111760000D01*
X178660000Y-108995000D02*
X178660000Y-102000000D01*
X150495000Y-117475000D02*
X156210000Y-111760000D01*
%TO.N,MISO*%
X130795000Y-91455000D02*
X130805000Y-91455000D01*
X128270000Y-93980000D02*
X130795000Y-91455000D01*
X128270000Y-98425000D02*
X128270000Y-93980000D01*
X132237205Y-99060000D02*
X128905000Y-99060000D01*
X128905000Y-99060000D02*
X128270000Y-98425000D01*
X137160000Y-103982795D02*
X132237205Y-99060000D01*
X137160000Y-107315000D02*
X137160000Y-103982795D01*
%TO.N,SCK*%
X137795000Y-103505000D02*
X137795000Y-109220000D01*
X129540000Y-98425000D02*
X132715000Y-98425000D01*
X132715000Y-98425000D02*
X137795000Y-103505000D01*
X128905000Y-97790000D02*
X129540000Y-98425000D01*
X128905000Y-95895000D02*
X128905000Y-97790000D01*
X130805000Y-93995000D02*
X128905000Y-95895000D01*
%TO.N,RESET*%
X131777500Y-96535000D02*
X130805000Y-96535000D01*
X132216089Y-96973589D02*
X131777500Y-96535000D01*
X132906411Y-97663911D02*
X132877389Y-97663911D01*
X132216089Y-97002611D02*
X132216089Y-96973589D01*
X138430000Y-103187500D02*
X132906411Y-97663911D01*
X138430000Y-116205000D02*
X138430000Y-103187500D01*
X140335000Y-118110000D02*
X138430000Y-116205000D01*
X149860000Y-118110000D02*
X140335000Y-118110000D01*
X132877389Y-97663911D02*
X132216089Y-97002611D01*
X150495000Y-117475000D02*
X149860000Y-118110000D01*
%TO.N,MOSI*%
X135890000Y-95885000D02*
X134000000Y-93995000D01*
X134000000Y-93995000D02*
X133345000Y-93995000D01*
X135890000Y-99695000D02*
X135890000Y-95885000D01*
X139065000Y-106680000D02*
X139065000Y-102870000D01*
X139065000Y-102870000D02*
X135890000Y-99695000D01*
D28*
%TO.N,+5V*%
X131445000Y-100330000D02*
X127000000Y-100330000D01*
X127000000Y-100330000D02*
X120650000Y-93980000D01*
X134620000Y-103505000D02*
X131445000Y-100330000D01*
X134620000Y-109855000D02*
X134620000Y-103505000D01*
X153987500Y-116522500D02*
X156845000Y-113665000D01*
D27*
X156210000Y-113030000D02*
X156845000Y-113665000D01*
D28*
X156845000Y-113665000D02*
X157480000Y-113030000D01*
X161920000Y-113030000D02*
X165810000Y-116920000D01*
X157480000Y-113030000D02*
X161920000Y-113030000D01*
X133345000Y-88895000D02*
X133345000Y-91455000D01*
X127000000Y-87630000D02*
X120650000Y-93980000D01*
X129540000Y-87630000D02*
X132080000Y-87630000D01*
X129540000Y-87630000D02*
X127000000Y-87630000D01*
X132080000Y-87630000D02*
X133345000Y-88895000D01*
D30*
X172080000Y-113030000D02*
X175970000Y-116920000D01*
X169700000Y-113030000D02*
X172080000Y-113030000D01*
X165810000Y-116920000D02*
X169700000Y-113030000D01*
D28*
%TO.N,+12V*%
X115570000Y-113030000D02*
X119380000Y-113030000D01*
X112470000Y-116130000D02*
X115570000Y-113030000D01*
X119380000Y-113030000D02*
X122630000Y-116280000D01*
X112470000Y-116920000D02*
X112470000Y-116130000D01*
X122630000Y-116280000D02*
X122630000Y-116920000D01*
%TD*%
%TA.AperFunction,Conductor*%
%TO.N,GND*%
G36*
X178480057Y-70069500D02*
G01*
X178494858Y-70071805D01*
X178494861Y-70071805D01*
X178503730Y-70073186D01*
X178524158Y-70070515D01*
X178545983Y-70069571D01*
X178902981Y-70085158D01*
X178913930Y-70086116D01*
X179298465Y-70136741D01*
X179309291Y-70138650D01*
X179687951Y-70222598D01*
X179698568Y-70225443D01*
X179868993Y-70279177D01*
X180068473Y-70342073D01*
X180078787Y-70345826D01*
X180437143Y-70494262D01*
X180447087Y-70498900D01*
X180791117Y-70677990D01*
X180800637Y-70683486D01*
X181127754Y-70891883D01*
X181136758Y-70898188D01*
X181444458Y-71134295D01*
X181452878Y-71141360D01*
X181683760Y-71352923D01*
X181738836Y-71403391D01*
X181746609Y-71411164D01*
X182008640Y-71697122D01*
X182015705Y-71705542D01*
X182251812Y-72013242D01*
X182258117Y-72022246D01*
X182466514Y-72349363D01*
X182472009Y-72358882D01*
X182545427Y-72499915D01*
X182651096Y-72702904D01*
X182655738Y-72712857D01*
X182804171Y-73071206D01*
X182807927Y-73081527D01*
X182844778Y-73198402D01*
X182924557Y-73451432D01*
X182927402Y-73462049D01*
X183011350Y-73840709D01*
X183013259Y-73851535D01*
X183060179Y-74207924D01*
X183063884Y-74236070D01*
X183064842Y-74247020D01*
X183080104Y-74596584D01*
X183078724Y-74621460D01*
X183076814Y-74633730D01*
X183078350Y-74645475D01*
X183080936Y-74665251D01*
X183082000Y-74681589D01*
X183082000Y-116500672D01*
X183080500Y-116520056D01*
X183076814Y-116543730D01*
X183079485Y-116564158D01*
X183080429Y-116585983D01*
X183068121Y-116867872D01*
X183064842Y-116942980D01*
X183063884Y-116953930D01*
X183013259Y-117338465D01*
X183011350Y-117349291D01*
X182927402Y-117727951D01*
X182924557Y-117738568D01*
X182876708Y-117890326D01*
X182808685Y-118106072D01*
X182807930Y-118108465D01*
X182804174Y-118118787D01*
X182660058Y-118466715D01*
X182655742Y-118477134D01*
X182651100Y-118487087D01*
X182523364Y-118732466D01*
X182472010Y-118831117D01*
X182466514Y-118840637D01*
X182258117Y-119167754D01*
X182251812Y-119176758D01*
X182015705Y-119484458D01*
X182008640Y-119492878D01*
X181746609Y-119778836D01*
X181738840Y-119786605D01*
X181554087Y-119955900D01*
X181452878Y-120048640D01*
X181444458Y-120055705D01*
X181136758Y-120291812D01*
X181127754Y-120298117D01*
X181052879Y-120345818D01*
X180808365Y-120501591D01*
X180800637Y-120506514D01*
X180791118Y-120512009D01*
X180447087Y-120691100D01*
X180437143Y-120695738D01*
X180078787Y-120844174D01*
X180068473Y-120847927D01*
X179868993Y-120910823D01*
X179698568Y-120964557D01*
X179687951Y-120967402D01*
X179309291Y-121051350D01*
X179298465Y-121053259D01*
X178913930Y-121103884D01*
X178902981Y-121104842D01*
X178553416Y-121120104D01*
X178528540Y-121118724D01*
X178526684Y-121118435D01*
X178525142Y-121118195D01*
X178525141Y-121118195D01*
X178516270Y-121116814D01*
X178484749Y-121120936D01*
X178468411Y-121122000D01*
X109979328Y-121122000D01*
X109959943Y-121120500D01*
X109945142Y-121118195D01*
X109945139Y-121118195D01*
X109936270Y-121116814D01*
X109915842Y-121119485D01*
X109894017Y-121120429D01*
X109537019Y-121104842D01*
X109526070Y-121103884D01*
X109141535Y-121053259D01*
X109130709Y-121051350D01*
X108752049Y-120967402D01*
X108741432Y-120964557D01*
X108571007Y-120910823D01*
X108371527Y-120847927D01*
X108361213Y-120844174D01*
X108002857Y-120695738D01*
X107992913Y-120691100D01*
X107648882Y-120512009D01*
X107639363Y-120506514D01*
X107631636Y-120501591D01*
X107387121Y-120345818D01*
X107312246Y-120298117D01*
X107303242Y-120291812D01*
X106995542Y-120055705D01*
X106987122Y-120048640D01*
X106885913Y-119955900D01*
X106701160Y-119786605D01*
X106693391Y-119778836D01*
X106431360Y-119492878D01*
X106424295Y-119484458D01*
X106188188Y-119176758D01*
X106181883Y-119167754D01*
X105973486Y-118840637D01*
X105967990Y-118831117D01*
X105916636Y-118732466D01*
X105788900Y-118487087D01*
X105784258Y-118477134D01*
X105779943Y-118466715D01*
X105697692Y-118268144D01*
X110661506Y-118268144D01*
X110668261Y-118330326D01*
X110719391Y-118466715D01*
X110806745Y-118583271D01*
X110923301Y-118670625D01*
X111059690Y-118721755D01*
X111121872Y-118728510D01*
X113818140Y-118728510D01*
X113880322Y-118721755D01*
X114016711Y-118670625D01*
X114133267Y-118583271D01*
X114220621Y-118466715D01*
X114271751Y-118330326D01*
X114278506Y-118268144D01*
X114278506Y-116872536D01*
X115737056Y-116872536D01*
X115737280Y-116877197D01*
X115737280Y-116877207D01*
X115739488Y-116923170D01*
X115749953Y-117141029D01*
X115802394Y-117404666D01*
X115893226Y-117657656D01*
X116020456Y-117894441D01*
X116023247Y-117898178D01*
X116023251Y-117898185D01*
X116104893Y-118007516D01*
X116181287Y-118109820D01*
X116184592Y-118113096D01*
X116184601Y-118113106D01*
X116351061Y-118278119D01*
X116372186Y-118299060D01*
X116375948Y-118301818D01*
X116375951Y-118301821D01*
X116492421Y-118387220D01*
X116588960Y-118458005D01*
X116593095Y-118460181D01*
X116593099Y-118460183D01*
X116822685Y-118580975D01*
X116826846Y-118583164D01*
X116969323Y-118632919D01*
X117076175Y-118670233D01*
X117080619Y-118671785D01*
X117085212Y-118672657D01*
X117340115Y-118721052D01*
X117340118Y-118721052D01*
X117344704Y-118721923D01*
X117472376Y-118726939D01*
X117608631Y-118732293D01*
X117608636Y-118732293D01*
X117613299Y-118732476D01*
X117717613Y-118721052D01*
X117875850Y-118703723D01*
X117875856Y-118703722D01*
X117880503Y-118703213D01*
X117885065Y-118702012D01*
X118135924Y-118635966D01*
X118135926Y-118635965D01*
X118140447Y-118634775D01*
X118247801Y-118588652D01*
X118383126Y-118530512D01*
X118383128Y-118530511D01*
X118387420Y-118528667D01*
X118506093Y-118455230D01*
X118612023Y-118389679D01*
X118612027Y-118389676D01*
X118615996Y-118387220D01*
X118821155Y-118213540D01*
X118998388Y-118011444D01*
X119143803Y-117785371D01*
X119254205Y-117540288D01*
X119291218Y-117409051D01*
X119325899Y-117286082D01*
X119325900Y-117286079D01*
X119327169Y-117281578D01*
X119345051Y-117141019D01*
X119360694Y-117018055D01*
X119360695Y-117018045D01*
X119361092Y-117014925D01*
X119363577Y-116920010D01*
X119343656Y-116651947D01*
X119342623Y-116647382D01*
X119285367Y-116394341D01*
X119285364Y-116394331D01*
X119284333Y-116389773D01*
X119186908Y-116139248D01*
X119053524Y-115905874D01*
X118887111Y-115694779D01*
X118691323Y-115510601D01*
X118505533Y-115381713D01*
X118474305Y-115360049D01*
X118474302Y-115360047D01*
X118470463Y-115357384D01*
X118466270Y-115355316D01*
X118233570Y-115240561D01*
X118233567Y-115240560D01*
X118229382Y-115238496D01*
X118224906Y-115237063D01*
X118064300Y-115185653D01*
X117973376Y-115156548D01*
X117968769Y-115155798D01*
X117968766Y-115155797D01*
X117743731Y-115119148D01*
X117708069Y-115113340D01*
X117577725Y-115111634D01*
X117443967Y-115109883D01*
X117443964Y-115109883D01*
X117439290Y-115109822D01*
X117172943Y-115146070D01*
X117168457Y-115147378D01*
X117168455Y-115147378D01*
X117132105Y-115157973D01*
X116914880Y-115221288D01*
X116670769Y-115333825D01*
X116666860Y-115336388D01*
X116449887Y-115478641D01*
X116449882Y-115478645D01*
X116445974Y-115481207D01*
X116374808Y-115544725D01*
X116255042Y-115651621D01*
X116245432Y-115660198D01*
X116073550Y-115866864D01*
X115934102Y-116096666D01*
X115932296Y-116100974D01*
X115932291Y-116100984D01*
X115855131Y-116284991D01*
X115830154Y-116344555D01*
X115763987Y-116605087D01*
X115737056Y-116872536D01*
X114278506Y-116872536D01*
X114278506Y-115990837D01*
X114298508Y-115922716D01*
X114315411Y-115901742D01*
X116006749Y-114210405D01*
X116069061Y-114176379D01*
X116095844Y-114173500D01*
X118854157Y-114173500D01*
X118922278Y-114193502D01*
X118943252Y-114210405D01*
X119141281Y-114408434D01*
X119153137Y-114422132D01*
X119161573Y-114433429D01*
X119165818Y-114437353D01*
X119221970Y-114489259D01*
X119225536Y-114492689D01*
X120899753Y-116166907D01*
X120933779Y-116229219D01*
X120926856Y-116304724D01*
X120910154Y-116344555D01*
X120843987Y-116605087D01*
X120817056Y-116872536D01*
X120817280Y-116877197D01*
X120817280Y-116877207D01*
X120819488Y-116923170D01*
X120829953Y-117141029D01*
X120882394Y-117404666D01*
X120973226Y-117657656D01*
X121100456Y-117894441D01*
X121103247Y-117898178D01*
X121103251Y-117898185D01*
X121184893Y-118007516D01*
X121261287Y-118109820D01*
X121264592Y-118113096D01*
X121264601Y-118113106D01*
X121431061Y-118278119D01*
X121452186Y-118299060D01*
X121455948Y-118301818D01*
X121455951Y-118301821D01*
X121572421Y-118387220D01*
X121668960Y-118458005D01*
X121673095Y-118460181D01*
X121673099Y-118460183D01*
X121902685Y-118580975D01*
X121906846Y-118583164D01*
X122049323Y-118632919D01*
X122156175Y-118670233D01*
X122160619Y-118671785D01*
X122165212Y-118672657D01*
X122420115Y-118721052D01*
X122420118Y-118721052D01*
X122424704Y-118721923D01*
X122552376Y-118726939D01*
X122688631Y-118732293D01*
X122688636Y-118732293D01*
X122693299Y-118732476D01*
X122797613Y-118721052D01*
X122955850Y-118703723D01*
X122955856Y-118703722D01*
X122960503Y-118703213D01*
X122965065Y-118702012D01*
X123215924Y-118635966D01*
X123215926Y-118635965D01*
X123220447Y-118634775D01*
X123327801Y-118588652D01*
X123463126Y-118530512D01*
X123463128Y-118530511D01*
X123467420Y-118528667D01*
X123586093Y-118455230D01*
X123692023Y-118389679D01*
X123692027Y-118389676D01*
X123695996Y-118387220D01*
X123901155Y-118213540D01*
X124078388Y-118011444D01*
X124223803Y-117785371D01*
X124334205Y-117540288D01*
X124371218Y-117409051D01*
X124405899Y-117286082D01*
X124405900Y-117286079D01*
X124407169Y-117281578D01*
X124425051Y-117141019D01*
X124440694Y-117018055D01*
X124440695Y-117018045D01*
X124441092Y-117014925D01*
X124443577Y-116920010D01*
X124440049Y-116872536D01*
X125897056Y-116872536D01*
X125897280Y-116877197D01*
X125897280Y-116877207D01*
X125899488Y-116923170D01*
X125909953Y-117141029D01*
X125962394Y-117404666D01*
X126053226Y-117657656D01*
X126180456Y-117894441D01*
X126183247Y-117898178D01*
X126183251Y-117898185D01*
X126264893Y-118007516D01*
X126341287Y-118109820D01*
X126344592Y-118113096D01*
X126344601Y-118113106D01*
X126511061Y-118278119D01*
X126532186Y-118299060D01*
X126535948Y-118301818D01*
X126535951Y-118301821D01*
X126652421Y-118387220D01*
X126748960Y-118458005D01*
X126753095Y-118460181D01*
X126753099Y-118460183D01*
X126982685Y-118580975D01*
X126986846Y-118583164D01*
X127129323Y-118632919D01*
X127236175Y-118670233D01*
X127240619Y-118671785D01*
X127245212Y-118672657D01*
X127500115Y-118721052D01*
X127500118Y-118721052D01*
X127504704Y-118721923D01*
X127632376Y-118726939D01*
X127768631Y-118732293D01*
X127768636Y-118732293D01*
X127773299Y-118732476D01*
X127877613Y-118721052D01*
X128035850Y-118703723D01*
X128035856Y-118703722D01*
X128040503Y-118703213D01*
X128045065Y-118702012D01*
X128295924Y-118635966D01*
X128295926Y-118635965D01*
X128300447Y-118634775D01*
X128407801Y-118588652D01*
X128543126Y-118530512D01*
X128543128Y-118530511D01*
X128547420Y-118528667D01*
X128666093Y-118455230D01*
X128772023Y-118389679D01*
X128772027Y-118389676D01*
X128775996Y-118387220D01*
X128981155Y-118213540D01*
X129158388Y-118011444D01*
X129303803Y-117785371D01*
X129414205Y-117540288D01*
X129451218Y-117409051D01*
X129485899Y-117286082D01*
X129485900Y-117286079D01*
X129487169Y-117281578D01*
X129505051Y-117141019D01*
X129520694Y-117018055D01*
X129520695Y-117018045D01*
X129521092Y-117014925D01*
X129523577Y-116920010D01*
X129503656Y-116651947D01*
X129502623Y-116647382D01*
X129445367Y-116394341D01*
X129445364Y-116394331D01*
X129444333Y-116389773D01*
X129346908Y-116139248D01*
X129213524Y-115905874D01*
X129047111Y-115694779D01*
X128851323Y-115510601D01*
X128665533Y-115381713D01*
X128634305Y-115360049D01*
X128634302Y-115360047D01*
X128630463Y-115357384D01*
X128626270Y-115355316D01*
X128393570Y-115240561D01*
X128393567Y-115240560D01*
X128389382Y-115238496D01*
X128384906Y-115237063D01*
X128224300Y-115185653D01*
X128133376Y-115156548D01*
X128128769Y-115155798D01*
X128128766Y-115155797D01*
X127903731Y-115119148D01*
X127868069Y-115113340D01*
X127737725Y-115111634D01*
X127603967Y-115109883D01*
X127603964Y-115109883D01*
X127599290Y-115109822D01*
X127332943Y-115146070D01*
X127328457Y-115147378D01*
X127328455Y-115147378D01*
X127292105Y-115157973D01*
X127074880Y-115221288D01*
X126830769Y-115333825D01*
X126826860Y-115336388D01*
X126609887Y-115478641D01*
X126609882Y-115478645D01*
X126605974Y-115481207D01*
X126534808Y-115544725D01*
X126415042Y-115651621D01*
X126405432Y-115660198D01*
X126233550Y-115866864D01*
X126094102Y-116096666D01*
X126092296Y-116100974D01*
X126092291Y-116100984D01*
X126015131Y-116284991D01*
X125990154Y-116344555D01*
X125923987Y-116605087D01*
X125897056Y-116872536D01*
X124440049Y-116872536D01*
X124423656Y-116651947D01*
X124422623Y-116647382D01*
X124365367Y-116394341D01*
X124365364Y-116394331D01*
X124364333Y-116389773D01*
X124266908Y-116139248D01*
X124133524Y-115905874D01*
X123967111Y-115694779D01*
X123771323Y-115510601D01*
X123585533Y-115381713D01*
X123554305Y-115360049D01*
X123554302Y-115360047D01*
X123550463Y-115357384D01*
X123546270Y-115355316D01*
X123313570Y-115240561D01*
X123313567Y-115240560D01*
X123309382Y-115238496D01*
X123304906Y-115237063D01*
X123185896Y-115198968D01*
X123135214Y-115168061D01*
X121195405Y-113228252D01*
X121161379Y-113165940D01*
X121158500Y-113139157D01*
X121158500Y-107438134D01*
X123709000Y-107438134D01*
X123715755Y-107500316D01*
X123766885Y-107636705D01*
X123854239Y-107753261D01*
X123970795Y-107840615D01*
X124107184Y-107891745D01*
X124169366Y-107898500D01*
X126170634Y-107898500D01*
X126232816Y-107891745D01*
X126369205Y-107840615D01*
X126485761Y-107753261D01*
X126573115Y-107636705D01*
X126580573Y-107616811D01*
X126623213Y-107560047D01*
X126689774Y-107535346D01*
X126759123Y-107550553D01*
X126776647Y-107562158D01*
X126894670Y-107655367D01*
X126894675Y-107655370D01*
X126898724Y-107658568D01*
X126903240Y-107661061D01*
X126903243Y-107661063D01*
X127104526Y-107772177D01*
X127104530Y-107772179D01*
X127109050Y-107774674D01*
X127113919Y-107776398D01*
X127113923Y-107776400D01*
X127330640Y-107853144D01*
X127330644Y-107853145D01*
X127335515Y-107854870D01*
X127340608Y-107855777D01*
X127340611Y-107855778D01*
X127566948Y-107896095D01*
X127566954Y-107896096D01*
X127572037Y-107897001D01*
X127659400Y-107898068D01*
X127807093Y-107899873D01*
X127807095Y-107899873D01*
X127812263Y-107899936D01*
X128049744Y-107863596D01*
X128161997Y-107826906D01*
X128273183Y-107790566D01*
X128273189Y-107790563D01*
X128278101Y-107788958D01*
X128282687Y-107786571D01*
X128282691Y-107786569D01*
X128486607Y-107680416D01*
X128491200Y-107678025D01*
X128683320Y-107533777D01*
X128815097Y-107395880D01*
X128845730Y-107363825D01*
X128845731Y-107363824D01*
X128849301Y-107360088D01*
X128874840Y-107322649D01*
X128929751Y-107277648D01*
X129000275Y-107269477D01*
X129064022Y-107300731D01*
X129084716Y-107325210D01*
X129086085Y-107327326D01*
X129092378Y-107335498D01*
X129247050Y-107505480D01*
X129254583Y-107512506D01*
X129434944Y-107654945D01*
X129443531Y-107660650D01*
X129644722Y-107771714D01*
X129654134Y-107775944D01*
X129870768Y-107852659D01*
X129880739Y-107855293D01*
X129978163Y-107872647D01*
X129991460Y-107871187D01*
X129995543Y-107858096D01*
X130504000Y-107858096D01*
X130507918Y-107871440D01*
X130522194Y-107873427D01*
X130584515Y-107863890D01*
X130594543Y-107861501D01*
X130812988Y-107790102D01*
X130822497Y-107786105D01*
X131026344Y-107679989D01*
X131035069Y-107674495D01*
X131218852Y-107536507D01*
X131226559Y-107529664D01*
X131385339Y-107363509D01*
X131391826Y-107355499D01*
X131521330Y-107165653D01*
X131526429Y-107156679D01*
X131623187Y-106948231D01*
X131626750Y-106938544D01*
X131688165Y-106717092D01*
X131690096Y-106706970D01*
X131694901Y-106662013D01*
X131692253Y-106647392D01*
X131679876Y-106644000D01*
X130522115Y-106644000D01*
X130506876Y-106648475D01*
X130505671Y-106649865D01*
X130504000Y-106657548D01*
X130504000Y-107858096D01*
X129995543Y-107858096D01*
X129996000Y-107856630D01*
X129996000Y-106117885D01*
X130504000Y-106117885D01*
X130508475Y-106133124D01*
X130509865Y-106134329D01*
X130517548Y-106136000D01*
X131680412Y-106136000D01*
X131695141Y-106131675D01*
X131697202Y-106119889D01*
X131696249Y-106108296D01*
X131694567Y-106098134D01*
X131638578Y-105875229D01*
X131635259Y-105865481D01*
X131543615Y-105654711D01*
X131538749Y-105645636D01*
X131413915Y-105452673D01*
X131407622Y-105444502D01*
X131252950Y-105274520D01*
X131245417Y-105267494D01*
X131065056Y-105125055D01*
X131056469Y-105119350D01*
X130855278Y-105008286D01*
X130845866Y-105004056D01*
X130629232Y-104927341D01*
X130619261Y-104924707D01*
X130521837Y-104907353D01*
X130508540Y-104908813D01*
X130504000Y-104923370D01*
X130504000Y-106117885D01*
X129996000Y-106117885D01*
X129996000Y-104921904D01*
X129992082Y-104908560D01*
X129977806Y-104906573D01*
X129915485Y-104916110D01*
X129905457Y-104918499D01*
X129687012Y-104989898D01*
X129677503Y-104993895D01*
X129473656Y-105100011D01*
X129464931Y-105105505D01*
X129281148Y-105243493D01*
X129273441Y-105250336D01*
X129114661Y-105416491D01*
X129108177Y-105424498D01*
X129085763Y-105457356D01*
X129030852Y-105502359D01*
X128960328Y-105510532D01*
X128896580Y-105479278D01*
X128875884Y-105454796D01*
X128874311Y-105452365D01*
X128871502Y-105448023D01*
X128709814Y-105270330D01*
X128632983Y-105209653D01*
X128525330Y-105124633D01*
X128525325Y-105124630D01*
X128521276Y-105121432D01*
X128516760Y-105118939D01*
X128516757Y-105118937D01*
X128315474Y-105007823D01*
X128315470Y-105007821D01*
X128310950Y-105005326D01*
X128306081Y-105003602D01*
X128306077Y-105003600D01*
X128089360Y-104926856D01*
X128089356Y-104926855D01*
X128084485Y-104925130D01*
X128079392Y-104924223D01*
X128079389Y-104924222D01*
X127853052Y-104883905D01*
X127853046Y-104883904D01*
X127847963Y-104882999D01*
X127755474Y-104881869D01*
X127612907Y-104880127D01*
X127612905Y-104880127D01*
X127607737Y-104880064D01*
X127370256Y-104916404D01*
X127258003Y-104953094D01*
X127146817Y-104989434D01*
X127146811Y-104989437D01*
X127141899Y-104991042D01*
X127137313Y-104993429D01*
X127137309Y-104993431D01*
X126933393Y-105099584D01*
X126928800Y-105101975D01*
X126773717Y-105218415D01*
X126707235Y-105243320D01*
X126637839Y-105228328D01*
X126587565Y-105178198D01*
X126580085Y-105161885D01*
X126576269Y-105151707D01*
X126576267Y-105151703D01*
X126573115Y-105143295D01*
X126485761Y-105026739D01*
X126369205Y-104939385D01*
X126232816Y-104888255D01*
X126170634Y-104881500D01*
X124169366Y-104881500D01*
X124107184Y-104888255D01*
X123970795Y-104939385D01*
X123854239Y-105026739D01*
X123766885Y-105143295D01*
X123715755Y-105279684D01*
X123709000Y-105341866D01*
X123709000Y-107438134D01*
X121158500Y-107438134D01*
X121158500Y-97122794D01*
X121158770Y-97114553D01*
X121162627Y-97055704D01*
X121163005Y-97049938D01*
X121152605Y-96962074D01*
X121152262Y-96958800D01*
X121144698Y-96876476D01*
X121144698Y-96876474D01*
X121144169Y-96870721D01*
X121142600Y-96865159D01*
X121141941Y-96861601D01*
X121139743Y-96850551D01*
X121138982Y-96846970D01*
X121138303Y-96841234D01*
X121112065Y-96756731D01*
X121111133Y-96753584D01*
X121088692Y-96674014D01*
X121088692Y-96674013D01*
X121087123Y-96668451D01*
X121084567Y-96663269D01*
X121083245Y-96659824D01*
X121079094Y-96649421D01*
X121077695Y-96646042D01*
X121075982Y-96640526D01*
X121071581Y-96632160D01*
X121034782Y-96562217D01*
X121033284Y-96559277D01*
X120996725Y-96485141D01*
X120996722Y-96485137D01*
X120994171Y-96479963D01*
X120990717Y-96475338D01*
X120988777Y-96472172D01*
X120982838Y-96462759D01*
X120980819Y-96459649D01*
X120978129Y-96454537D01*
X120923344Y-96385043D01*
X120921348Y-96382441D01*
X120871880Y-96316195D01*
X120871880Y-96316194D01*
X120868427Y-96311571D01*
X120835356Y-96281000D01*
X120808040Y-96255750D01*
X120804474Y-96252320D01*
X119927481Y-95375327D01*
X119047905Y-94495752D01*
X119013880Y-94433440D01*
X119011000Y-94406657D01*
X119011000Y-94262343D01*
X119031002Y-94194222D01*
X119084658Y-94147729D01*
X119154932Y-94137625D01*
X119219512Y-94167119D01*
X119226095Y-94173248D01*
X119831142Y-94778295D01*
X119832301Y-94779469D01*
X119899857Y-94848817D01*
X119904174Y-94853249D01*
X119908872Y-94856569D01*
X119916086Y-94863239D01*
X126161158Y-101108312D01*
X126166795Y-101114330D01*
X126209494Y-101163019D01*
X126214025Y-101166591D01*
X126278954Y-101217777D01*
X126281517Y-101219853D01*
X126345097Y-101272732D01*
X126349539Y-101276426D01*
X126354577Y-101279247D01*
X126357564Y-101281300D01*
X126366892Y-101287533D01*
X126370003Y-101289553D01*
X126374537Y-101293128D01*
X126379644Y-101295815D01*
X126379655Y-101295822D01*
X126452813Y-101334312D01*
X126455712Y-101335885D01*
X126532904Y-101379114D01*
X126538364Y-101380967D01*
X126541664Y-101382437D01*
X126552053Y-101386900D01*
X126555416Y-101388293D01*
X126560527Y-101390982D01*
X126566043Y-101392695D01*
X126566046Y-101392696D01*
X126606666Y-101405309D01*
X126645030Y-101417222D01*
X126648089Y-101418215D01*
X126731912Y-101446669D01*
X126737626Y-101447498D01*
X126741138Y-101448341D01*
X126752151Y-101450833D01*
X126755718Y-101451591D01*
X126761234Y-101453304D01*
X126766962Y-101453982D01*
X126766967Y-101453983D01*
X126819367Y-101460184D01*
X126849118Y-101463706D01*
X126852340Y-101464130D01*
X126939897Y-101476825D01*
X127022054Y-101473597D01*
X127027001Y-101473500D01*
X130919157Y-101473500D01*
X130987278Y-101493502D01*
X131008252Y-101510405D01*
X133439595Y-103941749D01*
X133473621Y-104004061D01*
X133476500Y-104030844D01*
X133476500Y-114820759D01*
X133456498Y-114888880D01*
X133444137Y-114905069D01*
X133390937Y-114964154D01*
X133387635Y-114969873D01*
X133387633Y-114969876D01*
X133305648Y-115111879D01*
X133301451Y-115119148D01*
X133292908Y-115145440D01*
X133258494Y-115251358D01*
X133246146Y-115289360D01*
X133227438Y-115467351D01*
X133228128Y-115473916D01*
X133238175Y-115569500D01*
X133246146Y-115645342D01*
X133248186Y-115651620D01*
X133248186Y-115651621D01*
X133263401Y-115698447D01*
X133301451Y-115815554D01*
X133390937Y-115970548D01*
X133510692Y-116103550D01*
X133516034Y-116107431D01*
X133516036Y-116107433D01*
X133567356Y-116144719D01*
X133655483Y-116208747D01*
X133661511Y-116211431D01*
X133661513Y-116211432D01*
X133812951Y-116278856D01*
X133818982Y-116281541D01*
X133906460Y-116300135D01*
X133987585Y-116317379D01*
X133987589Y-116317379D01*
X133994042Y-116318751D01*
X134173014Y-116318751D01*
X134179467Y-116317379D01*
X134179471Y-116317379D01*
X134260596Y-116300135D01*
X134282242Y-116295534D01*
X134353032Y-116300936D01*
X134397533Y-116329686D01*
X138226151Y-120158304D01*
X138231788Y-120164322D01*
X138274494Y-120213019D01*
X138279029Y-120216594D01*
X138279030Y-120216595D01*
X138343982Y-120267798D01*
X138346547Y-120269876D01*
X138410100Y-120322734D01*
X138410105Y-120322738D01*
X138414540Y-120326426D01*
X138419574Y-120329245D01*
X138422584Y-120331314D01*
X138431854Y-120337508D01*
X138434999Y-120339551D01*
X138439537Y-120343128D01*
X138444645Y-120345816D01*
X138444649Y-120345818D01*
X138517816Y-120384312D01*
X138520706Y-120385882D01*
X138597904Y-120429115D01*
X138603376Y-120430972D01*
X138606776Y-120432486D01*
X138616987Y-120436873D01*
X138620421Y-120438295D01*
X138625527Y-120440982D01*
X138631041Y-120442694D01*
X138631043Y-120442695D01*
X138709999Y-120467212D01*
X138713135Y-120468231D01*
X138766280Y-120486271D01*
X138796912Y-120496669D01*
X138802625Y-120497498D01*
X138806138Y-120498341D01*
X138817151Y-120500833D01*
X138820718Y-120501591D01*
X138826234Y-120503304D01*
X138831962Y-120503982D01*
X138831967Y-120503983D01*
X138884182Y-120510163D01*
X138914099Y-120513704D01*
X138917322Y-120514128D01*
X138953419Y-120519362D01*
X138999184Y-120525998D01*
X138999189Y-120525998D01*
X139004898Y-120526826D01*
X139087069Y-120523597D01*
X139092017Y-120523500D01*
X151087195Y-120523500D01*
X151095436Y-120523770D01*
X151160061Y-120528006D01*
X151247973Y-120517601D01*
X151251186Y-120517264D01*
X151339279Y-120509169D01*
X151344839Y-120507601D01*
X151348412Y-120506939D01*
X151359415Y-120504750D01*
X151363028Y-120503982D01*
X151368765Y-120503303D01*
X151453276Y-120477062D01*
X151456373Y-120476146D01*
X151541549Y-120452123D01*
X151546737Y-120449565D01*
X151550188Y-120448240D01*
X151560566Y-120444099D01*
X151563953Y-120442696D01*
X151569473Y-120440982D01*
X151647746Y-120399801D01*
X151650682Y-120398305D01*
X151675863Y-120385887D01*
X151730037Y-120359171D01*
X151734668Y-120355713D01*
X151737871Y-120353750D01*
X151747258Y-120347827D01*
X151750351Y-120345818D01*
X151755463Y-120343129D01*
X151824956Y-120288344D01*
X151827526Y-120286373D01*
X151893801Y-120236884D01*
X151893808Y-120236877D01*
X151898429Y-120233427D01*
X151913989Y-120216595D01*
X151954261Y-120173028D01*
X151957691Y-120169462D01*
X153394861Y-118732293D01*
X154833777Y-117293377D01*
X154833782Y-117293371D01*
X157691277Y-114435877D01*
X157691282Y-114435871D01*
X157916748Y-114210405D01*
X157979060Y-114176379D01*
X158005843Y-114173500D01*
X161394157Y-114173500D01*
X161462278Y-114193502D01*
X161483252Y-114210405D01*
X162169368Y-114896521D01*
X162203394Y-114958833D01*
X162198329Y-115029648D01*
X162155782Y-115086484D01*
X162089262Y-115111295D01*
X162078134Y-115111391D01*
X162078134Y-115111500D01*
X159381866Y-115111500D01*
X159319684Y-115118255D01*
X159183295Y-115169385D01*
X159066739Y-115256739D01*
X158979385Y-115373295D01*
X158928255Y-115509684D01*
X158921500Y-115571866D01*
X158921500Y-118268134D01*
X158928255Y-118330316D01*
X158979385Y-118466705D01*
X159066739Y-118583261D01*
X159183295Y-118670615D01*
X159319684Y-118721745D01*
X159381866Y-118728500D01*
X162078134Y-118728500D01*
X162140316Y-118721745D01*
X162276705Y-118670615D01*
X162393261Y-118583261D01*
X162480615Y-118466705D01*
X162531745Y-118330316D01*
X162538500Y-118268134D01*
X162538500Y-115571866D01*
X162539673Y-115571866D01*
X162554853Y-115507446D01*
X162605912Y-115458116D01*
X162675536Y-115444221D01*
X162741619Y-115470174D01*
X162753479Y-115480632D01*
X163968361Y-116695514D01*
X164002387Y-116757826D01*
X164004632Y-116797230D01*
X163997050Y-116872526D01*
X163997274Y-116877192D01*
X163997274Y-116877197D01*
X164000434Y-116942980D01*
X164009947Y-117141019D01*
X164062388Y-117404656D01*
X164153220Y-117657646D01*
X164155432Y-117661762D01*
X164155433Y-117661765D01*
X164190996Y-117727951D01*
X164280450Y-117894431D01*
X164283241Y-117898168D01*
X164283245Y-117898175D01*
X164370443Y-118014947D01*
X164441281Y-118109810D01*
X164444590Y-118113090D01*
X164444595Y-118113096D01*
X164628863Y-118295762D01*
X164632180Y-118299050D01*
X164635942Y-118301808D01*
X164635945Y-118301811D01*
X164845183Y-118455230D01*
X164848954Y-118457995D01*
X164853089Y-118460171D01*
X164853093Y-118460173D01*
X165082698Y-118580975D01*
X165086840Y-118583154D01*
X165102584Y-118588652D01*
X165321897Y-118665239D01*
X165340613Y-118671775D01*
X165345206Y-118672647D01*
X165600109Y-118721042D01*
X165600112Y-118721042D01*
X165604698Y-118721913D01*
X165732370Y-118726929D01*
X165868625Y-118732283D01*
X165868630Y-118732283D01*
X165873293Y-118732466D01*
X165963399Y-118722598D01*
X166135844Y-118703713D01*
X166135850Y-118703712D01*
X166140497Y-118703203D01*
X166145021Y-118702012D01*
X166395918Y-118635956D01*
X166395920Y-118635955D01*
X166400441Y-118634765D01*
X166516954Y-118584707D01*
X166643120Y-118530502D01*
X166643122Y-118530501D01*
X166647414Y-118528657D01*
X166758083Y-118460173D01*
X166872017Y-118389669D01*
X166872021Y-118389666D01*
X166875990Y-118387210D01*
X167081149Y-118213530D01*
X167258382Y-118011434D01*
X167333635Y-117894441D01*
X167401269Y-117789291D01*
X167403797Y-117785361D01*
X167514199Y-117540278D01*
X167552446Y-117404666D01*
X167585893Y-117286072D01*
X167585894Y-117286069D01*
X167587163Y-117281568D01*
X167605636Y-117136359D01*
X167620688Y-117018045D01*
X167620688Y-117018041D01*
X167621086Y-117014915D01*
X167623571Y-116920000D01*
X167620043Y-116872526D01*
X169077050Y-116872526D01*
X169077274Y-116877192D01*
X169077274Y-116877197D01*
X169080434Y-116942980D01*
X169089947Y-117141019D01*
X169142388Y-117404656D01*
X169233220Y-117657646D01*
X169235432Y-117661762D01*
X169235433Y-117661765D01*
X169270996Y-117727951D01*
X169360450Y-117894431D01*
X169363241Y-117898168D01*
X169363245Y-117898175D01*
X169450443Y-118014947D01*
X169521281Y-118109810D01*
X169524590Y-118113090D01*
X169524595Y-118113096D01*
X169708863Y-118295762D01*
X169712180Y-118299050D01*
X169715942Y-118301808D01*
X169715945Y-118301811D01*
X169925183Y-118455230D01*
X169928954Y-118457995D01*
X169933089Y-118460171D01*
X169933093Y-118460173D01*
X170162698Y-118580975D01*
X170166840Y-118583154D01*
X170182584Y-118588652D01*
X170401897Y-118665239D01*
X170420613Y-118671775D01*
X170425206Y-118672647D01*
X170680109Y-118721042D01*
X170680112Y-118721042D01*
X170684698Y-118721913D01*
X170812370Y-118726929D01*
X170948625Y-118732283D01*
X170948630Y-118732283D01*
X170953293Y-118732466D01*
X171043399Y-118722598D01*
X171215844Y-118703713D01*
X171215850Y-118703712D01*
X171220497Y-118703203D01*
X171225021Y-118702012D01*
X171475918Y-118635956D01*
X171475920Y-118635955D01*
X171480441Y-118634765D01*
X171596954Y-118584707D01*
X171723120Y-118530502D01*
X171723122Y-118530501D01*
X171727414Y-118528657D01*
X171838083Y-118460173D01*
X171952017Y-118389669D01*
X171952021Y-118389666D01*
X171955990Y-118387210D01*
X172161149Y-118213530D01*
X172338382Y-118011434D01*
X172413635Y-117894441D01*
X172481269Y-117789291D01*
X172483797Y-117785361D01*
X172594199Y-117540278D01*
X172632446Y-117404666D01*
X172665893Y-117286072D01*
X172665894Y-117286069D01*
X172667163Y-117281568D01*
X172685636Y-117136359D01*
X172700688Y-117018045D01*
X172700688Y-117018041D01*
X172701086Y-117014915D01*
X172703571Y-116920000D01*
X172683650Y-116651937D01*
X172671355Y-116597598D01*
X172625361Y-116394331D01*
X172625360Y-116394326D01*
X172624327Y-116389763D01*
X172526902Y-116139238D01*
X172393518Y-115905864D01*
X172390269Y-115901742D01*
X172230004Y-115698447D01*
X172227105Y-115694769D01*
X172031317Y-115510591D01*
X171865627Y-115395647D01*
X171814299Y-115360039D01*
X171814296Y-115360037D01*
X171810457Y-115357374D01*
X171767902Y-115336388D01*
X171573564Y-115240551D01*
X171573561Y-115240550D01*
X171569376Y-115238486D01*
X171547268Y-115231409D01*
X171446768Y-115199239D01*
X171313370Y-115156538D01*
X171308763Y-115155788D01*
X171308760Y-115155787D01*
X171078365Y-115118265D01*
X171048063Y-115113330D01*
X170917719Y-115111624D01*
X170783961Y-115109873D01*
X170783958Y-115109873D01*
X170779284Y-115109812D01*
X170512937Y-115146060D01*
X170508451Y-115147368D01*
X170508449Y-115147368D01*
X170477860Y-115156284D01*
X170254874Y-115221278D01*
X170250621Y-115223238D01*
X170250620Y-115223239D01*
X170247139Y-115224844D01*
X170010763Y-115333815D01*
X169961506Y-115366109D01*
X169789881Y-115478631D01*
X169789876Y-115478635D01*
X169785968Y-115481197D01*
X169585426Y-115660188D01*
X169413544Y-115866854D01*
X169274096Y-116096656D01*
X169272287Y-116100970D01*
X169272285Y-116100974D01*
X169196737Y-116281136D01*
X169170148Y-116344545D01*
X169103981Y-116605077D01*
X169077050Y-116872526D01*
X167620043Y-116872526D01*
X167603650Y-116651937D01*
X167569598Y-116501447D01*
X167574073Y-116430594D01*
X167603396Y-116384547D01*
X170031538Y-113956405D01*
X170093850Y-113922379D01*
X170120633Y-113919500D01*
X171659367Y-113919500D01*
X171727488Y-113939502D01*
X171748462Y-113956405D01*
X174176486Y-116384429D01*
X174210512Y-116446741D01*
X174209514Y-116504539D01*
X174201814Y-116534858D01*
X174183981Y-116605077D01*
X174157050Y-116872526D01*
X174157274Y-116877192D01*
X174157274Y-116877197D01*
X174160434Y-116942980D01*
X174169947Y-117141019D01*
X174222388Y-117404656D01*
X174313220Y-117657646D01*
X174315432Y-117661762D01*
X174315433Y-117661765D01*
X174350996Y-117727951D01*
X174440450Y-117894431D01*
X174443241Y-117898168D01*
X174443245Y-117898175D01*
X174530443Y-118014947D01*
X174601281Y-118109810D01*
X174604590Y-118113090D01*
X174604595Y-118113096D01*
X174788863Y-118295762D01*
X174792180Y-118299050D01*
X174795942Y-118301808D01*
X174795945Y-118301811D01*
X175005183Y-118455230D01*
X175008954Y-118457995D01*
X175013089Y-118460171D01*
X175013093Y-118460173D01*
X175242698Y-118580975D01*
X175246840Y-118583154D01*
X175262584Y-118588652D01*
X175481897Y-118665239D01*
X175500613Y-118671775D01*
X175505206Y-118672647D01*
X175760109Y-118721042D01*
X175760112Y-118721042D01*
X175764698Y-118721913D01*
X175892370Y-118726929D01*
X176028625Y-118732283D01*
X176028630Y-118732283D01*
X176033293Y-118732466D01*
X176123399Y-118722598D01*
X176295844Y-118703713D01*
X176295850Y-118703712D01*
X176300497Y-118703203D01*
X176305021Y-118702012D01*
X176555918Y-118635956D01*
X176555920Y-118635955D01*
X176560441Y-118634765D01*
X176676954Y-118584707D01*
X176803120Y-118530502D01*
X176803122Y-118530501D01*
X176807414Y-118528657D01*
X176918083Y-118460173D01*
X177032017Y-118389669D01*
X177032021Y-118389666D01*
X177035990Y-118387210D01*
X177241149Y-118213530D01*
X177418382Y-118011434D01*
X177493635Y-117894441D01*
X177561269Y-117789291D01*
X177563797Y-117785361D01*
X177674199Y-117540278D01*
X177712446Y-117404666D01*
X177745893Y-117286072D01*
X177745894Y-117286069D01*
X177747163Y-117281568D01*
X177765636Y-117136359D01*
X177780688Y-117018045D01*
X177780688Y-117018041D01*
X177781086Y-117014915D01*
X177783571Y-116920000D01*
X177763650Y-116651937D01*
X177751355Y-116597598D01*
X177705361Y-116394331D01*
X177705360Y-116394326D01*
X177704327Y-116389763D01*
X177686746Y-116344555D01*
X177673771Y-116311189D01*
X177667723Y-116240450D01*
X177702109Y-116176426D01*
X182084038Y-111794497D01*
X182090304Y-111788643D01*
X182127549Y-111756152D01*
X182133274Y-111751158D01*
X182169502Y-111699610D01*
X182173435Y-111694316D01*
X182212291Y-111644761D01*
X182215417Y-111637837D01*
X182217264Y-111634788D01*
X182224489Y-111622122D01*
X182226186Y-111618957D01*
X182230556Y-111612739D01*
X182253456Y-111554004D01*
X182255983Y-111547991D01*
X182281912Y-111490565D01*
X182283296Y-111483097D01*
X182284364Y-111479689D01*
X182288364Y-111465650D01*
X182289253Y-111462186D01*
X182292012Y-111455111D01*
X182300235Y-111392655D01*
X182301267Y-111386141D01*
X182311360Y-111331683D01*
X182311360Y-111331680D01*
X182312744Y-111324214D01*
X182309209Y-111262905D01*
X182309000Y-111255653D01*
X182309000Y-95278600D01*
X182309292Y-95270029D01*
X182312654Y-95220725D01*
X182312654Y-95220721D01*
X182313170Y-95213149D01*
X182311865Y-95205673D01*
X182311865Y-95205669D01*
X182302337Y-95151078D01*
X182301374Y-95144553D01*
X182294722Y-95089582D01*
X182294721Y-95089579D01*
X182293809Y-95082040D01*
X182291125Y-95074938D01*
X182290281Y-95071500D01*
X182286417Y-95057377D01*
X182285387Y-95053965D01*
X182284081Y-95046483D01*
X182281029Y-95039530D01*
X182281027Y-95039524D01*
X182258763Y-94988806D01*
X182256270Y-94982698D01*
X182252319Y-94972240D01*
X182234006Y-94923778D01*
X182229701Y-94917514D01*
X182228045Y-94914347D01*
X182220940Y-94901582D01*
X182219132Y-94898525D01*
X182216078Y-94891567D01*
X182206043Y-94878489D01*
X182177740Y-94841604D01*
X182173862Y-94836267D01*
X182142481Y-94790607D01*
X182142479Y-94790605D01*
X182138179Y-94784348D01*
X182131386Y-94778295D01*
X182092312Y-94743482D01*
X182087036Y-94738501D01*
X180219497Y-92870962D01*
X180213643Y-92864696D01*
X180187761Y-92835027D01*
X180176158Y-92821726D01*
X180124622Y-92785506D01*
X180119326Y-92781573D01*
X180075737Y-92747394D01*
X180075734Y-92747392D01*
X180069760Y-92742708D01*
X180062836Y-92739582D01*
X180059801Y-92737744D01*
X180047102Y-92730500D01*
X180043954Y-92728812D01*
X180037739Y-92724444D01*
X179979050Y-92701562D01*
X179973005Y-92699022D01*
X179915565Y-92673087D01*
X179908092Y-92671702D01*
X179904674Y-92670631D01*
X179890685Y-92666646D01*
X179887193Y-92665749D01*
X179880111Y-92662988D01*
X179872578Y-92661996D01*
X179872577Y-92661996D01*
X179817670Y-92654767D01*
X179811157Y-92653735D01*
X179756682Y-92643639D01*
X179756680Y-92643639D01*
X179749213Y-92642255D01*
X179741633Y-92642692D01*
X179741632Y-92642692D01*
X179687888Y-92645791D01*
X179680635Y-92646000D01*
X178495561Y-92646000D01*
X178427440Y-92625998D01*
X178415246Y-92617085D01*
X178356307Y-92568327D01*
X178335489Y-92551105D01*
X178171089Y-92462214D01*
X178019587Y-92415316D01*
X177998441Y-92408770D01*
X177998438Y-92408769D01*
X177992554Y-92406948D01*
X177986429Y-92406304D01*
X177986428Y-92406304D01*
X177812813Y-92388056D01*
X177812812Y-92388056D01*
X177806685Y-92387412D01*
X177711058Y-92396115D01*
X177626703Y-92403792D01*
X177626702Y-92403792D01*
X177620562Y-92404351D01*
X177614648Y-92406092D01*
X177614646Y-92406092D01*
X177583306Y-92415316D01*
X177441273Y-92457119D01*
X177435808Y-92459976D01*
X177366569Y-92496173D01*
X177275647Y-92543705D01*
X177129995Y-92660813D01*
X177009862Y-92803981D01*
X177006899Y-92809370D01*
X177006896Y-92809375D01*
X176974709Y-92867924D01*
X176919826Y-92967757D01*
X176917965Y-92973624D01*
X176917964Y-92973626D01*
X176908991Y-93001912D01*
X176863315Y-93145901D01*
X176842482Y-93331630D01*
X176842998Y-93337774D01*
X176857159Y-93506406D01*
X176858121Y-93517867D01*
X176859819Y-93523788D01*
X176859819Y-93523789D01*
X176867609Y-93550954D01*
X176909636Y-93697520D01*
X176995064Y-93863746D01*
X176998887Y-93868570D01*
X176998890Y-93868574D01*
X177087206Y-93980000D01*
X177111152Y-94010212D01*
X177115846Y-94014207D01*
X177219929Y-94102789D01*
X177253478Y-94131342D01*
X177416621Y-94222519D01*
X177594367Y-94280272D01*
X177779945Y-94302401D01*
X177786080Y-94301929D01*
X177786082Y-94301929D01*
X177844524Y-94297432D01*
X177966287Y-94288063D01*
X178146296Y-94237804D01*
X178151785Y-94235031D01*
X178151791Y-94235029D01*
X178232328Y-94194346D01*
X178313114Y-94153538D01*
X178317965Y-94149748D01*
X178317968Y-94149746D01*
X178419127Y-94070711D01*
X178485122Y-94044533D01*
X178496701Y-94044000D01*
X179363275Y-94044000D01*
X179431396Y-94064002D01*
X179452370Y-94080905D01*
X180874095Y-95502630D01*
X180908121Y-95564942D01*
X180911000Y-95591725D01*
X180911000Y-110938274D01*
X180890998Y-111006395D01*
X180874095Y-111027369D01*
X176714012Y-115187453D01*
X176651700Y-115221479D01*
X176586504Y-115218360D01*
X176423657Y-115166233D01*
X176393370Y-115156538D01*
X176388763Y-115155788D01*
X176388760Y-115155787D01*
X176158365Y-115118265D01*
X176128063Y-115113330D01*
X175997719Y-115111624D01*
X175863961Y-115109873D01*
X175863958Y-115109873D01*
X175859284Y-115109812D01*
X175592937Y-115146060D01*
X175556968Y-115156544D01*
X175485974Y-115156404D01*
X175432616Y-115124673D01*
X172918538Y-112610595D01*
X172884512Y-112548283D01*
X172889577Y-112477468D01*
X172932124Y-112420632D01*
X172998644Y-112395821D01*
X173007633Y-112395500D01*
X175815980Y-112395500D01*
X175827214Y-112396030D01*
X175834719Y-112397708D01*
X175903012Y-112395562D01*
X175906969Y-112395500D01*
X175934983Y-112395500D01*
X175938908Y-112395004D01*
X175938909Y-112395004D01*
X175939004Y-112394992D01*
X175950849Y-112394059D01*
X175980670Y-112393122D01*
X175987282Y-112392914D01*
X175987283Y-112392914D01*
X175995205Y-112392665D01*
X176014749Y-112386987D01*
X176034112Y-112382977D01*
X176046440Y-112381420D01*
X176046442Y-112381420D01*
X176054299Y-112380427D01*
X176061663Y-112377511D01*
X176061668Y-112377510D01*
X176095556Y-112364093D01*
X176106785Y-112360248D01*
X176123465Y-112355402D01*
X176149393Y-112347869D01*
X176156220Y-112343831D01*
X176156223Y-112343830D01*
X176166906Y-112337512D01*
X176184664Y-112328812D01*
X176196215Y-112324239D01*
X176196221Y-112324235D01*
X176203588Y-112321319D01*
X176239491Y-112295234D01*
X176249410Y-112288719D01*
X176280768Y-112270174D01*
X176280772Y-112270171D01*
X176287598Y-112266134D01*
X176301982Y-112251750D01*
X176317016Y-112238909D01*
X176327073Y-112231602D01*
X176333487Y-112226942D01*
X176361778Y-112192744D01*
X176369767Y-112183965D01*
X179053477Y-109500255D01*
X179061803Y-109492678D01*
X179068303Y-109488553D01*
X179115101Y-109438718D01*
X179117855Y-109435877D01*
X179137638Y-109416094D01*
X179140129Y-109412883D01*
X179147838Y-109403856D01*
X179172789Y-109377286D01*
X179178217Y-109371506D01*
X179188022Y-109353671D01*
X179198876Y-109337147D01*
X179206491Y-109327330D01*
X179206492Y-109327329D01*
X179211349Y-109321067D01*
X179228969Y-109280350D01*
X179234192Y-109269689D01*
X179251749Y-109237753D01*
X179251751Y-109237748D01*
X179255569Y-109230803D01*
X179257539Y-109223129D01*
X179257542Y-109223122D01*
X179260632Y-109211087D01*
X179267036Y-109192382D01*
X179271967Y-109180987D01*
X179275117Y-109173708D01*
X179282060Y-109129873D01*
X179284467Y-109118251D01*
X179295500Y-109075282D01*
X179295500Y-109054935D01*
X179297051Y-109035224D01*
X179298995Y-109022950D01*
X179300235Y-109015121D01*
X179296059Y-108970944D01*
X179295500Y-108959086D01*
X179295500Y-103450340D01*
X179315502Y-103382219D01*
X179355664Y-103342908D01*
X179549416Y-103224176D01*
X179729969Y-103069969D01*
X179884176Y-102889416D01*
X179886755Y-102885208D01*
X179886759Y-102885202D01*
X180005654Y-102691183D01*
X180008240Y-102686963D01*
X180010229Y-102682163D01*
X180097211Y-102472167D01*
X180097212Y-102472165D01*
X180099105Y-102467594D01*
X180123878Y-102364408D01*
X180153380Y-102241524D01*
X180153381Y-102241518D01*
X180154535Y-102236711D01*
X180173165Y-102000000D01*
X180154535Y-101763289D01*
X180149443Y-101742076D01*
X180118360Y-101612609D01*
X180099105Y-101532406D01*
X180095579Y-101523894D01*
X180010135Y-101317611D01*
X180010133Y-101317607D01*
X180008240Y-101313037D01*
X179990321Y-101283796D01*
X179886759Y-101114798D01*
X179886755Y-101114792D01*
X179884176Y-101110584D01*
X179729969Y-100930031D01*
X179549416Y-100775824D01*
X179355664Y-100657092D01*
X179308034Y-100604445D01*
X179295500Y-100549660D01*
X179295500Y-98950340D01*
X179315502Y-98882219D01*
X179355664Y-98842908D01*
X179549416Y-98724176D01*
X179713191Y-98584299D01*
X179726213Y-98573177D01*
X179729969Y-98569969D01*
X179884176Y-98389416D01*
X179886755Y-98385208D01*
X179886759Y-98385202D01*
X180005654Y-98191183D01*
X180008240Y-98186963D01*
X180010229Y-98182163D01*
X180097211Y-97972167D01*
X180097212Y-97972165D01*
X180099105Y-97967594D01*
X180146664Y-97769498D01*
X180153380Y-97741524D01*
X180153381Y-97741518D01*
X180154535Y-97736711D01*
X180173165Y-97500000D01*
X180154535Y-97263289D01*
X180147068Y-97232183D01*
X180104089Y-97053165D01*
X180099105Y-97032406D01*
X180069976Y-96962081D01*
X180010135Y-96817611D01*
X180010133Y-96817607D01*
X180008240Y-96813037D01*
X179993510Y-96789000D01*
X179886759Y-96614798D01*
X179886755Y-96614792D01*
X179884176Y-96610584D01*
X179729969Y-96430031D01*
X179549416Y-96275824D01*
X179545208Y-96273245D01*
X179545202Y-96273241D01*
X179351183Y-96154346D01*
X179346963Y-96151760D01*
X179342393Y-96149867D01*
X179342389Y-96149865D01*
X179132167Y-96062789D01*
X179132165Y-96062788D01*
X179127594Y-96060895D01*
X179047391Y-96041640D01*
X178901524Y-96006620D01*
X178901518Y-96006619D01*
X178896711Y-96005465D01*
X178660000Y-95986835D01*
X178423289Y-96005465D01*
X178418482Y-96006619D01*
X178418476Y-96006620D01*
X178272609Y-96041640D01*
X178192406Y-96060895D01*
X178187835Y-96062788D01*
X178187833Y-96062789D01*
X177977611Y-96149865D01*
X177977607Y-96149867D01*
X177973037Y-96151760D01*
X177968817Y-96154346D01*
X177774798Y-96273241D01*
X177774792Y-96273245D01*
X177770584Y-96275824D01*
X177590031Y-96430031D01*
X177435824Y-96610584D01*
X177433245Y-96614792D01*
X177433241Y-96614798D01*
X177326490Y-96789000D01*
X177311760Y-96813037D01*
X177309867Y-96817607D01*
X177309865Y-96817611D01*
X177250024Y-96962081D01*
X177220895Y-97032406D01*
X177215911Y-97053165D01*
X177172933Y-97232183D01*
X177165465Y-97263289D01*
X177146835Y-97500000D01*
X177165465Y-97736711D01*
X177166619Y-97741518D01*
X177166620Y-97741524D01*
X177173336Y-97769498D01*
X177220895Y-97967594D01*
X177222788Y-97972165D01*
X177222789Y-97972167D01*
X177309772Y-98182163D01*
X177311760Y-98186963D01*
X177314346Y-98191183D01*
X177433241Y-98385202D01*
X177433245Y-98385208D01*
X177435824Y-98389416D01*
X177590031Y-98569969D01*
X177593787Y-98573177D01*
X177606809Y-98584299D01*
X177770584Y-98724176D01*
X177964336Y-98842908D01*
X178011966Y-98895555D01*
X178024500Y-98950340D01*
X178024500Y-100549660D01*
X178004498Y-100617781D01*
X177964336Y-100657092D01*
X177770584Y-100775824D01*
X177590031Y-100930031D01*
X177435824Y-101110584D01*
X177433245Y-101114792D01*
X177433241Y-101114798D01*
X177329679Y-101283796D01*
X177311760Y-101313037D01*
X177309867Y-101317607D01*
X177309865Y-101317611D01*
X177224421Y-101523894D01*
X177220895Y-101532406D01*
X177201640Y-101612609D01*
X177170558Y-101742076D01*
X177165465Y-101763289D01*
X177146835Y-102000000D01*
X177165465Y-102236711D01*
X177166619Y-102241518D01*
X177166620Y-102241524D01*
X177196122Y-102364408D01*
X177220895Y-102467594D01*
X177222788Y-102472165D01*
X177222789Y-102472167D01*
X177309772Y-102682163D01*
X177311760Y-102686963D01*
X177314346Y-102691183D01*
X177433241Y-102885202D01*
X177433245Y-102885208D01*
X177435824Y-102889416D01*
X177590031Y-103069969D01*
X177770584Y-103224176D01*
X177964336Y-103342908D01*
X178011966Y-103395555D01*
X178024500Y-103450340D01*
X178024500Y-108679577D01*
X178004498Y-108747698D01*
X177987595Y-108768672D01*
X175668672Y-111087595D01*
X175606360Y-111121621D01*
X175579577Y-111124500D01*
X156289032Y-111124500D01*
X156277793Y-111123970D01*
X156270281Y-111122291D01*
X156262356Y-111122540D01*
X156262355Y-111122540D01*
X156201970Y-111124438D01*
X156198012Y-111124500D01*
X156170017Y-111124500D01*
X156166083Y-111124997D01*
X156166081Y-111124997D01*
X156165994Y-111125008D01*
X156154160Y-111125940D01*
X156109796Y-111127335D01*
X156090257Y-111133012D01*
X156070896Y-111137021D01*
X156058568Y-111138578D01*
X156058558Y-111138581D01*
X156050701Y-111139573D01*
X156043333Y-111142490D01*
X156043330Y-111142491D01*
X156009446Y-111155906D01*
X155998221Y-111159750D01*
X155955607Y-111172131D01*
X155948781Y-111176168D01*
X155938091Y-111182490D01*
X155920341Y-111191187D01*
X155901412Y-111198681D01*
X155894998Y-111203341D01*
X155865514Y-111224762D01*
X155855594Y-111231278D01*
X155824229Y-111249827D01*
X155824226Y-111249829D01*
X155817402Y-111253865D01*
X155803014Y-111268253D01*
X155787980Y-111281094D01*
X155771513Y-111293058D01*
X155766460Y-111299166D01*
X155743228Y-111327249D01*
X155735238Y-111336029D01*
X151872028Y-115199239D01*
X151809716Y-115233265D01*
X151738901Y-115228200D01*
X151682065Y-115185653D01*
X151673814Y-115173145D01*
X151669823Y-115166233D01*
X151632638Y-115101826D01*
X151589052Y-115053418D01*
X151517305Y-114973735D01*
X151517304Y-114973734D01*
X151512883Y-114968824D01*
X151506456Y-114964154D01*
X151373434Y-114867508D01*
X151373433Y-114867507D01*
X151368092Y-114863627D01*
X151362064Y-114860943D01*
X151362062Y-114860942D01*
X151210624Y-114793518D01*
X151210623Y-114793518D01*
X151204593Y-114790833D01*
X151117063Y-114772228D01*
X151035990Y-114754995D01*
X151035986Y-114754995D01*
X151029533Y-114753623D01*
X150850561Y-114753623D01*
X150844108Y-114754995D01*
X150844104Y-114754995D01*
X150763031Y-114772228D01*
X150675501Y-114790833D01*
X150669471Y-114793518D01*
X150669470Y-114793518D01*
X150518032Y-114860942D01*
X150518030Y-114860943D01*
X150512002Y-114863627D01*
X150506661Y-114867507D01*
X150506660Y-114867508D01*
X150447575Y-114910436D01*
X150380707Y-114934295D01*
X150373514Y-114934500D01*
X148034032Y-114934500D01*
X148022793Y-114933970D01*
X148015281Y-114932291D01*
X148007356Y-114932540D01*
X148007355Y-114932540D01*
X147946970Y-114934438D01*
X147943012Y-114934500D01*
X147915017Y-114934500D01*
X147911083Y-114934997D01*
X147911081Y-114934997D01*
X147910994Y-114935008D01*
X147899160Y-114935940D01*
X147854795Y-114937335D01*
X147847182Y-114939547D01*
X147847181Y-114939547D01*
X147835252Y-114943013D01*
X147815888Y-114947023D01*
X147803560Y-114948580D01*
X147803558Y-114948580D01*
X147795701Y-114949573D01*
X147788337Y-114952489D01*
X147788332Y-114952490D01*
X147754444Y-114965907D01*
X147743215Y-114969752D01*
X147729506Y-114973735D01*
X147700607Y-114982131D01*
X147693781Y-114986168D01*
X147683091Y-114992490D01*
X147665341Y-115001187D01*
X147646412Y-115008681D01*
X147639998Y-115013341D01*
X147610514Y-115034762D01*
X147600594Y-115041278D01*
X147569229Y-115059827D01*
X147569226Y-115059829D01*
X147562402Y-115063865D01*
X147548014Y-115078253D01*
X147532980Y-115091094D01*
X147516513Y-115103058D01*
X147511460Y-115109166D01*
X147488228Y-115137249D01*
X147480238Y-115146029D01*
X147111003Y-115515264D01*
X147048691Y-115549290D01*
X146977876Y-115544225D01*
X146921040Y-115501678D01*
X146896229Y-115435158D01*
X146898402Y-115403716D01*
X146898890Y-115402215D01*
X146917598Y-115224224D01*
X146912678Y-115177416D01*
X146899580Y-115052797D01*
X146899580Y-115052796D01*
X146898890Y-115046233D01*
X146883069Y-114997539D01*
X146847763Y-114888880D01*
X146843585Y-114876021D01*
X146754099Y-114721027D01*
X146717863Y-114680783D01*
X146687147Y-114616777D01*
X146685500Y-114596474D01*
X146685500Y-111440422D01*
X146705502Y-111372301D01*
X146722405Y-111351327D01*
X154841062Y-103232670D01*
X171292160Y-103232670D01*
X171297887Y-103240320D01*
X171469042Y-103345205D01*
X171477837Y-103349687D01*
X171687988Y-103436734D01*
X171697373Y-103439783D01*
X171918554Y-103492885D01*
X171928301Y-103494428D01*
X172155070Y-103512275D01*
X172164930Y-103512275D01*
X172391699Y-103494428D01*
X172401446Y-103492885D01*
X172622627Y-103439783D01*
X172632012Y-103436734D01*
X172842163Y-103349687D01*
X172850958Y-103345205D01*
X173018445Y-103242568D01*
X173027907Y-103232110D01*
X173024124Y-103223334D01*
X172172812Y-102372022D01*
X172158868Y-102364408D01*
X172157035Y-102364539D01*
X172150420Y-102368790D01*
X171298920Y-103220290D01*
X171292160Y-103232670D01*
X154841062Y-103232670D01*
X156763732Y-101310000D01*
X159666693Y-101310000D01*
X159685885Y-101529371D01*
X159742880Y-101742076D01*
X159750564Y-101758554D01*
X159833618Y-101936666D01*
X159833621Y-101936671D01*
X159835944Y-101941653D01*
X159839100Y-101946160D01*
X159839101Y-101946162D01*
X159877592Y-102001132D01*
X159962251Y-102122038D01*
X160117962Y-102277749D01*
X160298346Y-102404056D01*
X160497924Y-102497120D01*
X160710629Y-102554115D01*
X160930000Y-102573307D01*
X161149371Y-102554115D01*
X161362076Y-102497120D01*
X161561654Y-102404056D01*
X161742038Y-102277749D01*
X161897749Y-102122038D01*
X161982409Y-102001132D01*
X162020899Y-101946162D01*
X162020900Y-101946160D01*
X162024056Y-101941653D01*
X162026379Y-101936671D01*
X162026382Y-101936666D01*
X162109436Y-101758554D01*
X162117120Y-101742076D01*
X162174115Y-101529371D01*
X162193307Y-101310000D01*
X164546693Y-101310000D01*
X164565885Y-101529371D01*
X164622880Y-101742076D01*
X164630564Y-101758554D01*
X164713618Y-101936666D01*
X164713621Y-101936671D01*
X164715944Y-101941653D01*
X164719100Y-101946160D01*
X164719101Y-101946162D01*
X164757592Y-102001132D01*
X164842251Y-102122038D01*
X164997962Y-102277749D01*
X165178346Y-102404056D01*
X165377924Y-102497120D01*
X165590629Y-102554115D01*
X165810000Y-102573307D01*
X166029371Y-102554115D01*
X166242076Y-102497120D01*
X166441654Y-102404056D01*
X166622038Y-102277749D01*
X166777749Y-102122038D01*
X166859750Y-102004930D01*
X170647725Y-102004930D01*
X170665572Y-102231699D01*
X170667115Y-102241446D01*
X170720217Y-102462627D01*
X170723266Y-102472012D01*
X170810313Y-102682163D01*
X170814795Y-102690958D01*
X170917432Y-102858445D01*
X170927890Y-102867907D01*
X170936666Y-102864124D01*
X171787978Y-102012812D01*
X171794356Y-102001132D01*
X172524408Y-102001132D01*
X172524539Y-102002965D01*
X172528790Y-102009580D01*
X173380290Y-102861080D01*
X173392670Y-102867840D01*
X173400320Y-102862113D01*
X173505205Y-102690958D01*
X173509687Y-102682163D01*
X173596734Y-102472012D01*
X173599783Y-102462627D01*
X173652885Y-102241446D01*
X173654428Y-102231699D01*
X173672275Y-102004930D01*
X173672275Y-101995070D01*
X173654428Y-101768301D01*
X173652885Y-101758554D01*
X173599783Y-101537373D01*
X173596734Y-101527988D01*
X173509687Y-101317837D01*
X173505205Y-101309042D01*
X173402568Y-101141555D01*
X173392110Y-101132093D01*
X173383334Y-101135876D01*
X172532022Y-101987188D01*
X172524408Y-102001132D01*
X171794356Y-102001132D01*
X171795592Y-101998868D01*
X171795461Y-101997035D01*
X171791210Y-101990420D01*
X170939710Y-101138920D01*
X170927330Y-101132160D01*
X170919680Y-101137887D01*
X170814795Y-101309042D01*
X170810313Y-101317837D01*
X170723266Y-101527988D01*
X170720217Y-101537373D01*
X170667115Y-101758554D01*
X170665572Y-101768301D01*
X170647725Y-101995070D01*
X170647725Y-102004930D01*
X166859750Y-102004930D01*
X166862409Y-102001132D01*
X166900899Y-101946162D01*
X166900900Y-101946160D01*
X166904056Y-101941653D01*
X166906379Y-101936671D01*
X166906382Y-101936666D01*
X166989436Y-101758554D01*
X166997120Y-101742076D01*
X167054115Y-101529371D01*
X167073307Y-101310000D01*
X167054115Y-101090629D01*
X166997120Y-100877924D01*
X166947082Y-100770617D01*
X166945810Y-100767890D01*
X171292093Y-100767890D01*
X171295876Y-100776666D01*
X172147188Y-101627978D01*
X172161132Y-101635592D01*
X172162965Y-101635461D01*
X172169580Y-101631210D01*
X173021080Y-100779710D01*
X173027840Y-100767330D01*
X173022113Y-100759680D01*
X172850958Y-100654795D01*
X172842163Y-100650313D01*
X172632012Y-100563266D01*
X172622627Y-100560217D01*
X172401446Y-100507115D01*
X172391699Y-100505572D01*
X172164930Y-100487725D01*
X172155070Y-100487725D01*
X171928301Y-100505572D01*
X171918554Y-100507115D01*
X171697373Y-100560217D01*
X171687988Y-100563266D01*
X171477837Y-100650313D01*
X171469042Y-100654795D01*
X171301555Y-100757432D01*
X171292093Y-100767890D01*
X166945810Y-100767890D01*
X166906382Y-100683334D01*
X166906379Y-100683329D01*
X166904056Y-100678347D01*
X166885440Y-100651760D01*
X166780908Y-100502473D01*
X166780906Y-100502470D01*
X166777749Y-100497962D01*
X166622038Y-100342251D01*
X166441654Y-100215944D01*
X166242076Y-100122880D01*
X166029371Y-100065885D01*
X165810000Y-100046693D01*
X165590629Y-100065885D01*
X165377924Y-100122880D01*
X165284562Y-100166415D01*
X165183334Y-100213618D01*
X165183329Y-100213621D01*
X165178347Y-100215944D01*
X165173840Y-100219100D01*
X165173838Y-100219101D01*
X165002473Y-100339092D01*
X165002470Y-100339094D01*
X164997962Y-100342251D01*
X164842251Y-100497962D01*
X164839094Y-100502470D01*
X164839092Y-100502473D01*
X164734560Y-100651760D01*
X164715944Y-100678347D01*
X164713621Y-100683329D01*
X164713618Y-100683334D01*
X164672918Y-100770617D01*
X164622880Y-100877924D01*
X164565885Y-101090629D01*
X164546693Y-101310000D01*
X162193307Y-101310000D01*
X162174115Y-101090629D01*
X162117120Y-100877924D01*
X162067082Y-100770617D01*
X162026382Y-100683334D01*
X162026379Y-100683329D01*
X162024056Y-100678347D01*
X162005440Y-100651760D01*
X161900908Y-100502473D01*
X161900906Y-100502470D01*
X161897749Y-100497962D01*
X161742038Y-100342251D01*
X161561654Y-100215944D01*
X161362076Y-100122880D01*
X161149371Y-100065885D01*
X160930000Y-100046693D01*
X160710629Y-100065885D01*
X160497924Y-100122880D01*
X160404562Y-100166415D01*
X160303334Y-100213618D01*
X160303329Y-100213621D01*
X160298347Y-100215944D01*
X160293840Y-100219100D01*
X160293838Y-100219101D01*
X160122473Y-100339092D01*
X160122470Y-100339094D01*
X160117962Y-100342251D01*
X159962251Y-100497962D01*
X159959094Y-100502470D01*
X159959092Y-100502473D01*
X159854560Y-100651760D01*
X159835944Y-100678347D01*
X159833621Y-100683329D01*
X159833618Y-100683334D01*
X159792918Y-100770617D01*
X159742880Y-100877924D01*
X159685885Y-101090629D01*
X159666693Y-101310000D01*
X156763732Y-101310000D01*
X159341062Y-98732670D01*
X171292160Y-98732670D01*
X171297887Y-98740320D01*
X171469042Y-98845205D01*
X171477837Y-98849687D01*
X171687988Y-98936734D01*
X171697373Y-98939783D01*
X171918554Y-98992885D01*
X171928301Y-98994428D01*
X172155070Y-99012275D01*
X172164930Y-99012275D01*
X172391699Y-98994428D01*
X172401446Y-98992885D01*
X172622627Y-98939783D01*
X172632012Y-98936734D01*
X172842163Y-98849687D01*
X172850958Y-98845205D01*
X173018445Y-98742568D01*
X173027907Y-98732110D01*
X173024124Y-98723334D01*
X172172812Y-97872022D01*
X172158868Y-97864408D01*
X172157035Y-97864539D01*
X172150420Y-97868790D01*
X171298920Y-98720290D01*
X171292160Y-98732670D01*
X159341062Y-98732670D01*
X160568802Y-97504930D01*
X170647725Y-97504930D01*
X170665572Y-97731699D01*
X170667115Y-97741446D01*
X170720217Y-97962627D01*
X170723266Y-97972012D01*
X170810313Y-98182163D01*
X170814795Y-98190958D01*
X170917432Y-98358445D01*
X170927890Y-98367907D01*
X170936666Y-98364124D01*
X171787978Y-97512812D01*
X171794356Y-97501132D01*
X172524408Y-97501132D01*
X172524539Y-97502965D01*
X172528790Y-97509580D01*
X173380290Y-98361080D01*
X173392670Y-98367840D01*
X173400320Y-98362113D01*
X173505205Y-98190958D01*
X173509687Y-98182163D01*
X173596734Y-97972012D01*
X173599783Y-97962627D01*
X173652885Y-97741446D01*
X173654428Y-97731699D01*
X173672275Y-97504930D01*
X173672275Y-97495070D01*
X173654428Y-97268301D01*
X173652885Y-97258554D01*
X173599783Y-97037373D01*
X173596734Y-97027988D01*
X173509687Y-96817837D01*
X173505205Y-96809042D01*
X173402568Y-96641555D01*
X173392110Y-96632093D01*
X173383334Y-96635876D01*
X172532022Y-97487188D01*
X172524408Y-97501132D01*
X171794356Y-97501132D01*
X171795592Y-97498868D01*
X171795461Y-97497035D01*
X171791210Y-97490420D01*
X170939710Y-96638920D01*
X170927330Y-96632160D01*
X170919680Y-96637887D01*
X170814795Y-96809042D01*
X170810313Y-96817837D01*
X170723266Y-97027988D01*
X170720217Y-97037373D01*
X170667115Y-97258554D01*
X170665572Y-97268301D01*
X170647725Y-97495070D01*
X170647725Y-97504930D01*
X160568802Y-97504930D01*
X161805842Y-96267890D01*
X171292093Y-96267890D01*
X171295876Y-96276666D01*
X172147188Y-97127978D01*
X172161132Y-97135592D01*
X172162965Y-97135461D01*
X172169580Y-97131210D01*
X173021080Y-96279710D01*
X173027840Y-96267330D01*
X173022113Y-96259680D01*
X172850958Y-96154795D01*
X172842163Y-96150313D01*
X172632012Y-96063266D01*
X172622627Y-96060217D01*
X172401446Y-96007115D01*
X172391699Y-96005572D01*
X172164930Y-95987725D01*
X172155070Y-95987725D01*
X171928301Y-96005572D01*
X171918554Y-96007115D01*
X171697373Y-96060217D01*
X171687988Y-96063266D01*
X171477837Y-96150313D01*
X171469042Y-96154795D01*
X171301555Y-96257432D01*
X171292093Y-96267890D01*
X161805842Y-96267890D01*
X167101528Y-90972204D01*
X174103151Y-90972204D01*
X174107720Y-90978735D01*
X174320736Y-91109271D01*
X174329530Y-91113752D01*
X174561492Y-91209834D01*
X174570877Y-91212883D01*
X174815017Y-91271496D01*
X174824764Y-91273039D01*
X175075070Y-91292739D01*
X175084930Y-91292739D01*
X175335236Y-91273039D01*
X175344983Y-91271496D01*
X175589123Y-91212883D01*
X175598508Y-91209834D01*
X175830470Y-91113752D01*
X175839264Y-91109271D01*
X176050875Y-90979596D01*
X176056922Y-90970330D01*
X176050915Y-90960125D01*
X175092812Y-90002022D01*
X175078868Y-89994408D01*
X175077035Y-89994539D01*
X175070420Y-89998790D01*
X174110544Y-90958666D01*
X174103151Y-90972204D01*
X167101528Y-90972204D01*
X167231327Y-90842405D01*
X167293639Y-90808379D01*
X167320422Y-90805500D01*
X170100980Y-90805500D01*
X170112214Y-90806030D01*
X170119719Y-90807708D01*
X170188012Y-90805562D01*
X170191969Y-90805500D01*
X170219983Y-90805500D01*
X170223908Y-90805004D01*
X170223909Y-90805004D01*
X170224004Y-90804992D01*
X170235849Y-90804059D01*
X170265670Y-90803122D01*
X170272282Y-90802914D01*
X170272283Y-90802914D01*
X170280205Y-90802665D01*
X170299749Y-90796987D01*
X170319112Y-90792977D01*
X170331440Y-90791420D01*
X170331442Y-90791420D01*
X170339299Y-90790427D01*
X170346663Y-90787511D01*
X170346668Y-90787510D01*
X170380556Y-90774093D01*
X170391785Y-90770248D01*
X170409152Y-90765202D01*
X170434393Y-90757869D01*
X170441220Y-90753831D01*
X170441223Y-90753830D01*
X170451906Y-90747512D01*
X170469664Y-90738812D01*
X170481215Y-90734239D01*
X170481221Y-90734235D01*
X170488588Y-90731319D01*
X170505920Y-90718727D01*
X170524488Y-90705236D01*
X170534410Y-90698719D01*
X170565768Y-90680174D01*
X170565772Y-90680171D01*
X170572598Y-90676134D01*
X170586982Y-90661750D01*
X170602016Y-90648909D01*
X170612073Y-90641602D01*
X170618487Y-90636942D01*
X170646778Y-90602744D01*
X170654767Y-90593965D01*
X171613802Y-89634930D01*
X173417261Y-89634930D01*
X173436961Y-89885236D01*
X173438504Y-89894983D01*
X173497117Y-90139123D01*
X173500166Y-90148508D01*
X173596248Y-90380470D01*
X173600729Y-90389264D01*
X173730404Y-90600875D01*
X173739670Y-90606922D01*
X173749875Y-90600915D01*
X174707978Y-89642812D01*
X174714356Y-89631132D01*
X175444408Y-89631132D01*
X175444539Y-89632965D01*
X175448790Y-89639580D01*
X176408666Y-90599456D01*
X176422204Y-90606849D01*
X176428735Y-90602280D01*
X176559271Y-90389264D01*
X176563752Y-90380470D01*
X176659834Y-90148508D01*
X176662883Y-90139123D01*
X176721496Y-89894983D01*
X176723039Y-89885236D01*
X176742739Y-89634930D01*
X176742739Y-89625070D01*
X176725042Y-89400215D01*
X176739638Y-89330735D01*
X176789480Y-89280176D01*
X176858745Y-89264589D01*
X176925441Y-89288924D01*
X176937387Y-89298932D01*
X177052848Y-89408500D01*
X177146878Y-89497731D01*
X177383113Y-89667483D01*
X177640200Y-89803603D01*
X177644223Y-89805075D01*
X177644227Y-89805077D01*
X177889906Y-89894983D01*
X177913382Y-89903574D01*
X178197604Y-89965544D01*
X178226650Y-89967830D01*
X178423297Y-89983307D01*
X178423304Y-89983307D01*
X178425753Y-89983500D01*
X178583121Y-89983500D01*
X178585257Y-89983354D01*
X178585268Y-89983354D01*
X178795949Y-89968991D01*
X178795955Y-89968990D01*
X178800226Y-89968699D01*
X178804421Y-89967830D01*
X178804423Y-89967830D01*
X178942653Y-89939204D01*
X179085081Y-89909709D01*
X179359295Y-89812605D01*
X179617793Y-89679184D01*
X179621294Y-89676723D01*
X179621298Y-89676721D01*
X179736793Y-89595549D01*
X179855792Y-89511915D01*
X179957698Y-89417218D01*
X180065745Y-89316815D01*
X180065748Y-89316812D01*
X180068888Y-89313894D01*
X180073162Y-89308673D01*
X180230792Y-89116087D01*
X180253139Y-89088784D01*
X180405133Y-88840752D01*
X180413869Y-88820852D01*
X180470660Y-88691477D01*
X180522059Y-88574386D01*
X180523973Y-88567669D01*
X180559410Y-88443266D01*
X180601754Y-88294616D01*
X180603655Y-88281265D01*
X180642137Y-88010870D01*
X180642742Y-88006619D01*
X180643728Y-87818233D01*
X180644243Y-87720009D01*
X180644243Y-87720003D01*
X180644265Y-87715723D01*
X180606295Y-87427313D01*
X180529535Y-87146724D01*
X180483875Y-87039675D01*
X180417090Y-86883100D01*
X180417088Y-86883096D01*
X180415404Y-86879148D01*
X180266015Y-86629538D01*
X180251337Y-86611216D01*
X180167601Y-86506697D01*
X180084133Y-86402511D01*
X179873122Y-86202269D01*
X179636887Y-86032517D01*
X179379800Y-85896397D01*
X179375777Y-85894925D01*
X179375773Y-85894923D01*
X179110649Y-85797901D01*
X179110647Y-85797900D01*
X179106618Y-85796426D01*
X178822396Y-85734456D01*
X178778598Y-85731009D01*
X178596703Y-85716693D01*
X178596696Y-85716693D01*
X178594247Y-85716500D01*
X178436879Y-85716500D01*
X178434743Y-85716646D01*
X178434732Y-85716646D01*
X178224051Y-85731009D01*
X178224045Y-85731010D01*
X178219774Y-85731301D01*
X178215579Y-85732170D01*
X178215577Y-85732170D01*
X178156482Y-85744408D01*
X177934919Y-85790291D01*
X177660705Y-85887395D01*
X177656896Y-85889361D01*
X177411825Y-86015852D01*
X177402207Y-86020816D01*
X177398706Y-86023277D01*
X177398702Y-86023279D01*
X177332225Y-86070000D01*
X177164208Y-86188085D01*
X177107179Y-86241080D01*
X176954712Y-86382761D01*
X176951112Y-86386106D01*
X176948398Y-86389422D01*
X176948395Y-86389425D01*
X176860921Y-86496297D01*
X176766861Y-86611216D01*
X176614867Y-86859248D01*
X176613148Y-86863165D01*
X176613146Y-86863168D01*
X176587671Y-86921203D01*
X176497941Y-87125614D01*
X176496765Y-87129742D01*
X176496764Y-87129745D01*
X176486990Y-87164056D01*
X176418246Y-87405384D01*
X176417642Y-87409626D01*
X176417641Y-87409632D01*
X176415125Y-87427313D01*
X176377258Y-87693381D01*
X176376604Y-87818233D01*
X176376012Y-87931412D01*
X176375735Y-87984277D01*
X176413705Y-88272687D01*
X176414838Y-88276827D01*
X176414838Y-88276829D01*
X176478825Y-88510728D01*
X176477507Y-88581713D01*
X176438021Y-88640716D01*
X176421205Y-88652562D01*
X176410128Y-88659082D01*
X175452022Y-89617188D01*
X175444408Y-89631132D01*
X174714356Y-89631132D01*
X174715592Y-89628868D01*
X174715461Y-89627035D01*
X174711210Y-89620420D01*
X173751334Y-88660544D01*
X173737796Y-88653151D01*
X173731265Y-88657720D01*
X173600729Y-88870736D01*
X173596248Y-88879530D01*
X173500166Y-89111492D01*
X173497117Y-89120877D01*
X173438504Y-89365017D01*
X173436961Y-89374764D01*
X173417261Y-89625070D01*
X173417261Y-89634930D01*
X171613802Y-89634930D01*
X171843477Y-89405255D01*
X171851803Y-89397678D01*
X171858303Y-89393553D01*
X171905101Y-89343718D01*
X171907855Y-89340877D01*
X171927638Y-89321094D01*
X171930129Y-89317883D01*
X171937838Y-89308856D01*
X171947157Y-89298932D01*
X171968217Y-89276506D01*
X171978022Y-89258671D01*
X171988876Y-89242147D01*
X171996491Y-89232330D01*
X171996492Y-89232329D01*
X172001349Y-89226067D01*
X172018969Y-89185350D01*
X172024192Y-89174689D01*
X172041749Y-89142753D01*
X172041751Y-89142748D01*
X172045569Y-89135803D01*
X172047539Y-89128129D01*
X172047542Y-89128122D01*
X172050632Y-89116087D01*
X172057036Y-89097382D01*
X172061967Y-89085987D01*
X172065117Y-89078708D01*
X172072060Y-89034873D01*
X172074467Y-89023251D01*
X172085500Y-88980282D01*
X172085500Y-88959935D01*
X172087051Y-88940224D01*
X172088995Y-88927950D01*
X172090235Y-88920121D01*
X172086059Y-88875944D01*
X172085500Y-88864086D01*
X172085500Y-88289670D01*
X174103078Y-88289670D01*
X174109085Y-88299875D01*
X175067188Y-89257978D01*
X175081132Y-89265592D01*
X175082965Y-89265461D01*
X175089580Y-89261210D01*
X176049456Y-88301334D01*
X176056849Y-88287796D01*
X176052280Y-88281265D01*
X175839264Y-88150729D01*
X175830470Y-88146248D01*
X175598508Y-88050166D01*
X175589123Y-88047117D01*
X175344983Y-87988504D01*
X175335236Y-87986961D01*
X175084930Y-87967261D01*
X175075070Y-87967261D01*
X174824764Y-87986961D01*
X174815017Y-87988504D01*
X174570877Y-88047117D01*
X174561492Y-88050166D01*
X174329530Y-88146248D01*
X174320736Y-88150729D01*
X174109125Y-88280404D01*
X174103078Y-88289670D01*
X172085500Y-88289670D01*
X172085500Y-86075422D01*
X172105502Y-86007301D01*
X172122405Y-85986327D01*
X172768634Y-85340098D01*
X172830946Y-85306072D01*
X172901761Y-85311137D01*
X172958597Y-85353684D01*
X172979436Y-85396582D01*
X173000355Y-85474651D01*
X173002880Y-85484076D01*
X173044822Y-85574022D01*
X173093618Y-85678666D01*
X173093621Y-85678671D01*
X173095944Y-85683653D01*
X173099098Y-85688157D01*
X173099101Y-85688162D01*
X173213939Y-85852167D01*
X173222251Y-85864038D01*
X173377962Y-86019749D01*
X173382471Y-86022906D01*
X173382473Y-86022908D01*
X173438535Y-86062163D01*
X173558346Y-86146056D01*
X173757924Y-86239120D01*
X173970629Y-86296115D01*
X174190000Y-86315307D01*
X174409371Y-86296115D01*
X174622076Y-86239120D01*
X174821654Y-86146056D01*
X174941465Y-86062163D01*
X174997527Y-86022908D01*
X174997529Y-86022906D01*
X175002038Y-86019749D01*
X175157749Y-85864038D01*
X175166062Y-85852167D01*
X175280899Y-85688162D01*
X175280902Y-85688157D01*
X175284056Y-85683653D01*
X175286379Y-85678671D01*
X175286382Y-85678666D01*
X175335178Y-85574022D01*
X175377120Y-85484076D01*
X175420520Y-85322107D01*
X175457472Y-85261485D01*
X175521333Y-85230463D01*
X175574838Y-85233012D01*
X175745316Y-85278692D01*
X175745323Y-85278693D01*
X175750629Y-85280115D01*
X175970000Y-85299307D01*
X176189371Y-85280115D01*
X176402076Y-85223120D01*
X176601654Y-85130056D01*
X176771383Y-85011210D01*
X176777527Y-85006908D01*
X176777529Y-85006906D01*
X176782038Y-85003749D01*
X176937749Y-84848038D01*
X176952265Y-84827308D01*
X177060899Y-84672162D01*
X177060900Y-84672160D01*
X177064056Y-84667653D01*
X177066379Y-84662671D01*
X177066382Y-84662666D01*
X177133893Y-84517887D01*
X177157120Y-84468076D01*
X177214115Y-84255371D01*
X177233307Y-84036000D01*
X177214115Y-83816629D01*
X177157120Y-83603924D01*
X177113585Y-83510562D01*
X177066382Y-83409334D01*
X177066379Y-83409329D01*
X177064056Y-83404347D01*
X176937749Y-83223962D01*
X176782038Y-83068251D01*
X176777527Y-83065092D01*
X176606158Y-82945097D01*
X176606152Y-82945093D01*
X176601654Y-82941944D01*
X176522631Y-82905095D01*
X176486786Y-82879996D01*
X175699885Y-82093095D01*
X175665859Y-82030783D01*
X175667694Y-82005132D01*
X176334408Y-82005132D01*
X176334539Y-82006966D01*
X176338790Y-82013580D01*
X177008391Y-82683180D01*
X177020161Y-82689607D01*
X177032176Y-82680311D01*
X177060466Y-82639907D01*
X177065946Y-82630417D01*
X177154326Y-82440887D01*
X177158072Y-82430595D01*
X177212196Y-82228599D01*
X177214099Y-82217804D01*
X177232326Y-82009475D01*
X177232326Y-81998525D01*
X177214099Y-81790196D01*
X177212196Y-81779401D01*
X177158072Y-81577405D01*
X177154326Y-81567113D01*
X177065946Y-81377583D01*
X177060466Y-81368093D01*
X177031589Y-81326851D01*
X177021113Y-81318477D01*
X177007666Y-81325545D01*
X176342021Y-81991189D01*
X176334408Y-82005132D01*
X175667694Y-82005132D01*
X175670924Y-81959968D01*
X175699885Y-81914905D01*
X175970000Y-81644790D01*
X176486784Y-81128005D01*
X176522630Y-81102905D01*
X176577981Y-81077095D01*
X176601654Y-81066056D01*
X176606152Y-81062907D01*
X176606158Y-81062903D01*
X176777527Y-80942908D01*
X176777529Y-80942906D01*
X176782038Y-80939749D01*
X176937749Y-80784038D01*
X176944641Y-80774196D01*
X177060899Y-80608162D01*
X177060900Y-80608160D01*
X177064056Y-80603653D01*
X177066379Y-80598671D01*
X177066382Y-80598666D01*
X177153806Y-80411183D01*
X177157120Y-80404076D01*
X177214115Y-80191371D01*
X177233307Y-79972000D01*
X177214115Y-79752629D01*
X177157120Y-79539924D01*
X177088637Y-79393061D01*
X177066382Y-79345334D01*
X177066379Y-79345329D01*
X177064056Y-79340347D01*
X177008804Y-79261439D01*
X176986116Y-79194165D01*
X177003401Y-79125304D01*
X177036451Y-79088343D01*
X177083261Y-79053261D01*
X177170615Y-78936705D01*
X177221745Y-78800316D01*
X177228500Y-78738134D01*
X177228500Y-77141866D01*
X177225477Y-77114036D01*
X177224611Y-77106063D01*
X177237140Y-77036180D01*
X177285461Y-76984165D01*
X177354233Y-76966531D01*
X177408833Y-76981101D01*
X177512860Y-77036180D01*
X177640200Y-77103603D01*
X177644223Y-77105075D01*
X177644227Y-77105077D01*
X177754095Y-77145283D01*
X177913382Y-77203574D01*
X178197604Y-77265544D01*
X178226650Y-77267830D01*
X178423297Y-77283307D01*
X178423304Y-77283307D01*
X178425753Y-77283500D01*
X178583121Y-77283500D01*
X178585257Y-77283354D01*
X178585268Y-77283354D01*
X178795949Y-77268991D01*
X178795955Y-77268990D01*
X178800226Y-77268699D01*
X178804421Y-77267830D01*
X178804423Y-77267830D01*
X178942653Y-77239204D01*
X179085081Y-77209709D01*
X179359295Y-77112605D01*
X179439410Y-77071255D01*
X179613986Y-76981149D01*
X179613987Y-76981149D01*
X179617793Y-76979184D01*
X179621294Y-76976723D01*
X179621298Y-76976721D01*
X179736793Y-76895549D01*
X179855792Y-76811915D01*
X180020235Y-76659105D01*
X180065745Y-76616815D01*
X180065748Y-76616812D01*
X180068888Y-76613894D01*
X180082316Y-76597489D01*
X180250423Y-76392102D01*
X180253139Y-76388784D01*
X180405133Y-76140752D01*
X180413869Y-76120852D01*
X180507759Y-75906963D01*
X180522059Y-75874386D01*
X180528073Y-75853276D01*
X180572083Y-75698776D01*
X180601754Y-75594616D01*
X180602584Y-75588790D01*
X180642137Y-75310870D01*
X180642742Y-75306619D01*
X180644265Y-75015723D01*
X180639362Y-74978476D01*
X180610232Y-74757218D01*
X180606295Y-74727313D01*
X180529535Y-74446724D01*
X180483782Y-74339458D01*
X180417090Y-74183100D01*
X180417088Y-74183096D01*
X180415404Y-74179148D01*
X180266015Y-73929538D01*
X180251337Y-73911216D01*
X180109687Y-73734408D01*
X180084133Y-73702511D01*
X179873122Y-73502269D01*
X179636887Y-73332517D01*
X179379800Y-73196397D01*
X179375777Y-73194925D01*
X179375773Y-73194923D01*
X179110649Y-73097901D01*
X179110647Y-73097900D01*
X179106618Y-73096426D01*
X178822396Y-73034456D01*
X178778598Y-73031009D01*
X178596703Y-73016693D01*
X178596696Y-73016693D01*
X178594247Y-73016500D01*
X178436879Y-73016500D01*
X178434743Y-73016646D01*
X178434732Y-73016646D01*
X178224051Y-73031009D01*
X178224045Y-73031010D01*
X178219774Y-73031301D01*
X178215579Y-73032170D01*
X178215577Y-73032170D01*
X178200130Y-73035369D01*
X177934919Y-73090291D01*
X177660705Y-73187395D01*
X177402207Y-73320816D01*
X177398706Y-73323277D01*
X177398702Y-73323279D01*
X177313996Y-73382812D01*
X177164208Y-73488085D01*
X177161067Y-73491004D01*
X176966022Y-73672251D01*
X176951112Y-73686106D01*
X176948399Y-73689421D01*
X176948143Y-73689734D01*
X176948038Y-73689806D01*
X176945457Y-73692554D01*
X176944850Y-73691984D01*
X176889521Y-73729783D01*
X176818552Y-73731781D01*
X176757770Y-73695094D01*
X176726471Y-73631369D01*
X176725022Y-73600048D01*
X176742739Y-73374930D01*
X176742739Y-73365070D01*
X176723039Y-73114764D01*
X176721496Y-73105017D01*
X176662883Y-72860877D01*
X176659834Y-72851492D01*
X176563752Y-72619530D01*
X176559271Y-72610736D01*
X176429596Y-72399125D01*
X176420330Y-72393078D01*
X176410125Y-72399085D01*
X175452022Y-73357188D01*
X175444408Y-73371132D01*
X175444539Y-73372965D01*
X175448790Y-73379580D01*
X176408668Y-74339458D01*
X176418784Y-74344982D01*
X176468985Y-74395185D01*
X176484075Y-74464560D01*
X176479575Y-74490087D01*
X176466038Y-74537611D01*
X176418246Y-74705384D01*
X176417642Y-74709626D01*
X176417641Y-74709632D01*
X176410869Y-74757218D01*
X176377258Y-74993381D01*
X176377141Y-75015723D01*
X176376046Y-75224930D01*
X176375735Y-75284277D01*
X176413705Y-75572687D01*
X176490465Y-75853276D01*
X176492149Y-75857224D01*
X176597921Y-76105202D01*
X176604596Y-76120852D01*
X176753985Y-76370462D01*
X176839115Y-76476722D01*
X176866095Y-76542390D01*
X176853290Y-76612222D01*
X176804763Y-76664045D01*
X176740779Y-76681500D01*
X175171866Y-76681500D01*
X175109684Y-76688255D01*
X174973295Y-76739385D01*
X174856739Y-76826739D01*
X174769385Y-76943295D01*
X174718255Y-77079684D01*
X174711500Y-77141866D01*
X174711500Y-77628634D01*
X174691498Y-77696755D01*
X174637842Y-77743248D01*
X174567568Y-77753352D01*
X174552888Y-77750340D01*
X174414692Y-77713310D01*
X174414683Y-77713309D01*
X174409371Y-77711885D01*
X174190000Y-77692693D01*
X173970629Y-77711885D01*
X173757924Y-77768880D01*
X173668500Y-77810579D01*
X173563334Y-77859618D01*
X173563329Y-77859621D01*
X173558347Y-77861944D01*
X173553840Y-77865100D01*
X173553838Y-77865101D01*
X173382473Y-77985092D01*
X173382470Y-77985094D01*
X173377962Y-77988251D01*
X173222251Y-78143962D01*
X173219094Y-78148470D01*
X173219092Y-78148473D01*
X173127178Y-78279740D01*
X173095944Y-78324347D01*
X173093621Y-78329329D01*
X173093618Y-78329334D01*
X173046415Y-78430562D01*
X173002880Y-78523924D01*
X172945885Y-78736629D01*
X172926693Y-78956000D01*
X172945885Y-79175371D01*
X173002880Y-79388076D01*
X173005205Y-79393061D01*
X173093618Y-79582666D01*
X173093621Y-79582671D01*
X173095944Y-79587653D01*
X173099100Y-79592160D01*
X173099101Y-79592162D01*
X173215297Y-79758106D01*
X173222251Y-79768038D01*
X173377962Y-79923749D01*
X173382471Y-79926906D01*
X173382473Y-79926908D01*
X173553842Y-80046903D01*
X173553848Y-80046907D01*
X173558346Y-80050056D01*
X173637369Y-80086905D01*
X173673214Y-80112004D01*
X174460115Y-80898905D01*
X174494141Y-80961217D01*
X174489076Y-81032032D01*
X174460115Y-81077095D01*
X174190000Y-81347210D01*
X173673217Y-81863994D01*
X173637372Y-81889094D01*
X173563334Y-81923618D01*
X173563329Y-81923621D01*
X173558347Y-81925944D01*
X173553840Y-81929100D01*
X173553838Y-81929101D01*
X173382473Y-82049092D01*
X173382470Y-82049094D01*
X173377962Y-82052251D01*
X173222251Y-82207962D01*
X173219094Y-82212470D01*
X173219092Y-82212473D01*
X173178461Y-82270500D01*
X173095944Y-82388347D01*
X173093621Y-82393329D01*
X173093618Y-82393334D01*
X173076243Y-82430595D01*
X173002880Y-82587924D01*
X172945885Y-82800629D01*
X172926693Y-83020000D01*
X172945885Y-83239371D01*
X172953687Y-83268486D01*
X172951997Y-83339463D01*
X172921075Y-83390192D01*
X171056517Y-85254750D01*
X171048191Y-85262326D01*
X171041697Y-85266447D01*
X171036274Y-85272222D01*
X170994915Y-85316265D01*
X170992160Y-85319107D01*
X170972361Y-85338906D01*
X170969937Y-85342031D01*
X170969929Y-85342040D01*
X170969863Y-85342126D01*
X170962155Y-85351151D01*
X170931783Y-85383494D01*
X170927965Y-85390438D01*
X170927964Y-85390440D01*
X170921978Y-85401329D01*
X170911127Y-85417847D01*
X170898650Y-85433933D01*
X170881024Y-85474666D01*
X170875807Y-85485314D01*
X170854431Y-85524197D01*
X170852460Y-85531872D01*
X170852458Y-85531878D01*
X170849369Y-85543911D01*
X170842966Y-85562613D01*
X170834883Y-85581292D01*
X170833644Y-85589117D01*
X170827940Y-85625127D01*
X170825535Y-85636740D01*
X170814500Y-85679717D01*
X170812549Y-85679216D01*
X170788412Y-85734556D01*
X170729352Y-85773957D01*
X170658366Y-85775172D01*
X170597991Y-85737817D01*
X170570082Y-85686298D01*
X170558543Y-85643235D01*
X170557120Y-85637924D01*
X170504088Y-85524197D01*
X170466382Y-85443334D01*
X170466379Y-85443329D01*
X170464056Y-85438347D01*
X170456579Y-85427669D01*
X170340908Y-85262473D01*
X170340906Y-85262470D01*
X170337749Y-85257962D01*
X170182038Y-85102251D01*
X170001654Y-84975944D01*
X169802076Y-84882880D01*
X169589371Y-84825885D01*
X169370000Y-84806693D01*
X169150629Y-84825885D01*
X168937924Y-84882880D01*
X168844562Y-84926415D01*
X168743334Y-84973618D01*
X168743329Y-84973621D01*
X168738347Y-84975944D01*
X168733840Y-84979100D01*
X168733838Y-84979101D01*
X168562473Y-85099092D01*
X168562470Y-85099094D01*
X168557962Y-85102251D01*
X168402251Y-85257962D01*
X168399094Y-85262470D01*
X168399092Y-85262473D01*
X168283421Y-85427669D01*
X168275944Y-85438347D01*
X168273621Y-85443329D01*
X168273618Y-85443334D01*
X168235912Y-85524197D01*
X168182880Y-85637924D01*
X168125885Y-85850629D01*
X168106693Y-86070000D01*
X168117226Y-86190392D01*
X168103237Y-86259995D01*
X168080800Y-86290467D01*
X165976517Y-88394750D01*
X165968191Y-88402326D01*
X165961697Y-88406447D01*
X165956274Y-88412222D01*
X165914915Y-88456265D01*
X165912160Y-88459107D01*
X165892361Y-88478906D01*
X165889937Y-88482031D01*
X165889929Y-88482040D01*
X165889863Y-88482126D01*
X165882155Y-88491151D01*
X165851783Y-88523494D01*
X165847965Y-88530438D01*
X165847964Y-88530440D01*
X165841978Y-88541329D01*
X165831127Y-88557847D01*
X165818650Y-88573933D01*
X165801024Y-88614666D01*
X165795807Y-88625314D01*
X165774431Y-88664197D01*
X165772460Y-88671872D01*
X165772458Y-88671878D01*
X165769369Y-88683911D01*
X165762966Y-88702613D01*
X165754883Y-88721292D01*
X165753644Y-88729117D01*
X165747940Y-88765127D01*
X165745535Y-88776740D01*
X165734500Y-88819718D01*
X165734500Y-88840065D01*
X165732949Y-88859776D01*
X165729765Y-88879879D01*
X165730511Y-88887771D01*
X165733941Y-88924056D01*
X165734500Y-88935914D01*
X165734500Y-89219578D01*
X165714498Y-89287699D01*
X165697595Y-89308673D01*
X154980050Y-100026218D01*
X154917739Y-100060243D01*
X154846924Y-100055178D01*
X154790088Y-100012631D01*
X154765344Y-99947007D01*
X154754428Y-99808302D01*
X154752885Y-99798554D01*
X154699783Y-99577373D01*
X154696734Y-99567988D01*
X154609687Y-99357837D01*
X154605205Y-99349042D01*
X154502568Y-99181555D01*
X154492110Y-99172093D01*
X154483334Y-99175876D01*
X152398920Y-101260290D01*
X152392160Y-101272670D01*
X152397887Y-101280320D01*
X152569042Y-101385205D01*
X152577837Y-101389687D01*
X152787988Y-101476734D01*
X152797373Y-101479783D01*
X153018554Y-101532885D01*
X153028302Y-101534428D01*
X153167006Y-101545344D01*
X153233348Y-101570629D01*
X153275488Y-101627767D01*
X153280047Y-101698617D01*
X153246216Y-101760051D01*
X144386517Y-110619750D01*
X144378191Y-110627326D01*
X144371697Y-110631447D01*
X144366274Y-110637222D01*
X144324915Y-110681265D01*
X144322160Y-110684107D01*
X144302361Y-110703906D01*
X144299937Y-110707031D01*
X144299929Y-110707040D01*
X144299863Y-110707126D01*
X144292155Y-110716151D01*
X144261783Y-110748494D01*
X144257965Y-110755438D01*
X144257964Y-110755440D01*
X144251978Y-110766329D01*
X144241127Y-110782847D01*
X144228650Y-110798933D01*
X144211024Y-110839666D01*
X144205807Y-110850314D01*
X144184431Y-110889197D01*
X144182460Y-110896872D01*
X144182458Y-110896878D01*
X144179369Y-110908911D01*
X144172966Y-110927613D01*
X144164883Y-110946292D01*
X144163644Y-110954117D01*
X144157940Y-110990127D01*
X144155535Y-111001740D01*
X144144500Y-111044718D01*
X144144500Y-111065065D01*
X144142949Y-111084776D01*
X144139765Y-111104879D01*
X144140511Y-111112771D01*
X144143941Y-111149056D01*
X144144500Y-111160914D01*
X144144500Y-114611344D01*
X144124498Y-114679465D01*
X144112137Y-114695654D01*
X144082822Y-114728212D01*
X144079520Y-114733931D01*
X144079518Y-114733934D01*
X144045117Y-114793518D01*
X143993336Y-114883206D01*
X143975030Y-114939547D01*
X143940366Y-115046233D01*
X143938031Y-115053418D01*
X143937341Y-115059981D01*
X143937341Y-115059982D01*
X143927192Y-115156538D01*
X143919323Y-115231409D01*
X143920013Y-115237974D01*
X143930087Y-115333815D01*
X143938031Y-115409400D01*
X143940071Y-115415679D01*
X143940416Y-115417301D01*
X143935016Y-115488092D01*
X143892200Y-115544725D01*
X143825563Y-115569220D01*
X143817170Y-115569500D01*
X142555423Y-115569500D01*
X142487302Y-115549498D01*
X142466328Y-115532595D01*
X142084275Y-115150542D01*
X142050249Y-115088230D01*
X142047370Y-115061447D01*
X142047370Y-108458552D01*
X142067372Y-108390431D01*
X142084275Y-108369457D01*
X146061606Y-104392126D01*
X146123918Y-104358100D01*
X146134494Y-104356400D01*
X146139486Y-104356400D01*
X146314546Y-104319190D01*
X146320577Y-104316505D01*
X146472015Y-104249081D01*
X146472017Y-104249080D01*
X146478045Y-104246396D01*
X146483387Y-104242515D01*
X146617492Y-104145082D01*
X146617494Y-104145080D01*
X146622836Y-104141199D01*
X146742591Y-104008197D01*
X146832077Y-103853203D01*
X146887382Y-103682991D01*
X146906090Y-103505000D01*
X146887382Y-103327009D01*
X146832077Y-103156797D01*
X146742591Y-103001803D01*
X146637604Y-102885202D01*
X146627258Y-102873712D01*
X146627257Y-102873711D01*
X146622836Y-102868801D01*
X146610744Y-102860015D01*
X146483387Y-102767485D01*
X146483386Y-102767484D01*
X146478045Y-102763604D01*
X146472017Y-102760920D01*
X146472015Y-102760919D01*
X146320577Y-102693495D01*
X146320576Y-102693495D01*
X146314546Y-102690810D01*
X146227016Y-102672205D01*
X146145943Y-102654972D01*
X146145939Y-102654972D01*
X146139486Y-102653600D01*
X145960514Y-102653600D01*
X145954061Y-102654972D01*
X145954057Y-102654972D01*
X145872984Y-102672205D01*
X145785454Y-102690810D01*
X145779424Y-102693495D01*
X145779423Y-102693495D01*
X145627985Y-102760919D01*
X145627983Y-102760920D01*
X145621955Y-102763604D01*
X145616614Y-102767484D01*
X145616613Y-102767485D01*
X145489061Y-102860157D01*
X145422193Y-102884016D01*
X145353042Y-102867935D01*
X145340939Y-102860157D01*
X145293852Y-102825946D01*
X145250498Y-102769723D01*
X145244423Y-102698987D01*
X145278818Y-102634915D01*
X146357198Y-101556535D01*
X146419510Y-101522509D01*
X146475709Y-101523112D01*
X146518471Y-101533379D01*
X146518480Y-101533380D01*
X146523289Y-101534535D01*
X146760000Y-101553165D01*
X146996711Y-101534535D01*
X147001518Y-101533381D01*
X147001524Y-101533380D01*
X147167626Y-101493502D01*
X147227594Y-101479105D01*
X147232167Y-101477211D01*
X147442389Y-101390135D01*
X147442393Y-101390133D01*
X147446963Y-101388240D01*
X147466454Y-101376296D01*
X147645202Y-101266759D01*
X147645208Y-101266755D01*
X147649416Y-101264176D01*
X147829969Y-101109969D01*
X147984176Y-100929416D01*
X147986755Y-100925208D01*
X147986759Y-100925202D01*
X148105654Y-100731183D01*
X148108240Y-100726963D01*
X148110229Y-100722163D01*
X148197211Y-100512167D01*
X148197212Y-100512165D01*
X148199105Y-100507594D01*
X148237865Y-100346148D01*
X148253380Y-100281524D01*
X148253381Y-100281518D01*
X148254535Y-100276711D01*
X148272777Y-100044930D01*
X151747725Y-100044930D01*
X151765572Y-100271699D01*
X151767115Y-100281446D01*
X151820217Y-100502627D01*
X151823266Y-100512012D01*
X151910313Y-100722163D01*
X151914795Y-100730958D01*
X152017432Y-100898445D01*
X152027890Y-100907907D01*
X152036666Y-100904124D01*
X152887978Y-100052812D01*
X152895592Y-100038868D01*
X152895461Y-100037035D01*
X152891210Y-100030420D01*
X152039710Y-99178920D01*
X152027330Y-99172160D01*
X152019680Y-99177887D01*
X151914795Y-99349042D01*
X151910313Y-99357837D01*
X151823266Y-99567988D01*
X151820217Y-99577373D01*
X151767115Y-99798554D01*
X151765572Y-99808301D01*
X151747725Y-100035070D01*
X151747725Y-100044930D01*
X148272777Y-100044930D01*
X148273165Y-100040000D01*
X148254535Y-99803289D01*
X148199105Y-99572406D01*
X148197211Y-99567833D01*
X148110135Y-99357611D01*
X148110133Y-99357607D01*
X148108240Y-99353037D01*
X148105654Y-99348817D01*
X147986759Y-99154798D01*
X147986755Y-99154792D01*
X147984176Y-99150584D01*
X147829969Y-98970031D01*
X147649416Y-98815824D01*
X147645208Y-98813245D01*
X147645202Y-98813241D01*
X147636470Y-98807890D01*
X152392093Y-98807890D01*
X152395876Y-98816666D01*
X153247188Y-99667978D01*
X153261132Y-99675592D01*
X153262965Y-99675461D01*
X153269580Y-99671210D01*
X154121080Y-98819710D01*
X154127840Y-98807330D01*
X154122113Y-98799680D01*
X153950958Y-98694795D01*
X153942163Y-98690313D01*
X153732012Y-98603266D01*
X153722627Y-98600217D01*
X153501446Y-98547115D01*
X153491699Y-98545572D01*
X153264930Y-98527725D01*
X153255070Y-98527725D01*
X153028301Y-98545572D01*
X153018554Y-98547115D01*
X152797373Y-98600217D01*
X152787988Y-98603266D01*
X152577837Y-98690313D01*
X152569042Y-98694795D01*
X152401555Y-98797432D01*
X152392093Y-98807890D01*
X147636470Y-98807890D01*
X147451183Y-98694346D01*
X147446963Y-98691760D01*
X147442393Y-98689867D01*
X147442389Y-98689865D01*
X147232167Y-98602789D01*
X147232165Y-98602788D01*
X147227594Y-98600895D01*
X147147391Y-98581640D01*
X147001524Y-98546620D01*
X147001518Y-98546619D01*
X146996711Y-98545465D01*
X146760000Y-98526835D01*
X146523289Y-98545465D01*
X146518482Y-98546619D01*
X146518476Y-98546620D01*
X146372609Y-98581640D01*
X146292406Y-98600895D01*
X146287835Y-98602788D01*
X146287833Y-98602789D01*
X146077611Y-98689865D01*
X146077607Y-98689867D01*
X146073037Y-98691760D01*
X146068817Y-98694346D01*
X145874798Y-98813241D01*
X145874792Y-98813245D01*
X145870584Y-98815824D01*
X145690031Y-98970031D01*
X145535824Y-99150584D01*
X145533245Y-99154792D01*
X145533241Y-99154798D01*
X145414346Y-99348817D01*
X145411760Y-99353037D01*
X145409867Y-99357607D01*
X145409865Y-99357611D01*
X145322789Y-99567833D01*
X145320895Y-99572406D01*
X145265465Y-99803289D01*
X145246835Y-100040000D01*
X145265465Y-100276711D01*
X145266619Y-100281518D01*
X145266620Y-100281524D01*
X145282135Y-100346148D01*
X145320895Y-100507594D01*
X145322789Y-100512167D01*
X145322791Y-100512172D01*
X145372965Y-100633305D01*
X145380554Y-100703894D01*
X145345651Y-100770617D01*
X139937648Y-106178619D01*
X139875336Y-106212645D01*
X139804521Y-106207580D01*
X139754918Y-106173834D01*
X139732863Y-106149339D01*
X139702146Y-106085332D01*
X139700500Y-106065031D01*
X139700500Y-102949020D01*
X139701030Y-102937786D01*
X139702708Y-102930281D01*
X139700562Y-102861988D01*
X139700500Y-102858031D01*
X139700500Y-102830017D01*
X139699992Y-102825996D01*
X139699058Y-102814144D01*
X139697914Y-102777718D01*
X139697914Y-102777717D01*
X139697665Y-102769795D01*
X139691987Y-102750251D01*
X139687977Y-102730888D01*
X139686420Y-102718560D01*
X139686420Y-102718558D01*
X139685427Y-102710701D01*
X139682511Y-102703337D01*
X139682510Y-102703332D01*
X139669093Y-102669444D01*
X139665248Y-102658215D01*
X139655081Y-102623222D01*
X139652869Y-102615607D01*
X139648830Y-102608777D01*
X139642512Y-102598094D01*
X139633812Y-102580336D01*
X139629239Y-102568785D01*
X139629235Y-102568779D01*
X139626319Y-102561412D01*
X139621366Y-102554594D01*
X139600236Y-102525512D01*
X139593719Y-102515590D01*
X139575174Y-102484232D01*
X139575171Y-102484228D01*
X139571134Y-102477402D01*
X139556750Y-102463018D01*
X139543909Y-102447984D01*
X139536602Y-102437927D01*
X139531942Y-102431513D01*
X139497744Y-102403222D01*
X139488965Y-102395233D01*
X136562405Y-99468672D01*
X136528379Y-99406360D01*
X136525500Y-99379577D01*
X136525500Y-95964032D01*
X136526030Y-95952793D01*
X136527709Y-95945281D01*
X136526429Y-95904539D01*
X136525562Y-95876970D01*
X136525500Y-95873012D01*
X136525500Y-95845017D01*
X136524992Y-95840994D01*
X136524059Y-95829152D01*
X136522914Y-95792720D01*
X136522665Y-95784795D01*
X136516987Y-95765251D01*
X136512977Y-95745888D01*
X136511420Y-95733560D01*
X136511420Y-95733558D01*
X136510427Y-95725701D01*
X136507511Y-95718337D01*
X136507510Y-95718332D01*
X136494093Y-95684444D01*
X136490248Y-95673215D01*
X136480080Y-95638219D01*
X136477869Y-95630607D01*
X136467510Y-95613091D01*
X136458813Y-95595341D01*
X136451319Y-95576412D01*
X136425238Y-95540514D01*
X136424900Y-95540000D01*
X145246835Y-95540000D01*
X145265465Y-95776711D01*
X145266619Y-95781518D01*
X145266620Y-95781524D01*
X145291119Y-95883568D01*
X145320895Y-96007594D01*
X145322788Y-96012165D01*
X145322789Y-96012167D01*
X145409772Y-96222163D01*
X145411760Y-96226963D01*
X145414346Y-96231183D01*
X145533241Y-96425202D01*
X145533245Y-96425208D01*
X145535824Y-96429416D01*
X145690031Y-96609969D01*
X145870584Y-96764176D01*
X145874792Y-96766755D01*
X145874798Y-96766759D01*
X146011534Y-96850551D01*
X146073037Y-96888240D01*
X146077607Y-96890133D01*
X146077611Y-96890135D01*
X146287833Y-96977211D01*
X146292406Y-96979105D01*
X146372609Y-96998360D01*
X146518476Y-97033380D01*
X146518482Y-97033381D01*
X146523289Y-97034535D01*
X146760000Y-97053165D01*
X146996711Y-97034535D01*
X147001518Y-97033381D01*
X147001524Y-97033380D01*
X147147391Y-96998360D01*
X147227594Y-96979105D01*
X147232167Y-96977211D01*
X147442389Y-96890135D01*
X147442393Y-96890133D01*
X147446963Y-96888240D01*
X147508466Y-96850551D01*
X147635556Y-96772670D01*
X152392160Y-96772670D01*
X152397887Y-96780320D01*
X152569042Y-96885205D01*
X152577837Y-96889687D01*
X152787988Y-96976734D01*
X152797373Y-96979783D01*
X153018554Y-97032885D01*
X153028301Y-97034428D01*
X153255070Y-97052275D01*
X153264930Y-97052275D01*
X153491699Y-97034428D01*
X153501446Y-97032885D01*
X153722627Y-96979783D01*
X153732012Y-96976734D01*
X153942163Y-96889687D01*
X153950958Y-96885205D01*
X154118445Y-96782568D01*
X154127907Y-96772110D01*
X154124124Y-96763334D01*
X153272812Y-95912022D01*
X153258868Y-95904408D01*
X153257035Y-95904539D01*
X153250420Y-95908790D01*
X152398920Y-96760290D01*
X152392160Y-96772670D01*
X147635556Y-96772670D01*
X147645202Y-96766759D01*
X147645208Y-96766755D01*
X147649416Y-96764176D01*
X147829969Y-96609969D01*
X147984176Y-96429416D01*
X147986755Y-96425208D01*
X147986759Y-96425202D01*
X148105654Y-96231183D01*
X148108240Y-96226963D01*
X148110229Y-96222163D01*
X148197211Y-96012167D01*
X148197212Y-96012165D01*
X148199105Y-96007594D01*
X148228881Y-95883568D01*
X148253380Y-95781524D01*
X148253381Y-95781518D01*
X148254535Y-95776711D01*
X148272777Y-95544930D01*
X151747725Y-95544930D01*
X151765572Y-95771699D01*
X151767115Y-95781446D01*
X151820217Y-96002627D01*
X151823266Y-96012012D01*
X151910313Y-96222163D01*
X151914795Y-96230958D01*
X152017432Y-96398445D01*
X152027890Y-96407907D01*
X152036666Y-96404124D01*
X152887978Y-95552812D01*
X152894356Y-95541132D01*
X153624408Y-95541132D01*
X153624539Y-95542965D01*
X153628790Y-95549580D01*
X154480290Y-96401080D01*
X154492670Y-96407840D01*
X154500320Y-96402113D01*
X154605205Y-96230958D01*
X154609687Y-96222163D01*
X154696734Y-96012012D01*
X154699783Y-96002627D01*
X154752885Y-95781446D01*
X154754428Y-95771699D01*
X154772275Y-95544930D01*
X154772275Y-95535070D01*
X154754428Y-95308301D01*
X154752885Y-95298554D01*
X154699783Y-95077373D01*
X154696734Y-95067988D01*
X154609687Y-94857837D01*
X154605205Y-94849042D01*
X154502568Y-94681555D01*
X154492110Y-94672093D01*
X154483334Y-94675876D01*
X153632022Y-95527188D01*
X153624408Y-95541132D01*
X152894356Y-95541132D01*
X152895592Y-95538868D01*
X152895461Y-95537035D01*
X152891210Y-95530420D01*
X152039710Y-94678920D01*
X152027330Y-94672160D01*
X152019680Y-94677887D01*
X151914795Y-94849042D01*
X151910313Y-94857837D01*
X151823266Y-95067988D01*
X151820217Y-95077373D01*
X151767115Y-95298554D01*
X151765572Y-95308301D01*
X151747725Y-95535070D01*
X151747725Y-95544930D01*
X148272777Y-95544930D01*
X148273165Y-95540000D01*
X148254535Y-95303289D01*
X148248031Y-95276195D01*
X148207729Y-95108327D01*
X148199105Y-95072406D01*
X148192880Y-95057377D01*
X148110135Y-94857611D01*
X148110133Y-94857607D01*
X148108240Y-94853037D01*
X148075793Y-94800088D01*
X147986759Y-94654798D01*
X147986755Y-94654792D01*
X147984176Y-94650584D01*
X147829969Y-94470031D01*
X147649416Y-94315824D01*
X147645208Y-94313245D01*
X147645202Y-94313241D01*
X147636470Y-94307890D01*
X152392093Y-94307890D01*
X152395876Y-94316666D01*
X153247188Y-95167978D01*
X153261132Y-95175592D01*
X153262965Y-95175461D01*
X153269580Y-95171210D01*
X154121080Y-94319710D01*
X154127840Y-94307330D01*
X154122113Y-94299680D01*
X153950958Y-94194795D01*
X153942163Y-94190313D01*
X153732012Y-94103266D01*
X153722627Y-94100217D01*
X153501446Y-94047115D01*
X153491699Y-94045572D01*
X153264930Y-94027725D01*
X153255070Y-94027725D01*
X153028301Y-94045572D01*
X153018554Y-94047115D01*
X152797373Y-94100217D01*
X152787988Y-94103266D01*
X152577837Y-94190313D01*
X152569042Y-94194795D01*
X152401555Y-94297432D01*
X152392093Y-94307890D01*
X147636470Y-94307890D01*
X147451183Y-94194346D01*
X147446963Y-94191760D01*
X147442393Y-94189867D01*
X147442389Y-94189865D01*
X147232167Y-94102789D01*
X147232165Y-94102788D01*
X147227594Y-94100895D01*
X147144330Y-94080905D01*
X147001524Y-94046620D01*
X147001518Y-94046619D01*
X146996711Y-94045465D01*
X146760000Y-94026835D01*
X146523289Y-94045465D01*
X146518482Y-94046619D01*
X146518476Y-94046620D01*
X146375670Y-94080905D01*
X146292406Y-94100895D01*
X146287835Y-94102788D01*
X146287833Y-94102789D01*
X146077611Y-94189865D01*
X146077607Y-94189867D01*
X146073037Y-94191760D01*
X146068817Y-94194346D01*
X145874798Y-94313241D01*
X145874792Y-94313245D01*
X145870584Y-94315824D01*
X145690031Y-94470031D01*
X145535824Y-94650584D01*
X145533245Y-94654792D01*
X145533241Y-94654798D01*
X145444207Y-94800088D01*
X145411760Y-94853037D01*
X145409867Y-94857607D01*
X145409865Y-94857611D01*
X145327120Y-95057377D01*
X145320895Y-95072406D01*
X145312271Y-95108327D01*
X145271970Y-95276195D01*
X145265465Y-95303289D01*
X145246835Y-95540000D01*
X136424900Y-95540000D01*
X136418722Y-95530594D01*
X136400173Y-95499229D01*
X136400171Y-95499226D01*
X136396135Y-95492402D01*
X136381747Y-95478014D01*
X136368906Y-95462980D01*
X136361602Y-95452927D01*
X136356942Y-95446513D01*
X136322750Y-95418227D01*
X136313971Y-95410238D01*
X134719093Y-93815360D01*
X134685984Y-93756961D01*
X134667454Y-93683189D01*
X134635431Y-93555702D01*
X134546354Y-93350840D01*
X134482243Y-93251739D01*
X134427822Y-93167617D01*
X134427820Y-93167614D01*
X134425014Y-93163277D01*
X134274670Y-92998051D01*
X134270619Y-92994852D01*
X134270615Y-92994848D01*
X134103414Y-92862800D01*
X134103410Y-92862798D01*
X134099359Y-92859598D01*
X134058053Y-92836796D01*
X134008084Y-92786364D01*
X133993312Y-92716921D01*
X134018428Y-92650516D01*
X134045780Y-92623909D01*
X134089603Y-92592650D01*
X134224860Y-92496173D01*
X134241598Y-92479494D01*
X134379435Y-92342137D01*
X134383096Y-92338489D01*
X134513453Y-92157077D01*
X134612430Y-91956811D01*
X134677370Y-91743069D01*
X134706529Y-91521590D01*
X134708156Y-91455000D01*
X134689852Y-91232361D01*
X134635431Y-91015702D01*
X134546354Y-90810840D01*
X134508708Y-90752648D01*
X134488500Y-90684208D01*
X134488500Y-89880000D01*
X145246835Y-89880000D01*
X145265465Y-90116711D01*
X145266619Y-90121518D01*
X145266620Y-90121524D01*
X145295494Y-90241792D01*
X145320895Y-90347594D01*
X145322788Y-90352165D01*
X145322789Y-90352167D01*
X145409772Y-90562163D01*
X145411760Y-90566963D01*
X145414346Y-90571183D01*
X145533241Y-90765202D01*
X145533245Y-90765208D01*
X145535824Y-90769416D01*
X145690031Y-90949969D01*
X145870584Y-91104176D01*
X145874792Y-91106755D01*
X145874798Y-91106759D01*
X146068084Y-91225205D01*
X146073037Y-91228240D01*
X146077607Y-91230133D01*
X146077611Y-91230135D01*
X146287833Y-91317211D01*
X146292406Y-91319105D01*
X146372609Y-91338360D01*
X146518476Y-91373380D01*
X146518482Y-91373381D01*
X146523289Y-91374535D01*
X146760000Y-91393165D01*
X146996711Y-91374535D01*
X147001518Y-91373381D01*
X147001524Y-91373380D01*
X147147391Y-91338360D01*
X147227594Y-91319105D01*
X147232167Y-91317211D01*
X147442389Y-91230135D01*
X147442393Y-91230133D01*
X147446963Y-91228240D01*
X147451916Y-91225205D01*
X147635556Y-91112670D01*
X152392160Y-91112670D01*
X152397887Y-91120320D01*
X152569042Y-91225205D01*
X152577837Y-91229687D01*
X152787988Y-91316734D01*
X152797373Y-91319783D01*
X153018554Y-91372885D01*
X153028301Y-91374428D01*
X153255070Y-91392275D01*
X153264930Y-91392275D01*
X153491699Y-91374428D01*
X153501446Y-91372885D01*
X153722627Y-91319783D01*
X153732012Y-91316734D01*
X153942163Y-91229687D01*
X153950958Y-91225205D01*
X154118445Y-91122568D01*
X154127907Y-91112110D01*
X154124124Y-91103334D01*
X153272812Y-90252022D01*
X153258868Y-90244408D01*
X153257035Y-90244539D01*
X153250420Y-90248790D01*
X152398920Y-91100290D01*
X152392160Y-91112670D01*
X147635556Y-91112670D01*
X147645202Y-91106759D01*
X147645208Y-91106755D01*
X147649416Y-91104176D01*
X147829969Y-90949969D01*
X147984176Y-90769416D01*
X147986755Y-90765208D01*
X147986759Y-90765202D01*
X148105654Y-90571183D01*
X148108240Y-90566963D01*
X148110229Y-90562163D01*
X148197211Y-90352167D01*
X148197212Y-90352165D01*
X148199105Y-90347594D01*
X148224506Y-90241792D01*
X148253380Y-90121524D01*
X148253381Y-90121518D01*
X148254535Y-90116711D01*
X148272777Y-89884930D01*
X151747725Y-89884930D01*
X151765572Y-90111699D01*
X151767115Y-90121446D01*
X151820217Y-90342627D01*
X151823266Y-90352012D01*
X151910313Y-90562163D01*
X151914795Y-90570958D01*
X152017432Y-90738445D01*
X152027890Y-90747907D01*
X152036666Y-90744124D01*
X152887978Y-89892812D01*
X152894356Y-89881132D01*
X153624408Y-89881132D01*
X153624539Y-89882965D01*
X153628790Y-89889580D01*
X154480290Y-90741080D01*
X154492670Y-90747840D01*
X154500320Y-90742113D01*
X154605205Y-90570958D01*
X154609687Y-90562163D01*
X154696734Y-90352012D01*
X154699783Y-90342627D01*
X154752885Y-90121446D01*
X154754428Y-90111699D01*
X154772275Y-89884930D01*
X154772275Y-89875070D01*
X154754428Y-89648301D01*
X154752885Y-89638554D01*
X154699783Y-89417373D01*
X154696734Y-89407988D01*
X154609687Y-89197837D01*
X154605205Y-89189042D01*
X154502568Y-89021555D01*
X154492110Y-89012093D01*
X154483334Y-89015876D01*
X153632022Y-89867188D01*
X153624408Y-89881132D01*
X152894356Y-89881132D01*
X152895592Y-89878868D01*
X152895461Y-89877035D01*
X152891210Y-89870420D01*
X152039710Y-89018920D01*
X152027330Y-89012160D01*
X152019680Y-89017887D01*
X151914795Y-89189042D01*
X151910313Y-89197837D01*
X151823266Y-89407988D01*
X151820217Y-89417373D01*
X151767115Y-89638554D01*
X151765572Y-89648301D01*
X151747725Y-89875070D01*
X151747725Y-89884930D01*
X148272777Y-89884930D01*
X148273165Y-89880000D01*
X148254535Y-89643289D01*
X148252529Y-89634930D01*
X148200260Y-89417218D01*
X148199105Y-89412406D01*
X148196143Y-89405255D01*
X148110135Y-89197611D01*
X148110133Y-89197607D01*
X148108240Y-89193037D01*
X148055201Y-89106486D01*
X147986759Y-88994798D01*
X147986755Y-88994792D01*
X147984176Y-88990584D01*
X147839211Y-88820852D01*
X147833177Y-88813787D01*
X147829969Y-88810031D01*
X147649416Y-88655824D01*
X147645208Y-88653245D01*
X147645202Y-88653241D01*
X147636470Y-88647890D01*
X152392093Y-88647890D01*
X152395876Y-88656666D01*
X153247188Y-89507978D01*
X153261132Y-89515592D01*
X153262965Y-89515461D01*
X153269580Y-89511210D01*
X154121080Y-88659710D01*
X154127840Y-88647330D01*
X154122113Y-88639680D01*
X153950958Y-88534795D01*
X153942163Y-88530313D01*
X153732012Y-88443266D01*
X153722627Y-88440217D01*
X153501446Y-88387115D01*
X153491699Y-88385572D01*
X153264930Y-88367725D01*
X153255070Y-88367725D01*
X153028301Y-88385572D01*
X153018554Y-88387115D01*
X152797373Y-88440217D01*
X152787988Y-88443266D01*
X152577837Y-88530313D01*
X152569042Y-88534795D01*
X152401555Y-88637432D01*
X152392093Y-88647890D01*
X147636470Y-88647890D01*
X147451183Y-88534346D01*
X147446963Y-88531760D01*
X147442393Y-88529867D01*
X147442389Y-88529865D01*
X147232167Y-88442789D01*
X147232165Y-88442788D01*
X147227594Y-88440895D01*
X147147391Y-88421640D01*
X147001524Y-88386620D01*
X147001518Y-88386619D01*
X146996711Y-88385465D01*
X146760000Y-88366835D01*
X146523289Y-88385465D01*
X146518482Y-88386619D01*
X146518476Y-88386620D01*
X146372609Y-88421640D01*
X146292406Y-88440895D01*
X146287835Y-88442788D01*
X146287833Y-88442789D01*
X146077611Y-88529865D01*
X146077607Y-88529867D01*
X146073037Y-88531760D01*
X146068817Y-88534346D01*
X145874798Y-88653241D01*
X145874792Y-88653245D01*
X145870584Y-88655824D01*
X145690031Y-88810031D01*
X145686823Y-88813787D01*
X145680789Y-88820852D01*
X145535824Y-88990584D01*
X145533245Y-88994792D01*
X145533241Y-88994798D01*
X145464799Y-89106486D01*
X145411760Y-89193037D01*
X145409867Y-89197607D01*
X145409865Y-89197611D01*
X145323857Y-89405255D01*
X145320895Y-89412406D01*
X145319740Y-89417218D01*
X145267472Y-89634930D01*
X145265465Y-89643289D01*
X145246835Y-89880000D01*
X134488500Y-89880000D01*
X134488500Y-88937795D01*
X134488770Y-88929554D01*
X134489905Y-88912229D01*
X134493005Y-88864939D01*
X134482608Y-88777092D01*
X134482264Y-88773813D01*
X134474698Y-88691477D01*
X134474698Y-88691476D01*
X134474169Y-88685721D01*
X134472601Y-88680162D01*
X134471939Y-88676588D01*
X134469750Y-88665585D01*
X134468982Y-88661972D01*
X134468303Y-88656235D01*
X134442062Y-88571724D01*
X134441139Y-88568605D01*
X134433447Y-88541329D01*
X134417123Y-88483451D01*
X134414565Y-88478263D01*
X134413240Y-88474812D01*
X134409099Y-88464434D01*
X134407696Y-88461047D01*
X134405982Y-88455527D01*
X134364801Y-88377254D01*
X134363305Y-88374318D01*
X134332177Y-88311198D01*
X134324171Y-88294963D01*
X134320713Y-88290332D01*
X134318750Y-88287129D01*
X134312827Y-88277742D01*
X134310818Y-88274649D01*
X134308129Y-88269537D01*
X134253344Y-88200044D01*
X134251373Y-88197474D01*
X134201884Y-88131199D01*
X134201877Y-88131192D01*
X134198427Y-88126571D01*
X134138026Y-88070737D01*
X134134461Y-88067308D01*
X132918849Y-86851696D01*
X132913212Y-86845678D01*
X132890921Y-86820260D01*
X132870506Y-86796981D01*
X132801018Y-86742202D01*
X132798453Y-86740124D01*
X132734900Y-86687266D01*
X132734895Y-86687262D01*
X132730460Y-86683574D01*
X132725426Y-86680755D01*
X132722416Y-86678686D01*
X132713146Y-86672492D01*
X132710001Y-86670449D01*
X132705463Y-86666872D01*
X132700355Y-86664184D01*
X132700351Y-86664182D01*
X132627184Y-86625688D01*
X132624284Y-86624113D01*
X132621526Y-86622568D01*
X132547096Y-86580885D01*
X132541624Y-86579028D01*
X132538224Y-86577514D01*
X132528013Y-86573127D01*
X132524579Y-86571705D01*
X132519473Y-86569018D01*
X132513959Y-86567306D01*
X132513957Y-86567305D01*
X132435001Y-86542788D01*
X132431865Y-86541769D01*
X132378720Y-86523729D01*
X132348088Y-86513331D01*
X132342375Y-86512502D01*
X132338862Y-86511659D01*
X132327849Y-86509167D01*
X132324282Y-86508409D01*
X132318766Y-86506696D01*
X132313038Y-86506018D01*
X132313033Y-86506017D01*
X132260633Y-86499816D01*
X132230882Y-86496294D01*
X132227660Y-86495870D01*
X132140103Y-86483175D01*
X132057946Y-86486403D01*
X132052999Y-86486500D01*
X130301500Y-86486500D01*
X130233379Y-86466498D01*
X130186886Y-86412842D01*
X130175500Y-86360500D01*
X130175500Y-85380000D01*
X145246835Y-85380000D01*
X145265465Y-85616711D01*
X145266619Y-85621518D01*
X145266620Y-85621524D01*
X145293184Y-85732170D01*
X145320895Y-85847594D01*
X145322788Y-85852165D01*
X145322789Y-85852167D01*
X145409772Y-86062163D01*
X145411760Y-86066963D01*
X145414346Y-86071183D01*
X145533241Y-86265202D01*
X145533245Y-86265208D01*
X145535824Y-86269416D01*
X145690031Y-86449969D01*
X145870584Y-86604176D01*
X145874792Y-86606755D01*
X145874798Y-86606759D01*
X146021513Y-86696666D01*
X146073037Y-86728240D01*
X146077607Y-86730133D01*
X146077611Y-86730135D01*
X146287833Y-86817211D01*
X146292406Y-86819105D01*
X146366832Y-86836973D01*
X146518476Y-86873380D01*
X146518482Y-86873381D01*
X146523289Y-86874535D01*
X146760000Y-86893165D01*
X146996711Y-86874535D01*
X147001518Y-86873381D01*
X147001524Y-86873380D01*
X147153168Y-86836973D01*
X147227594Y-86819105D01*
X147232167Y-86817211D01*
X147442389Y-86730135D01*
X147442393Y-86730133D01*
X147446963Y-86728240D01*
X147498487Y-86696666D01*
X147635556Y-86612670D01*
X152392160Y-86612670D01*
X152397887Y-86620320D01*
X152569042Y-86725205D01*
X152577837Y-86729687D01*
X152787988Y-86816734D01*
X152797373Y-86819783D01*
X153018554Y-86872885D01*
X153028301Y-86874428D01*
X153255070Y-86892275D01*
X153264930Y-86892275D01*
X153491699Y-86874428D01*
X153501446Y-86872885D01*
X153722627Y-86819783D01*
X153732012Y-86816734D01*
X153942163Y-86729687D01*
X153950958Y-86725205D01*
X154118445Y-86622568D01*
X154127907Y-86612110D01*
X154124124Y-86603334D01*
X153272812Y-85752022D01*
X153258868Y-85744408D01*
X153257035Y-85744539D01*
X153250420Y-85748790D01*
X152398920Y-86600290D01*
X152392160Y-86612670D01*
X147635556Y-86612670D01*
X147645202Y-86606759D01*
X147645208Y-86606755D01*
X147649416Y-86604176D01*
X147829969Y-86449969D01*
X147984176Y-86269416D01*
X147986755Y-86265208D01*
X147986759Y-86265202D01*
X148105654Y-86071183D01*
X148108240Y-86066963D01*
X148110229Y-86062163D01*
X148197211Y-85852167D01*
X148197212Y-85852165D01*
X148199105Y-85847594D01*
X148226816Y-85732170D01*
X148253380Y-85621524D01*
X148253381Y-85621518D01*
X148254535Y-85616711D01*
X148272777Y-85384930D01*
X151747725Y-85384930D01*
X151765572Y-85611699D01*
X151767115Y-85621446D01*
X151820217Y-85842627D01*
X151823266Y-85852012D01*
X151910313Y-86062163D01*
X151914795Y-86070958D01*
X152017432Y-86238445D01*
X152027890Y-86247907D01*
X152036666Y-86244124D01*
X152887978Y-85392812D01*
X152894356Y-85381132D01*
X153624408Y-85381132D01*
X153624539Y-85382965D01*
X153628790Y-85389580D01*
X154480290Y-86241080D01*
X154492670Y-86247840D01*
X154500320Y-86242113D01*
X154605205Y-86070958D01*
X154609687Y-86062163D01*
X154696734Y-85852012D01*
X154699783Y-85842627D01*
X154752885Y-85621446D01*
X154754428Y-85611699D01*
X154772275Y-85384930D01*
X154772275Y-85375070D01*
X154754428Y-85148301D01*
X154752885Y-85138554D01*
X154699783Y-84917373D01*
X154696734Y-84907988D01*
X154609687Y-84697837D01*
X154605205Y-84689042D01*
X154502568Y-84521555D01*
X154492110Y-84512093D01*
X154483334Y-84515876D01*
X153632022Y-85367188D01*
X153624408Y-85381132D01*
X152894356Y-85381132D01*
X152895592Y-85378868D01*
X152895461Y-85377035D01*
X152891210Y-85370420D01*
X152039710Y-84518920D01*
X152027330Y-84512160D01*
X152019680Y-84517887D01*
X151914795Y-84689042D01*
X151910313Y-84697837D01*
X151823266Y-84907988D01*
X151820217Y-84917373D01*
X151767115Y-85138554D01*
X151765572Y-85148301D01*
X151747725Y-85375070D01*
X151747725Y-85384930D01*
X148272777Y-85384930D01*
X148273165Y-85380000D01*
X148254535Y-85143289D01*
X148251917Y-85132381D01*
X148213801Y-84973618D01*
X148199105Y-84912406D01*
X148186286Y-84881457D01*
X148110135Y-84697611D01*
X148110133Y-84697607D01*
X148108240Y-84693037D01*
X148089629Y-84662666D01*
X147986759Y-84494798D01*
X147986755Y-84494792D01*
X147984176Y-84490584D01*
X147829969Y-84310031D01*
X147649416Y-84155824D01*
X147645208Y-84153245D01*
X147645202Y-84153241D01*
X147636470Y-84147890D01*
X152392093Y-84147890D01*
X152395876Y-84156666D01*
X153247188Y-85007978D01*
X153261132Y-85015592D01*
X153262965Y-85015461D01*
X153269580Y-85011210D01*
X154121080Y-84159710D01*
X154127840Y-84147330D01*
X154122113Y-84139680D01*
X153950958Y-84034795D01*
X153942163Y-84030313D01*
X153732012Y-83943266D01*
X153722627Y-83940217D01*
X153501446Y-83887115D01*
X153491699Y-83885572D01*
X153264930Y-83867725D01*
X153255070Y-83867725D01*
X153028301Y-83885572D01*
X153018554Y-83887115D01*
X152797373Y-83940217D01*
X152787988Y-83943266D01*
X152577837Y-84030313D01*
X152569042Y-84034795D01*
X152401555Y-84137432D01*
X152392093Y-84147890D01*
X147636470Y-84147890D01*
X147451183Y-84034346D01*
X147446963Y-84031760D01*
X147442393Y-84029867D01*
X147442389Y-84029865D01*
X147232167Y-83942789D01*
X147232165Y-83942788D01*
X147227594Y-83940895D01*
X147147391Y-83921640D01*
X147001524Y-83886620D01*
X147001518Y-83886619D01*
X146996711Y-83885465D01*
X146760000Y-83866835D01*
X146523289Y-83885465D01*
X146518482Y-83886619D01*
X146518476Y-83886620D01*
X146372609Y-83921640D01*
X146292406Y-83940895D01*
X146287835Y-83942788D01*
X146287833Y-83942789D01*
X146077611Y-84029865D01*
X146077607Y-84029867D01*
X146073037Y-84031760D01*
X146068817Y-84034346D01*
X145874798Y-84153241D01*
X145874792Y-84153245D01*
X145870584Y-84155824D01*
X145690031Y-84310031D01*
X145535824Y-84490584D01*
X145533245Y-84494792D01*
X145533241Y-84494798D01*
X145430371Y-84662666D01*
X145411760Y-84693037D01*
X145409867Y-84697607D01*
X145409865Y-84697611D01*
X145333714Y-84881457D01*
X145320895Y-84912406D01*
X145306199Y-84973618D01*
X145268084Y-85132381D01*
X145265465Y-85143289D01*
X145246835Y-85380000D01*
X130175500Y-85380000D01*
X130175500Y-85069969D01*
X130195502Y-85001848D01*
X130207858Y-84985665D01*
X130232591Y-84958197D01*
X130293942Y-84851935D01*
X130318773Y-84808926D01*
X130318774Y-84808925D01*
X130322077Y-84803203D01*
X130377382Y-84632991D01*
X130396090Y-84455000D01*
X130377382Y-84277009D01*
X130370352Y-84255371D01*
X130338007Y-84155824D01*
X130322077Y-84106797D01*
X130232591Y-83951803D01*
X130222770Y-83940895D01*
X130117258Y-83823712D01*
X130117257Y-83823711D01*
X130112836Y-83818801D01*
X129968045Y-83713604D01*
X129962017Y-83710920D01*
X129962015Y-83710919D01*
X129810577Y-83643495D01*
X129810576Y-83643495D01*
X129804546Y-83640810D01*
X129717016Y-83622205D01*
X129635943Y-83604972D01*
X129635939Y-83604972D01*
X129629486Y-83603600D01*
X129450514Y-83603600D01*
X129444061Y-83604972D01*
X129444057Y-83604972D01*
X129362984Y-83622205D01*
X129275454Y-83640810D01*
X129269424Y-83643495D01*
X129269423Y-83643495D01*
X129117985Y-83710919D01*
X129117983Y-83710920D01*
X129111955Y-83713604D01*
X128967164Y-83818801D01*
X128962743Y-83823711D01*
X128962742Y-83823712D01*
X128857231Y-83940895D01*
X128847409Y-83951803D01*
X128757923Y-84106797D01*
X128741993Y-84155824D01*
X128709649Y-84255371D01*
X128702618Y-84277009D01*
X128683910Y-84455000D01*
X128702618Y-84632991D01*
X128757923Y-84803203D01*
X128761226Y-84808925D01*
X128761227Y-84808926D01*
X128786058Y-84851935D01*
X128847409Y-84958197D01*
X128872137Y-84985660D01*
X128902853Y-85049666D01*
X128904500Y-85069969D01*
X128904500Y-86360500D01*
X128884498Y-86428621D01*
X128830842Y-86475114D01*
X128778500Y-86486500D01*
X127042795Y-86486500D01*
X127034554Y-86486230D01*
X127018633Y-86485187D01*
X126969939Y-86481995D01*
X126918486Y-86488085D01*
X126882092Y-86492392D01*
X126878813Y-86492736D01*
X126796477Y-86500302D01*
X126796476Y-86500302D01*
X126790721Y-86500831D01*
X126785162Y-86502399D01*
X126781588Y-86503061D01*
X126770585Y-86505250D01*
X126766972Y-86506018D01*
X126761235Y-86506697D01*
X126676724Y-86532938D01*
X126673627Y-86533854D01*
X126588451Y-86557877D01*
X126583263Y-86560435D01*
X126579812Y-86561760D01*
X126569434Y-86565901D01*
X126566047Y-86567304D01*
X126560527Y-86569018D01*
X126555413Y-86571709D01*
X126555412Y-86571709D01*
X126482255Y-86610198D01*
X126479319Y-86611695D01*
X126399963Y-86650829D01*
X126395332Y-86654287D01*
X126392129Y-86656250D01*
X126382742Y-86662173D01*
X126379649Y-86664182D01*
X126374537Y-86666871D01*
X126305044Y-86721656D01*
X126302474Y-86723627D01*
X126236199Y-86773116D01*
X126236192Y-86773123D01*
X126231571Y-86776573D01*
X126227657Y-86780807D01*
X126227655Y-86780809D01*
X126175738Y-86836973D01*
X126172308Y-86840539D01*
X120739095Y-92273752D01*
X120676783Y-92307778D01*
X120605968Y-92302713D01*
X120560905Y-92273752D01*
X119583849Y-91296696D01*
X119578212Y-91290678D01*
X119539316Y-91246326D01*
X119535506Y-91241981D01*
X119518076Y-91228240D01*
X119466018Y-91187202D01*
X119463453Y-91185124D01*
X119399900Y-91132266D01*
X119399895Y-91132262D01*
X119395460Y-91128574D01*
X119390426Y-91125755D01*
X119387416Y-91123686D01*
X119378146Y-91117492D01*
X119375001Y-91115449D01*
X119370463Y-91111872D01*
X119365355Y-91109184D01*
X119365351Y-91109182D01*
X119292184Y-91070688D01*
X119289284Y-91069113D01*
X119217139Y-91028709D01*
X119217137Y-91028708D01*
X119212096Y-91025885D01*
X119206624Y-91024028D01*
X119203224Y-91022514D01*
X119193013Y-91018127D01*
X119189579Y-91016705D01*
X119184473Y-91014018D01*
X119178959Y-91012306D01*
X119178957Y-91012305D01*
X119100001Y-90987788D01*
X119096865Y-90986769D01*
X119043720Y-90968729D01*
X119013088Y-90958331D01*
X119007375Y-90957502D01*
X119003862Y-90956659D01*
X118992849Y-90954167D01*
X118989282Y-90953409D01*
X118983766Y-90951696D01*
X118978038Y-90951018D01*
X118978033Y-90951017D01*
X118925633Y-90944816D01*
X118895882Y-90941294D01*
X118892660Y-90940870D01*
X118805103Y-90928175D01*
X118722946Y-90931403D01*
X118717999Y-90931500D01*
X116154239Y-90931500D01*
X116086118Y-90911498D01*
X116039625Y-90857842D01*
X116029521Y-90787568D01*
X116059015Y-90722988D01*
X116105007Y-90689516D01*
X116321265Y-90597720D01*
X116330207Y-90593045D01*
X116526987Y-90469126D01*
X116535060Y-90463086D01*
X116709500Y-90309297D01*
X116716504Y-90302044D01*
X116864110Y-90122346D01*
X116869866Y-90114064D01*
X116986841Y-89913081D01*
X116991203Y-89903976D01*
X117074537Y-89686885D01*
X117077388Y-89677196D01*
X117108821Y-89526736D01*
X117107698Y-89512675D01*
X117097590Y-89509000D01*
X111954410Y-89509000D01*
X111940324Y-89513136D01*
X111938275Y-89526114D01*
X111940325Y-89543830D01*
X111942285Y-89553727D01*
X112005604Y-89777494D01*
X112009116Y-89786938D01*
X112107399Y-89997705D01*
X112112378Y-90006471D01*
X112243087Y-90198802D01*
X112249419Y-90206677D01*
X112409186Y-90375626D01*
X112416695Y-90382387D01*
X112601426Y-90523625D01*
X112609905Y-90529089D01*
X112814847Y-90638978D01*
X112824099Y-90643020D01*
X113043971Y-90718727D01*
X113053743Y-90721236D01*
X113249311Y-90755017D01*
X113313034Y-90786322D01*
X113349715Y-90847108D01*
X113347710Y-90918076D01*
X113307655Y-90976695D01*
X113264399Y-90999232D01*
X113264402Y-90999240D01*
X113264332Y-90999267D01*
X113262067Y-91000447D01*
X113253451Y-91002877D01*
X113248263Y-91005435D01*
X113244812Y-91006760D01*
X113234434Y-91010901D01*
X113231047Y-91012304D01*
X113225527Y-91014018D01*
X113220413Y-91016709D01*
X113220412Y-91016709D01*
X113147255Y-91055198D01*
X113144319Y-91056695D01*
X113064963Y-91095829D01*
X113060332Y-91099287D01*
X113057129Y-91101250D01*
X113047742Y-91107173D01*
X113044649Y-91109182D01*
X113039537Y-91111871D01*
X112970044Y-91166656D01*
X112967474Y-91168627D01*
X112901199Y-91218116D01*
X112901192Y-91218123D01*
X112896571Y-91221573D01*
X112892657Y-91225807D01*
X112892655Y-91225809D01*
X112840738Y-91281973D01*
X112837308Y-91285539D01*
X111691696Y-92431151D01*
X111685678Y-92436788D01*
X111636981Y-92479494D01*
X111633406Y-92484029D01*
X111633405Y-92484030D01*
X111582202Y-92548982D01*
X111580124Y-92551547D01*
X111527266Y-92615100D01*
X111527262Y-92615105D01*
X111523574Y-92619540D01*
X111520755Y-92624574D01*
X111518686Y-92627584D01*
X111512492Y-92636854D01*
X111510449Y-92639999D01*
X111506872Y-92644537D01*
X111504184Y-92649645D01*
X111504182Y-92649649D01*
X111485932Y-92684338D01*
X111466284Y-92721684D01*
X111465688Y-92722816D01*
X111464118Y-92725706D01*
X111420885Y-92802904D01*
X111419028Y-92808376D01*
X111417514Y-92811776D01*
X111413127Y-92821987D01*
X111411705Y-92825421D01*
X111409018Y-92830527D01*
X111407306Y-92836041D01*
X111407305Y-92836043D01*
X111382788Y-92914999D01*
X111381769Y-92918135D01*
X111366756Y-92962362D01*
X111353331Y-93001912D01*
X111352502Y-93007625D01*
X111351659Y-93011138D01*
X111349167Y-93022151D01*
X111348409Y-93025718D01*
X111346696Y-93031234D01*
X111346018Y-93036962D01*
X111346017Y-93036967D01*
X111336297Y-93119098D01*
X111335870Y-93122340D01*
X111323175Y-93209897D01*
X111323402Y-93215665D01*
X111326403Y-93292054D01*
X111326500Y-93297001D01*
X111326500Y-93612185D01*
X111304588Y-93683188D01*
X111195314Y-93843378D01*
X111160163Y-93919104D01*
X111100743Y-94047115D01*
X111094163Y-94061290D01*
X111029960Y-94292798D01*
X111029411Y-94297935D01*
X111009668Y-94482680D01*
X111009000Y-94488928D01*
X111009000Y-94723402D01*
X111009212Y-94725975D01*
X111009212Y-94725986D01*
X111014525Y-94790607D01*
X111023678Y-94901937D01*
X111082206Y-95134944D01*
X111135243Y-95256921D01*
X111175092Y-95348567D01*
X111178003Y-95355263D01*
X111252876Y-95470999D01*
X111303713Y-95549580D01*
X111308498Y-95556977D01*
X111470186Y-95734670D01*
X111535305Y-95786098D01*
X111654670Y-95880367D01*
X111654675Y-95880370D01*
X111658724Y-95883568D01*
X111663240Y-95886061D01*
X111663243Y-95886063D01*
X111864526Y-95997177D01*
X111864530Y-95997179D01*
X111869050Y-95999674D01*
X111873919Y-96001398D01*
X111873923Y-96001400D01*
X112090640Y-96078144D01*
X112090644Y-96078145D01*
X112095515Y-96079870D01*
X112100608Y-96080777D01*
X112100611Y-96080778D01*
X112326948Y-96121095D01*
X112326954Y-96121096D01*
X112332037Y-96122001D01*
X112419400Y-96123068D01*
X112567093Y-96124873D01*
X112567095Y-96124873D01*
X112572263Y-96124936D01*
X112809744Y-96088596D01*
X112924088Y-96051223D01*
X113033183Y-96015566D01*
X113033189Y-96015563D01*
X113038101Y-96013958D01*
X113042687Y-96011571D01*
X113042691Y-96011569D01*
X113246607Y-95905416D01*
X113251200Y-95903025D01*
X113333702Y-95841081D01*
X113439185Y-95761882D01*
X113439188Y-95761880D01*
X113443320Y-95758777D01*
X113609301Y-95585088D01*
X113634840Y-95547649D01*
X113689751Y-95502648D01*
X113760275Y-95494477D01*
X113824022Y-95525731D01*
X113844716Y-95550210D01*
X113846085Y-95552326D01*
X113852378Y-95560498D01*
X114007050Y-95730480D01*
X114014583Y-95737506D01*
X114194944Y-95879945D01*
X114203531Y-95885650D01*
X114404722Y-95996714D01*
X114414134Y-96000944D01*
X114630768Y-96077659D01*
X114640739Y-96080293D01*
X114738163Y-96097647D01*
X114751460Y-96096187D01*
X114756000Y-96081630D01*
X114756000Y-94487000D01*
X114776002Y-94418879D01*
X114829658Y-94372386D01*
X114882000Y-94361000D01*
X115138000Y-94361000D01*
X115206121Y-94381002D01*
X115252614Y-94434658D01*
X115264000Y-94487000D01*
X115264000Y-96083096D01*
X115267918Y-96096440D01*
X115282194Y-96098427D01*
X115344515Y-96088890D01*
X115354543Y-96086501D01*
X115572988Y-96015102D01*
X115582497Y-96011105D01*
X115786344Y-95904989D01*
X115795061Y-95899500D01*
X115946099Y-95786098D01*
X116012584Y-95761193D01*
X116081980Y-95776186D01*
X116132253Y-95826316D01*
X116139732Y-95842625D01*
X116146885Y-95861705D01*
X116234239Y-95978261D01*
X116350795Y-96065615D01*
X116487184Y-96116745D01*
X116549366Y-96123500D01*
X117389157Y-96123500D01*
X117457278Y-96143502D01*
X117478252Y-96160405D01*
X118834595Y-97516748D01*
X118868621Y-97579060D01*
X118871500Y-97605843D01*
X118871500Y-105298912D01*
X118851498Y-105367033D01*
X118797842Y-105413526D01*
X118727568Y-105423630D01*
X118662988Y-105394136D01*
X118652306Y-105383711D01*
X118552950Y-105274519D01*
X118545417Y-105267494D01*
X118365056Y-105125055D01*
X118356469Y-105119350D01*
X118155278Y-105008286D01*
X118145866Y-105004056D01*
X117929232Y-104927341D01*
X117919261Y-104924707D01*
X117821837Y-104907353D01*
X117808540Y-104908813D01*
X117804000Y-104923370D01*
X117804000Y-107858096D01*
X117807918Y-107871440D01*
X117822194Y-107873427D01*
X117884515Y-107863890D01*
X117894543Y-107861501D01*
X118112988Y-107790102D01*
X118122497Y-107786105D01*
X118326344Y-107679989D01*
X118335069Y-107674495D01*
X118518852Y-107536507D01*
X118526559Y-107529664D01*
X118654406Y-107395880D01*
X118715930Y-107360450D01*
X118786843Y-107363907D01*
X118844629Y-107405153D01*
X118870943Y-107471093D01*
X118871500Y-107482931D01*
X118871500Y-111760500D01*
X118851498Y-111828621D01*
X118797842Y-111875114D01*
X118745500Y-111886500D01*
X115612805Y-111886500D01*
X115604564Y-111886230D01*
X115595452Y-111885633D01*
X115539939Y-111881994D01*
X115452027Y-111892399D01*
X115448814Y-111892736D01*
X115360721Y-111900831D01*
X115355161Y-111902399D01*
X115351588Y-111903061D01*
X115340585Y-111905250D01*
X115336972Y-111906018D01*
X115331235Y-111906697D01*
X115246724Y-111932938D01*
X115243627Y-111933854D01*
X115158451Y-111957877D01*
X115153263Y-111960435D01*
X115149812Y-111961760D01*
X115139434Y-111965901D01*
X115136047Y-111967304D01*
X115130527Y-111969018D01*
X115125413Y-111971709D01*
X115125412Y-111971709D01*
X115052255Y-112010198D01*
X115049319Y-112011695D01*
X114969963Y-112050829D01*
X114965332Y-112054287D01*
X114962129Y-112056250D01*
X114952742Y-112062173D01*
X114949649Y-112064182D01*
X114944537Y-112066871D01*
X114875044Y-112121656D01*
X114872474Y-112123627D01*
X114806199Y-112173116D01*
X114806192Y-112173123D01*
X114801571Y-112176573D01*
X114797657Y-112180807D01*
X114797655Y-112180809D01*
X114745738Y-112236973D01*
X114742308Y-112240539D01*
X111908242Y-115074605D01*
X111845930Y-115108631D01*
X111819147Y-115111510D01*
X111121872Y-115111510D01*
X111059690Y-115118265D01*
X110923301Y-115169395D01*
X110806745Y-115256749D01*
X110719391Y-115373305D01*
X110668261Y-115509694D01*
X110661506Y-115571876D01*
X110661506Y-118268144D01*
X105697692Y-118268144D01*
X105635826Y-118118787D01*
X105632070Y-118108465D01*
X105631316Y-118106072D01*
X105563292Y-117890326D01*
X105515443Y-117738568D01*
X105512598Y-117727951D01*
X105428650Y-117349291D01*
X105426741Y-117338465D01*
X105376116Y-116953930D01*
X105375158Y-116942980D01*
X105360609Y-116609735D01*
X105359896Y-116593416D01*
X105361276Y-116568537D01*
X105361805Y-116565142D01*
X105361805Y-116565141D01*
X105363186Y-116556270D01*
X105359064Y-116524748D01*
X105358000Y-116508411D01*
X105358000Y-107438134D01*
X111009000Y-107438134D01*
X111015755Y-107500316D01*
X111066885Y-107636705D01*
X111154239Y-107753261D01*
X111270795Y-107840615D01*
X111407184Y-107891745D01*
X111469366Y-107898500D01*
X113470634Y-107898500D01*
X113532816Y-107891745D01*
X113669205Y-107840615D01*
X113785761Y-107753261D01*
X113873115Y-107636705D01*
X113880573Y-107616811D01*
X113923213Y-107560047D01*
X113989774Y-107535346D01*
X114059123Y-107550553D01*
X114076647Y-107562158D01*
X114194670Y-107655367D01*
X114194675Y-107655370D01*
X114198724Y-107658568D01*
X114203240Y-107661061D01*
X114203243Y-107661063D01*
X114404526Y-107772177D01*
X114404530Y-107772179D01*
X114409050Y-107774674D01*
X114413919Y-107776398D01*
X114413923Y-107776400D01*
X114630640Y-107853144D01*
X114630644Y-107853145D01*
X114635515Y-107854870D01*
X114640608Y-107855777D01*
X114640611Y-107855778D01*
X114866948Y-107896095D01*
X114866954Y-107896096D01*
X114872037Y-107897001D01*
X114959400Y-107898068D01*
X115107093Y-107899873D01*
X115107095Y-107899873D01*
X115112263Y-107899936D01*
X115349744Y-107863596D01*
X115461997Y-107826906D01*
X115573183Y-107790566D01*
X115573189Y-107790563D01*
X115578101Y-107788958D01*
X115582687Y-107786571D01*
X115582691Y-107786569D01*
X115786607Y-107680416D01*
X115791200Y-107678025D01*
X115983320Y-107533777D01*
X116115097Y-107395880D01*
X116145730Y-107363825D01*
X116145731Y-107363824D01*
X116149301Y-107360088D01*
X116174840Y-107322649D01*
X116229751Y-107277648D01*
X116300275Y-107269477D01*
X116364022Y-107300731D01*
X116384716Y-107325210D01*
X116386085Y-107327326D01*
X116392378Y-107335498D01*
X116547050Y-107505480D01*
X116554583Y-107512506D01*
X116734944Y-107654945D01*
X116743531Y-107660650D01*
X116944722Y-107771714D01*
X116954134Y-107775944D01*
X117170768Y-107852659D01*
X117180739Y-107855293D01*
X117278163Y-107872647D01*
X117291460Y-107871187D01*
X117296000Y-107856630D01*
X117296000Y-104921904D01*
X117292082Y-104908560D01*
X117277806Y-104906573D01*
X117215485Y-104916110D01*
X117205457Y-104918499D01*
X116987012Y-104989898D01*
X116977503Y-104993895D01*
X116773656Y-105100011D01*
X116764931Y-105105505D01*
X116581148Y-105243493D01*
X116573441Y-105250336D01*
X116414661Y-105416491D01*
X116408177Y-105424498D01*
X116385763Y-105457356D01*
X116330852Y-105502359D01*
X116260328Y-105510532D01*
X116196580Y-105479278D01*
X116175884Y-105454796D01*
X116174311Y-105452365D01*
X116171502Y-105448023D01*
X116009814Y-105270330D01*
X115932983Y-105209653D01*
X115825330Y-105124633D01*
X115825325Y-105124630D01*
X115821276Y-105121432D01*
X115816760Y-105118939D01*
X115816757Y-105118937D01*
X115615474Y-105007823D01*
X115615470Y-105007821D01*
X115610950Y-105005326D01*
X115606081Y-105003602D01*
X115606077Y-105003600D01*
X115389360Y-104926856D01*
X115389356Y-104926855D01*
X115384485Y-104925130D01*
X115379392Y-104924223D01*
X115379389Y-104924222D01*
X115153052Y-104883905D01*
X115153046Y-104883904D01*
X115147963Y-104882999D01*
X115055474Y-104881869D01*
X114912907Y-104880127D01*
X114912905Y-104880127D01*
X114907737Y-104880064D01*
X114670256Y-104916404D01*
X114558003Y-104953094D01*
X114446817Y-104989434D01*
X114446811Y-104989437D01*
X114441899Y-104991042D01*
X114437313Y-104993429D01*
X114437309Y-104993431D01*
X114233393Y-105099584D01*
X114228800Y-105101975D01*
X114073717Y-105218415D01*
X114007235Y-105243320D01*
X113937839Y-105228328D01*
X113887565Y-105178198D01*
X113880085Y-105161885D01*
X113876269Y-105151707D01*
X113876267Y-105151703D01*
X113873115Y-105143295D01*
X113785761Y-105026739D01*
X113669205Y-104939385D01*
X113532816Y-104888255D01*
X113470634Y-104881500D01*
X111469366Y-104881500D01*
X111407184Y-104888255D01*
X111270795Y-104939385D01*
X111154239Y-105026739D01*
X111066885Y-105143295D01*
X111015755Y-105279684D01*
X111009000Y-105341866D01*
X111009000Y-107438134D01*
X105358000Y-107438134D01*
X105358000Y-88983264D01*
X111941179Y-88983264D01*
X111942302Y-88997325D01*
X111952410Y-89001000D01*
X114252885Y-89001000D01*
X114268124Y-88996525D01*
X114269329Y-88995135D01*
X114271000Y-88987452D01*
X114271000Y-88982885D01*
X114779000Y-88982885D01*
X114783475Y-88998124D01*
X114784865Y-88999329D01*
X114792548Y-89001000D01*
X117095590Y-89001000D01*
X117109676Y-88996864D01*
X117111725Y-88983886D01*
X117109675Y-88966170D01*
X117107715Y-88956273D01*
X117044396Y-88732506D01*
X117040884Y-88723062D01*
X116942601Y-88512295D01*
X116937622Y-88503529D01*
X116806913Y-88311198D01*
X116800581Y-88303323D01*
X116640814Y-88134374D01*
X116633305Y-88127613D01*
X116448574Y-87986375D01*
X116440095Y-87980911D01*
X116235153Y-87871022D01*
X116225901Y-87866980D01*
X116006029Y-87791273D01*
X115996257Y-87788764D01*
X115766029Y-87748996D01*
X115758157Y-87748141D01*
X115734449Y-87747064D01*
X115731616Y-87747000D01*
X114797115Y-87747000D01*
X114781876Y-87751475D01*
X114780671Y-87752865D01*
X114779000Y-87760548D01*
X114779000Y-88982885D01*
X114271000Y-88982885D01*
X114271000Y-87765115D01*
X114266525Y-87749876D01*
X114265135Y-87748671D01*
X114257452Y-87747000D01*
X113366544Y-87747000D01*
X113361512Y-87747202D01*
X113188157Y-87761150D01*
X113178204Y-87762762D01*
X112952367Y-87818233D01*
X112942797Y-87821416D01*
X112728735Y-87912280D01*
X112719793Y-87916955D01*
X112523013Y-88040874D01*
X112514940Y-88046914D01*
X112340500Y-88200703D01*
X112333496Y-88207956D01*
X112185890Y-88387654D01*
X112180134Y-88395936D01*
X112063159Y-88596919D01*
X112058797Y-88606024D01*
X111975463Y-88823115D01*
X111972612Y-88832804D01*
X111941179Y-88983264D01*
X105358000Y-88983264D01*
X105358000Y-85613456D01*
X109617000Y-85613456D01*
X109617202Y-85618488D01*
X109631150Y-85791843D01*
X109632762Y-85801796D01*
X109688233Y-86027633D01*
X109691416Y-86037203D01*
X109782280Y-86251265D01*
X109786955Y-86260207D01*
X109910874Y-86456987D01*
X109916914Y-86465060D01*
X110070703Y-86639500D01*
X110077956Y-86646504D01*
X110257654Y-86794110D01*
X110265936Y-86799866D01*
X110466919Y-86916841D01*
X110476024Y-86921203D01*
X110693115Y-87004537D01*
X110702804Y-87007388D01*
X110853264Y-87038821D01*
X110867325Y-87037698D01*
X110871000Y-87027590D01*
X110871000Y-87025590D01*
X111379000Y-87025590D01*
X111383136Y-87039676D01*
X111396114Y-87041725D01*
X111413830Y-87039675D01*
X111423727Y-87037715D01*
X111647494Y-86974396D01*
X111656938Y-86970884D01*
X111867705Y-86872601D01*
X111876471Y-86867622D01*
X111971361Y-86803134D01*
X115916500Y-86803134D01*
X115923255Y-86865316D01*
X115974385Y-87001705D01*
X116061739Y-87118261D01*
X116178295Y-87205615D01*
X116314684Y-87256745D01*
X116376866Y-87263500D01*
X118473134Y-87263500D01*
X118535316Y-87256745D01*
X118671705Y-87205615D01*
X118788261Y-87118261D01*
X118875615Y-87001705D01*
X118926745Y-86865316D01*
X118933500Y-86803134D01*
X118933500Y-82106866D01*
X118926745Y-82044684D01*
X118875615Y-81908295D01*
X118788261Y-81791739D01*
X118671705Y-81704385D01*
X118535316Y-81653255D01*
X118473134Y-81646500D01*
X116376866Y-81646500D01*
X116314684Y-81653255D01*
X116178295Y-81704385D01*
X116061739Y-81791739D01*
X115974385Y-81908295D01*
X115923255Y-82044684D01*
X115916500Y-82106866D01*
X115916500Y-86803134D01*
X111971361Y-86803134D01*
X112068802Y-86736913D01*
X112076677Y-86730581D01*
X112245626Y-86570814D01*
X112252387Y-86563305D01*
X112393625Y-86378574D01*
X112399089Y-86370095D01*
X112508978Y-86165153D01*
X112513020Y-86155901D01*
X112588727Y-85936029D01*
X112591236Y-85926257D01*
X112631004Y-85696029D01*
X112631859Y-85688157D01*
X112632936Y-85664449D01*
X112633000Y-85661616D01*
X112633000Y-84727115D01*
X112628525Y-84711876D01*
X112627135Y-84710671D01*
X112619452Y-84709000D01*
X111397115Y-84709000D01*
X111381876Y-84713475D01*
X111380671Y-84714865D01*
X111379000Y-84722548D01*
X111379000Y-87025590D01*
X110871000Y-87025590D01*
X110871000Y-84727115D01*
X110866525Y-84711876D01*
X110865135Y-84710671D01*
X110857452Y-84709000D01*
X109635115Y-84709000D01*
X109619876Y-84713475D01*
X109618671Y-84714865D01*
X109617000Y-84722548D01*
X109617000Y-85613456D01*
X105358000Y-85613456D01*
X105358000Y-84182885D01*
X109617000Y-84182885D01*
X109621475Y-84198124D01*
X109622865Y-84199329D01*
X109630548Y-84201000D01*
X110852885Y-84201000D01*
X110868124Y-84196525D01*
X110869329Y-84195135D01*
X110871000Y-84187452D01*
X110871000Y-84182885D01*
X111379000Y-84182885D01*
X111383475Y-84198124D01*
X111384865Y-84199329D01*
X111392548Y-84201000D01*
X112614885Y-84201000D01*
X112630124Y-84196525D01*
X112631329Y-84195135D01*
X112633000Y-84187452D01*
X112633000Y-83296544D01*
X112632798Y-83291512D01*
X112618850Y-83118157D01*
X112617238Y-83108204D01*
X112561767Y-82882367D01*
X112558584Y-82872797D01*
X112467720Y-82658735D01*
X112463045Y-82649793D01*
X112339126Y-82453013D01*
X112333086Y-82444940D01*
X112179297Y-82270500D01*
X112172044Y-82263496D01*
X111992346Y-82115890D01*
X111984064Y-82110134D01*
X111783081Y-81993159D01*
X111773976Y-81988797D01*
X111556885Y-81905463D01*
X111547196Y-81902612D01*
X111396736Y-81871179D01*
X111382675Y-81872302D01*
X111379000Y-81882410D01*
X111379000Y-84182885D01*
X110871000Y-84182885D01*
X110871000Y-81884410D01*
X110866864Y-81870324D01*
X110853886Y-81868275D01*
X110836170Y-81870325D01*
X110826273Y-81872285D01*
X110602506Y-81935604D01*
X110593062Y-81939116D01*
X110382295Y-82037399D01*
X110373529Y-82042378D01*
X110181198Y-82173087D01*
X110173323Y-82179419D01*
X110004374Y-82339186D01*
X109997613Y-82346695D01*
X109856375Y-82531426D01*
X109850911Y-82539905D01*
X109741022Y-82744847D01*
X109736980Y-82754099D01*
X109661273Y-82973971D01*
X109658764Y-82983743D01*
X109618996Y-83213971D01*
X109618141Y-83221843D01*
X109617064Y-83245551D01*
X109617000Y-83248384D01*
X109617000Y-84182885D01*
X105358000Y-84182885D01*
X105358000Y-79720000D01*
X145096835Y-79720000D01*
X145115465Y-79956711D01*
X145116619Y-79961518D01*
X145116620Y-79961524D01*
X145147174Y-80088790D01*
X145170895Y-80187594D01*
X145172788Y-80192165D01*
X145172789Y-80192167D01*
X145259772Y-80402163D01*
X145261760Y-80406963D01*
X145264346Y-80411183D01*
X145383241Y-80605202D01*
X145383245Y-80605208D01*
X145385824Y-80609416D01*
X145540031Y-80789969D01*
X145720584Y-80944176D01*
X145724792Y-80946755D01*
X145724798Y-80946759D01*
X145801032Y-80993475D01*
X145923037Y-81068240D01*
X145927607Y-81070133D01*
X145927611Y-81070135D01*
X146137833Y-81157211D01*
X146142406Y-81159105D01*
X146222609Y-81178360D01*
X146368476Y-81213380D01*
X146368482Y-81213381D01*
X146373289Y-81214535D01*
X146610000Y-81233165D01*
X146846711Y-81214535D01*
X146851518Y-81213381D01*
X146851524Y-81213380D01*
X146997391Y-81178360D01*
X147077594Y-81159105D01*
X147082167Y-81157211D01*
X147292389Y-81070135D01*
X147292393Y-81070133D01*
X147296963Y-81068240D01*
X147418968Y-80993475D01*
X147485556Y-80952670D01*
X152242160Y-80952670D01*
X152247887Y-80960320D01*
X152419042Y-81065205D01*
X152427837Y-81069687D01*
X152637988Y-81156734D01*
X152647373Y-81159783D01*
X152868554Y-81212885D01*
X152878301Y-81214428D01*
X153105070Y-81232275D01*
X153114930Y-81232275D01*
X153341699Y-81214428D01*
X153351446Y-81212885D01*
X153572627Y-81159783D01*
X153582012Y-81156734D01*
X153792163Y-81069687D01*
X153800958Y-81065205D01*
X153918010Y-80993475D01*
X172927674Y-80993475D01*
X172945901Y-81201804D01*
X172947804Y-81212599D01*
X173001928Y-81414595D01*
X173005674Y-81424887D01*
X173094054Y-81614417D01*
X173099534Y-81623907D01*
X173128411Y-81665149D01*
X173138887Y-81673523D01*
X173152334Y-81666455D01*
X173817979Y-81000811D01*
X173825592Y-80986868D01*
X173825461Y-80985034D01*
X173821210Y-80978420D01*
X173151609Y-80308820D01*
X173139839Y-80302393D01*
X173127824Y-80311689D01*
X173099534Y-80352093D01*
X173094054Y-80361583D01*
X173005674Y-80551113D01*
X173001928Y-80561405D01*
X172947804Y-80763401D01*
X172945901Y-80774196D01*
X172927674Y-80982525D01*
X172927674Y-80993475D01*
X153918010Y-80993475D01*
X153968445Y-80962568D01*
X153977907Y-80952110D01*
X153974124Y-80943334D01*
X153122812Y-80092022D01*
X153108868Y-80084408D01*
X153107035Y-80084539D01*
X153100420Y-80088790D01*
X152248920Y-80940290D01*
X152242160Y-80952670D01*
X147485556Y-80952670D01*
X147495202Y-80946759D01*
X147495208Y-80946755D01*
X147499416Y-80944176D01*
X147679969Y-80789969D01*
X147834176Y-80609416D01*
X147836755Y-80605208D01*
X147836759Y-80605202D01*
X147955654Y-80411183D01*
X147958240Y-80406963D01*
X147960229Y-80402163D01*
X148047211Y-80192167D01*
X148047212Y-80192165D01*
X148049105Y-80187594D01*
X148072826Y-80088790D01*
X148103380Y-79961524D01*
X148103381Y-79961518D01*
X148104535Y-79956711D01*
X148122777Y-79724930D01*
X151597725Y-79724930D01*
X151615572Y-79951699D01*
X151617115Y-79961446D01*
X151670217Y-80182627D01*
X151673266Y-80192012D01*
X151760313Y-80402163D01*
X151764795Y-80410958D01*
X151867432Y-80578445D01*
X151877890Y-80587907D01*
X151886666Y-80584124D01*
X152737978Y-79732812D01*
X152744356Y-79721132D01*
X153474408Y-79721132D01*
X153474539Y-79722965D01*
X153478790Y-79729580D01*
X154330290Y-80581080D01*
X154342670Y-80587840D01*
X154350320Y-80582113D01*
X154455205Y-80410958D01*
X154459687Y-80402163D01*
X154546734Y-80192012D01*
X154549783Y-80182627D01*
X154602885Y-79961446D01*
X154604428Y-79951699D01*
X154622275Y-79724930D01*
X154622275Y-79715070D01*
X154604428Y-79488301D01*
X154602885Y-79478554D01*
X154549783Y-79257373D01*
X154546734Y-79247988D01*
X154459687Y-79037837D01*
X154455205Y-79029042D01*
X154352568Y-78861555D01*
X154342110Y-78852093D01*
X154333334Y-78855876D01*
X153482022Y-79707188D01*
X153474408Y-79721132D01*
X152744356Y-79721132D01*
X152745592Y-79718868D01*
X152745461Y-79717035D01*
X152741210Y-79710420D01*
X151889710Y-78858920D01*
X151877330Y-78852160D01*
X151869680Y-78857887D01*
X151764795Y-79029042D01*
X151760313Y-79037837D01*
X151673266Y-79247988D01*
X151670217Y-79257373D01*
X151617115Y-79478554D01*
X151615572Y-79488301D01*
X151597725Y-79715070D01*
X151597725Y-79724930D01*
X148122777Y-79724930D01*
X148123165Y-79720000D01*
X148104535Y-79483289D01*
X148081677Y-79388076D01*
X148068360Y-79332609D01*
X148049105Y-79252406D01*
X148019396Y-79180681D01*
X147960135Y-79037611D01*
X147960133Y-79037607D01*
X147958240Y-79033037D01*
X147914387Y-78961475D01*
X147836759Y-78834798D01*
X147836755Y-78834792D01*
X147834176Y-78830584D01*
X147679969Y-78650031D01*
X147499416Y-78495824D01*
X147495208Y-78493245D01*
X147495202Y-78493241D01*
X147486470Y-78487890D01*
X152242093Y-78487890D01*
X152245876Y-78496666D01*
X153097188Y-79347978D01*
X153111132Y-79355592D01*
X153112965Y-79355461D01*
X153119580Y-79351210D01*
X153971080Y-78499710D01*
X153977840Y-78487330D01*
X153972113Y-78479680D01*
X153800958Y-78374795D01*
X153792163Y-78370313D01*
X153582012Y-78283266D01*
X153572627Y-78280217D01*
X153351446Y-78227115D01*
X153341699Y-78225572D01*
X153114930Y-78207725D01*
X153105070Y-78207725D01*
X152878301Y-78225572D01*
X152868554Y-78227115D01*
X152647373Y-78280217D01*
X152637988Y-78283266D01*
X152427837Y-78370313D01*
X152419042Y-78374795D01*
X152251555Y-78477432D01*
X152242093Y-78487890D01*
X147486470Y-78487890D01*
X147301183Y-78374346D01*
X147296963Y-78371760D01*
X147292393Y-78369867D01*
X147292389Y-78369865D01*
X147082167Y-78282789D01*
X147082165Y-78282788D01*
X147077594Y-78280895D01*
X146997391Y-78261640D01*
X146851524Y-78226620D01*
X146851518Y-78226619D01*
X146846711Y-78225465D01*
X146610000Y-78206835D01*
X146373289Y-78225465D01*
X146368482Y-78226619D01*
X146368476Y-78226620D01*
X146222609Y-78261640D01*
X146142406Y-78280895D01*
X146137835Y-78282788D01*
X146137833Y-78282789D01*
X145927611Y-78369865D01*
X145927607Y-78369867D01*
X145923037Y-78371760D01*
X145918817Y-78374346D01*
X145724798Y-78493241D01*
X145724792Y-78493245D01*
X145720584Y-78495824D01*
X145540031Y-78650031D01*
X145385824Y-78830584D01*
X145383245Y-78834792D01*
X145383241Y-78834798D01*
X145305613Y-78961475D01*
X145261760Y-79033037D01*
X145259867Y-79037607D01*
X145259865Y-79037611D01*
X145200604Y-79180681D01*
X145170895Y-79252406D01*
X145151640Y-79332609D01*
X145138324Y-79388076D01*
X145115465Y-79483289D01*
X145096835Y-79720000D01*
X105358000Y-79720000D01*
X105358000Y-76930000D01*
X168106693Y-76930000D01*
X168125885Y-77149371D01*
X168182880Y-77362076D01*
X168185205Y-77367061D01*
X168273618Y-77556666D01*
X168273621Y-77556671D01*
X168275944Y-77561653D01*
X168279100Y-77566160D01*
X168279101Y-77566162D01*
X168381138Y-77711885D01*
X168402251Y-77742038D01*
X168557962Y-77897749D01*
X168738346Y-78024056D01*
X168937924Y-78117120D01*
X169150629Y-78174115D01*
X169370000Y-78193307D01*
X169589371Y-78174115D01*
X169802076Y-78117120D01*
X170001654Y-78024056D01*
X170182038Y-77897749D01*
X170337749Y-77742038D01*
X170358863Y-77711885D01*
X170460899Y-77566162D01*
X170460900Y-77566160D01*
X170464056Y-77561653D01*
X170466379Y-77556671D01*
X170466382Y-77556666D01*
X170554795Y-77367061D01*
X170557120Y-77362076D01*
X170614115Y-77149371D01*
X170633307Y-76930000D01*
X170614115Y-76710629D01*
X170557120Y-76497924D01*
X170506227Y-76388784D01*
X170466382Y-76303334D01*
X170466379Y-76303329D01*
X170464056Y-76298347D01*
X170455560Y-76286213D01*
X170340908Y-76122473D01*
X170340906Y-76122470D01*
X170337749Y-76117962D01*
X170182038Y-75962251D01*
X170076300Y-75888212D01*
X170031973Y-75832756D01*
X170024664Y-75762136D01*
X170056695Y-75698776D01*
X170076301Y-75681787D01*
X170177527Y-75610908D01*
X170177529Y-75610906D01*
X170182038Y-75607749D01*
X170337749Y-75452038D01*
X170464056Y-75271653D01*
X170466379Y-75266671D01*
X170466382Y-75266666D01*
X170554795Y-75077061D01*
X170557120Y-75072076D01*
X170614115Y-74859371D01*
X170626990Y-74712204D01*
X174103151Y-74712204D01*
X174107720Y-74718735D01*
X174320736Y-74849271D01*
X174329530Y-74853752D01*
X174561492Y-74949834D01*
X174570877Y-74952883D01*
X174815017Y-75011496D01*
X174824764Y-75013039D01*
X175075070Y-75032739D01*
X175084930Y-75032739D01*
X175335236Y-75013039D01*
X175344983Y-75011496D01*
X175589123Y-74952883D01*
X175598508Y-74949834D01*
X175830470Y-74853752D01*
X175839264Y-74849271D01*
X176050875Y-74719596D01*
X176056922Y-74710330D01*
X176050915Y-74700125D01*
X175092812Y-73742022D01*
X175078868Y-73734408D01*
X175077035Y-73734539D01*
X175070420Y-73738790D01*
X174110544Y-74698666D01*
X174103151Y-74712204D01*
X170626990Y-74712204D01*
X170633307Y-74640000D01*
X170614115Y-74420629D01*
X170557120Y-74207924D01*
X170513585Y-74114562D01*
X170466382Y-74013334D01*
X170466379Y-74013329D01*
X170464056Y-74008347D01*
X170460899Y-74003838D01*
X170340908Y-73832473D01*
X170340906Y-73832470D01*
X170337749Y-73827962D01*
X170182038Y-73672251D01*
X170001654Y-73545944D01*
X169802076Y-73452880D01*
X169589371Y-73395885D01*
X169370000Y-73376693D01*
X169150629Y-73395885D01*
X168937924Y-73452880D01*
X168856167Y-73491004D01*
X168743334Y-73543618D01*
X168743329Y-73543621D01*
X168738347Y-73545944D01*
X168733840Y-73549100D01*
X168733838Y-73549101D01*
X168562473Y-73669092D01*
X168562470Y-73669094D01*
X168557962Y-73672251D01*
X168402251Y-73827962D01*
X168399094Y-73832470D01*
X168399092Y-73832473D01*
X168279101Y-74003838D01*
X168275944Y-74008347D01*
X168273621Y-74013329D01*
X168273618Y-74013334D01*
X168226415Y-74114562D01*
X168182880Y-74207924D01*
X168125885Y-74420629D01*
X168106693Y-74640000D01*
X168125885Y-74859371D01*
X168182880Y-75072076D01*
X168185205Y-75077061D01*
X168273618Y-75266666D01*
X168273621Y-75266671D01*
X168275944Y-75271653D01*
X168402251Y-75452038D01*
X168557962Y-75607749D01*
X168562471Y-75610906D01*
X168562473Y-75610908D01*
X168663699Y-75681787D01*
X168708027Y-75737244D01*
X168715336Y-75807864D01*
X168683305Y-75871224D01*
X168663699Y-75888213D01*
X168562473Y-75959092D01*
X168562470Y-75959094D01*
X168557962Y-75962251D01*
X168402251Y-76117962D01*
X168399094Y-76122470D01*
X168399092Y-76122473D01*
X168284440Y-76286213D01*
X168275944Y-76298347D01*
X168273621Y-76303329D01*
X168273618Y-76303334D01*
X168233773Y-76388784D01*
X168182880Y-76497924D01*
X168125885Y-76710629D01*
X168106693Y-76930000D01*
X105358000Y-76930000D01*
X105358000Y-75220000D01*
X145096835Y-75220000D01*
X145115465Y-75456711D01*
X145116619Y-75461518D01*
X145116620Y-75461524D01*
X145150790Y-75603852D01*
X145170895Y-75687594D01*
X145172788Y-75692165D01*
X145172789Y-75692167D01*
X145259772Y-75902163D01*
X145261760Y-75906963D01*
X145264346Y-75911183D01*
X145383241Y-76105202D01*
X145383245Y-76105208D01*
X145385824Y-76109416D01*
X145540031Y-76289969D01*
X145720584Y-76444176D01*
X145724792Y-76446755D01*
X145724798Y-76446759D01*
X145880854Y-76542390D01*
X145923037Y-76568240D01*
X145927607Y-76570133D01*
X145927611Y-76570135D01*
X146137833Y-76657211D01*
X146142406Y-76659105D01*
X146162983Y-76664045D01*
X146368476Y-76713380D01*
X146368482Y-76713381D01*
X146373289Y-76714535D01*
X146610000Y-76733165D01*
X146846711Y-76714535D01*
X146851518Y-76713381D01*
X146851524Y-76713380D01*
X147057017Y-76664045D01*
X147077594Y-76659105D01*
X147082167Y-76657211D01*
X147292389Y-76570135D01*
X147292393Y-76570133D01*
X147296963Y-76568240D01*
X147339146Y-76542390D01*
X147485556Y-76452670D01*
X152242160Y-76452670D01*
X152247887Y-76460320D01*
X152419042Y-76565205D01*
X152427837Y-76569687D01*
X152637988Y-76656734D01*
X152647373Y-76659783D01*
X152868554Y-76712885D01*
X152878301Y-76714428D01*
X153105070Y-76732275D01*
X153114930Y-76732275D01*
X153341699Y-76714428D01*
X153351446Y-76712885D01*
X153572627Y-76659783D01*
X153582012Y-76656734D01*
X153792163Y-76569687D01*
X153800958Y-76565205D01*
X153968445Y-76462568D01*
X153977907Y-76452110D01*
X153974124Y-76443334D01*
X153122812Y-75592022D01*
X153108868Y-75584408D01*
X153107035Y-75584539D01*
X153100420Y-75588790D01*
X152248920Y-76440290D01*
X152242160Y-76452670D01*
X147485556Y-76452670D01*
X147495202Y-76446759D01*
X147495208Y-76446755D01*
X147499416Y-76444176D01*
X147679969Y-76289969D01*
X147834176Y-76109416D01*
X147836755Y-76105208D01*
X147836759Y-76105202D01*
X147955654Y-75911183D01*
X147958240Y-75906963D01*
X147960229Y-75902163D01*
X148047211Y-75692167D01*
X148047212Y-75692165D01*
X148049105Y-75687594D01*
X148069210Y-75603852D01*
X148103380Y-75461524D01*
X148103381Y-75461518D01*
X148104535Y-75456711D01*
X148122777Y-75224930D01*
X151597725Y-75224930D01*
X151615572Y-75451699D01*
X151617115Y-75461446D01*
X151670217Y-75682627D01*
X151673266Y-75692012D01*
X151760313Y-75902163D01*
X151764795Y-75910958D01*
X151867432Y-76078445D01*
X151877890Y-76087907D01*
X151886666Y-76084124D01*
X152737978Y-75232812D01*
X152744356Y-75221132D01*
X153474408Y-75221132D01*
X153474539Y-75222965D01*
X153478790Y-75229580D01*
X154330290Y-76081080D01*
X154342670Y-76087840D01*
X154350320Y-76082113D01*
X154455205Y-75910958D01*
X154459687Y-75902163D01*
X154546734Y-75692012D01*
X154549783Y-75682627D01*
X154602885Y-75461446D01*
X154604428Y-75451699D01*
X154622275Y-75224930D01*
X154622275Y-75215070D01*
X154604428Y-74988301D01*
X154602885Y-74978554D01*
X154549783Y-74757373D01*
X154546734Y-74747988D01*
X154459687Y-74537837D01*
X154455205Y-74529042D01*
X154352568Y-74361555D01*
X154342110Y-74352093D01*
X154333334Y-74355876D01*
X153482022Y-75207188D01*
X153474408Y-75221132D01*
X152744356Y-75221132D01*
X152745592Y-75218868D01*
X152745461Y-75217035D01*
X152741210Y-75210420D01*
X151889710Y-74358920D01*
X151877330Y-74352160D01*
X151869680Y-74357887D01*
X151764795Y-74529042D01*
X151760313Y-74537837D01*
X151673266Y-74747988D01*
X151670217Y-74757373D01*
X151617115Y-74978554D01*
X151615572Y-74988301D01*
X151597725Y-75215070D01*
X151597725Y-75224930D01*
X148122777Y-75224930D01*
X148123165Y-75220000D01*
X148104535Y-74983289D01*
X148097236Y-74952883D01*
X148050260Y-74757218D01*
X148049105Y-74752406D01*
X148029628Y-74705384D01*
X147960135Y-74537611D01*
X147960133Y-74537607D01*
X147958240Y-74533037D01*
X147916277Y-74464560D01*
X147836759Y-74334798D01*
X147836755Y-74334792D01*
X147834176Y-74330584D01*
X147679969Y-74150031D01*
X147499416Y-73995824D01*
X147495208Y-73993245D01*
X147495202Y-73993241D01*
X147486470Y-73987890D01*
X152242093Y-73987890D01*
X152245876Y-73996666D01*
X153097188Y-74847978D01*
X153111132Y-74855592D01*
X153112965Y-74855461D01*
X153119580Y-74851210D01*
X153971080Y-73999710D01*
X153977840Y-73987330D01*
X153972113Y-73979680D01*
X153800958Y-73874795D01*
X153792163Y-73870313D01*
X153582012Y-73783266D01*
X153572627Y-73780217D01*
X153351446Y-73727115D01*
X153341699Y-73725572D01*
X153114930Y-73707725D01*
X153105070Y-73707725D01*
X152878301Y-73725572D01*
X152868554Y-73727115D01*
X152647373Y-73780217D01*
X152637988Y-73783266D01*
X152427837Y-73870313D01*
X152419042Y-73874795D01*
X152251555Y-73977432D01*
X152242093Y-73987890D01*
X147486470Y-73987890D01*
X147301183Y-73874346D01*
X147296963Y-73871760D01*
X147292393Y-73869867D01*
X147292389Y-73869865D01*
X147082167Y-73782789D01*
X147082165Y-73782788D01*
X147077594Y-73780895D01*
X146997391Y-73761640D01*
X146851524Y-73726620D01*
X146851518Y-73726619D01*
X146846711Y-73725465D01*
X146610000Y-73706835D01*
X146373289Y-73725465D01*
X146368482Y-73726619D01*
X146368476Y-73726620D01*
X146222609Y-73761640D01*
X146142406Y-73780895D01*
X146137835Y-73782788D01*
X146137833Y-73782789D01*
X145927611Y-73869865D01*
X145927607Y-73869867D01*
X145923037Y-73871760D01*
X145918817Y-73874346D01*
X145724798Y-73993241D01*
X145724792Y-73993245D01*
X145720584Y-73995824D01*
X145540031Y-74150031D01*
X145385824Y-74330584D01*
X145383245Y-74334792D01*
X145383241Y-74334798D01*
X145303723Y-74464560D01*
X145261760Y-74533037D01*
X145259867Y-74537607D01*
X145259865Y-74537611D01*
X145190372Y-74705384D01*
X145170895Y-74752406D01*
X145169740Y-74757218D01*
X145122765Y-74952883D01*
X145115465Y-74983289D01*
X145096835Y-75220000D01*
X105358000Y-75220000D01*
X105358000Y-74689328D01*
X105359500Y-74669943D01*
X105361805Y-74655142D01*
X105361805Y-74655139D01*
X105363186Y-74646270D01*
X105360515Y-74625842D01*
X105359571Y-74604013D01*
X105359896Y-74596584D01*
X105375158Y-74247019D01*
X105376116Y-74236070D01*
X105379822Y-74207924D01*
X105426741Y-73851535D01*
X105428650Y-73840709D01*
X105512598Y-73462049D01*
X105515443Y-73451432D01*
X105539564Y-73374930D01*
X173417261Y-73374930D01*
X173436961Y-73625236D01*
X173438504Y-73634983D01*
X173497117Y-73879123D01*
X173500166Y-73888508D01*
X173596248Y-74120470D01*
X173600729Y-74129264D01*
X173730404Y-74340875D01*
X173739670Y-74346922D01*
X173749875Y-74340915D01*
X174707978Y-73382812D01*
X174715592Y-73368868D01*
X174715461Y-73367035D01*
X174711210Y-73360420D01*
X173751334Y-72400544D01*
X173737796Y-72393151D01*
X173731265Y-72397720D01*
X173600729Y-72610736D01*
X173596248Y-72619530D01*
X173500166Y-72851492D01*
X173497117Y-72860877D01*
X173438504Y-73105017D01*
X173436961Y-73114764D01*
X173417261Y-73365070D01*
X173417261Y-73374930D01*
X105539564Y-73374930D01*
X105595222Y-73198402D01*
X105632073Y-73081527D01*
X105635829Y-73071206D01*
X105784262Y-72712857D01*
X105788904Y-72702904D01*
X105894574Y-72499915D01*
X105967991Y-72358882D01*
X105973486Y-72349363D01*
X106177153Y-72029670D01*
X174103078Y-72029670D01*
X174109085Y-72039875D01*
X175067188Y-72997978D01*
X175081132Y-73005592D01*
X175082965Y-73005461D01*
X175089580Y-73001210D01*
X176049456Y-72041334D01*
X176056849Y-72027796D01*
X176052280Y-72021265D01*
X175839264Y-71890729D01*
X175830470Y-71886248D01*
X175598508Y-71790166D01*
X175589123Y-71787117D01*
X175344983Y-71728504D01*
X175335236Y-71726961D01*
X175084930Y-71707261D01*
X175075070Y-71707261D01*
X174824764Y-71726961D01*
X174815017Y-71728504D01*
X174570877Y-71787117D01*
X174561492Y-71790166D01*
X174329530Y-71886248D01*
X174320736Y-71890729D01*
X174109125Y-72020404D01*
X174103078Y-72029670D01*
X106177153Y-72029670D01*
X106181883Y-72022246D01*
X106188188Y-72013242D01*
X106424295Y-71705542D01*
X106431360Y-71697122D01*
X106693391Y-71411164D01*
X106701164Y-71403391D01*
X106756241Y-71352923D01*
X106987122Y-71141360D01*
X106995542Y-71134295D01*
X107303242Y-70898188D01*
X107312246Y-70891883D01*
X107639363Y-70683486D01*
X107648883Y-70677990D01*
X107992913Y-70498900D01*
X108002857Y-70494262D01*
X108361213Y-70345826D01*
X108371527Y-70342073D01*
X108571007Y-70279177D01*
X108741432Y-70225443D01*
X108752049Y-70222598D01*
X109130709Y-70138650D01*
X109141535Y-70136741D01*
X109526070Y-70086116D01*
X109537019Y-70085158D01*
X109886584Y-70069896D01*
X109911460Y-70071276D01*
X109913316Y-70071565D01*
X109914858Y-70071805D01*
X109914859Y-70071805D01*
X109923730Y-70073186D01*
X109955252Y-70069064D01*
X109971589Y-70068000D01*
X178460672Y-70068000D01*
X178480057Y-70069500D01*
G37*
%TD.AperFunction*%
%TA.AperFunction,Conductor*%
G36*
X135972012Y-103693993D02*
G01*
X135978595Y-103700122D01*
X136487595Y-104209122D01*
X136521621Y-104271434D01*
X136524500Y-104298217D01*
X136524500Y-106700031D01*
X136504498Y-106768152D01*
X136492142Y-106784335D01*
X136467409Y-106811803D01*
X136377923Y-106966797D01*
X136322618Y-107137009D01*
X136321928Y-107143572D01*
X136321928Y-107143573D01*
X136320031Y-107161622D01*
X136303910Y-107315000D01*
X136322618Y-107492991D01*
X136324658Y-107499269D01*
X136324658Y-107499270D01*
X136335098Y-107531400D01*
X136377923Y-107663203D01*
X136381226Y-107668925D01*
X136381227Y-107668926D01*
X136387614Y-107679989D01*
X136467409Y-107818197D01*
X136471827Y-107823104D01*
X136471828Y-107823105D01*
X136539714Y-107898500D01*
X136587164Y-107951199D01*
X136731955Y-108056396D01*
X136737983Y-108059080D01*
X136737985Y-108059081D01*
X136889423Y-108126505D01*
X136895454Y-108129190D01*
X137010333Y-108153608D01*
X137059697Y-108164101D01*
X137122170Y-108197830D01*
X137156492Y-108259979D01*
X137159500Y-108287348D01*
X137159500Y-108605031D01*
X137139498Y-108673152D01*
X137127142Y-108689335D01*
X137102409Y-108716803D01*
X137012923Y-108871797D01*
X137010881Y-108878082D01*
X136959823Y-109035224D01*
X136957618Y-109042009D01*
X136956928Y-109048572D01*
X136956928Y-109048573D01*
X136941813Y-109192382D01*
X136938910Y-109220000D01*
X136957618Y-109397991D01*
X137012923Y-109568203D01*
X137102409Y-109723197D01*
X137222164Y-109856199D01*
X137366955Y-109961396D01*
X137372983Y-109964080D01*
X137372985Y-109964081D01*
X137524423Y-110031505D01*
X137530454Y-110034190D01*
X137645333Y-110058608D01*
X137694697Y-110069101D01*
X137757170Y-110102830D01*
X137791492Y-110164979D01*
X137794500Y-110192348D01*
X137794500Y-116125980D01*
X137793970Y-116137214D01*
X137792292Y-116144719D01*
X137792541Y-116152639D01*
X137793503Y-116183265D01*
X137775650Y-116251981D01*
X137723481Y-116300135D01*
X137653558Y-116312441D01*
X137588083Y-116284991D01*
X137578470Y-116276317D01*
X135800405Y-114498252D01*
X135766379Y-114435940D01*
X135763500Y-114409157D01*
X135763500Y-103789217D01*
X135783502Y-103721096D01*
X135837158Y-103674603D01*
X135907432Y-103664499D01*
X135972012Y-103693993D01*
G37*
%TD.AperFunction*%
%TA.AperFunction,Conductor*%
G36*
X134225996Y-95125836D02*
G01*
X134252175Y-95145907D01*
X135217597Y-96111330D01*
X135251621Y-96173640D01*
X135254500Y-96200423D01*
X135254500Y-98809077D01*
X135234498Y-98877198D01*
X135180842Y-98923691D01*
X135110568Y-98933795D01*
X135045988Y-98904301D01*
X135039405Y-98898172D01*
X134033558Y-97892325D01*
X133999532Y-97830013D01*
X134004597Y-97759198D01*
X134049485Y-97700651D01*
X134220328Y-97578792D01*
X134228200Y-97572139D01*
X134379052Y-97421812D01*
X134385730Y-97413965D01*
X134510003Y-97241020D01*
X134515313Y-97232183D01*
X134609670Y-97041267D01*
X134613469Y-97031672D01*
X134675377Y-96827910D01*
X134677555Y-96817837D01*
X134678986Y-96806962D01*
X134676775Y-96792778D01*
X134663617Y-96789000D01*
X133217000Y-96789000D01*
X133148879Y-96768998D01*
X133102386Y-96715342D01*
X133091000Y-96663000D01*
X133091000Y-96407000D01*
X133111002Y-96338879D01*
X133164658Y-96292386D01*
X133217000Y-96281000D01*
X134663344Y-96281000D01*
X134676875Y-96277027D01*
X134678180Y-96267947D01*
X134636214Y-96100875D01*
X134632894Y-96091124D01*
X134547972Y-95895814D01*
X134543105Y-95886739D01*
X134427426Y-95707926D01*
X134421136Y-95699757D01*
X134277806Y-95542240D01*
X134270273Y-95535215D01*
X134103139Y-95403222D01*
X134094552Y-95397517D01*
X134057602Y-95377119D01*
X134007631Y-95326686D01*
X133992860Y-95257243D01*
X134017977Y-95190838D01*
X134045326Y-95164233D01*
X134089914Y-95132428D01*
X134156988Y-95109154D01*
X134225996Y-95125836D01*
G37*
%TD.AperFunction*%
%TD*%
M02*
