M48
; DRILL file {KiCad (6.0.0)} date Wed Jan 26 18:23:07 2022
; FORMAT={-:-/ absolute / inch / decimal}
; #@! TF.CreationDate,2022-01-26T18:23:07-07:00
; #@! TF.GenerationSoftware,Kicad,Pcbnew,(6.0.0)
; #@! TF.FileFunction,MixedPlating,1,2
FMAT,2
INCH
; #@! TA.AperFunction,Plated,PTH,ViaDrill
T1C0.0130
; #@! TA.AperFunction,Plated,PTH,ViaDrill
T2C0.0150
; #@! TA.AperFunction,Plated,PTH,ComponentDrill
T3C0.0315
; #@! TA.AperFunction,Plated,PTH,ComponentDrill
T4C0.0350
; #@! TA.AperFunction,Plated,PTH,ComponentDrill
T5C0.0394
; #@! TA.AperFunction,Plated,PTH,ComponentDrill
T6C0.0433
; #@! TA.AperFunction,Plated,PTH,ComponentDrill
T7C0.0512
; #@! TA.AperFunction,Plated,PTH,ComponentDrill
T8C0.0618
; #@! TA.AperFunction,Plated,PTH,ViaDrill
T9C0.1250
; #@! TA.AperFunction,NonPlated,NPTH,ComponentDrill
T10C0.1280
%
G90
G05
T1
X5.1Y-3.325
X5.2789Y-4.546
X5.3Y-4.325
X5.375Y-4.325
X5.4Y-4.225
X5.425Y-4.3
X5.475Y-4.2
X5.6998Y-4.5367
X5.7Y-4.075
X5.75Y-4.075
X5.7505Y-4.5364
X5.8628Y-4.619
X5.9Y-4.575
X5.925Y-4.625
X5.9278Y-4.5115
X5.9425Y-4.5514
T2
X4.325Y-4.325
X4.45Y-3.975
X4.625Y-3.975
X4.7254Y-3.325
X4.75Y-3.575
X4.8Y-4.325
X4.85Y-3.9
X4.875Y-3.375
X4.9Y-4.025
X5.05Y-3.2
X5.0536Y-3.3804
X5.075Y-2.95
X5.15Y-4.025
X5.175Y-3.275
X5.175Y-3.35
X5.175Y-4.4
X5.175Y-4.475
X5.3Y-4.625
X5.325Y-2.95
X5.3967Y-4.4892
X5.4Y-3.9
X5.475Y-3.9
X5.5Y-4.0
X5.525Y-3.625
X5.55Y-3.3
X5.625Y-4.5
X5.65Y-4.0
X5.65Y-4.375
X5.65Y-4.45
X5.75Y-4.125
X5.8Y-3.25
X5.8Y-3.65
X5.825Y-4.175
X5.9Y-4.275
X5.9811Y-4.4426
X6.0625Y-4.5875
X6.075Y-4.275
X6.125Y-4.325
X6.15Y-4.05
X6.15Y-4.45
X6.175Y-4.625
X6.275Y-4.175
X6.35Y-3.85
X6.5Y-3.7
X6.575Y-2.875
X6.575Y-3.625
X6.925Y-4.475
X7.0Y-3.675
X7.094Y-4.1371
X7.1Y-4.6
T3
X6.3358Y-3.9886
X6.528Y-3.9886
T4
X6.6681Y-2.9386
X6.6681Y-3.0287
X6.6681Y-3.3886
X6.6681Y-3.4787
X6.8579Y-3.1085
X6.8579Y-3.1885
X6.8579Y-3.2685
X6.8579Y-3.3485
X6.928Y-3.0685
X6.928Y-3.1485
X6.928Y-3.2285
X6.928Y-3.3085
T5
X5.1498Y-3.6006
X5.1498Y-3.7006
X5.1498Y-3.8006
X5.2498Y-3.6006
X5.2498Y-3.7006
X5.2498Y-3.8006
T6
X4.428Y-3.725
X4.428Y-4.1886
X4.528Y-3.725
X4.528Y-4.1886
X4.628Y-3.725
X4.628Y-4.1886
X4.928Y-4.1886
X5.028Y-4.1886
X5.128Y-4.1886
X5.772Y-2.9614
X5.772Y-3.1386
X5.778Y-3.3614
X5.778Y-3.5386
X5.778Y-3.7614
X5.778Y-3.9386
X6.028Y-2.9614
X6.028Y-3.1386
X6.0339Y-3.3614
X6.0339Y-3.5386
X6.0339Y-3.7614
X6.0339Y-3.9386
X6.778Y-3.8386
X6.778Y-4.0157
X7.0339Y-3.8386
X7.0339Y-4.0157
T7
X4.428Y-4.6032
X4.628Y-4.6032
X4.828Y-4.6032
X5.028Y-4.6032
X6.328Y-4.6031
X6.528Y-4.6031
X6.728Y-4.6031
X6.928Y-4.6031
T8
X6.8929Y-2.8886
X6.8929Y-3.5287
T9
X4.325Y-2.95
X6.2Y-3.65
X6.525Y-4.225
T10
X7.028Y-2.9587
X7.028Y-3.4587
T5
G00X4.375Y-3.2817
M15
G01X4.375Y-3.3683
M16
G05
G00X4.5522Y-3.514
M15
G01X4.4656Y-3.514
M16
G05
G00X4.623Y-3.2738
M15
G01X4.623Y-3.3762
M16
G05
T0
M30
