%TF.GenerationSoftware,KiCad,Pcbnew,(6.0.0)*%
%TF.CreationDate,2022-01-26T18:23:26-07:00*%
%TF.ProjectId,PantryLights,50616e74-7279-44c6-9967-6874732e6b69,rev?*%
%TF.SameCoordinates,Original*%
%TF.FileFunction,Soldermask,Bot*%
%TF.FilePolarity,Negative*%
%FSLAX46Y46*%
G04 Gerber Fmt 4.6, Leading zero omitted, Abs format (unit mm)*
G04 Created by KiCad (PCBNEW (6.0.0)) date 2022-01-26 18:23:26*
%MOMM*%
%LPD*%
G01*
G04 APERTURE LIST*
G04 Aperture macros list*
%AMRoundRect*
0 Rectangle with rounded corners*
0 $1 Rounding radius*
0 $2 $3 $4 $5 $6 $7 $8 $9 X,Y pos of 4 corners*
0 Add a 4 corners polygon primitive as box body*
4,1,4,$2,$3,$4,$5,$6,$7,$8,$9,$2,$3,0*
0 Add four circle primitives for the rounded corners*
1,1,$1+$1,$2,$3*
1,1,$1+$1,$4,$5*
1,1,$1+$1,$6,$7*
1,1,$1+$1,$8,$9*
0 Add four rect primitives between the rounded corners*
20,1,$1+$1,$2,$3,$4,$5,0*
20,1,$1+$1,$4,$5,$6,$7,0*
20,1,$1+$1,$6,$7,$8,$9,0*
20,1,$1+$1,$8,$9,$2,$3,0*%
G04 Aperture macros list end*
%ADD10RoundRect,0.050800X-0.850000X-0.850000X0.850000X-0.850000X0.850000X0.850000X-0.850000X0.850000X0*%
%ADD11O,1.801600X1.801600*%
%ADD12C,2.101600*%
%ADD13RoundRect,0.050800X-1.300000X-1.300000X1.300000X-1.300000X1.300000X1.300000X-1.300000X1.300000X0*%
%ADD14C,2.701600*%
%ADD15C,1.601600*%
%ADD16C,2.401600*%
%ADD17C,3.351600*%
%ADD18RoundRect,0.050800X-0.750000X0.750000X-0.750000X-0.750000X0.750000X-0.750000X0.750000X0.750000X0*%
%ADD19RoundRect,0.050800X-1.000000X2.300000X-1.000000X-2.300000X1.000000X-2.300000X1.000000X2.300000X0*%
%ADD20O,2.101600X4.301600*%
%ADD21O,4.301600X2.101600*%
%ADD22O,2.006600X2.101600*%
%ADD23RoundRect,0.050800X0.952500X1.000000X-0.952500X1.000000X-0.952500X-1.000000X0.952500X-1.000000X0*%
%ADD24RoundRect,0.050800X-0.952500X-1.000000X0.952500X-1.000000X0.952500X1.000000X-0.952500X1.000000X0*%
G04 APERTURE END LIST*
D10*
%TO.C,J5*%
X130805000Y-91455000D03*
D11*
X133345000Y-91455000D03*
X130805000Y-93995000D03*
X133345000Y-93995000D03*
X130805000Y-96535000D03*
X133345000Y-96535000D03*
%TD*%
D12*
%TO.C,SW3*%
X146610000Y-75220000D03*
X146610000Y-79720000D03*
X153110000Y-75220000D03*
X153110000Y-79720000D03*
%TD*%
%TO.C,SW2*%
X153260000Y-89880000D03*
X153260000Y-85380000D03*
X146760000Y-89880000D03*
X146760000Y-85380000D03*
%TD*%
%TO.C,SW1*%
X153260000Y-100040000D03*
X153260000Y-95540000D03*
X146760000Y-100040000D03*
X146760000Y-95540000D03*
%TD*%
D13*
%TO.C,J4*%
X160730000Y-116920000D03*
D14*
X165810000Y-116920000D03*
X170890000Y-116920000D03*
X175970000Y-116920000D03*
%TD*%
D13*
%TO.C,J3*%
X112470006Y-116920010D03*
D14*
X117550006Y-116920010D03*
X122630006Y-116920010D03*
X127710006Y-116920010D03*
%TD*%
D15*
%TO.C,J2*%
X169370000Y-88360000D03*
X169370000Y-86070000D03*
X169370000Y-76930000D03*
X169370000Y-74640000D03*
D16*
X175080000Y-73370000D03*
X175080000Y-89630000D03*
D17*
X178510000Y-87850000D03*
X178510000Y-75150000D03*
D15*
X174190000Y-85052000D03*
X174190000Y-83020000D03*
X174190000Y-80988000D03*
X174190000Y-78956000D03*
X175970000Y-84036000D03*
X175970000Y-82004000D03*
X175970000Y-79972000D03*
D18*
X175970000Y-77940000D03*
%TD*%
D19*
%TO.C,J1*%
X117425000Y-84455000D03*
D20*
X111125000Y-84455000D03*
D21*
X114525000Y-89255000D03*
%TD*%
D15*
%TO.C,Y1*%
X165810000Y-101310000D03*
X160930000Y-101310000D03*
%TD*%
D22*
%TO.C,U2*%
X112470000Y-94615000D03*
X115010000Y-94615000D03*
D23*
X117550000Y-94615000D03*
%TD*%
D12*
%TO.C,SW4*%
X172160000Y-97500000D03*
X172160000Y-102000000D03*
X178660000Y-97500000D03*
X178660000Y-102000000D03*
%TD*%
D24*
%TO.C,Q2*%
X125170000Y-106390000D03*
D22*
X127710000Y-106390000D03*
X130250000Y-106390000D03*
%TD*%
D24*
%TO.C,Q1*%
X112470000Y-106390000D03*
D22*
X115010000Y-106390000D03*
X117550000Y-106390000D03*
%TD*%
M02*
