%TF.GenerationSoftware,KiCad,Pcbnew,(6.0.0)*%
%TF.CreationDate,2022-01-26T18:23:26-07:00*%
%TF.ProjectId,PantryLights,50616e74-7279-44c6-9967-6874732e6b69,rev?*%
%TF.SameCoordinates,Original*%
%TF.FileFunction,Paste,Top*%
%TF.FilePolarity,Positive*%
%FSLAX46Y46*%
G04 Gerber Fmt 4.6, Leading zero omitted, Abs format (unit mm)*
G04 Created by KiCad (PCBNEW (6.0.0)) date 2022-01-26 18:23:26*
%MOMM*%
%LPD*%
G01*
G04 APERTURE LIST*
G04 Aperture macros list*
%AMRoundRect*
0 Rectangle with rounded corners*
0 $1 Rounding radius*
0 $2 $3 $4 $5 $6 $7 $8 $9 X,Y pos of 4 corners*
0 Add a 4 corners polygon primitive as box body*
4,1,4,$2,$3,$4,$5,$6,$7,$8,$9,$2,$3,0*
0 Add four circle primitives for the rounded corners*
1,1,$1+$1,$2,$3*
1,1,$1+$1,$4,$5*
1,1,$1+$1,$6,$7*
1,1,$1+$1,$8,$9*
0 Add four rect primitives between the rounded corners*
20,1,$1+$1,$2,$3,$4,$5,0*
20,1,$1+$1,$4,$5,$6,$7,0*
20,1,$1+$1,$6,$7,$8,$9,0*
20,1,$1+$1,$8,$9,$2,$3,0*%
G04 Aperture macros list end*
%ADD10RoundRect,0.237500X-0.237500X0.250000X-0.237500X-0.250000X0.237500X-0.250000X0.237500X0.250000X0*%
%ADD11RoundRect,0.237500X0.300000X0.237500X-0.300000X0.237500X-0.300000X-0.237500X0.300000X-0.237500X0*%
%ADD12RoundRect,0.237500X-0.300000X-0.237500X0.300000X-0.237500X0.300000X0.237500X-0.300000X0.237500X0*%
%ADD13RoundRect,0.237500X0.237500X-0.250000X0.237500X0.250000X-0.237500X0.250000X-0.237500X-0.250000X0*%
%ADD14RoundRect,0.237500X-0.250000X-0.237500X0.250000X-0.237500X0.250000X0.237500X-0.250000X0.237500X0*%
%ADD15RoundRect,0.237500X0.250000X0.237500X-0.250000X0.237500X-0.250000X-0.237500X0.250000X-0.237500X0*%
%ADD16RoundRect,0.237500X0.287500X0.237500X-0.287500X0.237500X-0.287500X-0.237500X0.287500X-0.237500X0*%
%ADD17RoundRect,0.237500X-0.287500X-0.237500X0.287500X-0.237500X0.287500X0.237500X-0.287500X0.237500X0*%
%ADD18RoundRect,0.250000X-0.550000X1.500000X-0.550000X-1.500000X0.550000X-1.500000X0.550000X1.500000X0*%
%ADD19R,1.600000X0.550000*%
%ADD20R,0.550000X1.600000*%
G04 APERTURE END LIST*
D10*
%TO.C,R11*%
X121285000Y-103227500D03*
X121285000Y-105052500D03*
%TD*%
D11*
%TO.C,C9*%
X154532500Y-114300000D03*
X152807500Y-114300000D03*
%TD*%
D12*
%TO.C,C3*%
X112395000Y-99060000D03*
X110670000Y-99060000D03*
%TD*%
D11*
%TO.C,C2*%
X117957500Y-99060000D03*
X119682500Y-99060000D03*
%TD*%
D10*
%TO.C,R2*%
X165100000Y-88610000D03*
X165100000Y-86785000D03*
%TD*%
%TO.C,R1*%
X165100000Y-76200000D03*
X165100000Y-74375000D03*
%TD*%
D13*
%TO.C,R6*%
X160730000Y-107105000D03*
X160730000Y-108930000D03*
%TD*%
D10*
%TO.C,R5*%
X170890000Y-107105000D03*
X170890000Y-108930000D03*
%TD*%
D14*
%TO.C,R10*%
X139344558Y-96854658D03*
X137519558Y-96854658D03*
%TD*%
%TO.C,R9*%
X139342500Y-90335270D03*
X137517500Y-90335270D03*
%TD*%
%TO.C,R8*%
X137545045Y-82980745D03*
X139370045Y-82980745D03*
%TD*%
D15*
%TO.C,R7*%
X125725000Y-96230000D03*
X123900000Y-96230000D03*
%TD*%
D14*
%TO.C,R4*%
X154582500Y-117820000D03*
X152757500Y-117820000D03*
%TD*%
%TO.C,R3*%
X135330000Y-73370000D03*
X133505000Y-73370000D03*
%TD*%
D16*
%TO.C,D5*%
X126045000Y-91150000D03*
X124295000Y-91150000D03*
%TD*%
D17*
%TO.C,D4*%
X137555000Y-79870000D03*
X139305000Y-79870000D03*
%TD*%
%TO.C,D3*%
X139305000Y-87340000D03*
X137555000Y-87340000D03*
%TD*%
%TO.C,D2*%
X139305000Y-93840000D03*
X137555000Y-93840000D03*
%TD*%
D16*
%TO.C,D1*%
X128190000Y-73370000D03*
X126440000Y-73370000D03*
%TD*%
D12*
%TO.C,C5*%
X151432500Y-106390000D03*
X149707500Y-106390000D03*
%TD*%
D11*
%TO.C,C4*%
X155650000Y-106390000D03*
X157375000Y-106390000D03*
%TD*%
D18*
%TO.C,C1*%
X126440000Y-84050000D03*
X126440000Y-78450000D03*
%TD*%
D12*
%TO.C,C8*%
X133197500Y-114010000D03*
X134922500Y-114010000D03*
%TD*%
D11*
%TO.C,C7*%
X134922500Y-111470000D03*
X133197500Y-111470000D03*
%TD*%
D12*
%TO.C,C6*%
X152702500Y-111470000D03*
X154427500Y-111470000D03*
%TD*%
D19*
%TO.C,U1*%
X148062500Y-115980000D03*
X148062500Y-115180000D03*
X148062500Y-114380000D03*
X148062500Y-113580000D03*
X148062500Y-112780000D03*
X148062500Y-111980000D03*
X148062500Y-111180000D03*
X148062500Y-110380000D03*
D20*
X146612500Y-108930000D03*
X145812500Y-108930000D03*
X145012500Y-108930000D03*
X144212500Y-108930000D03*
X143412500Y-108930000D03*
X142612500Y-108930000D03*
X141812500Y-108930000D03*
X141012500Y-108930000D03*
D19*
X139562500Y-110380000D03*
X139562500Y-111180000D03*
X139562500Y-111980000D03*
X139562500Y-112780000D03*
X139562500Y-113580000D03*
X139562500Y-114380000D03*
X139562500Y-115180000D03*
X139562500Y-115980000D03*
D20*
X141012500Y-117430000D03*
X141812500Y-117430000D03*
X142612500Y-117430000D03*
X143412500Y-117430000D03*
X144212500Y-117430000D03*
X145012500Y-117430000D03*
X145812500Y-117430000D03*
X146612500Y-117430000D03*
%TD*%
M02*
