%TF.GenerationSoftware,KiCad,Pcbnew,(6.0.0)*%
%TF.CreationDate,2022-01-26T18:23:26-07:00*%
%TF.ProjectId,PantryLights,50616e74-7279-44c6-9967-6874732e6b69,rev?*%
%TF.SameCoordinates,Original*%
%TF.FileFunction,Legend,Top*%
%TF.FilePolarity,Positive*%
%FSLAX46Y46*%
G04 Gerber Fmt 4.6, Leading zero omitted, Abs format (unit mm)*
G04 Created by KiCad (PCBNEW (6.0.0)) date 2022-01-26 18:23:26*
%MOMM*%
%LPD*%
G01*
G04 APERTURE LIST*
%ADD10C,0.304800*%
%ADD11C,0.150000*%
%ADD12C,0.120000*%
G04 APERTURE END LIST*
D10*
X156731788Y-88319428D02*
X157820360Y-88319428D01*
X158038074Y-88392000D01*
X158183217Y-88537142D01*
X158255788Y-88754857D01*
X158255788Y-88900000D01*
X158255788Y-86940571D02*
X157457502Y-86940571D01*
X157312360Y-87013142D01*
X157239788Y-87158285D01*
X157239788Y-87448571D01*
X157312360Y-87593714D01*
X158183217Y-86940571D02*
X158255788Y-87085714D01*
X158255788Y-87448571D01*
X158183217Y-87593714D01*
X158038074Y-87666285D01*
X157892931Y-87666285D01*
X157747788Y-87593714D01*
X157675217Y-87448571D01*
X157675217Y-87085714D01*
X157602645Y-86940571D01*
X157239788Y-86214857D02*
X158255788Y-86214857D01*
X157384931Y-86214857D02*
X157312360Y-86142285D01*
X157239788Y-85997142D01*
X157239788Y-85779428D01*
X157312360Y-85634285D01*
X157457502Y-85561714D01*
X158255788Y-85561714D01*
X156876931Y-83747428D02*
X156804360Y-83674857D01*
X156731788Y-83529714D01*
X156731788Y-83166857D01*
X156804360Y-83021714D01*
X156876931Y-82949142D01*
X157022074Y-82876571D01*
X157167217Y-82876571D01*
X157384931Y-82949142D01*
X158255788Y-83820000D01*
X158255788Y-82876571D01*
X156731788Y-81570285D02*
X156731788Y-81860571D01*
X156804360Y-82005714D01*
X156876931Y-82078285D01*
X157094645Y-82223428D01*
X157384931Y-82296000D01*
X157965502Y-82296000D01*
X158110645Y-82223428D01*
X158183217Y-82150857D01*
X158255788Y-82005714D01*
X158255788Y-81715428D01*
X158183217Y-81570285D01*
X158110645Y-81497714D01*
X157965502Y-81425142D01*
X157602645Y-81425142D01*
X157457502Y-81497714D01*
X157384931Y-81570285D01*
X157312360Y-81715428D01*
X157312360Y-82005714D01*
X157384931Y-82150857D01*
X157457502Y-82223428D01*
X157602645Y-82296000D01*
X158183217Y-80699428D02*
X158255788Y-80699428D01*
X158400931Y-80772000D01*
X158473502Y-80844571D01*
X156876931Y-78957714D02*
X156804360Y-78885142D01*
X156731788Y-78740000D01*
X156731788Y-78377142D01*
X156804360Y-78232000D01*
X156876931Y-78159428D01*
X157022074Y-78086857D01*
X157167217Y-78086857D01*
X157384931Y-78159428D01*
X158255788Y-79030285D01*
X158255788Y-78086857D01*
X156731788Y-77143428D02*
X156731788Y-76998285D01*
X156804360Y-76853142D01*
X156876931Y-76780571D01*
X157022074Y-76708000D01*
X157312360Y-76635428D01*
X157675217Y-76635428D01*
X157965502Y-76708000D01*
X158110645Y-76780571D01*
X158183217Y-76853142D01*
X158255788Y-76998285D01*
X158255788Y-77143428D01*
X158183217Y-77288571D01*
X158110645Y-77361142D01*
X157965502Y-77433714D01*
X157675217Y-77506285D01*
X157312360Y-77506285D01*
X157022074Y-77433714D01*
X156876931Y-77361142D01*
X156804360Y-77288571D01*
X156731788Y-77143428D01*
X156876931Y-76054857D02*
X156804360Y-75982285D01*
X156731788Y-75837142D01*
X156731788Y-75474285D01*
X156804360Y-75329142D01*
X156876931Y-75256571D01*
X157022074Y-75184000D01*
X157167217Y-75184000D01*
X157384931Y-75256571D01*
X158255788Y-76127428D01*
X158255788Y-75184000D01*
X156876931Y-74603428D02*
X156804360Y-74530857D01*
X156731788Y-74385714D01*
X156731788Y-74022857D01*
X156804360Y-73877714D01*
X156876931Y-73805142D01*
X157022074Y-73732571D01*
X157167217Y-73732571D01*
X157384931Y-73805142D01*
X158255788Y-74676000D01*
X158255788Y-73732571D01*
X160709428Y-89662000D02*
X159185428Y-89662000D01*
X159185428Y-89081428D01*
X159258000Y-88936285D01*
X159330571Y-88863714D01*
X159475714Y-88791142D01*
X159693428Y-88791142D01*
X159838571Y-88863714D01*
X159911142Y-88936285D01*
X159983714Y-89081428D01*
X159983714Y-89662000D01*
X160709428Y-87484857D02*
X159911142Y-87484857D01*
X159766000Y-87557428D01*
X159693428Y-87702571D01*
X159693428Y-87992857D01*
X159766000Y-88138000D01*
X160636857Y-87484857D02*
X160709428Y-87630000D01*
X160709428Y-87992857D01*
X160636857Y-88138000D01*
X160491714Y-88210571D01*
X160346571Y-88210571D01*
X160201428Y-88138000D01*
X160128857Y-87992857D01*
X160128857Y-87630000D01*
X160056285Y-87484857D01*
X159693428Y-86759142D02*
X160709428Y-86759142D01*
X159838571Y-86759142D02*
X159766000Y-86686571D01*
X159693428Y-86541428D01*
X159693428Y-86323714D01*
X159766000Y-86178571D01*
X159911142Y-86106000D01*
X160709428Y-86106000D01*
X159693428Y-85598000D02*
X159693428Y-85017428D01*
X159185428Y-85380285D02*
X160491714Y-85380285D01*
X160636857Y-85307714D01*
X160709428Y-85162571D01*
X160709428Y-85017428D01*
X160709428Y-84509428D02*
X159693428Y-84509428D01*
X159983714Y-84509428D02*
X159838571Y-84436857D01*
X159766000Y-84364285D01*
X159693428Y-84219142D01*
X159693428Y-84074000D01*
X159693428Y-83711142D02*
X160709428Y-83348285D01*
X159693428Y-82985428D02*
X160709428Y-83348285D01*
X161072285Y-83493428D01*
X161144857Y-83566000D01*
X161217428Y-83711142D01*
X160709428Y-80518000D02*
X160709428Y-81243714D01*
X159185428Y-81243714D01*
X160709428Y-80010000D02*
X159693428Y-80010000D01*
X159185428Y-80010000D02*
X159258000Y-80082571D01*
X159330571Y-80010000D01*
X159258000Y-79937428D01*
X159185428Y-80010000D01*
X159330571Y-80010000D01*
X159693428Y-78631142D02*
X160927142Y-78631142D01*
X161072285Y-78703714D01*
X161144857Y-78776285D01*
X161217428Y-78921428D01*
X161217428Y-79139142D01*
X161144857Y-79284285D01*
X160636857Y-78631142D02*
X160709428Y-78776285D01*
X160709428Y-79066571D01*
X160636857Y-79211714D01*
X160564285Y-79284285D01*
X160419142Y-79356857D01*
X159983714Y-79356857D01*
X159838571Y-79284285D01*
X159766000Y-79211714D01*
X159693428Y-79066571D01*
X159693428Y-78776285D01*
X159766000Y-78631142D01*
X160709428Y-77905428D02*
X159185428Y-77905428D01*
X160709428Y-77252285D02*
X159911142Y-77252285D01*
X159766000Y-77324857D01*
X159693428Y-77470000D01*
X159693428Y-77687714D01*
X159766000Y-77832857D01*
X159838571Y-77905428D01*
X159693428Y-76744285D02*
X159693428Y-76163714D01*
X159185428Y-76526571D02*
X160491714Y-76526571D01*
X160636857Y-76454000D01*
X160709428Y-76308857D01*
X160709428Y-76163714D01*
X160709428Y-75655714D02*
X159693428Y-75655714D01*
X159185428Y-75655714D02*
X159258000Y-75728285D01*
X159330571Y-75655714D01*
X159258000Y-75583142D01*
X159185428Y-75655714D01*
X159330571Y-75655714D01*
X159693428Y-74930000D02*
X160709428Y-74930000D01*
X159838571Y-74930000D02*
X159766000Y-74857428D01*
X159693428Y-74712285D01*
X159693428Y-74494571D01*
X159766000Y-74349428D01*
X159911142Y-74276857D01*
X160709428Y-74276857D01*
X159693428Y-72898000D02*
X160927142Y-72898000D01*
X161072285Y-72970571D01*
X161144857Y-73043142D01*
X161217428Y-73188285D01*
X161217428Y-73406000D01*
X161144857Y-73551142D01*
X160636857Y-72898000D02*
X160709428Y-73043142D01*
X160709428Y-73333428D01*
X160636857Y-73478571D01*
X160564285Y-73551142D01*
X160419142Y-73623714D01*
X159983714Y-73623714D01*
X159838571Y-73551142D01*
X159766000Y-73478571D01*
X159693428Y-73333428D01*
X159693428Y-73043142D01*
X159766000Y-72898000D01*
X163163068Y-83457142D02*
X162437354Y-83965142D01*
X163163068Y-84328000D02*
X161639068Y-84328000D01*
X161639068Y-83747428D01*
X161711640Y-83602285D01*
X161784211Y-83529714D01*
X161929354Y-83457142D01*
X162147068Y-83457142D01*
X162292211Y-83529714D01*
X162364782Y-83602285D01*
X162437354Y-83747428D01*
X162437354Y-84328000D01*
X162364782Y-82804000D02*
X162364782Y-82296000D01*
X163163068Y-82078285D02*
X163163068Y-82804000D01*
X161639068Y-82804000D01*
X161639068Y-82078285D01*
X161639068Y-81642857D02*
X163163068Y-81134857D01*
X161639068Y-80626857D01*
X163163068Y-78159428D02*
X163163068Y-79030285D01*
X163163068Y-78594857D02*
X161639068Y-78594857D01*
X161856782Y-78740000D01*
X162001925Y-78885142D01*
X162074497Y-79030285D01*
D11*
%TO.C,R11*%
X120642142Y-109037380D02*
X120308809Y-108561190D01*
X120070714Y-109037380D02*
X120070714Y-108037380D01*
X120451666Y-108037380D01*
X120546904Y-108085000D01*
X120594523Y-108132619D01*
X120642142Y-108227857D01*
X120642142Y-108370714D01*
X120594523Y-108465952D01*
X120546904Y-108513571D01*
X120451666Y-108561190D01*
X120070714Y-108561190D01*
X121594523Y-109037380D02*
X121023095Y-109037380D01*
X121308809Y-109037380D02*
X121308809Y-108037380D01*
X121213571Y-108180238D01*
X121118333Y-108275476D01*
X121023095Y-108323095D01*
X122546904Y-109037380D02*
X121975476Y-109037380D01*
X122261190Y-109037380D02*
X122261190Y-108037380D01*
X122165952Y-108180238D01*
X122070714Y-108275476D01*
X121975476Y-108323095D01*
%TO.C,C9*%
X152233333Y-116562142D02*
X152185714Y-116609761D01*
X152042857Y-116657380D01*
X151947619Y-116657380D01*
X151804761Y-116609761D01*
X151709523Y-116514523D01*
X151661904Y-116419285D01*
X151614285Y-116228809D01*
X151614285Y-116085952D01*
X151661904Y-115895476D01*
X151709523Y-115800238D01*
X151804761Y-115705000D01*
X151947619Y-115657380D01*
X152042857Y-115657380D01*
X152185714Y-115705000D01*
X152233333Y-115752619D01*
X152709523Y-116657380D02*
X152900000Y-116657380D01*
X152995238Y-116609761D01*
X153042857Y-116562142D01*
X153138095Y-116419285D01*
X153185714Y-116228809D01*
X153185714Y-115847857D01*
X153138095Y-115752619D01*
X153090476Y-115705000D01*
X152995238Y-115657380D01*
X152804761Y-115657380D01*
X152709523Y-115705000D01*
X152661904Y-115752619D01*
X152614285Y-115847857D01*
X152614285Y-116085952D01*
X152661904Y-116181190D01*
X152709523Y-116228809D01*
X152804761Y-116276428D01*
X152995238Y-116276428D01*
X153090476Y-116228809D01*
X153138095Y-116181190D01*
X153185714Y-116085952D01*
%TO.C,J5*%
X131741666Y-88577380D02*
X131741666Y-89291666D01*
X131694047Y-89434523D01*
X131598809Y-89529761D01*
X131455952Y-89577380D01*
X131360714Y-89577380D01*
X132694047Y-88577380D02*
X132217857Y-88577380D01*
X132170238Y-89053571D01*
X132217857Y-89005952D01*
X132313095Y-88958333D01*
X132551190Y-88958333D01*
X132646428Y-89005952D01*
X132694047Y-89053571D01*
X132741666Y-89148809D01*
X132741666Y-89386904D01*
X132694047Y-89482142D01*
X132646428Y-89529761D01*
X132551190Y-89577380D01*
X132313095Y-89577380D01*
X132217857Y-89529761D01*
X132170238Y-89482142D01*
%TO.C,SW3*%
X148526666Y-73624761D02*
X148669523Y-73672380D01*
X148907619Y-73672380D01*
X149002857Y-73624761D01*
X149050476Y-73577142D01*
X149098095Y-73481904D01*
X149098095Y-73386666D01*
X149050476Y-73291428D01*
X149002857Y-73243809D01*
X148907619Y-73196190D01*
X148717142Y-73148571D01*
X148621904Y-73100952D01*
X148574285Y-73053333D01*
X148526666Y-72958095D01*
X148526666Y-72862857D01*
X148574285Y-72767619D01*
X148621904Y-72720000D01*
X148717142Y-72672380D01*
X148955238Y-72672380D01*
X149098095Y-72720000D01*
X149431428Y-72672380D02*
X149669523Y-73672380D01*
X149860000Y-72958095D01*
X150050476Y-73672380D01*
X150288571Y-72672380D01*
X150574285Y-72672380D02*
X151193333Y-72672380D01*
X150860000Y-73053333D01*
X151002857Y-73053333D01*
X151098095Y-73100952D01*
X151145714Y-73148571D01*
X151193333Y-73243809D01*
X151193333Y-73481904D01*
X151145714Y-73577142D01*
X151098095Y-73624761D01*
X151002857Y-73672380D01*
X150717142Y-73672380D01*
X150621904Y-73624761D01*
X150574285Y-73577142D01*
%TO.C,SW2*%
X148676666Y-83784761D02*
X148819523Y-83832380D01*
X149057619Y-83832380D01*
X149152857Y-83784761D01*
X149200476Y-83737142D01*
X149248095Y-83641904D01*
X149248095Y-83546666D01*
X149200476Y-83451428D01*
X149152857Y-83403809D01*
X149057619Y-83356190D01*
X148867142Y-83308571D01*
X148771904Y-83260952D01*
X148724285Y-83213333D01*
X148676666Y-83118095D01*
X148676666Y-83022857D01*
X148724285Y-82927619D01*
X148771904Y-82880000D01*
X148867142Y-82832380D01*
X149105238Y-82832380D01*
X149248095Y-82880000D01*
X149581428Y-82832380D02*
X149819523Y-83832380D01*
X150010000Y-83118095D01*
X150200476Y-83832380D01*
X150438571Y-82832380D01*
X150771904Y-82927619D02*
X150819523Y-82880000D01*
X150914761Y-82832380D01*
X151152857Y-82832380D01*
X151248095Y-82880000D01*
X151295714Y-82927619D01*
X151343333Y-83022857D01*
X151343333Y-83118095D01*
X151295714Y-83260952D01*
X150724285Y-83832380D01*
X151343333Y-83832380D01*
%TO.C,SW1*%
X148676666Y-93944761D02*
X148819523Y-93992380D01*
X149057619Y-93992380D01*
X149152857Y-93944761D01*
X149200476Y-93897142D01*
X149248095Y-93801904D01*
X149248095Y-93706666D01*
X149200476Y-93611428D01*
X149152857Y-93563809D01*
X149057619Y-93516190D01*
X148867142Y-93468571D01*
X148771904Y-93420952D01*
X148724285Y-93373333D01*
X148676666Y-93278095D01*
X148676666Y-93182857D01*
X148724285Y-93087619D01*
X148771904Y-93040000D01*
X148867142Y-92992380D01*
X149105238Y-92992380D01*
X149248095Y-93040000D01*
X149581428Y-92992380D02*
X149819523Y-93992380D01*
X150010000Y-93278095D01*
X150200476Y-93992380D01*
X150438571Y-92992380D01*
X151343333Y-93992380D02*
X150771904Y-93992380D01*
X151057619Y-93992380D02*
X151057619Y-92992380D01*
X150962380Y-93135238D01*
X150867142Y-93230476D01*
X150771904Y-93278095D01*
%TO.C,C3*%
X108418333Y-99417142D02*
X108370714Y-99464761D01*
X108227857Y-99512380D01*
X108132619Y-99512380D01*
X107989761Y-99464761D01*
X107894523Y-99369523D01*
X107846904Y-99274285D01*
X107799285Y-99083809D01*
X107799285Y-98940952D01*
X107846904Y-98750476D01*
X107894523Y-98655238D01*
X107989761Y-98560000D01*
X108132619Y-98512380D01*
X108227857Y-98512380D01*
X108370714Y-98560000D01*
X108418333Y-98607619D01*
X108751666Y-98512380D02*
X109370714Y-98512380D01*
X109037380Y-98893333D01*
X109180238Y-98893333D01*
X109275476Y-98940952D01*
X109323095Y-98988571D01*
X109370714Y-99083809D01*
X109370714Y-99321904D01*
X109323095Y-99417142D01*
X109275476Y-99464761D01*
X109180238Y-99512380D01*
X108894523Y-99512380D01*
X108799285Y-99464761D01*
X108751666Y-99417142D01*
%TO.C,C2*%
X118653333Y-100847142D02*
X118605714Y-100894761D01*
X118462857Y-100942380D01*
X118367619Y-100942380D01*
X118224761Y-100894761D01*
X118129523Y-100799523D01*
X118081904Y-100704285D01*
X118034285Y-100513809D01*
X118034285Y-100370952D01*
X118081904Y-100180476D01*
X118129523Y-100085238D01*
X118224761Y-99990000D01*
X118367619Y-99942380D01*
X118462857Y-99942380D01*
X118605714Y-99990000D01*
X118653333Y-100037619D01*
X119034285Y-100037619D02*
X119081904Y-99990000D01*
X119177142Y-99942380D01*
X119415238Y-99942380D01*
X119510476Y-99990000D01*
X119558095Y-100037619D01*
X119605714Y-100132857D01*
X119605714Y-100228095D01*
X119558095Y-100370952D01*
X118986666Y-100942380D01*
X119605714Y-100942380D01*
%TO.C,TP7*%
X123833095Y-108962380D02*
X124404523Y-108962380D01*
X124118809Y-109962380D02*
X124118809Y-108962380D01*
X124737857Y-109962380D02*
X124737857Y-108962380D01*
X125118809Y-108962380D01*
X125214047Y-109010000D01*
X125261666Y-109057619D01*
X125309285Y-109152857D01*
X125309285Y-109295714D01*
X125261666Y-109390952D01*
X125214047Y-109438571D01*
X125118809Y-109486190D01*
X124737857Y-109486190D01*
X125642619Y-108962380D02*
X126309285Y-108962380D01*
X125880714Y-109962380D01*
%TO.C,TP6*%
X111133095Y-108962380D02*
X111704523Y-108962380D01*
X111418809Y-109962380D02*
X111418809Y-108962380D01*
X112037857Y-109962380D02*
X112037857Y-108962380D01*
X112418809Y-108962380D01*
X112514047Y-109010000D01*
X112561666Y-109057619D01*
X112609285Y-109152857D01*
X112609285Y-109295714D01*
X112561666Y-109390952D01*
X112514047Y-109438571D01*
X112418809Y-109486190D01*
X112037857Y-109486190D01*
X113466428Y-108962380D02*
X113275952Y-108962380D01*
X113180714Y-109010000D01*
X113133095Y-109057619D01*
X113037857Y-109200476D01*
X112990238Y-109390952D01*
X112990238Y-109771904D01*
X113037857Y-109867142D01*
X113085476Y-109914761D01*
X113180714Y-109962380D01*
X113371190Y-109962380D01*
X113466428Y-109914761D01*
X113514047Y-109867142D01*
X113561666Y-109771904D01*
X113561666Y-109533809D01*
X113514047Y-109438571D01*
X113466428Y-109390952D01*
X113371190Y-109343333D01*
X113180714Y-109343333D01*
X113085476Y-109390952D01*
X113037857Y-109438571D01*
X112990238Y-109533809D01*
%TO.C,TP5*%
X174708095Y-105464380D02*
X175279523Y-105464380D01*
X174993809Y-106464380D02*
X174993809Y-105464380D01*
X175612857Y-106464380D02*
X175612857Y-105464380D01*
X175993809Y-105464380D01*
X176089047Y-105512000D01*
X176136666Y-105559619D01*
X176184285Y-105654857D01*
X176184285Y-105797714D01*
X176136666Y-105892952D01*
X176089047Y-105940571D01*
X175993809Y-105988190D01*
X175612857Y-105988190D01*
X177089047Y-105464380D02*
X176612857Y-105464380D01*
X176565238Y-105940571D01*
X176612857Y-105892952D01*
X176708095Y-105845333D01*
X176946190Y-105845333D01*
X177041428Y-105892952D01*
X177089047Y-105940571D01*
X177136666Y-106035809D01*
X177136666Y-106273904D01*
X177089047Y-106369142D01*
X177041428Y-106416761D01*
X176946190Y-106464380D01*
X176708095Y-106464380D01*
X176612857Y-106416761D01*
X176565238Y-106369142D01*
%TO.C,TP4*%
X155583095Y-110577380D02*
X156154523Y-110577380D01*
X155868809Y-111577380D02*
X155868809Y-110577380D01*
X156487857Y-111577380D02*
X156487857Y-110577380D01*
X156868809Y-110577380D01*
X156964047Y-110625000D01*
X157011666Y-110672619D01*
X157059285Y-110767857D01*
X157059285Y-110910714D01*
X157011666Y-111005952D01*
X156964047Y-111053571D01*
X156868809Y-111101190D01*
X156487857Y-111101190D01*
X157916428Y-110910714D02*
X157916428Y-111577380D01*
X157678333Y-110529761D02*
X157440238Y-111244047D01*
X158059285Y-111244047D01*
%TO.C,TP3*%
X123833095Y-99782380D02*
X124404523Y-99782380D01*
X124118809Y-100782380D02*
X124118809Y-99782380D01*
X124737857Y-100782380D02*
X124737857Y-99782380D01*
X125118809Y-99782380D01*
X125214047Y-99830000D01*
X125261666Y-99877619D01*
X125309285Y-99972857D01*
X125309285Y-100115714D01*
X125261666Y-100210952D01*
X125214047Y-100258571D01*
X125118809Y-100306190D01*
X124737857Y-100306190D01*
X125642619Y-99782380D02*
X126261666Y-99782380D01*
X125928333Y-100163333D01*
X126071190Y-100163333D01*
X126166428Y-100210952D01*
X126214047Y-100258571D01*
X126261666Y-100353809D01*
X126261666Y-100591904D01*
X126214047Y-100687142D01*
X126166428Y-100734761D01*
X126071190Y-100782380D01*
X125785476Y-100782380D01*
X125690238Y-100734761D01*
X125642619Y-100687142D01*
%TO.C,TP2*%
X109863095Y-101052380D02*
X110434523Y-101052380D01*
X110148809Y-102052380D02*
X110148809Y-101052380D01*
X110767857Y-102052380D02*
X110767857Y-101052380D01*
X111148809Y-101052380D01*
X111244047Y-101100000D01*
X111291666Y-101147619D01*
X111339285Y-101242857D01*
X111339285Y-101385714D01*
X111291666Y-101480952D01*
X111244047Y-101528571D01*
X111148809Y-101576190D01*
X110767857Y-101576190D01*
X111720238Y-101147619D02*
X111767857Y-101100000D01*
X111863095Y-101052380D01*
X112101190Y-101052380D01*
X112196428Y-101100000D01*
X112244047Y-101147619D01*
X112291666Y-101242857D01*
X112291666Y-101338095D01*
X112244047Y-101480952D01*
X111672619Y-102052380D01*
X112291666Y-102052380D01*
%TO.C,TP1*%
X121368095Y-71174380D02*
X121939523Y-71174380D01*
X121653809Y-72174380D02*
X121653809Y-71174380D01*
X122272857Y-72174380D02*
X122272857Y-71174380D01*
X122653809Y-71174380D01*
X122749047Y-71222000D01*
X122796666Y-71269619D01*
X122844285Y-71364857D01*
X122844285Y-71507714D01*
X122796666Y-71602952D01*
X122749047Y-71650571D01*
X122653809Y-71698190D01*
X122272857Y-71698190D01*
X123796666Y-72174380D02*
X123225238Y-72174380D01*
X123510952Y-72174380D02*
X123510952Y-71174380D01*
X123415714Y-71317238D01*
X123320476Y-71412476D01*
X123225238Y-71460095D01*
%TO.C,R2*%
X163028333Y-88404604D02*
X162695000Y-87928414D01*
X162456904Y-88404604D02*
X162456904Y-87404604D01*
X162837857Y-87404604D01*
X162933095Y-87452224D01*
X162980714Y-87499843D01*
X163028333Y-87595081D01*
X163028333Y-87737938D01*
X162980714Y-87833176D01*
X162933095Y-87880795D01*
X162837857Y-87928414D01*
X162456904Y-87928414D01*
X163409285Y-87499843D02*
X163456904Y-87452224D01*
X163552142Y-87404604D01*
X163790238Y-87404604D01*
X163885476Y-87452224D01*
X163933095Y-87499843D01*
X163980714Y-87595081D01*
X163980714Y-87690319D01*
X163933095Y-87833176D01*
X163361666Y-88404604D01*
X163980714Y-88404604D01*
%TO.C,R1*%
X163028333Y-75739880D02*
X162695000Y-75263690D01*
X162456904Y-75739880D02*
X162456904Y-74739880D01*
X162837857Y-74739880D01*
X162933095Y-74787500D01*
X162980714Y-74835119D01*
X163028333Y-74930357D01*
X163028333Y-75073214D01*
X162980714Y-75168452D01*
X162933095Y-75216071D01*
X162837857Y-75263690D01*
X162456904Y-75263690D01*
X163980714Y-75739880D02*
X163409285Y-75739880D01*
X163695000Y-75739880D02*
X163695000Y-74739880D01*
X163599761Y-74882738D01*
X163504523Y-74977976D01*
X163409285Y-75025595D01*
%TO.C,J4*%
X168016666Y-110112380D02*
X168016666Y-110826666D01*
X167969047Y-110969523D01*
X167873809Y-111064761D01*
X167730952Y-111112380D01*
X167635714Y-111112380D01*
X168921428Y-110445714D02*
X168921428Y-111112380D01*
X168683333Y-110064761D02*
X168445238Y-110779047D01*
X169064285Y-110779047D01*
%TO.C,J3*%
X119756672Y-110112390D02*
X119756672Y-110826676D01*
X119709053Y-110969533D01*
X119613815Y-111064771D01*
X119470958Y-111112390D01*
X119375720Y-111112390D01*
X120137625Y-110112390D02*
X120756672Y-110112390D01*
X120423339Y-110493343D01*
X120566196Y-110493343D01*
X120661434Y-110540962D01*
X120709053Y-110588581D01*
X120756672Y-110683819D01*
X120756672Y-110921914D01*
X120709053Y-111017152D01*
X120661434Y-111064771D01*
X120566196Y-111112390D01*
X120280482Y-111112390D01*
X120185244Y-111064771D01*
X120137625Y-111017152D01*
%TO.C,J2*%
X172386666Y-92162380D02*
X172386666Y-92876666D01*
X172339047Y-93019523D01*
X172243809Y-93114761D01*
X172100952Y-93162380D01*
X172005714Y-93162380D01*
X172815238Y-92257619D02*
X172862857Y-92210000D01*
X172958095Y-92162380D01*
X173196190Y-92162380D01*
X173291428Y-92210000D01*
X173339047Y-92257619D01*
X173386666Y-92352857D01*
X173386666Y-92448095D01*
X173339047Y-92590952D01*
X172767619Y-93162380D01*
X173386666Y-93162380D01*
%TO.C,J1*%
X111936666Y-77212380D02*
X111936666Y-77926666D01*
X111889047Y-78069523D01*
X111793809Y-78164761D01*
X111650952Y-78212380D01*
X111555714Y-78212380D01*
X112936666Y-78212380D02*
X112365238Y-78212380D01*
X112650952Y-78212380D02*
X112650952Y-77212380D01*
X112555714Y-77355238D01*
X112460476Y-77450476D01*
X112365238Y-77498095D01*
%TO.C,Y1*%
X162893809Y-97761190D02*
X162893809Y-98237380D01*
X162560476Y-97237380D02*
X162893809Y-97761190D01*
X163227142Y-97237380D01*
X164084285Y-98237380D02*
X163512857Y-98237380D01*
X163798571Y-98237380D02*
X163798571Y-97237380D01*
X163703333Y-97380238D01*
X163608095Y-97475476D01*
X163512857Y-97523095D01*
%TO.C,U2*%
X114248095Y-98337380D02*
X114248095Y-99146904D01*
X114295714Y-99242142D01*
X114343333Y-99289761D01*
X114438571Y-99337380D01*
X114629047Y-99337380D01*
X114724285Y-99289761D01*
X114771904Y-99242142D01*
X114819523Y-99146904D01*
X114819523Y-98337380D01*
X115248095Y-98432619D02*
X115295714Y-98385000D01*
X115390952Y-98337380D01*
X115629047Y-98337380D01*
X115724285Y-98385000D01*
X115771904Y-98432619D01*
X115819523Y-98527857D01*
X115819523Y-98623095D01*
X115771904Y-98765952D01*
X115200476Y-99337380D01*
X115819523Y-99337380D01*
%TO.C,SW4*%
X174076666Y-95904761D02*
X174219523Y-95952380D01*
X174457619Y-95952380D01*
X174552857Y-95904761D01*
X174600476Y-95857142D01*
X174648095Y-95761904D01*
X174648095Y-95666666D01*
X174600476Y-95571428D01*
X174552857Y-95523809D01*
X174457619Y-95476190D01*
X174267142Y-95428571D01*
X174171904Y-95380952D01*
X174124285Y-95333333D01*
X174076666Y-95238095D01*
X174076666Y-95142857D01*
X174124285Y-95047619D01*
X174171904Y-95000000D01*
X174267142Y-94952380D01*
X174505238Y-94952380D01*
X174648095Y-95000000D01*
X174981428Y-94952380D02*
X175219523Y-95952380D01*
X175410000Y-95238095D01*
X175600476Y-95952380D01*
X175838571Y-94952380D01*
X176648095Y-95285714D02*
X176648095Y-95952380D01*
X176410000Y-94904761D02*
X176171904Y-95619047D01*
X176790952Y-95619047D01*
%TO.C,R6*%
X162393333Y-106497380D02*
X162060000Y-106021190D01*
X161821904Y-106497380D02*
X161821904Y-105497380D01*
X162202857Y-105497380D01*
X162298095Y-105545000D01*
X162345714Y-105592619D01*
X162393333Y-105687857D01*
X162393333Y-105830714D01*
X162345714Y-105925952D01*
X162298095Y-105973571D01*
X162202857Y-106021190D01*
X161821904Y-106021190D01*
X163250476Y-105497380D02*
X163060000Y-105497380D01*
X162964761Y-105545000D01*
X162917142Y-105592619D01*
X162821904Y-105735476D01*
X162774285Y-105925952D01*
X162774285Y-106306904D01*
X162821904Y-106402142D01*
X162869523Y-106449761D01*
X162964761Y-106497380D01*
X163155238Y-106497380D01*
X163250476Y-106449761D01*
X163298095Y-106402142D01*
X163345714Y-106306904D01*
X163345714Y-106068809D01*
X163298095Y-105973571D01*
X163250476Y-105925952D01*
X163155238Y-105878333D01*
X162964761Y-105878333D01*
X162869523Y-105925952D01*
X162821904Y-105973571D01*
X162774285Y-106068809D01*
%TO.C,R5*%
X170648333Y-105862380D02*
X170315000Y-105386190D01*
X170076904Y-105862380D02*
X170076904Y-104862380D01*
X170457857Y-104862380D01*
X170553095Y-104910000D01*
X170600714Y-104957619D01*
X170648333Y-105052857D01*
X170648333Y-105195714D01*
X170600714Y-105290952D01*
X170553095Y-105338571D01*
X170457857Y-105386190D01*
X170076904Y-105386190D01*
X171553095Y-104862380D02*
X171076904Y-104862380D01*
X171029285Y-105338571D01*
X171076904Y-105290952D01*
X171172142Y-105243333D01*
X171410238Y-105243333D01*
X171505476Y-105290952D01*
X171553095Y-105338571D01*
X171600714Y-105433809D01*
X171600714Y-105671904D01*
X171553095Y-105767142D01*
X171505476Y-105814761D01*
X171410238Y-105862380D01*
X171172142Y-105862380D01*
X171076904Y-105814761D01*
X171029285Y-105767142D01*
%TO.C,R10*%
X137789200Y-95877038D02*
X137455867Y-95400848D01*
X137217772Y-95877038D02*
X137217772Y-94877038D01*
X137598724Y-94877038D01*
X137693962Y-94924658D01*
X137741581Y-94972277D01*
X137789200Y-95067515D01*
X137789200Y-95210372D01*
X137741581Y-95305610D01*
X137693962Y-95353229D01*
X137598724Y-95400848D01*
X137217772Y-95400848D01*
X138741581Y-95877038D02*
X138170153Y-95877038D01*
X138455867Y-95877038D02*
X138455867Y-94877038D01*
X138360629Y-95019896D01*
X138265391Y-95115134D01*
X138170153Y-95162753D01*
X139360629Y-94877038D02*
X139455867Y-94877038D01*
X139551105Y-94924658D01*
X139598724Y-94972277D01*
X139646343Y-95067515D01*
X139693962Y-95257991D01*
X139693962Y-95496086D01*
X139646343Y-95686562D01*
X139598724Y-95781800D01*
X139551105Y-95829419D01*
X139455867Y-95877038D01*
X139360629Y-95877038D01*
X139265391Y-95829419D01*
X139217772Y-95781800D01*
X139170153Y-95686562D01*
X139122534Y-95496086D01*
X139122534Y-95257991D01*
X139170153Y-95067515D01*
X139217772Y-94972277D01*
X139265391Y-94924658D01*
X139360629Y-94877038D01*
%TO.C,R9*%
X138263333Y-89357650D02*
X137930000Y-88881460D01*
X137691904Y-89357650D02*
X137691904Y-88357650D01*
X138072857Y-88357650D01*
X138168095Y-88405270D01*
X138215714Y-88452889D01*
X138263333Y-88548127D01*
X138263333Y-88690984D01*
X138215714Y-88786222D01*
X138168095Y-88833841D01*
X138072857Y-88881460D01*
X137691904Y-88881460D01*
X138739523Y-89357650D02*
X138930000Y-89357650D01*
X139025238Y-89310031D01*
X139072857Y-89262412D01*
X139168095Y-89119555D01*
X139215714Y-88929079D01*
X139215714Y-88548127D01*
X139168095Y-88452889D01*
X139120476Y-88405270D01*
X139025238Y-88357650D01*
X138834761Y-88357650D01*
X138739523Y-88405270D01*
X138691904Y-88452889D01*
X138644285Y-88548127D01*
X138644285Y-88786222D01*
X138691904Y-88881460D01*
X138739523Y-88929079D01*
X138834761Y-88976698D01*
X139025238Y-88976698D01*
X139120476Y-88929079D01*
X139168095Y-88881460D01*
X139215714Y-88786222D01*
%TO.C,R8*%
X138290878Y-82003125D02*
X137957545Y-81526935D01*
X137719449Y-82003125D02*
X137719449Y-81003125D01*
X138100402Y-81003125D01*
X138195640Y-81050745D01*
X138243259Y-81098364D01*
X138290878Y-81193602D01*
X138290878Y-81336459D01*
X138243259Y-81431697D01*
X138195640Y-81479316D01*
X138100402Y-81526935D01*
X137719449Y-81526935D01*
X138862306Y-81431697D02*
X138767068Y-81384078D01*
X138719449Y-81336459D01*
X138671830Y-81241221D01*
X138671830Y-81193602D01*
X138719449Y-81098364D01*
X138767068Y-81050745D01*
X138862306Y-81003125D01*
X139052783Y-81003125D01*
X139148021Y-81050745D01*
X139195640Y-81098364D01*
X139243259Y-81193602D01*
X139243259Y-81241221D01*
X139195640Y-81336459D01*
X139148021Y-81384078D01*
X139052783Y-81431697D01*
X138862306Y-81431697D01*
X138767068Y-81479316D01*
X138719449Y-81526935D01*
X138671830Y-81622173D01*
X138671830Y-81812649D01*
X138719449Y-81907887D01*
X138767068Y-81955506D01*
X138862306Y-82003125D01*
X139052783Y-82003125D01*
X139148021Y-81955506D01*
X139195640Y-81907887D01*
X139243259Y-81812649D01*
X139243259Y-81622173D01*
X139195640Y-81526935D01*
X139148021Y-81479316D01*
X139052783Y-81431697D01*
%TO.C,R7*%
X124645833Y-98112380D02*
X124312500Y-97636190D01*
X124074404Y-98112380D02*
X124074404Y-97112380D01*
X124455357Y-97112380D01*
X124550595Y-97160000D01*
X124598214Y-97207619D01*
X124645833Y-97302857D01*
X124645833Y-97445714D01*
X124598214Y-97540952D01*
X124550595Y-97588571D01*
X124455357Y-97636190D01*
X124074404Y-97636190D01*
X124979166Y-97112380D02*
X125645833Y-97112380D01*
X125217261Y-98112380D01*
%TO.C,R4*%
X153503333Y-119832380D02*
X153170000Y-119356190D01*
X152931904Y-119832380D02*
X152931904Y-118832380D01*
X153312857Y-118832380D01*
X153408095Y-118880000D01*
X153455714Y-118927619D01*
X153503333Y-119022857D01*
X153503333Y-119165714D01*
X153455714Y-119260952D01*
X153408095Y-119308571D01*
X153312857Y-119356190D01*
X152931904Y-119356190D01*
X154360476Y-119165714D02*
X154360476Y-119832380D01*
X154122380Y-118784761D02*
X153884285Y-119499047D01*
X154503333Y-119499047D01*
%TO.C,R3*%
X134250833Y-72392380D02*
X133917500Y-71916190D01*
X133679404Y-72392380D02*
X133679404Y-71392380D01*
X134060357Y-71392380D01*
X134155595Y-71440000D01*
X134203214Y-71487619D01*
X134250833Y-71582857D01*
X134250833Y-71725714D01*
X134203214Y-71820952D01*
X134155595Y-71868571D01*
X134060357Y-71916190D01*
X133679404Y-71916190D01*
X134584166Y-71392380D02*
X135203214Y-71392380D01*
X134869880Y-71773333D01*
X135012738Y-71773333D01*
X135107976Y-71820952D01*
X135155595Y-71868571D01*
X135203214Y-71963809D01*
X135203214Y-72201904D01*
X135155595Y-72297142D01*
X135107976Y-72344761D01*
X135012738Y-72392380D01*
X134727023Y-72392380D01*
X134631785Y-72344761D01*
X134584166Y-72297142D01*
%TO.C,D5*%
X124431904Y-93032380D02*
X124431904Y-92032380D01*
X124670000Y-92032380D01*
X124812857Y-92080000D01*
X124908095Y-92175238D01*
X124955714Y-92270476D01*
X125003333Y-92460952D01*
X125003333Y-92603809D01*
X124955714Y-92794285D01*
X124908095Y-92889523D01*
X124812857Y-92984761D01*
X124670000Y-93032380D01*
X124431904Y-93032380D01*
X125908095Y-92032380D02*
X125431904Y-92032380D01*
X125384285Y-92508571D01*
X125431904Y-92460952D01*
X125527142Y-92413333D01*
X125765238Y-92413333D01*
X125860476Y-92460952D01*
X125908095Y-92508571D01*
X125955714Y-92603809D01*
X125955714Y-92841904D01*
X125908095Y-92937142D01*
X125860476Y-92984761D01*
X125765238Y-93032380D01*
X125527142Y-93032380D01*
X125431904Y-92984761D01*
X125384285Y-92937142D01*
%TO.C,D4*%
X137691904Y-78892380D02*
X137691904Y-77892380D01*
X137930000Y-77892380D01*
X138072857Y-77940000D01*
X138168095Y-78035238D01*
X138215714Y-78130476D01*
X138263333Y-78320952D01*
X138263333Y-78463809D01*
X138215714Y-78654285D01*
X138168095Y-78749523D01*
X138072857Y-78844761D01*
X137930000Y-78892380D01*
X137691904Y-78892380D01*
X139120476Y-78225714D02*
X139120476Y-78892380D01*
X138882380Y-77844761D02*
X138644285Y-78559047D01*
X139263333Y-78559047D01*
%TO.C,D3*%
X137691904Y-86362380D02*
X137691904Y-85362380D01*
X137930000Y-85362380D01*
X138072857Y-85410000D01*
X138168095Y-85505238D01*
X138215714Y-85600476D01*
X138263333Y-85790952D01*
X138263333Y-85933809D01*
X138215714Y-86124285D01*
X138168095Y-86219523D01*
X138072857Y-86314761D01*
X137930000Y-86362380D01*
X137691904Y-86362380D01*
X138596666Y-85362380D02*
X139215714Y-85362380D01*
X138882380Y-85743333D01*
X139025238Y-85743333D01*
X139120476Y-85790952D01*
X139168095Y-85838571D01*
X139215714Y-85933809D01*
X139215714Y-86171904D01*
X139168095Y-86267142D01*
X139120476Y-86314761D01*
X139025238Y-86362380D01*
X138739523Y-86362380D01*
X138644285Y-86314761D01*
X138596666Y-86267142D01*
%TO.C,D2*%
X138131904Y-92872380D02*
X138131904Y-91872380D01*
X138370000Y-91872380D01*
X138512857Y-91920000D01*
X138608095Y-92015238D01*
X138655714Y-92110476D01*
X138703333Y-92300952D01*
X138703333Y-92443809D01*
X138655714Y-92634285D01*
X138608095Y-92729523D01*
X138512857Y-92824761D01*
X138370000Y-92872380D01*
X138131904Y-92872380D01*
X139084285Y-91967619D02*
X139131904Y-91920000D01*
X139227142Y-91872380D01*
X139465238Y-91872380D01*
X139560476Y-91920000D01*
X139608095Y-91967619D01*
X139655714Y-92062857D01*
X139655714Y-92158095D01*
X139608095Y-92300952D01*
X139036666Y-92872380D01*
X139655714Y-92872380D01*
%TO.C,D1*%
X126576904Y-72207380D02*
X126576904Y-71207380D01*
X126815000Y-71207380D01*
X126957857Y-71255000D01*
X127053095Y-71350238D01*
X127100714Y-71445476D01*
X127148333Y-71635952D01*
X127148333Y-71778809D01*
X127100714Y-71969285D01*
X127053095Y-72064523D01*
X126957857Y-72159761D01*
X126815000Y-72207380D01*
X126576904Y-72207380D01*
X128100714Y-72207380D02*
X127529285Y-72207380D01*
X127815000Y-72207380D02*
X127815000Y-71207380D01*
X127719761Y-71350238D01*
X127624523Y-71445476D01*
X127529285Y-71493095D01*
%TO.C,C5*%
X150403333Y-105317142D02*
X150355714Y-105364761D01*
X150212857Y-105412380D01*
X150117619Y-105412380D01*
X149974761Y-105364761D01*
X149879523Y-105269523D01*
X149831904Y-105174285D01*
X149784285Y-104983809D01*
X149784285Y-104840952D01*
X149831904Y-104650476D01*
X149879523Y-104555238D01*
X149974761Y-104460000D01*
X150117619Y-104412380D01*
X150212857Y-104412380D01*
X150355714Y-104460000D01*
X150403333Y-104507619D01*
X151308095Y-104412380D02*
X150831904Y-104412380D01*
X150784285Y-104888571D01*
X150831904Y-104840952D01*
X150927142Y-104793333D01*
X151165238Y-104793333D01*
X151260476Y-104840952D01*
X151308095Y-104888571D01*
X151355714Y-104983809D01*
X151355714Y-105221904D01*
X151308095Y-105317142D01*
X151260476Y-105364761D01*
X151165238Y-105412380D01*
X150927142Y-105412380D01*
X150831904Y-105364761D01*
X150784285Y-105317142D01*
%TO.C,C4*%
X156043333Y-105132142D02*
X155995714Y-105179761D01*
X155852857Y-105227380D01*
X155757619Y-105227380D01*
X155614761Y-105179761D01*
X155519523Y-105084523D01*
X155471904Y-104989285D01*
X155424285Y-104798809D01*
X155424285Y-104655952D01*
X155471904Y-104465476D01*
X155519523Y-104370238D01*
X155614761Y-104275000D01*
X155757619Y-104227380D01*
X155852857Y-104227380D01*
X155995714Y-104275000D01*
X156043333Y-104322619D01*
X156900476Y-104560714D02*
X156900476Y-105227380D01*
X156662380Y-104179761D02*
X156424285Y-104894047D01*
X157043333Y-104894047D01*
%TO.C,C1*%
X131278333Y-81637142D02*
X131230714Y-81684761D01*
X131087857Y-81732380D01*
X130992619Y-81732380D01*
X130849761Y-81684761D01*
X130754523Y-81589523D01*
X130706904Y-81494285D01*
X130659285Y-81303809D01*
X130659285Y-81160952D01*
X130706904Y-80970476D01*
X130754523Y-80875238D01*
X130849761Y-80780000D01*
X130992619Y-80732380D01*
X131087857Y-80732380D01*
X131230714Y-80780000D01*
X131278333Y-80827619D01*
X132230714Y-81732380D02*
X131659285Y-81732380D01*
X131945000Y-81732380D02*
X131945000Y-80732380D01*
X131849761Y-80875238D01*
X131754523Y-80970476D01*
X131659285Y-81018095D01*
%TO.C,C8*%
X132548333Y-115927142D02*
X132500714Y-115974761D01*
X132357857Y-116022380D01*
X132262619Y-116022380D01*
X132119761Y-115974761D01*
X132024523Y-115879523D01*
X131976904Y-115784285D01*
X131929285Y-115593809D01*
X131929285Y-115450952D01*
X131976904Y-115260476D01*
X132024523Y-115165238D01*
X132119761Y-115070000D01*
X132262619Y-115022380D01*
X132357857Y-115022380D01*
X132500714Y-115070000D01*
X132548333Y-115117619D01*
X133119761Y-115450952D02*
X133024523Y-115403333D01*
X132976904Y-115355714D01*
X132929285Y-115260476D01*
X132929285Y-115212857D01*
X132976904Y-115117619D01*
X133024523Y-115070000D01*
X133119761Y-115022380D01*
X133310238Y-115022380D01*
X133405476Y-115070000D01*
X133453095Y-115117619D01*
X133500714Y-115212857D01*
X133500714Y-115260476D01*
X133453095Y-115355714D01*
X133405476Y-115403333D01*
X133310238Y-115450952D01*
X133119761Y-115450952D01*
X133024523Y-115498571D01*
X132976904Y-115546190D01*
X132929285Y-115641428D01*
X132929285Y-115831904D01*
X132976904Y-115927142D01*
X133024523Y-115974761D01*
X133119761Y-116022380D01*
X133310238Y-116022380D01*
X133405476Y-115974761D01*
X133453095Y-115927142D01*
X133500714Y-115831904D01*
X133500714Y-115641428D01*
X133453095Y-115546190D01*
X133405476Y-115498571D01*
X133310238Y-115450952D01*
%TO.C,C7*%
X132548333Y-110212142D02*
X132500714Y-110259761D01*
X132357857Y-110307380D01*
X132262619Y-110307380D01*
X132119761Y-110259761D01*
X132024523Y-110164523D01*
X131976904Y-110069285D01*
X131929285Y-109878809D01*
X131929285Y-109735952D01*
X131976904Y-109545476D01*
X132024523Y-109450238D01*
X132119761Y-109355000D01*
X132262619Y-109307380D01*
X132357857Y-109307380D01*
X132500714Y-109355000D01*
X132548333Y-109402619D01*
X132881666Y-109307380D02*
X133548333Y-109307380D01*
X133119761Y-110307380D01*
%TO.C,C6*%
X153398333Y-110397142D02*
X153350714Y-110444761D01*
X153207857Y-110492380D01*
X153112619Y-110492380D01*
X152969761Y-110444761D01*
X152874523Y-110349523D01*
X152826904Y-110254285D01*
X152779285Y-110063809D01*
X152779285Y-109920952D01*
X152826904Y-109730476D01*
X152874523Y-109635238D01*
X152969761Y-109540000D01*
X153112619Y-109492380D01*
X153207857Y-109492380D01*
X153350714Y-109540000D01*
X153398333Y-109587619D01*
X154255476Y-109492380D02*
X154065000Y-109492380D01*
X153969761Y-109540000D01*
X153922142Y-109587619D01*
X153826904Y-109730476D01*
X153779285Y-109920952D01*
X153779285Y-110301904D01*
X153826904Y-110397142D01*
X153874523Y-110444761D01*
X153969761Y-110492380D01*
X154160238Y-110492380D01*
X154255476Y-110444761D01*
X154303095Y-110397142D01*
X154350714Y-110301904D01*
X154350714Y-110063809D01*
X154303095Y-109968571D01*
X154255476Y-109920952D01*
X154160238Y-109873333D01*
X153969761Y-109873333D01*
X153874523Y-109920952D01*
X153826904Y-109968571D01*
X153779285Y-110063809D01*
%TO.C,U1*%
X142748095Y-105497380D02*
X142748095Y-106306904D01*
X142795714Y-106402142D01*
X142843333Y-106449761D01*
X142938571Y-106497380D01*
X143129047Y-106497380D01*
X143224285Y-106449761D01*
X143271904Y-106402142D01*
X143319523Y-106306904D01*
X143319523Y-105497380D01*
X144319523Y-106497380D02*
X143748095Y-106497380D01*
X144033809Y-106497380D02*
X144033809Y-105497380D01*
X143938571Y-105640238D01*
X143843333Y-105735476D01*
X143748095Y-105783095D01*
%TO.C,Q2*%
X127614761Y-102667619D02*
X127519523Y-102620000D01*
X127424285Y-102524761D01*
X127281428Y-102381904D01*
X127186190Y-102334285D01*
X127090952Y-102334285D01*
X127138571Y-102572380D02*
X127043333Y-102524761D01*
X126948095Y-102429523D01*
X126900476Y-102239047D01*
X126900476Y-101905714D01*
X126948095Y-101715238D01*
X127043333Y-101620000D01*
X127138571Y-101572380D01*
X127329047Y-101572380D01*
X127424285Y-101620000D01*
X127519523Y-101715238D01*
X127567142Y-101905714D01*
X127567142Y-102239047D01*
X127519523Y-102429523D01*
X127424285Y-102524761D01*
X127329047Y-102572380D01*
X127138571Y-102572380D01*
X127948095Y-101667619D02*
X127995714Y-101620000D01*
X128090952Y-101572380D01*
X128329047Y-101572380D01*
X128424285Y-101620000D01*
X128471904Y-101667619D01*
X128519523Y-101762857D01*
X128519523Y-101858095D01*
X128471904Y-102000952D01*
X127900476Y-102572380D01*
X128519523Y-102572380D01*
%TO.C,Q1*%
X114914761Y-102667619D02*
X114819523Y-102620000D01*
X114724285Y-102524761D01*
X114581428Y-102381904D01*
X114486190Y-102334285D01*
X114390952Y-102334285D01*
X114438571Y-102572380D02*
X114343333Y-102524761D01*
X114248095Y-102429523D01*
X114200476Y-102239047D01*
X114200476Y-101905714D01*
X114248095Y-101715238D01*
X114343333Y-101620000D01*
X114438571Y-101572380D01*
X114629047Y-101572380D01*
X114724285Y-101620000D01*
X114819523Y-101715238D01*
X114867142Y-101905714D01*
X114867142Y-102239047D01*
X114819523Y-102429523D01*
X114724285Y-102524761D01*
X114629047Y-102572380D01*
X114438571Y-102572380D01*
X115819523Y-102572380D02*
X115248095Y-102572380D01*
X115533809Y-102572380D02*
X115533809Y-101572380D01*
X115438571Y-101715238D01*
X115343333Y-101810476D01*
X115248095Y-101858095D01*
D12*
%TO.C,R11*%
X121807500Y-103885276D02*
X121807500Y-104394724D01*
X120762500Y-103885276D02*
X120762500Y-104394724D01*
%TO.C,C9*%
X153816267Y-114810000D02*
X153523733Y-114810000D01*
X153816267Y-113790000D02*
X153523733Y-113790000D01*
%TO.C,J5*%
X129475000Y-97865000D02*
X134675000Y-97865000D01*
X129475000Y-92725000D02*
X129475000Y-97865000D01*
X134675000Y-90125000D02*
X134675000Y-97865000D01*
X129475000Y-92725000D02*
X132075000Y-92725000D01*
X132075000Y-92725000D02*
X132075000Y-90125000D01*
X132075000Y-90125000D02*
X134675000Y-90125000D01*
X129475000Y-91455000D02*
X129475000Y-90125000D01*
X129475000Y-90125000D02*
X130805000Y-90125000D01*
%TO.C,SW3*%
X146360000Y-76720000D02*
X146360000Y-78220000D01*
X152110000Y-74220000D02*
X147610000Y-74220000D01*
X153360000Y-78220000D02*
X153360000Y-76720000D01*
X147610000Y-80720000D02*
X152110000Y-80720000D01*
%TO.C,SW2*%
X147760000Y-90880000D02*
X152260000Y-90880000D01*
X153510000Y-88380000D02*
X153510000Y-86880000D01*
X152260000Y-84380000D02*
X147760000Y-84380000D01*
X146510000Y-86880000D02*
X146510000Y-88380000D01*
%TO.C,SW1*%
X147760000Y-101040000D02*
X152260000Y-101040000D01*
X153510000Y-98540000D02*
X153510000Y-97040000D01*
X152260000Y-94540000D02*
X147760000Y-94540000D01*
X146510000Y-97040000D02*
X146510000Y-98540000D01*
%TO.C,C3*%
X111386233Y-99570000D02*
X111678767Y-99570000D01*
X111386233Y-98550000D02*
X111678767Y-98550000D01*
%TO.C,C2*%
X118966267Y-98550000D02*
X118673733Y-98550000D01*
X118966267Y-99570000D02*
X118673733Y-99570000D01*
%TO.C,TP7*%
X128660000Y-109855000D02*
G75*
G03*
X128660000Y-109855000I-950000J0D01*
G01*
%TO.C,TP6*%
X115960000Y-109855000D02*
G75*
G03*
X115960000Y-109855000I-950000J0D01*
G01*
%TO.C,TP5*%
X176920000Y-107660000D02*
G75*
G03*
X176920000Y-107660000I-950000J0D01*
G01*
%TO.C,TP4*%
X158430000Y-109220000D02*
G75*
G03*
X158430000Y-109220000I-950000J0D01*
G01*
%TO.C,TP3*%
X122870000Y-100330000D02*
G75*
G03*
X122870000Y-100330000I-950000J0D01*
G01*
%TO.C,TP2*%
X109535000Y-101600000D02*
G75*
G03*
X109535000Y-101600000I-950000J0D01*
G01*
%TO.C,TP1*%
X123580000Y-73370000D02*
G75*
G03*
X123580000Y-73370000I-950000J0D01*
G01*
%TO.C,R2*%
X164577500Y-87442776D02*
X164577500Y-87952224D01*
X165622500Y-87442776D02*
X165622500Y-87952224D01*
%TO.C,R1*%
X164577500Y-75032776D02*
X164577500Y-75542224D01*
X165622500Y-75032776D02*
X165622500Y-75542224D01*
%TO.C,J4*%
X160730000Y-118600000D02*
G75*
G03*
X161413318Y-118454756I0J1680000D01*
G01*
X162265001Y-117604000D02*
G75*
G03*
X162265427Y-116236958I-1535001J684000D01*
G01*
X161414000Y-115384999D02*
G75*
G03*
X160046958Y-115384573I-684000J-1535001D01*
G01*
X159194999Y-116236000D02*
G75*
G03*
X159194573Y-117603042I1535001J-684000D01*
G01*
X160046000Y-118455000D02*
G75*
G03*
X160758805Y-118600253I684000J1535000D01*
G01*
X167490000Y-116920000D02*
G75*
G03*
X167490000Y-116920000I-1680000J0D01*
G01*
X172570000Y-116920000D02*
G75*
G03*
X172570000Y-116920000I-1680000J0D01*
G01*
X177650000Y-116920000D02*
G75*
G03*
X177650000Y-116920000I-1680000J0D01*
G01*
X158130000Y-121020000D02*
X178570000Y-121020000D01*
X158130000Y-119520000D02*
X178570000Y-119520000D01*
X158130000Y-114619000D02*
X178570000Y-114619000D01*
X158130000Y-111659000D02*
X178570000Y-111659000D01*
X158130000Y-121580000D02*
X178570000Y-121580000D01*
X158130000Y-111659000D02*
X158130000Y-121580000D01*
X178570000Y-111659000D02*
X178570000Y-121580000D01*
X167085000Y-115851000D02*
X167038000Y-115897000D01*
X164776000Y-118159000D02*
X164741000Y-118194000D01*
X166880000Y-115645000D02*
X166845000Y-115681000D01*
X164583000Y-117943000D02*
X164536000Y-117989000D01*
X172165000Y-115851000D02*
X172118000Y-115897000D01*
X169856000Y-118159000D02*
X169821000Y-118194000D01*
X171960000Y-115645000D02*
X171925000Y-115681000D01*
X169663000Y-117943000D02*
X169616000Y-117989000D01*
X177245000Y-115851000D02*
X177198000Y-115897000D01*
X174936000Y-118159000D02*
X174901000Y-118194000D01*
X177040000Y-115645000D02*
X177005000Y-115681000D01*
X174743000Y-117943000D02*
X174696000Y-117989000D01*
X157890000Y-121080000D02*
X157890000Y-121820000D01*
X157890000Y-121820000D02*
X158390000Y-121820000D01*
%TO.C,J3*%
X112470006Y-118600010D02*
G75*
G03*
X113153324Y-118454766I0J1680000D01*
G01*
X114005007Y-117604010D02*
G75*
G03*
X114005433Y-116236968I-1535001J684000D01*
G01*
X113154006Y-115385009D02*
G75*
G03*
X111786964Y-115384583I-684000J-1535001D01*
G01*
X110935005Y-116236010D02*
G75*
G03*
X110934579Y-117603052I1535001J-684000D01*
G01*
X111786006Y-118455010D02*
G75*
G03*
X112498811Y-118600263I684000J1535000D01*
G01*
X119230006Y-116920010D02*
G75*
G03*
X119230006Y-116920010I-1680000J0D01*
G01*
X124310006Y-116920010D02*
G75*
G03*
X124310006Y-116920010I-1680000J0D01*
G01*
X129390006Y-116920010D02*
G75*
G03*
X129390006Y-116920010I-1680000J0D01*
G01*
X109870006Y-121020010D02*
X130310006Y-121020010D01*
X109870006Y-119520010D02*
X130310006Y-119520010D01*
X109870006Y-114619010D02*
X130310006Y-114619010D01*
X109870006Y-111659010D02*
X130310006Y-111659010D01*
X109870006Y-121580010D02*
X130310006Y-121580010D01*
X109870006Y-111659010D02*
X109870006Y-121580010D01*
X130310006Y-111659010D02*
X130310006Y-121580010D01*
X118825006Y-115851010D02*
X118778006Y-115897010D01*
X116516006Y-118159010D02*
X116481006Y-118194010D01*
X118620006Y-115645010D02*
X118585006Y-115681010D01*
X116323006Y-117943010D02*
X116276006Y-117989010D01*
X123905006Y-115851010D02*
X123858006Y-115897010D01*
X121596006Y-118159010D02*
X121561006Y-118194010D01*
X123700006Y-115645010D02*
X123665006Y-115681010D01*
X121403006Y-117943010D02*
X121356006Y-117989010D01*
X128985006Y-115851010D02*
X128938006Y-115897010D01*
X126676006Y-118159010D02*
X126641006Y-118194010D01*
X128780006Y-115645010D02*
X128745006Y-115681010D01*
X126483006Y-117943010D02*
X126436006Y-117989010D01*
X109630006Y-121080010D02*
X109630006Y-121820010D01*
X109630006Y-121820010D02*
X110130006Y-121820010D01*
%TO.C,J2*%
X177170000Y-72440000D02*
X176670000Y-72940000D01*
X176170000Y-72440000D02*
X177170000Y-72440000D01*
X176670000Y-72940000D02*
X176170000Y-72440000D01*
X168110000Y-89865000D02*
X173670000Y-89865000D01*
X168110000Y-73135000D02*
X173670000Y-73135000D01*
X168110000Y-73135000D02*
X168110000Y-89865000D01*
X184080000Y-89865000D02*
X176470000Y-89865000D01*
X184080000Y-73135000D02*
X176470000Y-73135000D01*
X184080000Y-73135000D02*
X184080000Y-89865000D01*
%TO.C,J1*%
X112225000Y-89055000D02*
X103625000Y-89055000D01*
X103625000Y-79855000D02*
X118125000Y-79855000D01*
X118125000Y-87055000D02*
X118125000Y-89055000D01*
X118125000Y-89055000D02*
X116825000Y-89055000D01*
X118425000Y-81255000D02*
X118425000Y-79555000D01*
X103625000Y-89055000D02*
X103625000Y-79855000D01*
X118125000Y-79855000D02*
X118125000Y-81855000D01*
X118425000Y-79555000D02*
X117125000Y-79555000D01*
%TO.C,Y1*%
X166570000Y-103835000D02*
G75*
G03*
X166570000Y-98785000I0J2525000D01*
G01*
X160170000Y-98785000D02*
G75*
G03*
X160170000Y-103835000I0J-2525000D01*
G01*
X160170000Y-103835000D02*
X166570000Y-103835000D01*
X160170000Y-98785000D02*
X166570000Y-98785000D01*
%TO.C,U2*%
X113159000Y-97885000D02*
X113159000Y-96375000D01*
X116860000Y-97885000D02*
X116860000Y-96375000D01*
X120130000Y-96375000D02*
X109890000Y-96375000D01*
X109890000Y-97885000D02*
X109890000Y-93244000D01*
X120130000Y-97885000D02*
X120130000Y-93244000D01*
X120130000Y-93244000D02*
X109890000Y-93244000D01*
X120130000Y-97885000D02*
X109890000Y-97885000D01*
%TO.C,SW4*%
X171910000Y-99000000D02*
X171910000Y-100500000D01*
X177660000Y-96500000D02*
X173160000Y-96500000D01*
X178910000Y-100500000D02*
X178910000Y-99000000D01*
X173160000Y-103000000D02*
X177660000Y-103000000D01*
%TO.C,R6*%
X161252500Y-108272224D02*
X161252500Y-107762776D01*
X160207500Y-108272224D02*
X160207500Y-107762776D01*
%TO.C,R5*%
X171412500Y-107762776D02*
X171412500Y-108272224D01*
X170367500Y-107762776D02*
X170367500Y-108272224D01*
%TO.C,R10*%
X138177334Y-97377158D02*
X138686782Y-97377158D01*
X138177334Y-96332158D02*
X138686782Y-96332158D01*
%TO.C,R9*%
X138175276Y-90857770D02*
X138684724Y-90857770D01*
X138175276Y-89812770D02*
X138684724Y-89812770D01*
%TO.C,R8*%
X138202821Y-82458245D02*
X138712269Y-82458245D01*
X138202821Y-83503245D02*
X138712269Y-83503245D01*
%TO.C,R7*%
X125067224Y-96752500D02*
X124557776Y-96752500D01*
X125067224Y-95707500D02*
X124557776Y-95707500D01*
%TO.C,R4*%
X153415276Y-118342500D02*
X153924724Y-118342500D01*
X153415276Y-117297500D02*
X153924724Y-117297500D01*
%TO.C,R3*%
X134162776Y-73892500D02*
X134672224Y-73892500D01*
X134162776Y-72847500D02*
X134672224Y-72847500D01*
%TO.C,D5*%
X124370000Y-91885000D02*
X126830000Y-91885000D01*
X126830000Y-91885000D02*
X126830000Y-90415000D01*
X126830000Y-90415000D02*
X124370000Y-90415000D01*
%TO.C,D4*%
X139230000Y-79135000D02*
X136770000Y-79135000D01*
X136770000Y-79135000D02*
X136770000Y-80605000D01*
X136770000Y-80605000D02*
X139230000Y-80605000D01*
%TO.C,D3*%
X136770000Y-88075000D02*
X139230000Y-88075000D01*
X136770000Y-86605000D02*
X136770000Y-88075000D01*
X139230000Y-86605000D02*
X136770000Y-86605000D01*
%TO.C,D2*%
X136770000Y-94575000D02*
X139230000Y-94575000D01*
X136770000Y-93105000D02*
X136770000Y-94575000D01*
X139230000Y-93105000D02*
X136770000Y-93105000D01*
%TO.C,D1*%
X126515000Y-74105000D02*
X128975000Y-74105000D01*
X128975000Y-74105000D02*
X128975000Y-72635000D01*
X128975000Y-72635000D02*
X126515000Y-72635000D01*
%TO.C,C5*%
X150423733Y-106900000D02*
X150716267Y-106900000D01*
X150423733Y-105880000D02*
X150716267Y-105880000D01*
%TO.C,C4*%
X156658767Y-105880000D02*
X156366233Y-105880000D01*
X156658767Y-106900000D02*
X156366233Y-106900000D01*
%TO.C,C1*%
X128681250Y-77206250D02*
X127893750Y-77206250D01*
X128287500Y-76812500D02*
X128287500Y-77600000D01*
X124094437Y-77840000D02*
X123030000Y-78904437D01*
X128785563Y-77840000D02*
X129850000Y-78904437D01*
X128785563Y-77840000D02*
X127500000Y-77840000D01*
X124094437Y-77840000D02*
X125380000Y-77840000D01*
X123030000Y-78904437D02*
X123030000Y-84660000D01*
X129850000Y-78904437D02*
X129850000Y-84660000D01*
X129850000Y-84660000D02*
X127500000Y-84660000D01*
X123030000Y-84660000D02*
X125380000Y-84660000D01*
%TO.C,C8*%
X133913733Y-113500000D02*
X134206267Y-113500000D01*
X133913733Y-114520000D02*
X134206267Y-114520000D01*
%TO.C,C7*%
X134206267Y-111980000D02*
X133913733Y-111980000D01*
X134206267Y-110960000D02*
X133913733Y-110960000D01*
%TO.C,C6*%
X153418733Y-110960000D02*
X153711267Y-110960000D01*
X153418733Y-111980000D02*
X153711267Y-111980000D01*
D11*
%TO.C,U1*%
X147437500Y-116805000D02*
X147437500Y-116580000D01*
X140187500Y-116805000D02*
X140187500Y-116480000D01*
X140187500Y-109555000D02*
X140187500Y-109880000D01*
X147437500Y-109555000D02*
X147437500Y-109880000D01*
X147437500Y-116805000D02*
X147112500Y-116805000D01*
X147437500Y-109555000D02*
X147112500Y-109555000D01*
X140187500Y-109555000D02*
X140512500Y-109555000D01*
X140187500Y-116805000D02*
X140512500Y-116805000D01*
X147437500Y-116580000D02*
X148862500Y-116580000D01*
D12*
%TO.C,Q2*%
X122590000Y-103120000D02*
X132830000Y-103120000D01*
X122590000Y-107761000D02*
X132830000Y-107761000D01*
X122590000Y-103120000D02*
X122590000Y-107761000D01*
X132830000Y-103120000D02*
X132830000Y-107761000D01*
X122590000Y-104630000D02*
X132830000Y-104630000D01*
X125860000Y-103120000D02*
X125860000Y-104630000D01*
X129561000Y-103120000D02*
X129561000Y-104630000D01*
%TO.C,Q1*%
X109890000Y-103120000D02*
X120130000Y-103120000D01*
X109890000Y-107761000D02*
X120130000Y-107761000D01*
X109890000Y-103120000D02*
X109890000Y-107761000D01*
X120130000Y-103120000D02*
X120130000Y-107761000D01*
X109890000Y-104630000D02*
X120130000Y-104630000D01*
X113160000Y-103120000D02*
X113160000Y-104630000D01*
X116861000Y-103120000D02*
X116861000Y-104630000D01*
%TD*%
M02*
